<svg width="34" height="31" fill="none" xmlns="http://www.w3.org/2000/svg"><g clip-path="url(#a)" fill="#000"><path d="M1.954 29.934a.41.41 0 0 0 .125.3.41.41 0 0 0 .3.125.41.41 0 0 0 .301-.125.41.41 0 0 0 .125-.3.41.41 0 0 0-.125-.3.41.41 0 0 0-.3-.125.41.41 0 0 0-.301.125.41.41 0 0 0-.125.3Zm-.018-.006c0 .122.043.227.13.313.086.087.191.13.314.13a.428.428 0 0 0 .313-.13.428.428 0 0 0 .13-.313.428.428 0 0 0-.13-.314.428.428 0 0 0-.313-.13.428.428 0 0 0-.314.13.428.428 0 0 0-.13.314Zm-.07-.013c0 .138.05.256.147.354a.482.482 0 0 0 .354.146.482.482 0 0 0 .354-.146.482.482 0 0 0 .146-.354.482.482 0 0 0-.146-.353.482.482 0 0 0-.354-.147.482.482 0 0 0-.354.147.482.482 0 0 0-.146.353Zm-.1-.012a.55.55 0 0 0 .17.406.554.554 0 0 0 .406.169.554.554 0 0 0 .407-.169.554.554 0 0 0 .168-.406.554.554 0 0 0-.168-.407.554.554 0 0 0-.407-.168.554.554 0 0 0-.407.168.554.554 0 0 0-.168.407Zm.926-.55-.056-.044a.742.742 0 0 0-.069-.044l-.075-.05c.047.049.099.09.156.125l-.075-.075a.79.79 0 0 0 .188.319l-.019-.063-.012-.118-.02-.25v-.35l.038-.463.075-.55.144-.62.213-.687.237-.687.275-.644.294-.594.3-.519.3-.406.294-.294.319-.2.369-.131.418-.063.482.013.494.03a.846.846 0 0 0 .406-.074l.169-.075h.087l.119.1c.146.093.276.074.389-.057.113-.132.112-.263-.001-.393l-.144-.125-.081-.181-.057-.244a.818.818 0 0 0-.45-.575l-.469-.232a.955.955 0 0 0-.28-.087l-.576-.088a1 1 0 0 0-.231-.006l-.613.05c-.079.006-.156.02-.231.044l-.582.193c-.077.027-.15.063-.218.107l-.507.319a1.02 1.02 0 0 0-.175.137l-.431.425a1.034 1.034 0 0 0-.106.119l-.382.519a1.017 1.017 0 0 0-.068.1l-.344.594a1.033 1.033 0 0 0-.05.1l-.288.656a1.023 1.023 0 0 0-.019.05l-.275.713a.967.967 0 0 0-.018.05l-.244.744-.006.03-.213.739a.99.99 0 0 0-.019.068l-.15.694a.982.982 0 0 0-.019.094l-.068.625a.969.969 0 0 0-.007.094l-.012.531a.956.956 0 0 0 .006.138l.05.412a.93.93 0 0 0 .031.157l.094.293a.89.89 0 0 0 .094.22l.119.187c.062.1.14.183.237.25l.12.075c.08.058.17.1.268.125l.106.025a.756.756 0 0 0 .381-.013l.082-.018a.732.732 0 0 0 .162-.07l.063-.037a.672.672 0 0 0 .348-.547.671.671 0 0 0-.059-.329.67.67 0 0 0-.208-.261Zm16.39-5.939c0 .122.044.227.13.314.087.086.192.13.314.13a.428.428 0 0 0 .314-.13.428.428 0 0 0 .13-.314.428.428 0 0 0-.13-.314.428.428 0 0 0-.314-.13.428.428 0 0 0-.314.13.428.428 0 0 0-.13.314Zm-.006-.006c0 .124.044.23.132.318a.434.434 0 0 0 .318.132c.125 0 .23-.044.319-.132a.434.434 0 0 0 .131-.318.433.433 0 0 0-.131-.319.433.433 0 0 0-.319-.131.434.434 0 0 0-.318.132.434.434 0 0 0-.132.318Zm-.037-.032c0 .137.048.253.144.35a.476.476 0 0 0 .35.144.476.476 0 0 0 .349-.144.476.476 0 0 0 .144-.35.476.476 0 0 0-.144-.349.476.476 0 0 0-.35-.145.476.476 0 0 0-.349.145.476.476 0 0 0-.144.35Zm-.088-.056c0 .164.058.304.174.42a.572.572 0 0 0 .42.174.572.572 0 0 0 .42-.174.572.572 0 0 0 .174-.42.572.572 0 0 0-.174-.42.572.572 0 0 0-.42-.174.572.572 0 0 0-.42.174.572.572 0 0 0-.174.42Zm.375.588.013.006a.78.78 0 0 0 .244.05h.068c.05.002.1 0 .15-.006l.157-.019h.006l.169-.025h.156l.219.05.275.1.269.15.243.2.225.3.213.444.156.569.069.681-.019.707-.075.681a.685.685 0 0 0-.006.019l-.056.6a1.045 1.045 0 0 0 0 .156l.018.419c.021.405.224.672.607.801.384.13.707.04.969-.27l.269-.319c.08-.093.143-.197.187-.312l.213-.556a1.15 1.15 0 0 0 .056-.226l.119-.73c.008-.059.013-.117.012-.176l.007-.831c0-.042-.002-.084-.007-.125l-.087-.844a1.142 1.142 0 0 0-.038-.181l-.206-.763a1.134 1.134 0 0 0-.094-.238l-.331-.625a1.128 1.128 0 0 0-.156-.225l-.413-.463a1.107 1.107 0 0 0-.181-.156l-.444-.325a1.085 1.085 0 0 0-.244-.131l-.456-.175a1.043 1.043 0 0 0-.12-.044l-.43-.106a1.022 1.022 0 0 0-.182-.031l-.387-.025a1.008 1.008 0 0 0-.213.006l-.331.044a.975.975 0 0 0-.338.112l-.218.119a.922.922 0 0 0-.294.256l-.094.125a.832.832 0 0 0-.169.632l.006.068a.771.771 0 0 0 .232.463l.012.012a.71.71 0 0 0 .25.157Zm2.995 5.157-.082.15c-.07.171-.024.3.139.387.163.088.296.054.399-.1l.081-.15c.071-.17.025-.3-.138-.387-.163-.087-.296-.054-.4.1Zm8.452-20.641c0 .1.035.185.106.256a.35.35 0 0 0 .256.106.35.35 0 0 0 .257-.106.35.35 0 0 0 .106-.256.35.35 0 0 0-.106-.257.35.35 0 0 0-.256-.106.35.35 0 0 0-.257.106.35.35 0 0 0-.106.257Zm-.081 0c0 .119.042.22.126.305a.416.416 0 0 0 .305.126c.12 0 .22-.042.305-.126a.416.416 0 0 0 .126-.305.414.414 0 0 0-.126-.305.416.416 0 0 0-.305-.127c-.12 0-.22.042-.305.127a.416.416 0 0 0-.126.305Zm-.082-.02c0 .135.048.25.143.345a.47.47 0 0 0 .345.143.47.47 0 0 0 .345-.143.47.47 0 0 0 .143-.344.47.47 0 0 0-.143-.345.47.47 0 0 0-.345-.143.47.47 0 0 0-.345.143.47.47 0 0 0-.143.345Zm-.068-.018c0 .147.051.272.155.376a.512.512 0 0 0 .376.155.512.512 0 0 0 .376-.155.512.512 0 0 0 .155-.376.512.512 0 0 0-.155-.376.512.512 0 0 0-.376-.155.512.512 0 0 0-.376.155.512.512 0 0 0-.155.376Zm-.163-.019c0 .183.065.34.194.469.13.13.286.194.469.194s.339-.065.468-.194a.638.638 0 0 0 .194-.469.638.638 0 0 0-.194-.468.639.639 0 0 0-.468-.194.638.638 0 0 0-.469.194.638.638 0 0 0-.194.468Zm-.094 0c0 .202.072.375.215.517a.705.705 0 0 0 .517.215.705.705 0 0 0 .517-.215.705.705 0 0 0 .214-.517.705.705 0 0 0-.214-.517.705.705 0 0 0-.517-.214.705.705 0 0 0-.517.214.705.705 0 0 0-.215.517Zm.07-.406-.07.094a.856.856 0 0 0-.125.275l-.075.281a.925.925 0 0 0-.018.125l-.057.475a1.004 1.004 0 0 0-.006.081l-.019.67a4.837 4.837 0 0 0-.006.012l-.012.831-.038.907-.05.9a.59.59 0 0 0 0 .019l-.025.806a1.451 1.451 0 0 0-.006.013l-.013.7-.012.581-.025.469-.013.331-.018.231-.02.138-.012.056-.025.069-.037.094a1.04 1.04 0 0 0-.056.262l-.013.094a1.034 1.034 0 0 0 0 .169l.006.075a.96.96 0 0 0 .006.056l.007.056c.027.23.122.427.286.59a.967.967 0 0 0 .592.283.967.967 0 0 0 .639-.147.968.968 0 0 0 .408-.513l.006-.025.007-.019.025-.05a.935.935 0 0 0 .018-.037l.05-.107a.953.953 0 0 0 .038-.106l.044-.131c.01-.029.017-.058.025-.088l.037-.162c.008-.037.015-.075.019-.113l.025-.206.006-.025.025-.269v-.037l.019-.363a.935.935 0 0 0 .006-.05v-.475l.013-.588v-.006l.012-.694.019-.787.037-.9v-.02l.025-.925v-.868a1.05 1.05 0 0 0-.006-.05l-.031-.67a.936.936 0 0 0-.006-.062l-.057-.475a.955.955 0 0 0-.012-.087l-.056-.282a.857.857 0 0 0-.063-.175l-.05-.106a.78.78 0 0 0-.263-.316.781.781 0 0 0-.385-.142.78.78 0 0 0-.405.07.78.78 0 0 0-.316.263Zm-.689 8.783c0 .26.093.483.277.667a.91.91 0 0 0 .667.277.91.91 0 0 0 .668-.277.91.91 0 0 0 .276-.667.91.91 0 0 0-.276-.668.91.91 0 0 0-.668-.276.91.91 0 0 0-.667.276.91.91 0 0 0-.277.668Zm.232.012a.68.68 0 0 0 .207.5.68.68 0 0 0 .5.207.68.68 0 0 0 .499-.207.68.68 0 0 0 .207-.5.68.68 0 0 0-.207-.5.68.68 0 0 0-.5-.206.68.68 0 0 0-.5.207.68.68 0 0 0-.206.5Zm.987-.118-.012-.038c-.063-.192-.19-.256-.381-.194-.192.063-.257.19-.194.382l.012.037c.063.192.19.256.382.194.191-.063.256-.19.193-.381Z"/><path d="M27.065 12.78a.43.43 0 0 0 .13.314c.087.087.192.13.314.13a.428.428 0 0 0 .314-.13.428.428 0 0 0 .13-.314.428.428 0 0 0-.13-.313.428.428 0 0 0-.314-.13.428.428 0 0 0-.314.13.428.428 0 0 0-.13.313Zm-.018 0c0 .128.045.237.135.327.09.09.2.136.327.136a.446.446 0 0 0 .327-.136.446.446 0 0 0 .136-.327.446.446 0 0 0-.136-.327.446.446 0 0 0-.327-.135.446.446 0 0 0-.327.135c-.09.09-.135.2-.135.327Zm-.1-.025a.53.53 0 0 0 .16.39.53.53 0 0 0 .39.16.53.53 0 0 0 .389-.16.53.53 0 0 0 .16-.39.53.53 0 0 0-.16-.389.53.53 0 0 0-.39-.16.53.53 0 0 0-.388.16.53.53 0 0 0-.161.39Zm-.12-.037c0 .18.064.333.191.46s.28.19.46.19.333-.063.46-.19a.627.627 0 0 0 .19-.46.627.627 0 0 0-.19-.46.627.627 0 0 0-.46-.19.627.627 0 0 0-.46.19.627.627 0 0 0-.19.46Zm-.13-.05a.74.74 0 0 0 .225.543.74.74 0 0 0 .543.226.74.74 0 0 0 .544-.226.74.74 0 0 0 .225-.543.74.74 0 0 0-.225-.544.74.74 0 0 0-.544-.225.741.741 0 0 0-.543.225.741.741 0 0 0-.226.544Zm-.12-.05c0 .245.087.454.26.627.174.174.383.26.628.26a.855.855 0 0 0 .628-.26.856.856 0 0 0 .26-.627.855.855 0 0 0-.26-.628.855.855 0 0 0-.628-.26.855.855 0 0 0-.627.26.855.855 0 0 0-.26.628Zm.72.894.037.006.044.006.137.019.044.006.275.025.394.044.044.006.481.038.519.043h.038l.568.032h.082l.587-.013.069-.006.575-.044.031-.006.488-.056a.26.26 0 0 0 .012 0l.344-.044.238-.012h.162l.057.006h.037c.052.01.104.016.156.019h.044c.489.016.83-.2 1.024-.649.194-.449.117-.845-.23-1.19l-.031-.03a1.08 1.08 0 0 0-.4-.257l-.094-.031a1.094 1.094 0 0 0-.269-.063l-.156-.012a1.128 1.128 0 0 0-.094-.007h-.225a1.128 1.128 0 0 0-.094 0l-.3.026a1.059 1.059 0 0 0-.068.006l-.376.05-.462.056-.525.044-.513.012-.519-.018-.5-.044h-.056l-.488-.013h-.056l-.406.007a1.051 1.051 0 0 0-.082.006l-.28.025a1.033 1.033 0 0 0-.22.05l-.13.037c-.396.127-.624.396-.682.807v.031a.923.923 0 0 0 .164.7c.149.21.35.34.605.388Zm4.482-.988a1 1 0 0 0 .304.734 1 1 0 0 0 .733.304 1 1 0 0 0 .734-.304 1 1 0 0 0 .304-.734 1 1 0 0 0-.304-.734 1 1 0 0 0-.733-.304 1 1 0 0 0-.734.304 1 1 0 0 0-.304.734Zm.062.013c0 .27.096.502.288.693a.946.946 0 0 0 .694.288.946.946 0 0 0 .694-.288.946.946 0 0 0 .287-.694.946.946 0 0 0-.287-.694.946.946 0 0 0-.694-.287.946.946 0 0 0-.694.287.946.946 0 0 0-.288.694Zm.307.012c0 .188.066.349.2.482.132.133.293.2.481.2a.656.656 0 0 0 .482-.2.656.656 0 0 0 .2-.482.657.657 0 0 0-.2-.482.657.657 0 0 0-.482-.2.657.657 0 0 0-.482.2.656.656 0 0 0-.2.482Zm.4.019v.012c0 .192.096.288.287.288.192 0 .288-.096.288-.288v-.012c0-.192-.096-.288-.288-.288-.191 0-.287.096-.287.288ZM6.912 22.301c0 .095.033.176.1.243s.149.1.243.1a.331.331 0 0 0 .244-.1.331.331 0 0 0 .1-.243.331.331 0 0 0-.1-.243.331.331 0 0 0-.244-.1.331.331 0 0 0-.243.1.331.331 0 0 0-.1.243Zm-.15.006c0 .133.047.247.14.34a.463.463 0 0 0 .34.142.464.464 0 0 0 .341-.141.464.464 0 0 0 .141-.34.464.464 0 0 0-.14-.34.464.464 0 0 0-.341-.142.464.464 0 0 0-.34.141.464.464 0 0 0-.141.34Zm-.125.02c0 .158.056.293.168.406a.554.554 0 0 0 .407.168.554.554 0 0 0 .406-.168.554.554 0 0 0 .169-.407.554.554 0 0 0-.169-.407.554.554 0 0 0-.406-.168.554.554 0 0 0-.407.168.554.554 0 0 0-.168.407Zm-.1.03c0 .177.062.327.186.451a.614.614 0 0 0 .451.187.614.614 0 0 0 .451-.187.614.614 0 0 0 .187-.45.614.614 0 0 0-.187-.451.614.614 0 0 0-.45-.187.614.614 0 0 0-.452.187.614.614 0 0 0-.186.45Zm-.107.044c0 .197.07.365.209.504.14.14.307.209.504.209s.365-.07.504-.209a.687.687 0 0 0 .209-.504.687.687 0 0 0-.21-.504.686.686 0 0 0-.503-.208.686.686 0 0 0-.504.208.687.687 0 0 0-.209.504Zm-.081.063v.062c.011.294.14.522.388.682l.106.068a.861.861 0 0 0 .212.1l.207.063a.861.861 0 0 0 .143.031l.288.038a.863.863 0 0 0 .113.006h.406l.344-.025a.795.795 0 0 0 .037-.006l.325-.038a.921.921 0 0 0 .044-.006l.288-.05a.854.854 0 0 0 .162-.044l.256-.094a.86.86 0 0 0 .244-.143l.231-.194a.863.863 0 0 0 .144-.157l.22-.293a.885.885 0 0 0 .068-.113l.194-.381a.877.877 0 0 0 .062-.144l.138-.463a.822.822 0 0 0 .03-.218l.013-.494.05-1.307c.005-.14-.06-.232-.193-.276-.133-.044-.24-.008-.32.108l-.718 1.062-.3.363a.822.822 0 0 0-.088.144l-.225.418a.745.745 0 0 0-.006.02l-.162.324-.113.17-.037.024-.013.006-.175.025-.3.032-.294.025h-.256l-.163-.025-.112-.032-.094-.037a.854.854 0 0 0-.163-.038l-.062-.012a.791.791 0 0 0-.652.194.791.791 0 0 0-.267.625Zm11.683-.656a.41.41 0 0 0 .125.3.41.41 0 0 0 .3.125.41.41 0 0 0 .301-.125.41.41 0 0 0 .125-.3.41.41 0 0 0-.125-.3.41.41 0 0 0-.3-.125.41.41 0 0 0-.301.124.41.41 0 0 0-.125.3Zm.788-.219-.006-.019a.44.44 0 0 0-.28-.212.44.44 0 0 0-.347.05.44.44 0 0 0-.21.28.44.44 0 0 0 .051.347.44.44 0 0 0 .283.208.44.44 0 0 0 .346-.054l.02-.006a.422.422 0 0 0 .192-.268.422.422 0 0 0-.049-.326Zm-.938.2c0 .142.05.262.15.362.1.1.221.15.363.15s.262-.05.362-.15c.1-.1.15-.22.15-.362a.494.494 0 0 0-.15-.362c-.1-.1-.22-.15-.362-.15a.494.494 0 0 0-.363.15c-.1.1-.15.22-.15.362Zm-.087-.019c0 .163.057.301.172.416a.566.566 0 0 0 .415.172.565.565 0 0 0 .416-.172.566.566 0 0 0 .172-.416c0-.162-.057-.3-.172-.415a.566.566 0 0 0-.416-.172c-.162 0-.3.057-.415.172a.566.566 0 0 0-.172.415Zm-.063.007a.64.64 0 0 0 .194.468c.13.13.286.194.469.194s.34-.064.468-.194a.638.638 0 0 0 .195-.468.639.639 0 0 0-.195-.469.639.639 0 0 0-.468-.194.638.638 0 0 0-.469.194.639.639 0 0 0-.194.469Zm-.018.162.025.131c.004.034.01.067.018.1l.07.232a.789.789 0 0 0 .068.168l.15.27c.025.046.054.09.087.13l.232.288a.947.947 0 0 0 .13.131l.295.238c.071.06.15.108.237.144l.363.143c.173.068.35.08.531.038l.356-.081c.357-.08.555-.302.596-.664.04-.363-.104-.623-.433-.78l-.331-.163a.91.91 0 0 0-.056-.025l-.244-.094-.144-.112-.169-.175-.156-.219a.86.86 0 0 0-.1-.106l-.181-.169a.797.797 0 0 0-.107-.081l-.112-.075a.677.677 0 0 0-.803-.004.677.677 0 0 0-.323.735Zm2.869 1.425.287-.1c.2-.07.265-.206.194-.406-.07-.2-.206-.265-.406-.194l-.288.1c-.2.071-.264.207-.193.407.07.2.206.264.406.193Zm-.406-15.222c0 .112.04.208.119.287.079.08.175.12.287.12.112 0 .208-.04.287-.12a.391.391 0 0 0 .12-.287.391.391 0 0 0-.12-.287.391.391 0 0 0-.287-.12.391.391 0 0 0-.287.12.392.392 0 0 0-.12.287Zm-.057-.019a.45.45 0 0 0 .136.328c.09.09.2.135.327.135a.446.446 0 0 0 .327-.135c.09-.09.136-.2.136-.328a.446.446 0 0 0-.136-.327.446.446 0 0 0-.327-.135.446.446 0 0 0-.327.135c-.09.09-.136.2-.136.327Zm.844.325.132-.125a.681.681 0 0 0 .156-.237l.062-.169a.752.752 0 0 0 .044-.144l.038-.225.05-.275a.825.825 0 0 0 .012-.081l.031-.356a.853.853 0 0 0 0-.075v-.4a.896.896 0 0 0-.006-.075l-.037-.438a.807.807 0 0 0-.007-.044l-.068-.475a.94.94 0 0 0-.013-.069l-.113-.5a.856.856 0 0 0-.024-.081l-.17-.519a.885.885 0 0 0-.043-.1l-.238-.5a.87.87 0 0 0-.056-.1l-.306-.469a.864.864 0 0 0-.081-.1l-.363-.419a.864.864 0 0 0-.087-.08l-.42-.357a.88.88 0 0 0-.1-.075l-.456-.288a.865.865 0 0 0-.112-.062l-.488-.22a.88.88 0 0 0-.087-.03l-.513-.163a.88.88 0 0 0-.081-.025l-.532-.112a.89.89 0 0 0-.093-.02L16.45.986a.905.905 0 0 0-.131 0l-.557.018a.92.92 0 0 0-.1.013l-.55.081a.926.926 0 0 0-.112.025l-.544.156a.939.939 0 0 0-.088.025l-.544.213a.937.937 0 0 0-.08.037l-.52.27a.862.862 0 0 0-.037.018l-.5.281a.946.946 0 0 0-.063.038l-.481.325a.979.979 0 0 0-.063.044l-.444.356a.967.967 0 0 0-.056.05l-.4.381a1.015 1.015 0 0 0-.05.044l-.381.419a3.698 3.698 0 0 0-.007.006l-.393.438-.432.469-.468.487-.513.506-.519.457-.481.362-.388.238-.294.112-.225.044h-.218l-.22-.019-.13-.025-.057-.018.019.006h-.006a.985.985 0 0 0 .15.169l-.05-.075c.02.162.075.31.169.444l-.007-.057a.968.968 0 0 0-.05.45l.019-.05a.972.972 0 0 0-.2.332l.05-.057a.971.971 0 0 0 .144-.2l.037-.08a.9.9 0 0 0 .108-.43.9.9 0 0 0-.107-.43.9.9 0 0 0-.297-.328.9.9 0 0 0-.416-.15l-.088-.007a.945.945 0 0 0-.669.175l-.056.044a.962.962 0 0 0-.344.437l-.019.05a.968.968 0 0 0-.068.463l.006.056a.98.98 0 0 0 .15.432l.05.075a.985.985 0 0 0 .15.18l.081.082a.984.984 0 0 0 .194.144l.144.081c.046.027.094.05.144.069l.2.075c.05.021.102.038.156.05l.256.05c.033.006.067.01.1.013l.319.03c.04.003.08.003.119 0l.362-.005a.985.985 0 0 0 .157-.02l.4-.074a.986.986 0 0 0 .181-.05l.456-.181a.986.986 0 0 0 .15-.076l.507-.306a.99.99 0 0 0 .087-.062l.55-.42a.98.98 0 0 0 .057-.05l.562-.5a.593.593 0 0 0 .044-.043l.531-.538.02-.018.48-.513.007-.006.437-.475a.842.842 0 0 0 .025-.025l.382-.438.35-.394.35-.331.375-.306.419-.3.437-.27.45-.237.45-.194.45-.13.45-.082.457-.031.431.012.413.075.419.131.387.17.344.212.325.275.288.319.237.362.188.394.137.431.094.425.063.426.043.418.031.388.032.35c.002.015.003.03.006.044l.038.275.024.219a.733.733 0 0 0 .02.093l.043.175a.68.68 0 0 0 .113.238l.106.15a.508.508 0 0 0 .389.217.508.508 0 0 0 .417-.155ZM5.455 7.23c0 .161.057.298.17.412a.56.56 0 0 0 .411.17.56.56 0 0 0 .411-.17.56.56 0 0 0 .17-.412.56.56 0 0 0-.17-.41.56.56 0 0 0-.41-.17.56.56 0 0 0-.412.17.56.56 0 0 0-.17.41Zm.819.276.144-.032c.174-.07.242-.198.203-.382-.04-.184-.153-.274-.34-.268l-.145.031c-.174.071-.242.199-.203.383.04.184.153.273.34.268Z"/><path d="M5.974 7.28h-.025a.436.436 0 0 0-.106.012l-.057.013a.443.443 0 0 0-.03.006l-.082.025c.1.04.202.045.306.012l-.056-.018a.478.478 0 0 0-.354-.006.478.478 0 0 0-.267.232.478.478 0 0 0-.043.351c.03.123.098.22.203.29.105.07.22.097.345.08a.478.478 0 0 0 .31-.172l.037-.05A.444.444 0 0 0 6 8.18l.075-.038.044-.019a.433.433 0 0 0 .037-.018l.019-.013c.198-.105.27-.266.217-.484-.054-.218-.193-.328-.417-.329Zm-.863.5c0 .158.056.294.169.406a.554.554 0 0 0 .406.169.554.554 0 0 0 .407-.169.554.554 0 0 0 .168-.406.554.554 0 0 0-.168-.407.554.554 0 0 0-.407-.169.554.554 0 0 0-.406.169.554.554 0 0 0-.169.407Zm.844.556.088-.038.156-.056.181-.037h.244l.313.03.35.063.362.075.394.107a.854.854 0 0 0 .025.006l.425.1.413.094.381.119.381.13.388.145a.836.836 0 0 0 .037.012l.413.131a.85.85 0 0 0 .075.025l.45.094a.848.848 0 0 0 .094.019l.5.05a.848.848 0 0 0 .087.006h.52a.853.853 0 0 0 .068-.006l.506-.038a.865.865 0 0 0 .107-.018l.5-.107a.868.868 0 0 0 .137-.037l.475-.188A.88.88 0 0 0 14.082 9l.481-.225.006-.007.463-.219.412-.18.382-.12.362-.075.357-.012.387.037.425.075.463.125.044.007.506.112a.69.69 0 0 0 .462-.056l.12-.056.218.143c.158.105.29.078.394-.08.104-.16.077-.29-.081-.395l-.238-.15-.012-.15a.683.683 0 0 0-.275-.519l-.407-.318a.827.827 0 0 0-.212-.12l-.482-.187a.86.86 0 0 0-.143-.043l-.5-.1a.87.87 0 0 0-.088-.013l-.481-.044a.868.868 0 0 0-.12-.006l-.474.019a.867.867 0 0 0-.131.019l-.476.093a.866.866 0 0 0-.087.025l-.475.144a.873.873 0 0 0-.082.031l-.468.194a.849.849 0 0 0-.032.019l-.475.219-.462.219-.394.156-.381.094-.413.043-.444.013-.406-.031-.356-.07-.344-.105-.382-.144a.832.832 0 0 0-.03-.013l-.407-.137a.839.839 0 0 0-.056-.013l-.426-.112h-.012l-.438-.107v-.006l-.418-.1-.413-.1a.82.82 0 0 0-.044-.012l-.406-.075a.824.824 0 0 0-.063-.007l-.406-.043a.806.806 0 0 0-.131-.007l-.382.025a.775.775 0 0 0-.106.02l-.35.068a.737.737 0 0 0-.125.037l-.287.113a.713.713 0 0 0-.094.05l-.213.125a.675.675 0 0 0-.262.269l-.057.1c-.145.273-.113.522.098.749.21.226.457.277.74.15Z"/><path d="M8.412 8.743c0 .119.042.22.127.305a.416.416 0 0 0 .305.126c.119 0 .22-.042.305-.126a.416.416 0 0 0 .126-.305.414.414 0 0 0-.126-.305.416.416 0 0 0-.305-.127.411.411 0 0 0-.305.127.416.416 0 0 0-.127.305Zm.557-.425-.007-.007a.454.454 0 0 0-.043-.006l-.013-.006c.026.01.053.019.081.025l-.012-.006c-.232-.096-.425-.046-.582.15l-.05.056a.527.527 0 0 0-.093.169l-.057.175a.548.548 0 0 0-.018.087l-.057.344v.019l-.062.469a.52.52 0 0 0 0 .012l-.056.55v.013l-.057.581v.044l-.006.631v.031l.031.67.032.668.025.619v.006l.018.52.02.437v.012l.018.382v.018l.025.338v.012l.031.313a.485.485 0 0 0 .006.012l.038.294v.038l.05.275.05.275a.52.52 0 0 0 .006.012l.056.27a.6.6 0 0 0 .007.037l.08.28v.007l.088.288.082.312.081.344a.485.485 0 0 0 .006.013l.088.337a.561.561 0 0 0 .006.019l.094.313a.649.649 0 0 0 .012.037l.107.294a.643.643 0 0 0 .006.025l.119.281.012.031.125.257c.006.014.012.03.019.043l.137.238a.705.705 0 0 0 .038.069l.15.206a.766.766 0 0 0 .012.019l.15.194a.76.76 0 0 0 .032.037l.162.181c.014.016.029.03.044.044l.188.181a.737.737 0 0 0 .012.013l.2.175a.68.68 0 0 0 .044.037l.212.163.22.169.012.012.237.175.006.006.244.176a.76.76 0 0 0 .031.018l.25.175a.78.78 0 0 0 .05.025l.257.144a.727.727 0 0 0 .037.019l.257.125.03.019.263.112a.727.727 0 0 0 .044.013l.263.093.262.1a.74.74 0 0 0 .075.026l.27.068.018.006.25.057c.027.006.054.01.081.012l.25.025h.013l.25.025h.031l.263.013a.697.697 0 0 0 .1-.007l.268-.024a.658.658 0 0 0 .063-.013l.275-.05h.006l.513-.1a.507.507 0 0 0 .025-.006l.219-.05a.67.67 0 0 0 .15-.056l.206-.1h.006l.194-.107.194-.081.187-.081a.63.63 0 0 0 .057-.032l.162-.093a.556.556 0 0 0 .044-.038l.169-.119a.562.562 0 0 0 .037-.03l.181-.157a.537.537 0 0 0 .05-.05l.194-.225a.545.545 0 0 0 .069-.107l.175-.33a.482.482 0 0 0 .05-.207l.019-.3.137-.257c.069-.155.029-.274-.119-.358-.148-.083-.27-.055-.368.084l-.138.25-.25.137a.483.483 0 0 0-.106.081l-.263.27a.542.542 0 0 0-.03.03l-.163.188-.07.056-.068.025-.15.031a.607.607 0 0 0-.106.038l-.182.075-.187.075-.138.05-.15.012a.65.65 0 0 0-.05.007l-.225.031a.702.702 0 0 0-.025.006l-.475.094-.212.019-.207-.006-.225-.02-.243-.03a.26.26 0 0 0-.013 0l-.2-.02-.194-.043-.219-.063-.23-.08-.25-.095-.22-.1-.225-.118-.225-.125-.225-.15-.237-.163-.007-.006-.237-.163-.225-.162-.194-.144-.169-.144-.156-.144-.125-.137-.131-.169-.125-.162-.125-.207a.691.691 0 0 0-.007-.018l-.15-.238-.143-.231-.12-.238-.112-.256-.094-.281-.087-.332v-.012l-.088-.32-.075-.293-.068-.262-.057-.25-.043-.27-.05-.256-.038-.268-.025-.294-.025-.325-.019-.37-.006-.437a.485.485 0 0 0-.006-.012l-.025-.519-.025-.619a.64.64 0 0 0 0-.006l-.031-.663-.02-.656-.005-.613.012-.562.025-.538.044-.463v-.012l.019-.338.018-.18a.53.53 0 0 0 0-.088l-.006-.082a.47.47 0 0 0-.006-.012v-.019a.472.472 0 0 0-.006.144l.006-.013a.455.455 0 0 0-.019.07v-.013a.427.427 0 0 0-.02-.35.427.427 0 0 0-.267-.225Z"/><path d="M20.346 6.117c0 .112.04.208.119.287a.39.39 0 0 0 .287.119c.112 0 .208-.04.287-.119a.39.39 0 0 0 .12-.287.391.391 0 0 0-.12-.287.391.391 0 0 0-.287-.119.391.391 0 0 0-.287.12.391.391 0 0 0-.12.286Zm-.025 0c0 .12.042.22.126.305a.416.416 0 0 0 .305.126c.12 0 .22-.042.305-.126a.416.416 0 0 0 .126-.305.418.418 0 0 0-.126-.305.416.416 0 0 0-.305-.126c-.12 0-.22.042-.305.126a.416.416 0 0 0-.126.305Zm-.1 0c0 .147.052.272.155.376a.512.512 0 0 0 .376.155.512.512 0 0 0 .376-.155.512.512 0 0 0 .155-.376.512.512 0 0 0-.155-.376.512.512 0 0 0-.376-.155.512.512 0 0 0-.376.155.512.512 0 0 0-.155.376Zm.006-.219-.038.082a.65.65 0 0 0-.062.268v.207a.7.7 0 0 0 .006.08l.031.301a.7.7 0 0 0 .007.05l.075.394v.006l.093.469.088.494.081.494.075.475.057.444.043.425.032.425.024.393.007.357v.331l-.019.344-.031.363-.05.38-.063.382-.081.388-.081.387-.088.388-.094.381-.093.375-.113.382-.112.387-.113.381v.007l-.112.375-.113.344-.144.369-.181.406-.194.425-.212.419-.22.381-.268.475-.281.456-.275.375-.263.307-.231.225-.206.156-.2.125-.2.113-.194.1a.652.652 0 0 0-.194.15l-.125.137a.559.559 0 0 0-.125.257l-.019.087a.42.42 0 0 0 .269-.325l-.094.037a.429.429 0 0 0-.23.238.428.428 0 0 0-.003.33c.044.111.12.192.228.241a.43.43 0 0 0 .33.017l.094-.038a.419.419 0 0 0-.419-.056l.069.05a.55.55 0 0 0 .325.106l.181.006c.099 0 .193-.02.282-.062l.206-.1a.634.634 0 0 0 .037-.013l.232-.125.043-.03.244-.157a.632.632 0 0 0 .05-.031l.256-.2a.652.652 0 0 0 .057-.05l.275-.27a.59.59 0 0 0 .025-.024l.306-.344a.484.484 0 0 0 .013-.006l.337-.394a.59.59 0 0 0 .025-.025l.357-.45a.623.623 0 0 0 .024-.032l.32-.462a.73.73 0 0 0 .043-.063l.225-.4.013-.025.225-.444a.832.832 0 0 0 .012-.024l.206-.444a.484.484 0 0 0 .007-.013l.187-.425a.927.927 0 0 0 .013-.031l.156-.4a.824.824 0 0 0 .013-.038l.125-.381a.702.702 0 0 0 .006-.025l.112-.381v-.007l.113-.381v-.006l.112-.394.113-.394a.592.592 0 0 0 .006-.019l.1-.393v-.007l.094-.387.006-.02.081-.393.088-.394.006-.019.081-.406v-.018l.07-.407a.666.666 0 0 0 .005-.037l.05-.407a.59.59 0 0 0 0-.018l.044-.394V12l.006-.376a.26.26 0 0 0 0-.012v-.356a.26.26 0 0 0 0-.013l-.006-.381v-.025l-.025-.413a.59.59 0 0 0 0-.019l-.031-.437a.26.26 0 0 0 0-.013l-.044-.45a.827.827 0 0 0-.006-.031l-.063-.463v-.018l-.075-.475a.625.625 0 0 0-.006-.02l-.087-.506v-.006l-.1-.5V7.48l-.094-.475a.63.63 0 0 0-.006-.013l-.088-.394a.823.823 0 0 0-.006-.03l-.081-.288a.71.71 0 0 0-.02-.07l-.074-.193a.65.65 0 0 0-.144-.225l-.062-.062a.586.586 0 0 0-.526-.169.586.586 0 0 0-.437.337Z"/><path d="M18.69 2.548c0 .212.105.318.318.318.212 0 .319-.106.319-.318 0-.213-.107-.32-.32-.32-.212 0-.318.107-.318.32Zm-.095.006c0 .112.04.208.12.287.079.08.174.12.287.12.112 0 .208-.04.287-.12a.39.39 0 0 0 .119-.287.391.391 0 0 0-.12-.287.391.391 0 0 0-.286-.12.392.392 0 0 0-.288.12.392.392 0 0 0-.119.287Zm-.05.012c0 .125.044.23.132.319a.434.434 0 0 0 .318.132c.125 0 .23-.044.319-.132a.434.434 0 0 0 .131-.319.434.434 0 0 0-.131-.318.433.433 0 0 0-.319-.132.434.434 0 0 0-.318.132.434.434 0 0 0-.132.318Zm-.087.007c0 .153.054.284.163.393.108.109.24.163.393.163a.536.536 0 0 0 .393-.163.536.536 0 0 0 .163-.393.536.536 0 0 0-.163-.394.536.536 0 0 0-.393-.163.536.536 0 0 0-.393.163.536.536 0 0 0-.163.394Zm.15.475.094.094a.666.666 0 0 0 .018.025l.138.125.169.193.218.307.244.418.275.52.263.518.225.507.194.475a.718.718 0 0 0 .006.025l.194.418c.01.022.02.043.031.063l.181.319.119.287a.492.492 0 0 0 .144.2l.044.038v.069c-.013.183.073.28.256.293.183.013.281-.072.294-.256l.006-.106.069-.063a.486.486 0 0 0 .15-.306l.037-.35v-.038l.019-.406a.709.709 0 0 0-.012-.175l-.094-.456a.745.745 0 0 0-.032-.1l-.175-.494a.759.759 0 0 0-.018-.038l-.225-.537a.749.749 0 0 0-.02-.05l-.274-.544a1.13 1.13 0 0 0-.013-.019l-.287-.537a.765.765 0 0 0-.019-.032l-.281-.462a.76.76 0 0 0-.057-.075l-.275-.35a.753.753 0 0 0-.1-.107l-.25-.212a.727.727 0 0 0-.181-.113l-.2-.093a.69.69 0 0 0-.2-.05l-.125-.02c-.303-.037-.523.081-.66.354-.138.273-.101.52.11.74Zm-1.776 4.363a.41.41 0 0 0 .125.3.41.41 0 0 0 .3.125.41.41 0 0 0 .301-.124.41.41 0 0 0 .125-.3.41.41 0 0 0-.125-.301.41.41 0 0 0-.3-.125.41.41 0 0 0-.301.125.41.41 0 0 0-.125.3Zm-.012-.006c0 .12.043.224.128.31a.422.422 0 0 0 .31.127c.12 0 .224-.042.309-.128a.421.421 0 0 0 .128-.31.421.421 0 0 0-.128-.309.422.422 0 0 0-.31-.128.422.422 0 0 0-.309.128.421.421 0 0 0-.128.31Zm-.056-.019c0 .138.049.256.146.354a.482.482 0 0 0 .354.146.482.482 0 0 0 .354-.146.482.482 0 0 0 .146-.354.482.482 0 0 0-.146-.354.482.482 0 0 0-.354-.146.482.482 0 0 0-.354.146.482.482 0 0 0-.146.354Zm-.081-.031c0 .169.06.313.179.433.12.12.264.18.433.18a.59.59 0 0 0 .433-.18.59.59 0 0 0 .18-.433.59.59 0 0 0-.18-.433.59.59 0 0 0-.433-.18.59.59 0 0 0-.433.18.59.59 0 0 0-.18.433Zm.268.55.069.05a.784.784 0 0 0 .213.1l.156.056.181.056.219.1.319.17h.006l.394.206.031.012.425.2.438.213a.331.331 0 0 0 .006.006l.444.212.319.157.268.244.013.012.331.281a.54.54 0 0 0 .125.082l.2.087.088.188c.083.166.208.208.375.125.167-.084.208-.209.125-.375l-.1-.2.025-.232a.52.52 0 0 0-.031-.25l-.15-.4a.614.614 0 0 0-.063-.112l-.244-.382-.243-.387a.808.808 0 0 0-.163-.188l-.369-.312a.873.873 0 0 0-.144-.1l-.43-.244a.89.89 0 0 0-.05-.025l-.432-.206-.4-.194a3.698 3.698 0 0 0-.007-.007l-.337-.162a.882.882 0 0 0-.113-.044l-.294-.094a.861.861 0 0 0-.137-.03l-.238-.038a.83.83 0 0 0-.33.018l-.163.038a.766.766 0 0 0-.438.294l-.05.069a.68.68 0 0 0-.136.536c.03.198.128.355.292.47Z"/></g><defs><clipPath id="a"><path fill="#fff" d="M0 0h34v31H0z"/></clipPath></defs></svg>