<svg width="41" height="36" fill="none" xmlns="http://www.w3.org/2000/svg"><g clip-path="url(#a)" fill="#000"><path d="M.226 18.18c0 .114.04.21.12.291a.401.401 0 0 0 .293.121c.114 0 .21-.04.291-.12a.397.397 0 0 0 .121-.292.397.397 0 0 0-.12-.292.397.397 0 0 0-.292-.12.397.397 0 0 0-.292.12.397.397 0 0 0-.12.292Zm-.025-.007c0 .12.042.221.126.305a.415.415 0 0 0 .305.127c.12 0 .221-.042.305-.127a.416.416 0 0 0 .127-.305.415.415 0 0 0-.127-.305.416.416 0 0 0-.305-.126.418.418 0 0 0-.305.126.416.416 0 0 0-.126.305Zm-.037.02-.007.13a.564.564 0 0 0 .032.22l.125.356a.64.64 0 0 0 .037.093l.325.607a.674.674 0 0 0 .019.025l.55.925a.67.67 0 0 0 .019.031l.837 1.25.007.013 1.081 1.569.006.006 1.288 1.85 1.413 2.026a.795.795 0 0 0 .012.019l1.482 1.975a.807.807 0 0 0 .019.019l1.425 1.781a.636.636 0 0 0 .019.02l1.287 1.474a.774.774 0 0 0 .02.025l1.087 1.144.031.032.863.825.056.044.675.525c.05.039.104.07.163.093l.5.194a.447.447 0 0 0 .119.032l.212.018.082.05c.137.065.25.035.335-.091.087-.126.075-.241-.035-.346l-.063-.044-.063-.181a.455.455 0 0 0-.024-.063l-.25-.475a.64.64 0 0 0-.076-.112l-.543-.663a.706.706 0 0 0-.032-.038l-.819-.862-1.069-1.144-1.262-1.457-1.42-1.75L7.14 26.38l-1.475-1.95-1.288-1.838-1.075-1.569-.838-1.244a.52.52 0 0 0-.006-.013l-.613-.88v-.007l-.4-.563a.645.645 0 0 0-.044-.056l-.243-.281a.564.564 0 0 0-.15-.12l-.113-.068a.48.48 0 0 0-.478-.006.48.48 0 0 0-.253.406Z"/><path d="M13.147 34.84c0 .111.04.207.12.286.079.08.174.12.287.12.112 0 .208-.04.287-.12a.391.391 0 0 0 .119-.287.391.391 0 0 0-.12-.287.392.392 0 0 0-.286-.12.392.392 0 0 0-.288.12.392.392 0 0 0-.119.287Zm.75-.238-.012-.013a.419.419 0 0 0 .075.294v-.038a.465.465 0 0 0 0-.1v-.106l.025-.119.169-.356.35-.731.556-1.12.744-1.48.9-1.707.938-1.726.838-1.556.656-1.238.006-.006.457-.876.006-.024.262-.544a.7.7 0 0 0 .013-.032l.119-.275.043-.1a.63.63 0 0 0-.532-.05.63.63 0 0 0-.393.363l.031.019a.612.612 0 0 0-.337-.532l.006.082a.523.523 0 0 0 .013.087l.012.081c.012.055.03.107.056.157l.032.068a.574.574 0 0 0-.057-.25v.07a.56.56 0 0 0 .155.416.56.56 0 0 0 .405.186.56.56 0 0 0 .417-.155.56.56 0 0 0 .186-.404v-.093a.588.588 0 0 0-.006.093l.006-.038a.56.56 0 0 0 .006-.05v-.037c-.303.051-.465.23-.487.537l.025-.006a.578.578 0 0 0-.5-.15l.03.031a.637.637 0 0 0-.105-.13l.08.13a.698.698 0 0 0 .076.094l.219.238.018.012.363.363.519.544.681.737.019.013.856.869.032.03.969.876a.71.71 0 0 0 .043.038l.988.775.019.012.906.682.757.556.562.438.4.343.294.263a.846.846 0 0 0 .025.025l.219.169a.731.731 0 0 0 .069.05l.15.094a.76.76 0 0 0 .2.087l.112.031a.755.755 0 0 0 .188.031h.081a.754.754 0 0 0 .288-.043l.056-.025a.768.768 0 0 0 .119-.056l.05-.032a.76.76 0 0 0 .05-.031l.03-.025.032-.019a.647.647 0 0 0 .025-.012l.044-.031.044-.026a.74.74 0 0 0 .037-.024l.05-.032a.764.764 0 0 0-.106.063l.038-.019.012-.006.05-.025a.767.767 0 0 0 .119-.082l.081-.062a.732.732 0 0 0 .063-.05l.112-.113c.02-.02.039-.04.056-.062l.144-.169a.782.782 0 0 0 .05-.069l.156-.243a.768.768 0 0 0 .057-.094l.156-.332a.762.762 0 0 0 .031-.08l.169-.495a.794.794 0 0 0 .012-.05l.194-.744.007-.012.25-1.069.337-1.332.381-1.506.407-1.607.4-1.581v-.006l.362-1.432.313-1.213v-.006l.231-.938.163-.63.1-.351.044-.112.012-.013a.725.725 0 0 0-.769.356l.038.006a.744.744 0 0 0-.57-.387l.026.044a.777.777 0 0 0-.056-.113l.018.05c.024.063.055.12.094.175l.025.038a.53.53 0 0 0 .038.043l.018.025a.75.75 0 0 0 .476.276l.024.006a.72.72 0 0 0 .726-.275l.012-.013.013-.018a.776.776 0 0 0 .056-.075l.019-.025.012-.02a.776.776 0 0 0-.119.132l.02-.019a.863.863 0 0 0 .037-.031l.012-.012a.757.757 0 0 0 .194-.326l.006-.018a.771.771 0 0 0-.031.087l.006-.025a.763.763 0 0 0-.162.244l.018-.019a.775.775 0 0 0-.087.069l.019-.012a.77.77 0 0 0-.075.05l.018-.013a.765.765 0 0 0 .175-.138h.007l.012-.012.025-.025a.73.73 0 0 0 .225-.65l-.006-.025c-.05-.37-.261-.581-.631-.632l-.026-.006a.73.73 0 0 0-.65.225l-.025.025-.012.013v.006a.786.786 0 0 0 .056-.056l-.019.018a.752.752 0 0 0 .075-.05l-.018.007a.765.765 0 0 0-.15.119l-.02.018a.768.768 0 0 0-.118.163l-.012.019a.777.777 0 0 0-.05.118l-.007.02a.761.761 0 0 0 .175-.282l-.012.012a.863.863 0 0 0-.031.038l-.02.019a.742.742 0 0 0-.024.03l-.019.026a.772.772 0 0 0 .044-.05l-.031.025a.742.742 0 0 0 .056-.05l-.025.025a.773.773 0 0 0-.131.144l-.013.025c.365.12.657.023.875-.294l-.025-.006a.742.742 0 0 0 .47.43l-.013-.03a.782.782 0 0 0-.063-.113l-.019-.044c.018.05.041.098.07.144l-.02-.05a.788.788 0 0 0-.056-.112l-.025-.044a.748.748 0 0 0-.525-.375l-.038-.013a.725.725 0 0 0-.787.32l-.056.074a.778.778 0 0 0-.094.181l-.075.213a.73.73 0 0 0-.013.044l-.125.394a.727.727 0 0 0-.012.043l-.157.65-.23.938-.313 1.206-.363 1.438-.4 1.582-.406 1.613-.382 1.512-.325 1.344-.006.007-.244 1.062-.181.713-.138.425-.118.244-.094.156-.094.107-.056.056-.038.031a.762.762 0 0 0 .125-.081l-.05.025-.006.006-.037.019a.77.77 0 0 0-.107.062l-.025.019-.03.019a.876.876 0 0 0-.02.012l-.043.032-.044.024-.056.038-.007.006-.05.031a.76.76 0 0 0 .2-.093l-.056.018a.762.762 0 0 0 .2-.03h-.081a.759.759 0 0 0 .225.03l-.006-.006-.013-.006-.156-.131-.288-.257a.737.737 0 0 0-.012-.012l-.42-.363a.742.742 0 0 0-.03-.025l-.588-.456a.737.737 0 0 0-.012-.012l-.763-.563-.894-.663-.956-.762-.932-.85-.831-.85-.682-.732a.982.982 0 0 0-.025-.025l-.55-.531a.772.772 0 0 0-.05-.044l-.406-.332a.718.718 0 0 0-.069-.05l-.275-.174a.695.695 0 0 0-.125-.063l-.144-.056a.601.601 0 0 0-.656.125l-.031.031a.589.589 0 0 0-.194.356l-.006.025a.586.586 0 0 0 0 .138v.037a.577.577 0 0 0 .006-.143l-.006.037a.588.588 0 0 0-.007.1v.094a.56.56 0 0 0 .186.404.56.56 0 0 0 .418.155.56.56 0 0 0 .404-.186.56.56 0 0 0 .155-.417v-.069a.576.576 0 0 0-.056.25l.031-.068a.617.617 0 0 0 .031-.07l.025-.08a.648.648 0 0 0 .038-.175l.006-.082a.637.637 0 0 0-.081-.35l-.019-.031a.633.633 0 0 0-.387-.311.633.633 0 0 0-.494.048l-.1.05a.694.694 0 0 0-.175.132l-.213.218a.75.75 0 0 0-.1.132l-.313.519a.894.894 0 0 0-.018.03l-.475.863-.007.007-.65 1.237-.837 1.557-.926 1.738-.006.006-.894 1.713-.006.012-.75 1.494a.658.658 0 0 0-.013.032l-.506 1.15a.77.77 0 0 0-.037.1l-.225.788a.675.675 0 0 0-.025.13l-.038.457a.593.593 0 0 0 .012.194l.063.231a.54.54 0 0 0 .069.17l.075.112c.023.034.05.066.081.093l.063.063a.46.46 0 0 0 .218.112l.044.013a.424.424 0 0 0 .225-.019l.019-.006a.398.398 0 0 0 .262-.263.398.398 0 0 0-.05-.368ZM32.37 15.185c0 .135.047.25.143.345a.47.47 0 0 0 .344.143.47.47 0 0 0 .345-.143.47.47 0 0 0 .143-.345.47.47 0 0 0-.143-.344.47.47 0 0 0-.345-.143.47.47 0 0 0-.344.143.47.47 0 0 0-.143.344Zm.381.244.013.006c.155.064.271.02.348-.129.076-.15.044-.269-.098-.358L33 14.942c-.155-.064-.272-.02-.348.129-.077.15-.044.269.098.358Z"/><path d="M32.132 15.217c0 .115.041.214.123.296.082.082.18.122.296.122.116 0 .214-.04.296-.122a.403.403 0 0 0 .123-.296.403.403 0 0 0-.123-.297.404.404 0 0 0-.296-.122.404.404 0 0 0-.296.122.404.404 0 0 0-.123.297Zm-.175 0c0 .157.056.29.167.402a.548.548 0 0 0 .402.167.548.548 0 0 0 .402-.167.548.548 0 0 0 .167-.402.548.548 0 0 0-.167-.403.548.548 0 0 0-.402-.166.548.548 0 0 0-.402.166.547.547 0 0 0-.167.403Zm-.094.018c0 .183.065.34.194.469.13.13.286.194.469.194s.34-.065.469-.194a.639.639 0 0 0 .194-.469.639.639 0 0 0-.194-.468.639.639 0 0 0-.469-.194.638.638 0 0 0-.469.194.639.639 0 0 0-.194.468Zm.188.582.181.194a.799.799 0 0 0 .1.093l.413.32.656.543a.76.76 0 0 0 .019.012l.975.77a.81.81 0 0 0 .056.037l1.244.831a.846.846 0 0 0 .057.038l1.331.744a.61.61 0 0 0 .063.03l1.256.57c.066.03.135.048.206.056l1 .113.688.337c.149.044.257-.004.325-.143.068-.14.039-.254-.087-.345l-.682-.33-.656-.757a.68.68 0 0 0-.144-.119l-1.163-.75-1.256-.825-1.175-.857-.95-.769-.67-.543a.861.861 0 0 0-.068-.05l-.45-.3a.847.847 0 0 0-.188-.088l-.256-.094a.76.76 0 0 0-.517-.006.76.76 0 0 0-.407.317.76.76 0 0 0-.12.503.76.76 0 0 0 .219.468ZM.42 18.23c0 .123.043.227.13.314.087.087.191.13.314.13a.428.428 0 0 0 .314-.13.428.428 0 0 0 .13-.314.428.428 0 0 0-.13-.314.428.428 0 0 0-.314-.13.428.428 0 0 0-.314.13.428.428 0 0 0-.13.314Zm-.019 0a.44.44 0 0 0 .134.323.44.44 0 0 0 .323.134.44.44 0 0 0 .322-.134.44.44 0 0 0 .134-.323.44.44 0 0 0-.134-.322.44.44 0 0 0-.322-.134.44.44 0 0 0-.323.134.44.44 0 0 0-.134.322Zm.92.125.005-.031a.523.523 0 0 0 .007-.038l.012-.056a.56.56 0 0 0 .013-.143v-.063l.006-.05.087-.194.282-.494a.28.28 0 0 0 .006-.006l.444-.806.619-1.057.812-1.287.92-1.426.95-1.469.925-1.425.831-1.275v-.013l.669-1.056.494-.775a.844.844 0 0 0 .018-.032l.282-.5a.856.856 0 0 0 .05-.094l.094-.23a.807.807 0 0 0-.007-.645l-.012-.037a.757.757 0 0 0-.696-.495.757.757 0 0 0-.754.401l-.044.069a.802.802 0 0 0-.094.225l-.025.125a.75.75 0 0 0 .041.493c.07.16.18.281.333.366a.749.749 0 0 0 .487.087.749.749 0 0 0 .44-.227l.087-.088a.805.805 0 0 0 .031-.037l.056-.063a.784.784 0 0 0 .19-.593.784.784 0 0 0-.287-.554A.784.784 0 0 0 8 4.673a.784.784 0 0 0-.554.286l-.025.025a.835.835 0 0 0-.068.1l-.132.219a.856.856 0 0 0-.006.012l-.275.488-.463.769-.662 1.044-.82 1.281-.924 1.42-.957 1.468-.006.006-.913 1.432a.508.508 0 0 0-.012.013l-.807 1.312a.809.809 0 0 0-.018.032L.75 15.667a.81.81 0 0 0-.025.05l-.394.844a.784.784 0 0 0-.05.125l-.162.575a.718.718 0 0 0-.025.138l-.025.319a.658.658 0 0 0 .025.231l.044.156c.016.06.041.116.075.169l.056.081a.592.592 0 0 0 .037.05l.05.07a.56.56 0 0 0 .113.105l.05.032a.52.52 0 0 0 .238.093h.03c.276.033.453-.084.532-.35ZM7.295 5.76c0 .173.061.32.183.442s.27.183.442.183c.173 0 .32-.06.442-.183a.602.602 0 0 0 .184-.442.602.602 0 0 0-.184-.442.602.602 0 0 0-.442-.183.602.602 0 0 0-.442.183.602.602 0 0 0-.183.442Zm.3.031-.018.082c-.011.168.065.271.23.31.163.04.278-.018.345-.173l.018-.081c.011-.168-.065-.272-.23-.31-.163-.04-.278.018-.345.172Z"/><path d="M7.496 6.215c0 .106.037.195.112.27a.367.367 0 0 0 .27.112.367.367 0 0 0 .27-.112.367.367 0 0 0 .11-.27.367.367 0 0 0-.11-.27.367.367 0 0 0-.27-.11.367.367 0 0 0-.27.11.367.367 0 0 0-.112.27Zm-.012-.093-.007.012a.47.47 0 0 0 .032.306l.087.182c.014.032.03.064.05.093l.319.45a.743.743 0 0 0 .081.1l.782.782a.814.814 0 0 0 .037.037l1.244 1.113a.775.775 0 0 0 .025.025l1.6 1.307a.842.842 0 0 0 .025.025l1.738 1.3a.65.65 0 0 0 .063.037l1.694.994a.484.484 0 0 0 .012.007l1.357.756.9.606c.142.096.26.073.356-.068.096-.142.073-.26-.068-.357l-.9-.6-1.145-1.025-1.406-1.363a.608.608 0 0 0-.012-.018L12.74 9.365a.28.28 0 0 0-.006-.006l-1.538-1.376h-.006L9.94 6.872a.815.815 0 0 0-.032-.032l-.869-.68a.741.741 0 0 0-.156-.1l-.506-.226a.59.59 0 0 0-.194-.056l-.2-.013a.453.453 0 0 0-.425.2l-.013.007a.415.415 0 0 0-.062.15Z"/><path d="m17.786 13.748.025-.025a.394.394 0 0 0 .106-.163l.056-.156.15-.406a.456.456 0 0 0 .006-.025l.244-.8a.547.547 0 0 0 .013-.044l.256-1.175.313-1.432.325-1.494v-.006l.306-1.425.281-1.232.232-.994.187-.681v-.006l.1-.394.038-.125c-.06-.28-.233-.427-.519-.44-.286-.013-.471.117-.557.39l.013.081a.544.544 0 0 0-.006-.194l-.02.163-.062.244-.08.343v.02l-.088.43a.56.56 0 0 0-.013.144l.031.525v.025l.057.55-.088.488c-.03.163.038.258.2.288.163.029.258-.038.288-.2l.087-.488.25-.488V5.04l.238-.475a.562.562 0 0 0 .05-.119l.1-.431a.606.606 0 0 0 .006-.019l.063-.35a.28.28 0 0 0 .006-.006l.044-.269a.554.554 0 0 0 .006-.031l.025-.188a.556.556 0 0 0 0-.125l-.006-.081a.517.517 0 0 0-.368-.471.517.517 0 0 0-.583.133l-.1.1a.588.588 0 0 0-.13.2l-.157.388a.622.622 0 0 0-.025.069l-.188.694a.428.428 0 0 0-.006.018l-.238 1v.007l-.274 1.244a.332.332 0 0 0-.007.012l-.294 1.432v.006l-.3 1.5v.007l-.275 1.431-.006.006-.213 1.188a.523.523 0 0 0-.006.038l-.093.825v.031l-.026.425-.012.163a.4.4 0 0 0 0 .112l.006.032a.357.357 0 0 0 .253.291.357.357 0 0 0 .379-.079Z"/><path d="M17.842 11.279c0 .11.039.205.117.283a.385.385 0 0 0 .283.117.39.39 0 0 0 .283-.117.386.386 0 0 0 .117-.283.387.387 0 0 0-.117-.283.386.386 0 0 0-.283-.117.387.387 0 0 0-.283.117.386.386 0 0 0-.117.283Zm-.088 0a.44.44 0 0 0 .134.322.44.44 0 0 0 .323.134.44.44 0 0 0 .322-.133.44.44 0 0 0 .134-.323.44.44 0 0 0-.134-.323.44.44 0 0 0-.322-.134.44.44 0 0 0-.323.134.44.44 0 0 0-.134.323Zm.92.075v-.006l.024-.094a.26.26 0 0 0 0-.013l.094-.381a.26.26 0 0 0 0-.013l.169-.762.269-1.12.362-1.343.444-1.425.463-1.313.444-1.113.368-.869.27-.612.168-.35.087-.144a.695.695 0 0 0-.522-.047.695.695 0 0 0-.415.322l.037.019a.68.68 0 0 0-.362-.42l.043.138.044.3.05.425-.112.425c-.016.152.05.248.198.287.147.04.252-.01.314-.149l.12-.425.262-.344.218-.281a.613.613 0 0 0 .044-.056l.094-.163a.665.665 0 0 0 .031-.681l-.018-.038a.672.672 0 0 0-.622-.403.672.672 0 0 0-.647.36l-.094.168a.713.713 0 0 0-.032.056l-.187.394a.625.625 0 0 0-.006.019l-.275.625a1.233 1.233 0 0 0-.007.006l-.375.882a.625.625 0 0 0-.006.018l-.45 1.138a.718.718 0 0 0-.006.025l-.475 1.338a1.05 1.05 0 0 0-.007.025l-.45 1.45a.607.607 0 0 0-.012.025l-.363 1.376a1.038 1.038 0 0 0-.006.025l-.256 1.137a.762.762 0 0 0-.007.05l-.118.782a.663.663 0 0 0-.007.106v.394a.61.61 0 0 0 .182.437l.087.088c.188.19.403.228.644.112l.025-.012a.48.48 0 0 0 .281-.375Z"/><path d="M21.83 2.34c0 .204.102.306.307.306.204 0 .306-.102.306-.306 0-.205-.102-.307-.306-.307-.205 0-.307.102-.307.307Zm.532-.313-.038-.025v-.006l-.075-.05-.063-.057-.056-.062-.006-.019v-.05a.512.512 0 0 0-.044.219l.032-.063a.587.587 0 0 0-.013-.5.587.587 0 0 0-.381-.324.587.587 0 0 0-.496.068.587.587 0 0 0-.28.416.59.59 0 0 0 .125.485c.114.143.262.22.444.23l.063.007a.515.515 0 0 0-.181-.05l.062.031.069.063.106.106a.406.406 0 0 0 .019.019l.1.08c.01.01.02.018.031.026l.088.062a.384.384 0 0 0 .068.038l.05.019c.216.106.383.054.501-.155s.077-.378-.125-.508Zm-1.532-.163.05.157a.841.841 0 0 0 .244.375l.419.381a.91.91 0 0 0 .118.088l.894.575a.93.93 0 0 0 .07.044l1.274.662c.054.029.11.052.17.069l1.624.469a.609.609 0 0 0 .025.006l1.6.4 1.257.581c.159.065.274.02.345-.136.072-.155.032-.272-.12-.351l-1.256-.582-1.32-.981a.26.26 0 0 0-.006-.006l-1.362-1a.912.912 0 0 0-.082-.05l-1.237-.72-.9-.543a1.115 1.115 0 0 0-.025-.019l-.494-.275a.838.838 0 0 0-.494-.106l-.156.012a.722.722 0 0 0-.548.322.721.721 0 0 0-.09.628Z"/><path d="m29.444 5.515.006-.012a.415.415 0 0 0 .025-.182l-.006-.05a.431.431 0 0 0-.237-.343.43.43 0 0 0-.416.012.43.43 0 0 0-.219.355.43.43 0 0 0 .178.376l.038.025a.41.41 0 0 0 .225.082h.012c.196.009.327-.079.394-.263Zm-.931-.231a.48.48 0 0 0 .144.35.476.476 0 0 0 .35.144.476.476 0 0 0 .349-.145.476.476 0 0 0 .144-.35.476.476 0 0 0-.144-.348.476.476 0 0 0-.35-.145.476.476 0 0 0-.349.145.476.476 0 0 0-.144.349ZM28.5 5.12l-.012.038a.57.57 0 0 0 .05.475l.081.144a.59.59 0 0 0 .019.037l.212.32a.666.666 0 0 0 .019.024l.431.588.013.018.719.92.012.018 1.013 1.238 1.194 1.481 1.275 1.582.006.006 1.263 1.532 1.157 1.381.968 1.22.782 1.006.006.012.6.738a.604.604 0 0 0 .07.069l.462.418a.445.445 0 0 0 .162.094l.169.05.019.025c.103.116.217.128.342.037.125-.09.149-.203.07-.337l-.018-.025.006-.169a.446.446 0 0 0-.032-.175l-.224-.581a.6.6 0 0 0-.044-.094l-.494-.813a.626.626 0 0 0-.025-.037l-.744-1.044a.484.484 0 0 0-.006-.012l-.938-1.257v-.006l-1.094-1.444a.26.26 0 0 0 0-.013l-1.213-1.569-.006-.006-1.263-1.594a1.233 1.233 0 0 0-.006-.006l-1.194-1.482a1.849 1.849 0 0 0-.006-.006l-1.025-1.238a.818.818 0 0 0-.025-.031l-.794-.856a.754.754 0 0 0-.031-.032L29.9 5.26a.717.717 0 0 0-.044-.044l-.3-.237a.608.608 0 0 0-.025-.025l-.138-.094a.57.57 0 0 0-.456-.1l-.038.006a.491.491 0 0 0-.4.356Z"/><path d="m36.658 14.948-.006.019a.425.425 0 0 0 .006-.056l-.019.1a.476.476 0 0 0 .013.206l.062.25a.5.5 0 0 0 .044.113l.2.387a.595.595 0 0 0 .019.038l.331.544.006.006.438.7.006.006.507.782.018.03.532.713.03.032.476.55.306.4.175.287a.408.408 0 0 0 .057.075l.125.126c.164.168.341.183.531.043l.019-.012c.162-.12.206-.275.131-.463l-.05-.125a.41.41 0 0 0-.019-.037l-.087-.17a.343.343 0 0 0-.013-.024l-.075-.125-.031-.088a.442.442 0 0 0-.019-.05l-.012-.025a.44.44 0 0 0-.238-.256.44.44 0 0 0-.35-.012.44.44 0 0 0-.256.238.44.44 0 0 0-.013.35l.031.112a.468.468 0 0 0 .026.068l.08.194a.468.468 0 0 0 .013.019l.1.219.1.219.094.2.069.175.037.118.013.063a.445.445 0 0 0 .395-.157.445.445 0 0 0 .105-.412l-.037-.006c.07.051.15.08.237.087l-.119-.081a.41.41 0 0 0-.243-.081l-.12-.006a.243.243 0 0 0 .207.118l-.113-.175c-.097-.108-.207-.123-.33-.044-.122.08-.154.186-.095.32l.113.174a.245.245 0 0 0-.031-.218l-.038.118a.407.407 0 0 0 .013.294l.056.138c.039.087.1.156.181.206l.031.025a.437.437 0 0 0 .493.006.435.435 0 0 0 .226-.437l-.006-.094a.474.474 0 0 0-.019-.107l-.05-.156a.47.47 0 0 0-.012-.037l-.081-.2a.484.484 0 0 0-.007-.013l-.093-.212a.484.484 0 0 0-.007-.013l-.106-.225h-.006l-.1-.219-.094-.187a.592.592 0 0 0-.006-.019l-.056-.106a.449.449 0 0 0-.38.227.45.45 0 0 0-.008.442h.031a.423.423 0 0 0-.306-.107l.05.05.069.107.08.13.038.095a.37.37 0 0 0 .37-.14.37.37 0 0 0 .062-.392l-.025-.006a.39.39 0 0 0 .275.175l-.1-.15a.383.383 0 0 0-.013-.019l-.206-.268-.263-.42-.312-.65a.508.508 0 0 0-.019-.024l-.438-.782a.51.51 0 0 0-.018-.025l-.5-.781-.438-.7v-.007l-.344-.531a.553.553 0 0 0-.012-.019l-.25-.356a.538.538 0 0 0-.057-.069l-.18-.187a.478.478 0 0 0-.132-.094l-.088-.044a.393.393 0 0 0-.043-.019l-.02-.006a.375.375 0 0 0-.345.047.375.375 0 0 0-.173.303ZM20.205 1.67a.4.4 0 0 0 .123.296c.082.082.18.123.296.123a.4.4 0 0 0 .296-.123.404.404 0 0 0 .123-.295.404.404 0 0 0-.123-.296.404.404 0 0 0-.296-.123.403.403 0 0 0-.296.123.404.404 0 0 0-.123.296Zm-.031-.012c0 .124.044.23.131.318a.434.434 0 0 0 .319.132c.124 0 .23-.044.318-.132a.434.434 0 0 0 .132-.318.434.434 0 0 0-.132-.318.434.434 0 0 0-.318-.132.434.434 0 0 0-.319.132.434.434 0 0 0-.131.318Zm-.082-.369v.007a.627.627 0 0 0-.087.543l.044.163a.727.727 0 0 0 .1.219l.268.394a.793.793 0 0 0 .025.037l.544.7c.01.013.02.026.032.038l.912 1.044 1.144 1.319 1.238 1.506v.006l1.313 1.588a.32.32 0 0 0 .006 0l1.319 1.588.006.006 1.282 1.476a.737.737 0 0 0 .012.012l1.163 1.282a.737.737 0 0 0 .012.012l.988 1.038.013.006.8.813v.006l1.037 1.031a.634.634 0 0 0 .163.113l.319.162a.52.52 0 0 0 .206.057l.138.012a.389.389 0 0 0 .313-.118.389.389 0 0 0 .118-.313l-.013-.138a.518.518 0 0 0-.062-.218l-.169-.32a.632.632 0 0 0-.106-.143l-1.032-1.032-.793-.812-.976-1.025-1.15-1.282-1.275-1.469-1.325-1.569-1.307-1.588-1.225-1.506L23.03 3.54l-.819-1.113a.535.535 0 0 0-.012-.019l-.544-.694a.808.808 0 0 0-.037-.043l-.32-.357a.726.726 0 0 0-.218-.162l-.15-.075a.615.615 0 0 0-.663.044h-.006a.606.606 0 0 0-.169.168ZM33.32 15.95l-.025-.032c-.092-.117-.196-.13-.313-.037-.116.091-.129.196-.037.312l.025.031c.092.117.196.129.312.038.117-.092.13-.196.038-.313ZM21.93 1.758a.41.41 0 0 0 .125.3.41.41 0 0 0 .3.125.41.41 0 0 0 .3-.124.41.41 0 0 0 .125-.3.41.41 0 0 0-.124-.301.41.41 0 0 0-.3-.125.41.41 0 0 0-.301.125.41.41 0 0 0-.125.3Zm.019.169.031.075a.551.551 0 0 0 .113.181l.194.213c.02.02.04.039.062.056l.394.325a.742.742 0 0 0 .075.05l.581.369h.006l.713.431v.007l.775.468h.013l.781.463h.006l.72.413.03.018.632.325a.693.693 0 0 0 .025.013l.531.244a.738.738 0 0 0 .019.012l.444.188c.026.01.053.018.081.025l.369.106.031.006.225.05.119.069.106.069c.095.061.198.08.308.056a.394.394 0 0 0 .258-.178.394.394 0 0 0 .056-.308.394.394 0 0 0-.178-.258l-.094-.062-.118-.094-.17-.194a.636.636 0 0 0-.012-.019l-.256-.287a.635.635 0 0 0-.119-.1l-.4-.269a.652.652 0 0 0-.031-.019l-.5-.3-.607-.362-.694-.432-.756-.487a.706.706 0 0 0-.019-.007l-.775-.475a.56.56 0 0 0-.012-.006l-.713-.419a.742.742 0 0 0-.031-.012l-.6-.32a.738.738 0 0 0-.088-.043L23 1.333a.654.654 0 0 0-.125-.037l-.281-.044a.542.542 0 0 0-.357.056l-.075.044c-.24.129-.31.32-.212.575Zm7.333 4.12h.006c.179 0 .269-.09.269-.27 0-.178-.09-.268-.27-.268h-.005c-.18 0-.27.09-.27.269 0 .179.09.269.27.269Z"/><path d="m27.194 4.684.03.069c.066.133.172.21.32.23l.381.05a.254.254 0 0 0 .275-.141.254.254 0 0 0-.031-.308l-.256-.288a.393.393 0 0 0-.394-.131l-.075.012a.34.34 0 0 0-.25.192.339.339 0 0 0 0 .315Zm-9.333 7.676c0 .191.096.287.287.287.192 0 .288-.096.288-.287 0-.192-.096-.288-.288-.288-.191 0-.287.096-.287.288Zm-.106 0c0 .107.038.198.113.274a.374.374 0 0 0 .274.113.373.373 0 0 0 .274-.113.373.373 0 0 0 .114-.274.373.373 0 0 0-.114-.274.373.373 0 0 0-.274-.114.374.374 0 0 0-.274.114.373.373 0 0 0-.113.274Zm.431-.4-.019-.007h-.037l-.025-.006a.396.396 0 0 0-.244.069l-.025.019a.394.394 0 0 0-.037.025l-.026.018a.407.407 0 0 0-.106.144l-.019.044a.415.415 0 0 0 .07-.106l-.026.03a.449.449 0 0 0-.069.095l-.025.05a.48.48 0 0 0-.037.1l-.019.075a.5.5 0 0 0-.006.219l.025.143c.008.041.02.08.037.119l.126.294c.009.02.02.038.03.056l.294.506a.647.647 0 0 0 .013.025l1.075 1.676.006.012.688 1.025.7 1.076.682 1.081.643 1.038.588.95.525.844.469.763.425.756.406.775.37.775a.365.365 0 0 0 .005.006l.357.726.006.012.331.657.32.612a.292.292 0 0 0 .006.013l.306.575a.484.484 0 0 0 .006.012l.3.532a.468.468 0 0 0 .013.018l.287.463a.647.647 0 0 0 .013.025l.262.381.031.044.232.281c.046.054.1.098.162.132l.22.125a.448.448 0 0 0 .024.012l.144.069a.36.36 0 0 0 .414-.061.36.36 0 0 0 .117-.402l-.044-.143-.068-.238a.561.561 0 0 0-.05-.125l-.182-.319a.832.832 0 0 0-.012-.025l-.25-.381-.263-.456-.293-.52-.3-.568-.326-.613-.337-.65-.363-.719a1.437 1.437 0 0 0-.006-.012l-.413-.763-.418-.794a.737.737 0 0 0-.013-.012l-.438-.77-.006-.012-.462-.775-.007-.006-.525-.85-.581-.95v-.007l-.644-1.038h-.006l-.675-1.087-.688-1.094-.644-1.05-.006-.013-1.075-1.675a.65.65 0 0 0-.019-.025l-.344-.482a.536.536 0 0 0-.025-.024l-.2-.244-.069-.094-.025-.038a.476.476 0 0 0 .057.12l-.02-.057a.448.448 0 0 0-.037-.088l-.018-.037a.409.409 0 0 0 .05.25l.006-.044a.413.413 0 0 0-.038.119l.013-.031a.402.402 0 0 0-.106.15l.025-.019a.395.395 0 0 0-.244.094l.025-.006a.39.39 0 0 0 .037 0l.019-.007c.22-.04.33-.17.33-.394 0-.223-.11-.354-.33-.393Zm9.627 17.334.037.013c.163.054.271 0 .325-.163.055-.162 0-.27-.162-.325l-.038-.012c-.162-.054-.27 0-.324.162-.054.162 0 .27.162.325ZM7.14 4.396l-.025.012a.427.427 0 0 0-.206.35l-.013.113a.483.483 0 0 0 0 .062l.02.27a.566.566 0 0 0 .03.15l.157.437a.631.631 0 0 0 .03.08l.288.57.02.031.393.675a.633.633 0 0 0 .006.013l.475.769a.728.728 0 0 0 .007.012l.537.831.607.932.637.994.663 1.038.675 1.062.7 1.107.7 1.087.007.013.68 1.019.007.012.644.926.006.006.625.869.007.012.612.832.57.781.505.713.463.662.438.632a.76.76 0 0 0 .012.018l.431.594.007.013.418.55a.737.737 0 0 0 .013.012l.375.482.338.444.294.387c.015.02.032.038.05.056l.268.288c.02.02.04.039.063.056l.212.175a.6.6 0 0 0 .22.113l.105.031a.51.51 0 0 0 .53-.14.51.51 0 0 0 .14-.529l-.032-.106a.6.6 0 0 0-.031-.088l-.113-.243a.658.658 0 0 0-.012-.032l-.188-.35a.716.716 0 0 0-.062-.106l-.294-.381-.332-.45-.362-.494-.406-.563-.425-.581-.432-.632a.484.484 0 0 0-.006-.012l-.475-.663-.506-.712-.55-.794a.491.491 0 0 0-.013-.013l-.606-.844-.626-.862-.63-.913-.682-1.013-.713-1.075-.725-1.081-.694-1.044-.663-1.032v-.006l-.65-1v-.006l-.612-.92-.55-.83v-.007l-.5-.738-.42-.644-.343-.543a.59.59 0 0 0-.013-.013l-.262-.381a.569.569 0 0 0-.038-.05l-.143-.169-.026-.056a.443.443 0 0 0-.156-.163l-.025-.012a.379.379 0 0 0-.425 0Zm13.49 19.66-.025-.075c-.058-.171-.173-.227-.344-.169-.17.058-.227.173-.168.344l.025.075c.058.17.173.227.343.168.171-.058.228-.172.17-.343Zm-10.346-.05c0 .105.037.195.112.27a.367.367 0 0 0 .27.111.367.367 0 0 0 .269-.111.367.367 0 0 0 .112-.27.368.368 0 0 0-.112-.27.367.367 0 0 0-.27-.111.367.367 0 0 0-.27.111.368.368 0 0 0-.11.27Zm.813.125.037-.087a.483.483 0 0 0-.012-.438l-.063-.119a.431.431 0 0 0-.031-.05l-.138-.187a.25.25 0 0 0-.207-.108.25.25 0 0 0-.211.101l-.144.182a.444.444 0 0 0-.044.062l-.062.119a.488.488 0 0 0-.032.381l.025.094a.43.43 0 0 0 .424.335.43.43 0 0 0 .458-.285Zm-.732-2.907c0 .11.04.205.118.283a.385.385 0 0 0 .282.117.385.385 0 0 0 .283-.117.386.386 0 0 0 .118-.283.39.39 0 0 0-.118-.283.386.386 0 0 0-.283-.117c-.11 0-.204.04-.282.117a.386.386 0 0 0-.118.283Zm.926-.044.012-.13.031-.232a.544.544 0 0 0 .007-.063l.006-.737a.426.426 0 0 0-.025-.15l-.081-.244.025-.213c-.004-.152-.08-.238-.231-.26-.15-.021-.249.04-.294.185l-.032.22-.144.206a.43.43 0 0 0-.062.125l-.213.706a.545.545 0 0 0-.018.087l-.032.25a.544.544 0 0 0-.006.063v.144c.008.136.06.252.158.348a.514.514 0 0 0 .35.151.514.514 0 0 0 .362-.122.515.515 0 0 0 .187-.334Zm-.757-4.219c0 .114.04.211.121.292.08.08.178.12.292.12.114 0 .21-.04.292-.12.08-.08.12-.178.12-.292a.397.397 0 0 0-.12-.292.397.397 0 0 0-.292-.12.398.398 0 0 0-.292.12.398.398 0 0 0-.12.292Zm-.081-.006c0 .136.048.253.145.349a.476.476 0 0 0 .349.145.476.476 0 0 0 .349-.145.476.476 0 0 0 .145-.35.476.476 0 0 0-.145-.348.476.476 0 0 0-.35-.145.476.476 0 0 0-.348.145.476.476 0 0 0-.145.349Zm1.088.075v-.025a.606.606 0 0 0-.05-.357l-.013-.037a.555.555 0 0 0-.32-.296.555.555 0 0 0-.436.015l-.031.018a.593.593 0 0 0-.34.378.593.593 0 0 0 .058.504l.013.025c.147.243.36.337.638.28.28-.055.44-.224.48-.505Zm-.1-.357-.02-.118-.012-.075.044-.07c.075-.137.044-.243-.094-.318-.137-.075-.243-.044-.319.094l-.037.075-.056.031-.1.038a.435.435 0 0 0-.25.22.435.435 0 0 0-.03.331.435.435 0 0 0 .205.262c.104.06.213.076.33.049a.435.435 0 0 0 .272-.192.434.434 0 0 0 .067-.326Zm-.238-1.543a.4.4 0 0 0 .12.291c.081.08.179.121.293.121.114 0 .21-.04.291-.12a.403.403 0 0 0 .121-.293.397.397 0 0 0-.12-.291.397.397 0 0 0-.292-.121.398.398 0 0 0-.292.12.398.398 0 0 0-.121.292Zm-.044 0a.44.44 0 0 0 .134.322.44.44 0 0 0 .323.134.44.44 0 0 0 .322-.134.44.44 0 0 0 .134-.323.44.44 0 0 0-.134-.322.44.44 0 0 0-.322-.134.44.44 0 0 0-.323.134.44.44 0 0 0-.134.322Zm.82.33.024-.018a.535.535 0 0 0 .069-.094l.044-.081a.53.53 0 0 0 .025-.038l.068-.15a.509.509 0 0 0 .022-.369.509.509 0 0 0-.227-.291.508.508 0 0 0-.363-.07.509.509 0 0 0-.32.187l-.1.13a.543.543 0 0 0-.056.088l-.037.082a.495.495 0 0 0 .088.606l.025.019c.1.106.222.16.368.16a.486.486 0 0 0 .37-.16Zm.08-.574.138-.138c.089-.123.079-.24-.028-.347-.108-.107-.224-.117-.347-.028l-.138.138c-.088.123-.079.239.029.346.107.108.223.117.346.029Z"/><path d="M13.672 14.267c0 .212.106.319.319.319.213 0 .319-.107.319-.32 0-.212-.106-.318-.319-.318-.213 0-.319.106-.319.319Zm-.394 0c0 .191.068.355.204.49a.666.666 0 0 0 .49.204.669.669 0 0 0 .49-.204.669.669 0 0 0 .204-.49.668.668 0 0 0-.203-.49.669.669 0 0 0-.49-.204.669.669 0 0 0-.491.203.669.669 0 0 0-.204.49Zm1.413-.213-.006-.025a.752.752 0 0 0-.47-.502.753.753 0 0 0-.684.082.752.752 0 0 0-.34.598.752.752 0 0 0 .281.629l.019.012c.287.229.583.242.889.04.305-.203.41-.48.311-.834Zm-1.35.144c0 .17.06.317.181.438a.6.6 0 0 0 .438.18c.17 0 .317-.06.437-.18a.597.597 0 0 0 .182-.438.593.593 0 0 0-.182-.438.596.596 0 0 0-.437-.18.6.6 0 0 0-.438.18.596.596 0 0 0-.181.438Zm.838.194.037-.031c.15-.126.162-.263.037-.413-.124-.15-.262-.162-.412-.038l-.037.032c-.15.125-.163.262-.038.412.125.15.263.163.413.038Zm1.156.125c0 .107.038.198.114.274a.373.373 0 0 0 .274.113.373.373 0 0 0 .274-.113.373.373 0 0 0 .113-.274.373.373 0 0 0-.113-.274.373.373 0 0 0-.274-.114.373.373 0 0 0-.274.114.373.373 0 0 0-.114.274Zm-.2 0c0 .162.058.3.172.415a.566.566 0 0 0 .416.172c.162 0 .3-.057.415-.172a.566.566 0 0 0 .172-.415c0-.162-.057-.3-.172-.415a.566.566 0 0 0-.415-.172c-.163 0-.3.057-.416.172a.566.566 0 0 0-.172.415Zm.263.594.025.012a.602.602 0 0 0 .716-.043.601.601 0 0 0 .24-.676l-.006-.025a.653.653 0 0 0-.42-.466.654.654 0 0 0-.824.345.653.653 0 0 0 .27.852Zm.193-.313.05.05c.13.109.253.103.372-.016.12-.119.124-.243.016-.372l-.05-.05c-.129-.108-.253-.103-.372.016-.119.12-.124.243-.016.372Zm1.582 1.488c0 .127.045.236.136.327.09.09.199.135.326.135a.446.446 0 0 0 .327-.135c.09-.09.136-.2.136-.327a.445.445 0 0 0-.136-.327.446.446 0 0 0-.326-.135.446.446 0 0 0-.327.135c-.09.09-.136.2-.136.327Zm-.081.006c0 .15.053.278.159.385.106.106.234.159.384.159s.279-.053.385-.16a.524.524 0 0 0 .16-.384.524.524 0 0 0-.16-.384.524.524 0 0 0-.384-.16.524.524 0 0 0-.385.16.524.524 0 0 0-.16.384Zm-.238.025c0 .216.076.4.229.553a.753.753 0 0 0 .553.229c.215 0 .4-.077.552-.23a.753.753 0 0 0 .229-.552c0-.216-.076-.4-.229-.552a.753.753 0 0 0-.552-.23c-.216 0-.4.077-.553.23a.753.753 0 0 0-.229.552Zm.482.031v.025c0 .196.097.294.293.294.196 0 .294-.098.294-.294v-.025c0-.195-.098-.293-.294-.293-.196 0-.294.098-.294.293Zm1.737 2.095c0 .112.04.207.12.287.079.08.174.119.287.119.112 0 .208-.04.287-.12a.392.392 0 0 0 .119-.286.392.392 0 0 0-.119-.288.392.392 0 0 0-.287-.119.392.392 0 0 0-.288.12.392.392 0 0 0-.119.287Zm-.231.118c0 .176.062.327.187.451a.614.614 0 0 0 .45.187.614.614 0 0 0 .451-.187.614.614 0 0 0 .187-.45.614.614 0 0 0-.187-.452.614.614 0 0 0-.45-.186.614.614 0 0 0-.451.186.614.614 0 0 0-.187.451Zm.125.063a.5.5 0 0 0 .152.367.5.5 0 0 0 .367.152.5.5 0 0 0 .367-.152.5.5 0 0 0 .152-.367.5.5 0 0 0-.152-.367.5.5 0 0 0-.367-.152.5.5 0 0 0-.367.152.5.5 0 0 0-.152.367Zm.406.256.038.025c.142.079.257.05.347-.085.089-.136.069-.253-.06-.352l-.037-.025c-.142-.08-.258-.05-.347.085-.089.136-.07.253.06.352Zm1.144.794c0 .11.04.205.117.283a.386.386 0 0 0 .283.117c.11 0 .205-.039.283-.117a.386.386 0 0 0 .117-.283.387.387 0 0 0-.117-.283.385.385 0 0 0-.283-.117.385.385 0 0 0-.283.117.386.386 0 0 0-.117.283Zm-.181 0c0 .162.057.3.172.416a.566.566 0 0 0 .416.172c.162 0 .3-.058.415-.172a.566.566 0 0 0 .172-.416c0-.162-.057-.3-.172-.415a.566.566 0 0 0-.415-.173.566.566 0 0 0-.416.173.567.567 0 0 0-.172.415Zm1.244-.106-.006-.044a.591.591 0 0 0-.404-.501.59.59 0 0 0-.634.113l-.037.032a.646.646 0 0 0-.188.278.645.645 0 0 0-.026.335c.02.114.069.215.143.303a.646.646 0 0 0 .275.194c.108.04.22.05.334.032a.644.644 0 0 0 .306-.138.645.645 0 0 0 .199-.27.646.646 0 0 0 .038-.334Zm-.338.069.082-.125c.078-.143.05-.258-.086-.347-.135-.09-.253-.07-.352.059l-.081.125c-.079.142-.05.258.085.347.136.089.253.07.352-.06Zm.494-.544c0 .11.04.204.117.282a.385.385 0 0 0 .283.118.39.39 0 0 0 .283-.117.385.385 0 0 0 .117-.283.385.385 0 0 0-.117-.283.385.385 0 0 0-.283-.117.385.385 0 0 0-.283.117.385.385 0 0 0-.117.283Zm-.162 0c0 .159.056.294.168.406a.554.554 0 0 0 .407.169.554.554 0 0 0 .406-.169.554.554 0 0 0 .169-.406.554.554 0 0 0-.169-.407.554.554 0 0 0-.406-.169.554.554 0 0 0-.407.169.554.554 0 0 0-.168.407Zm1.237.1.013-.05a.593.593 0 0 0-.258-.631.593.593 0 0 0-.68-.038l-.037.025a.647.647 0 0 0-.276.856.648.648 0 0 0 .514.37.63.63 0 0 0 .324-.043.647.647 0 0 0 .4-.49Zm-.33-.163.018-.069c.015-.151-.05-.247-.198-.287-.147-.04-.252.01-.315.15l-.018.069c-.016.151.05.247.197.287.148.04.253-.01.315-.15Z"/><path d="M22.218 17.974c0 .107.038.198.113.274a.373.373 0 0 0 .274.113.373.373 0 0 0 .274-.113.373.373 0 0 0 .114-.274.373.373 0 0 0-.114-.274.373.373 0 0 0-.274-.114.373.373 0 0 0-.274.114.373.373 0 0 0-.113.274Zm-.157-.025c0 .134.048.25.143.344a.47.47 0 0 0 .345.143.47.47 0 0 0 .345-.143.47.47 0 0 0 .143-.344.47.47 0 0 0-.143-.345.47.47 0 0 0-.345-.143.47.47 0 0 0-.345.143.47.47 0 0 0-.143.345Zm.032-.044c0 .112.04.208.119.287.079.08.175.12.287.12.112 0 .208-.04.287-.12a.392.392 0 0 0 .12-.287.392.392 0 0 0-.12-.287.391.391 0 0 0-.287-.12.391.391 0 0 0-.287.12.391.391 0 0 0-.12.287Zm.562-.206-.037-.05c-.104-.142-.227-.16-.369-.056-.141.104-.16.227-.056.368l.037.05c.104.142.227.16.369.056.141-.104.16-.227.056-.368Zm-.837-1.782c0 .112.04.208.119.287.079.08.175.12.287.12.112 0 .208-.04.287-.12a.389.389 0 0 0 .12-.287.391.391 0 0 0-.12-.287.392.392 0 0 0-.287-.12.392.392 0 0 0-.287.12.392.392 0 0 0-.12.287Zm-.12-.025c0 .142.05.262.151.363.1.1.22.15.362.15s.263-.05.363-.15c.1-.1.15-.221.15-.363a.494.494 0 0 0-.15-.362.494.494 0 0 0-.363-.15.494.494 0 0 0-.362.15c-.1.1-.15.22-.15.362Zm1.014-.356-.063-.113a.57.57 0 0 0-.309-.26.57.57 0 0 0-.404 0 .57.57 0 0 0-.308.262.57.57 0 0 0-.067.398l.025.125a.58.58 0 0 0 .298.41.58.58 0 0 0 .506.04.58.58 0 0 0 .359-.357.58.58 0 0 0-.037-.505Zm-.37-.025-.03-.12c-.042-.166-.146-.228-.313-.187-.167.042-.23.146-.188.313l.032.119c.041.166.145.229.312.187.167-.041.23-.146.188-.312Zm-.331-1.094c0 .11.04.204.118.283a.385.385 0 0 0 .282.117.39.39 0 0 0 .283-.117.385.385 0 0 0 .117-.283.385.385 0 0 0-.117-.283.386.386 0 0 0-.283-.117.384.384 0 0 0-.282.117.385.385 0 0 0-.118.283Zm.85.006.007-.044a.487.487 0 0 0-.237-.463.486.486 0 0 0-.52-.024l-.025.018a.41.41 0 0 0-.18.182l-.02.025a.483.483 0 0 0 .048.544.483.483 0 0 0 .509.2l.037-.007c.24-.045.366-.188.381-.431Zm-.475-.4-.062-.063c-.124-.088-.24-.079-.347.029-.107.107-.117.223-.028.346l.062.063c.124.089.24.08.347-.028.108-.108.117-.223.028-.347Zm-.337-1.063-.006-.044a.39.39 0 0 0-.223-.323.39.39 0 0 0-.392.01.39.39 0 0 0-.207.333.39.39 0 0 0 .165.355l.038.032c.138.102.282.11.431.024a.365.365 0 0 0 .194-.387Zm-.25-.219-.056-.075c-.105-.141-.228-.16-.37-.056-.14.104-.16.227-.056.369l.057.075c.104.141.227.16.368.056.142-.104.16-.227.057-.369Zm-.513-1.131a.41.41 0 0 0 .125.3.41.41 0 0 0 .3.125.41.41 0 0 0 .3-.124.41.41 0 0 0 .125-.301.41.41 0 0 0-.124-.3.41.41 0 0 0-.3-.125.41.41 0 0 0-.301.124.41.41 0 0 0-.125.301Zm-.106-.019c0 .147.052.272.156.376a.512.512 0 0 0 .375.155.512.512 0 0 0 .376-.155.512.512 0 0 0 .156-.376.512.512 0 0 0-.156-.375.512.512 0 0 0-.376-.156.512.512 0 0 0-.375.155.512.512 0 0 0-.156.376Zm1.169-.037.006-.082c.007-.332-.151-.535-.475-.61-.324-.074-.555.04-.694.342l-.031.075a.596.596 0 0 0 .009.535.596.596 0 0 0 .42.332.597.597 0 0 0 .523-.115.596.596 0 0 0 .242-.477Zm-.319-.107.038-.1c.036-.157-.022-.264-.174-.32-.152-.055-.265-.011-.339.133l-.038.1c-.036.158.022.264.174.32.152.055.265.011.34-.133Zm.863-1.387c0 .119.042.22.126.305a.416.416 0 0 0 .305.126c.12 0 .22-.042.305-.126a.416.416 0 0 0 .126-.305.414.414 0 0 0-.126-.305.416.416 0 0 0-.305-.127.415.415 0 0 0-.305.127.416.416 0 0 0-.126.305Zm-.138-.007a.55.55 0 0 0 .167.403.548.548 0 0 0 .402.166.548.548 0 0 0 .402-.166.548.548 0 0 0 .167-.402.548.548 0 0 0-.167-.403.548.548 0 0 0-.402-.166.548.548 0 0 0-.402.166.548.548 0 0 0-.167.402Zm-.112-.03c0 .19.067.351.201.485a.662.662 0 0 0 .486.202c.19 0 .352-.067.487-.202a.663.663 0 0 0 .201-.486.663.663 0 0 0-.201-.486.663.663 0 0 0-.487-.201.663.663 0 0 0-.486.201.662.662 0 0 0-.201.486Zm.069-.05a.61.61 0 0 0 .184.446.608.608 0 0 0 .447.185.608.608 0 0 0 .446-.185.608.608 0 0 0 .185-.447.608.608 0 0 0-.185-.446.608.608 0 0 0-.446-.185.608.608 0 0 0-.447.185.608.608 0 0 0-.184.446Zm.88.124.05-.056c.122-.133.115-.26-.018-.381s-.26-.115-.381.018l-.05.057c-.12.133-.115.26.019.38.133.122.26.115.38-.018Zm.938-.25a.38.38 0 0 0 .116.279.38.38 0 0 0 .278.115.38.38 0 0 0 .279-.115.38.38 0 0 0 .115-.279.38.38 0 0 0-.115-.278.38.38 0 0 0-.279-.116.38.38 0 0 0-.278.116.38.38 0 0 0-.115.278Zm.52.55.03-.006a.561.561 0 0 0 .41-.327.56.56 0 0 0-.032-.523.56.56 0 0 0-.446-.275.56.56 0 0 0-.481.206l-.025.025a.51.51 0 0 0-.05.644.51.51 0 0 0 .593.256Zm.368-.575.006-.081a.227.227 0 0 0-.118-.231l-.075-.044a.365.365 0 0 0-.317-.032.365.365 0 0 0-.23.22.365.365 0 0 0 .017.318.365.365 0 0 0 .252.194.365.365 0 0 0 .312-.065.365.365 0 0 0 .153-.279Zm.925-.156c0 .128.046.237.136.327.09.09.2.135.327.135a.445.445 0 0 0 .327-.135c.09-.09.136-.2.136-.327a.445.445 0 0 0-.136-.327.446.446 0 0 0-.327-.136.446.446 0 0 0-.327.136c-.09.09-.136.2-.136.327Zm.17.094c0 .195.097.293.293.293.196 0 .294-.098.294-.293 0-.196-.098-.294-.294-.294-.196 0-.294.098-.294.294Zm3.475-1.45c0 .106.038.198.113.273a.374.374 0 0 0 .274.114.374.374 0 0 0 .274-.114.374.374 0 0 0 .114-.274.374.374 0 0 0-.114-.274.374.374 0 0 0-.274-.113.374.374 0 0 0-.274.113.374.374 0 0 0-.113.274Zm-.144-.026a.53.53 0 0 0 .161.39.53.53 0 0 0 .39.16.53.53 0 0 0 .388-.16.53.53 0 0 0 .161-.39.53.53 0 0 0-.16-.389.53.53 0 0 0-.39-.16.53.53 0 0 0-.389.16.53.53 0 0 0-.16.39Zm-.106-.037a.65.65 0 0 0 .198.477.65.65 0 0 0 .477.198.65.65 0 0 0 .477-.198.65.65 0 0 0 .198-.477.65.65 0 0 0-.198-.478.65.65 0 0 0-.477-.197.65.65 0 0 0-.477.197.65.65 0 0 0-.198.478Zm-.013-.019c0 .193.069.358.205.495a.675.675 0 0 0 .495.205.675.675 0 0 0 .495-.205.675.675 0 0 0 .205-.495.675.675 0 0 0-.204-.495.675.675 0 0 0-.496-.205.675.675 0 0 0-.495.205.675.675 0 0 0-.205.495Zm.232.013c0 .13.046.243.139.335.093.093.204.14.336.14a.458.458 0 0 0 .336-.14.458.458 0 0 0 .139-.335.458.458 0 0 0-.14-.336.458.458 0 0 0-.335-.14.458.458 0 0 0-.336.14.458.458 0 0 0-.14.336Zm.206 0-.006.043c-.025.18.052.282.23.307.18.025.282-.052.307-.232l.007-.043c.024-.18-.053-.282-.232-.307-.179-.025-.281.052-.306.232Zm.212 1.912c0 .116.041.215.123.297.082.081.18.122.296.122a.4.4 0 0 0 .296-.122.404.404 0 0 0 .123-.297.404.404 0 0 0-.123-.296.404.404 0 0 0-.296-.122.404.404 0 0 0-.296.122.404.404 0 0 0-.123.296Zm-.412-.037c0 .226.08.42.24.579.16.16.353.24.579.24.226 0 .419-.08.579-.24a.79.79 0 0 0 .24-.58.788.788 0 0 0-.24-.578.789.789 0 0 0-.58-.24.79.79 0 0 0-.578.24.789.789 0 0 0-.24.579Zm.044-.031c0 .208.073.387.221.534a.729.729 0 0 0 .535.222.729.729 0 0 0 .535-.221.729.729 0 0 0 .221-.535.729.729 0 0 0-.221-.535.729.729 0 0 0-.535-.222.729.729 0 0 0-.535.222.729.729 0 0 0-.221.535Zm.325-.02c0 .117.04.215.122.297.082.082.18.123.296.123a.405.405 0 0 0 .297-.123.404.404 0 0 0 .122-.296.403.403 0 0 0-.122-.296.404.404 0 0 0-.297-.123.404.404 0 0 0-.296.123.403.403 0 0 0-.122.296Zm.525-.237-.013-.006c-.143-.05-.25-.007-.32.128-.07.136-.042.247.083.335l.012.006c.144.05.25.007.32-.128.07-.136.042-.247-.082-.335Z"/><path d="M30.444 10.672c0 .114.04.211.121.292.08.08.178.12.292.12.114 0 .21-.04.291-.12a.396.396 0 0 0 .121-.292.397.397 0 0 0-.12-.291.397.397 0 0 0-.292-.121.398.398 0 0 0-.292.12.398.398 0 0 0-.12.292Zm-.15.006c0 .156.055.288.165.398.11.11.242.165.398.165a.542.542 0 0 0 .398-.165.542.542 0 0 0 .164-.398.542.542 0 0 0-.164-.397.542.542 0 0 0-.398-.165.542.542 0 0 0-.398.165.542.542 0 0 0-.165.397Zm-.144.007c0 .193.069.358.205.495a.675.675 0 0 0 .495.205.675.675 0 0 0 .496-.205.675.675 0 0 0 .205-.495.675.675 0 0 0-.205-.495.675.675 0 0 0-.495-.205.675.675 0 0 0-.496.205.675.675 0 0 0-.205.495Zm-.025-.007c0 .2.07.368.21.509.141.14.31.21.51.21.198 0 .367-.07.508-.21.14-.14.21-.31.21-.508a.692.692 0 0 0-.21-.509.693.693 0 0 0-.509-.21.693.693 0 0 0-.508.21c-.14.14-.21.31-.21.508Zm.244-.018a.44.44 0 0 0 .134.322.44.44 0 0 0 .323.134.44.44 0 0 0 .322-.133.44.44 0 0 0 .134-.323.44.44 0 0 0-.134-.323.44.44 0 0 0-.322-.133.44.44 0 0 0-.323.133.44.44 0 0 0-.134.323Zm.7-.132-.012-.03c-.067-.171-.186-.223-.356-.157-.17.067-.223.186-.157.356l.013.032c.066.17.185.223.356.156.17-.067.223-.186.156-.357ZM29.038 9.01c0 .11.039.204.117.282a.385.385 0 0 0 .283.118.39.39 0 0 0 .283-.118.385.385 0 0 0 .117-.283.385.385 0 0 0-.117-.282.386.386 0 0 0-.283-.118c-.11 0-.205.04-.283.118a.385.385 0 0 0-.117.282Zm-.125 0c0 .141.05.262.15.362.1.1.22.15.362.15s.263-.05.363-.15c.1-.1.15-.221.15-.363a.494.494 0 0 0-.15-.362.494.494 0 0 0-.363-.15.494.494 0 0 0-.362.15c-.1.1-.15.22-.15.362Zm-.12 0c0 .165.06.307.177.424a.578.578 0 0 0 .424.176.578.578 0 0 0 .424-.176.578.578 0 0 0 .176-.425.578.578 0 0 0-.176-.424.578.578 0 0 0-.424-.176.578.578 0 0 0-.424.176.578.578 0 0 0-.176.424Zm.038.012a.53.53 0 0 0 .162.389.53.53 0 0 0 .389.161.53.53 0 0 0 .388-.161.53.53 0 0 0 .162-.389.53.53 0 0 0-.162-.389.53.53 0 0 0-.389-.161.53.53 0 0 0-.389.161.53.53 0 0 0-.16.389Zm.17.012c0 .11.038.205.116.283a.385.385 0 0 0 .283.118c.11 0 .205-.04.283-.118a.385.385 0 0 0 .117-.283.385.385 0 0 0-.117-.282.385.385 0 0 0-.283-.118.39.39 0 0 0-.283.118.385.385 0 0 0-.117.282Zm.343.25.031.013c.153.042.258-.011.314-.16.057-.147.015-.256-.126-.328l-.031-.012c-.153-.042-.258.011-.314.159-.057.148-.015.257.126.329Z"/><path d="M29.256 9.235c0 .112.04.208.12.287.079.08.175.119.287.119.112 0 .208-.04.287-.12a.392.392 0 0 0 .12-.286.392.392 0 0 0-.12-.288.392.392 0 0 0-.287-.119.392.392 0 0 0-.288.12.392.392 0 0 0-.119.287Zm-.062.006c0 .13.046.24.137.331a.452.452 0 0 0 .332.138c.13 0 .24-.046.331-.138a.452.452 0 0 0 .138-.331c0-.13-.046-.24-.138-.332a.452.452 0 0 0-.331-.137c-.13 0-.24.046-.332.137a.452.452 0 0 0-.137.332Zm-.188.025c0 .181.065.336.193.464a.633.633 0 0 0 .464.192.633.633 0 0 0 .464-.192.633.633 0 0 0 .192-.464.633.633 0 0 0-.192-.464.633.633 0 0 0-.464-.193.633.633 0 0 0-.464.193.633.633 0 0 0-.193.464Zm.282-.613-.032.019a.755.755 0 0 0-.412.769l.006.081a.848.848 0 0 0 .206.494l.125.15c.03.034.06.065.094.094l.22.187c.029.027.06.052.093.075l.294.194a.88.88 0 0 0 .35.138l.306.05c.118.02.234.01.347-.03a.683.683 0 0 0 .288-.194.683.683 0 0 0 .159-.31.683.683 0 0 0-.013-.348l-.087-.3a.878.878 0 0 0-.244-.4l-.256-.237a.898.898 0 0 0-.081-.07l-.232-.174a.909.909 0 0 0-.156-.094l-.175-.081a.863.863 0 0 0-.144-.05l-.081-.025a.81.81 0 0 0 .194.081l-.032-.019a.712.712 0 0 0-.737 0Zm1.394 1.988.181.219c.117.137.244.148.381.031.138-.117.148-.244.032-.381l-.182-.219c-.116-.137-.243-.147-.38-.03-.138.116-.148.243-.032.38Z"/><path d="M28.763 8.84a.38.38 0 0 0 .115.28.38.38 0 0 0 .279.115.38.38 0 0 0 .278-.116.38.38 0 0 0 .115-.278.38.38 0 0 0-.115-.279.38.38 0 0 0-.278-.115.38.38 0 0 0-.279.115.38.38 0 0 0-.115.279Zm-.207 0a.58.58 0 0 0 .176.425.578.578 0 0 0 .425.176.578.578 0 0 0 .424-.176.578.578 0 0 0 .176-.424.578.578 0 0 0-.176-.425.578.578 0 0 0-.424-.175.578.578 0 0 0-.425.175.578.578 0 0 0-.176.425Zm.02.407.068.106c.069.113.16.203.275.27l.244.143a.99.99 0 0 0 .093.044l.388.162a.862.862 0 0 0 .019.006l.519.207a.77.77 0 0 0 .08.031l.588.156h.007l.562.144.5.144h.007l.387.112a.396.396 0 0 0 .038.007l.275.05c.101.019.195 0 .281-.057l.094-.062a.248.248 0 0 0-.181.037l.08.013c.146-.002.229-.075.25-.218.022-.144-.036-.238-.174-.282l-.081-.013c.04.08.105.126.194.138l-.05-.1a.373.373 0 0 0-.144-.163l-.238-.137a.417.417 0 0 0-.025-.02l-.344-.174-.412-.263-.457-.337-.487-.357a.779.779 0 0 0-.088-.062l-.494-.263a.809.809 0 0 0-.08-.043l-.395-.157a.795.795 0 0 0-.03-.012l-.264-.094a.785.785 0 0 0-.18-.044l-.132-.012a.675.675 0 0 0-.69.334.675.675 0 0 0-.004.766Z"/><path d="M30.275 7.915a.37.37 0 0 0 .112.27.367.367 0 0 0 .27.111.367.367 0 0 0 .27-.111.367.367 0 0 0 .111-.27.367.367 0 0 0-.112-.269.367.367 0 0 0-.27-.111.367.367 0 0 0-.269.111.368.368 0 0 0-.112.27Zm-.068-.03c0 .124.044.23.131.317a.434.434 0 0 0 .319.132c.124 0 .23-.044.318-.132a.434.434 0 0 0 .132-.318.434.434 0 0 0-.132-.318.434.434 0 0 0-.318-.132.434.434 0 0 0-.319.132.434.434 0 0 0-.131.318Zm-.1-.063c0 .153.054.284.163.393.108.109.24.163.393.163a.536.536 0 0 0 .393-.163.536.536 0 0 0 .163-.393.536.536 0 0 0-.163-.394.536.536 0 0 0-.393-.163.536.536 0 0 0-.393.163.536.536 0 0 0-.163.394Zm.187-.607-.012.013a.755.755 0 0 0-.357.675l.007.288a.88.88 0 0 0 0 .056l.043.506c.001.025.003.05.007.075l.112.675c.01.052.024.102.044.15l.262.67.238.593.006.538c0 .17.086.256.257.256.17 0 .256-.086.256-.256l-.006-.544.206-.613v-.006l.219-.688a.76.76 0 0 0 .037-.187l.044-.682a.83.83 0 0 0-.006-.125l-.044-.506a.832.832 0 0 0-.031-.163l-.082-.275a.775.775 0 0 0-.345-.454.775.775 0 0 0-.561-.108h-.019a.692.692 0 0 0-.275.112Z"/></g><defs><clipPath id="a"><path fill="#fff" d="M0 0h41v36H0z"/></clipPath></defs></svg>