<svg width="32" height="36" fill="none" xmlns="http://www.w3.org/2000/svg"><g clip-path="url(#a)" fill="#000"><path d="m8.985 19.092.006.006a.293.293 0 0 0 .03.036l.035.035a.33.33 0 0 0 .12.077l.148.054h.006l.249.089.309.125.332.195.339.214a.402.402 0 0 0 .089.042l.35.113a.404.404 0 0 0 .113.018l.374.011h.024l.386-.011.38-.006a.437.437 0 0 0 .113-.018l.368-.107.338-.083.291-.006c.139-.004.206-.076.202-.214-.004-.139-.075-.206-.214-.202l-.279.006-.326-.089-.357-.13a.43.43 0 0 0-.16-.024l-.386.017a.422.422 0 0 0-.047.006l-.345.054-.279-.012-.25-.077-.302-.19h-.006l-.35-.22a.409.409 0 0 0-.066-.03l-.35-.136a.406.406 0 0 0-.071-.024l-.274-.053a.383.383 0 0 0-.148.006l-.148.03a.334.334 0 0 0-.125.047l-.042.03a.294.294 0 0 0-.071.07l-.006.007c-.084.114-.084.23 0 .344Zm9.002-.849c0 .182.091.273.274.273.182 0 .273-.091.273-.273 0-.182-.091-.273-.273-.273-.183 0-.274.09-.274.273Zm.529-.143c-.132-.072-.252-.057-.361.046-.11.103-.132.223-.067.358l.036.018a.33.33 0 0 0 .113.041l.19.03h.018l.397.042h.03l.66.023.854.03h.012l.944.006h.006l.897-.012.76.006h.006l.552-.006h.012l.362-.018h.018l.166-.017a.312.312 0 0 0 .06-.38.312.312 0 0 0-.333-.19l-.196.106-.006.006-.457.256a.223.223 0 0 0-.012.012l-.623.386a.265.265 0 0 0-.012.006l-.76.504a.332.332 0 0 0-.012.006l-.796.582-.006.006-.736.558-.006.006-.6.47-.475.338-.362.243-.232.137-.136.053a.374.374 0 0 0 .332.03l-.077-.048c-.018.171.047.3.196.386l.018-.148.113-.345.243-.623.38-.85.5-.985.54-.98.486-.849.006-.006.35-.635.209-.309.1-.06a.337.337 0 0 0-.214-.162.338.338 0 0 0-.267.038l.072.119.065.356.083.641.107.808.107.903.083.926.06.867.041.724.006.535-.012.267-.03.077a.389.389 0 0 0 .37.063.389.389 0 0 0 .266-.265l-.048-.035-.136-.184-.262-.416-.344-.558-.41-.665-.006-.006-.445-.677a.402.402 0 0 0-.024-.03l-.469-.606a.402.402 0 0 0-.047-.047l-.487-.445a.347.347 0 0 0-.072-.054l-.433-.226-.261-.207c-.105-.07-.197-.056-.276.042-.08.097-.075.19.014.278l.25.202.237.404a.356.356 0 0 0 .024.036l.392.522.445.606.44.659.404.665v.006l.356.552a.331.331 0 0 0 .006.006l.279.422a.425.425 0 0 0 .012.018l.184.249a.415.415 0 0 0 .1.095l.102.071a.389.389 0 0 0 .369.046.389.389 0 0 0 .254-.271l.042-.131a.408.408 0 0 0 .018-.125l-.006-.338v-.024l-.042-.546-.041-.737a.331.331 0 0 0-.006-.006L22.6 19.9l-.006-.006-.083-.939-.006-.006-.1-.908a.164.164 0 0 0-.007-.006l-.107-.808v-.006l-.095-.647v-.024l-.095-.427a.359.359 0 0 0-.059-.13l-.119-.173c-.128-.175-.285-.205-.469-.09l-.166.102a.348.348 0 0 0-.101.095l-.273.386a.439.439 0 0 0-.006.012l-.398.623a.328.328 0 0 0-.012.012l-.493.855-.006.006-.552.98v.012l-.517.998a.367.367 0 0 0-.011.017l-.392.855a.37.37 0 0 0-.006.018l-.261.642a.406.406 0 0 0-.012.023l-.131.398a.394.394 0 0 0-.018.095l-.012.19a.368.368 0 0 0 .214.386l.077.036a.373.373 0 0 0 .339.006l.172-.072a.37.37 0 0 0 .047-.03l.268-.172a.328.328 0 0 0 .012-.011l.368-.256a.374.374 0 0 0 .017-.017l.464-.375.6-.475.73-.564.784-.576.742-.51.612-.386.445-.262.232-.124a.338.338 0 0 0 .077-.06l.035-.035a.313.313 0 0 0 .07-.373.313.313 0 0 0-.32-.203l-.165.011-.357.006-.546.006-.748-.006-.89-.047-.945-.054h-.012l-.855-.03-.653-.023a.376.376 0 0 0-.048 0l-.398.03h-.03l-.19.03a.325.325 0 0 0-.177.088l-.03.03c-.067.152-.034.276.1.374.134.098.263.092.387-.018a.281.281 0 0 0 0-.273Z"/><path d="m21.39 15.31-.03-.013a.282.282 0 0 0-.077-.023l-.125-.024a.332.332 0 0 0-.03-.006l-.243-.012a.315.315 0 0 0-.024-.006H20.5a.328.328 0 0 0-.047.006l-.452.066a.343.343 0 0 0-.07.017l-.523.202a.343.343 0 0 0-.066.03l-.582.374a.347.347 0 0 0-.053.042l-.618.605a.343.343 0 0 0-.035.036l-.565.766a.353.353 0 0 0-.035.06l-.422.902a.351.351 0 0 0-.03.083l-.19.98a.353.353 0 0 0 0 .119l.155.98a.334.334 0 0 0 .036.106l.469.885a.31.31 0 0 0 .06.083l.765.719c.018.016.038.03.06.041l.914.499a.261.261 0 0 0 .012.006l.802.374c.122.055.211.022.267-.1.055-.124.021-.213-.101-.268l-.784-.362-.79-.6-.659-.719-.392-.813-.107-.873.172-.885.38-.831.523-.719.57-.552.529-.326.463-.179.398-.095.338-.035.226-.012h.166c.142-.009.228-.083.256-.223.029-.14-.021-.242-.15-.306Z"/><path d="m24.3 21.485.083-.095a.329.329 0 0 0 .047-.077l.155-.32a.395.395 0 0 0 .03-.102l.1-.552a.416.416 0 0 0 .006-.077l.006-.754a.43.43 0 0 0-.006-.084l-.178-.884a.428.428 0 0 0-.03-.095l-.421-.915a.41.41 0 0 0-.048-.083l-.647-.825a.39.39 0 0 0-.071-.072l-.837-.64a.396.396 0 0 0-.125-.066l-.968-.303a.385.385 0 0 0-.208-.012l-.914.22h-.006l-.778.22c-.143.04-.194.13-.155.273.04.142.131.194.274.154l.736-.208.843.113.873.28.748.557.558.76.345.85.16.807.018.683-.071.529a.398.398 0 0 0-.006.047l-.006.356a.36.36 0 0 0 0 .042l.018.13c.016.116.08.19.192.224a.254.254 0 0 0 .283-.08ZM5.768 1.757l-.035-.03c-.15-.102-.286-.085-.406.051-.12.137-.12.273 0 .409.12.136.256.153.406.051l.035-.03a.265.265 0 0 0 .115-.225.265.265 0 0 0-.115-.226Zm-.6.22c0 .098.035.182.105.252.07.07.153.104.252.104a.343.343 0 0 0 .252-.104.343.343 0 0 0 .104-.252.343.343 0 0 0-.104-.252.343.343 0 0 0-.252-.105.343.343 0 0 0-.252.105.343.343 0 0 0-.104.252Zm-.094-.012a.42.42 0 0 0 .128.31c.086.086.19.13.311.13a.423.423 0 0 0 .31-.13.423.423 0 0 0 .13-.31.423.423 0 0 0-.13-.31.423.423 0 0 0-.31-.13.423.423 0 0 0-.31.13.423.423 0 0 0-.13.31Zm.6.44.094-.024.19-.048.368-.06a.58.58 0 0 0 .036-.005l.552-.125.701-.154.837-.173.992-.148 1.17-.113 1.33-.065 1.473-.024 1.555.06 1.645.124 1.675.19 1.668.232 1.64.267 1.597.255a.58.58 0 0 0 .006 0l1.508.232a.58.58 0 0 0 .006 0l1.39.202h.023l1.224.142a.55.55 0 0 0 .112 0l.92-.089.642.018.41.077c.13.024.208-.03.231-.16.024-.13-.03-.208-.16-.232l-.41-.07-.611-.215-.844-.386a.549.549 0 0 0-.124-.035l-1.206-.244a.619.619 0 0 0-.017-.006l-1.384-.237-1.508-.256-1.598-.267-1.645-.267a.715.715 0 0 0-.017-.006l-1.68-.237h-.013L16.754.356h-.024L15.062.219h-.03l-1.586-.06h-.035l-1.503.024h-.035l-1.354.101h-.024l-1.2.137h-.023L8.245.575a.63.63 0 0 0-.036.006l-.855.184a.623.623 0 0 0-.03.006l-.7.19a.612.612 0 0 0-.036.012l-.54.184a.576.576 0 0 0-.066.024l-.344.172-.208.095a.497.497 0 0 0-.054.024l-.083.053c-.224.151-.282.35-.175.598.107.248.292.341.555.281Zm2.511 4.263c0 .174.087.261.262.261.174 0 .26-.087.26-.261 0-.174-.086-.261-.26-.261-.175 0-.262.087-.262.26Zm.452.202.005-.006.036-.03.101-.065.178-.09.28-.1.296-.066.25-.017.213.035.25.101.332.149a.375.375 0 0 0 .018.006l.422.16a.312.312 0 0 0 .023.012l.493.142a.329.329 0 0 0 .036.006l.54.101c.02.004.04.006.06.006h1.14l.516-.012.375.077.273.155.32.261a.33.33 0 0 0 .042.03l.487.297a.32.32 0 0 0 .089.035l.736.184c.03.008.06.012.09.012l.955-.023a.344.344 0 0 0 .054 0l1.045-.19a.327.327 0 0 0 .036-.012l.991-.291h.006l.838-.262h.011l.6-.213.404-.078c.13-.023.184-.1.16-.231-.024-.13-.1-.184-.231-.16l-.416.083-.635.077a.269.269 0 0 0-.03.006l-.855.202-1.004.22-1.015.172-.89.023-.648-.136-.416-.256-.315-.279a.332.332 0 0 0-.07-.047l-.351-.178a.323.323 0 0 0-.143-.036l-.463-.012h-.024l-.534.036-.54-.012-.529-.09-.516-.106-.47-.137-.392-.16-.332-.154a.335.335 0 0 0-.018-.006l-.29-.113a.337.337 0 0 0-.072-.018l-.285-.047a.33.33 0 0 0-.107 0l-.315.053a.32.32 0 0 0-.047.012l-.333.107a.299.299 0 0 0-.012.006l-.308.113a.304.304 0 0 0-.03.011l-.214.107a.302.302 0 0 0-.041.03l-.12.083a.301.301 0 0 0-.059.066l-.041.053a.286.286 0 0 0-.06.142v.024a.256.256 0 0 0 .151.284c.117.06.223.044.319-.046Zm-.481 3.456.017-.03a.297.297 0 0 0 .018-.024l.036-.06.065-.07.125-.09.267-.118.368-.119.368-.077.315-.018.291.071.362.143a.42.42 0 0 0 .066.018l.516.107a.417.417 0 0 0 .042.006l.605.065h.03l.612.03.95.041.297.018.214.053.267.131.392.226.03.017.534.256c.02.01.043.017.065.024l.683.201a.422.422 0 0 0 .083.018l.843.066a.432.432 0 0 0 .054 0l.98-.036a.394.394 0 0 0 .023-.006l1.04-.09a.443.443 0 0 0 .041-.005l.98-.184.813-.137.6-.065.392.006c.13 0 .196-.065.196-.196 0-.13-.065-.196-.196-.196l-.398-.006-.617-.03-.838-.035h-.012l-.997-.006h-.036l-1.039.083-.944.042-.778-.054-.6-.172-.48-.238-.38-.237a.444.444 0 0 0-.042-.024l-.321-.154a.43.43 0 0 0-.077-.03l-.291-.077a.44.44 0 0 0-.083-.018l-.345-.024a.44.44 0 0 0-.018 0l-.95-.03-.593-.03-.582-.064-.511-.078a.476.476 0 0 0-.018-.006l-.415-.047h-.006l-.375-.036a.342.342 0 0 0-.047 0l-.386.018a.344.344 0 0 0-.053.012l-.416.089a.344.344 0 0 0-.048.012l-.392.142a.334.334 0 0 0-.053.024l-.291.166a.32.32 0 0 0-.053.036l-.173.149a.307.307 0 0 0-.041.047l-.095.125a.301.301 0 0 0-.042.071l-.035.089a.295.295 0 0 0-.024.113l.006.03c-.004.137.059.228.189.272.13.044.235.01.316-.1Zm1.146 3.354.011-.005a.29.29 0 0 0-.041.024l.035-.018a.328.328 0 0 0 .054-.042l.077-.06.09-.076.136-.083.214-.084.26-.023.298.089.38.267.469.428.006.005.534.476a.48.48 0 0 0 .143.089l.73.296a.497.497 0 0 0 .119.03l.867.13a.486.486 0 0 0 .095 0l.95-.04a.39.39 0 0 0 .024-.007l.956-.095.86-.089.654-.012.44.036.296.053.31.084a.42.42 0 0 0 .106.017l.44.018a.449.449 0 0 0 .243-.053l.362-.202.41-.048c.158-.02.227-.109.207-.267-.02-.158-.108-.227-.267-.208l-.392.048-.368-.155a.454.454 0 0 0-.148-.03l-.398-.029-.267-.065-.315-.113a.486.486 0 0 0-.125-.024l-.48-.036a.484.484 0 0 0-.107.006l-.69.095-.86.131-.915.065-.896-.053-.796-.137-.683-.237-.588-.285-.493-.374-.44-.327a.354.354 0 0 0-.106-.06l-.422-.13a.36.36 0 0 0-.142-.012l-.38.03a.358.358 0 0 0-.095.024l-.291.113a.365.365 0 0 0-.06.03l-.184.112a.36.36 0 0 0-.06.047l-.106.107a.352.352 0 0 0-.089.125l-.036.09a.32.32 0 0 0 .006.255l.018.041a.291.291 0 0 0-.018-.041l.006.011a.27.27 0 0 0 .186.196.269.269 0 0 0 .266-.047Zm.902 3.457-.018-.018a.298.298 0 0 0-.142-.077l-.113-.024a.304.304 0 0 0-.06-.006h-.124l-.083-.018-.054-.023a.283.283 0 0 0-.255.01.283.283 0 0 0-.152.205.283.283 0 0 0 .063.248c.06.072.137.108.232.107h.065l.083.011.101.042c.02.008.039.014.06.018l.112.024a.3.3 0 0 0 .054.006h.03a.268.268 0 0 0 .274-.183.268.268 0 0 0-.073-.322Zm-.635.415.107-.023a.427.427 0 0 0 .041-.012l.214-.083.333-.095.439-.077.57-.036.677.018.713.071.688.119.683.178h.012l.713.16a.407.407 0 0 0 .047.012l.76.077.683.066.523.112c.118.01.19-.043.214-.159.025-.116-.019-.194-.131-.232l-.523-.107-.629-.232-.689-.309a.372.372 0 0 0-.018-.006l-.683-.267a.457.457 0 0 0-.041-.012l-.695-.19a.46.46 0 0 0-.041-.012l-.725-.13a.532.532 0 0 0-.036-.006l-.748-.077a.426.426 0 0 0-.035-.006l-.713-.018a.47.47 0 0 0-.047 0l-.618.047a.47.47 0 0 0-.06.006l-.492.101a.474.474 0 0 0-.077.024l-.357.142a.444.444 0 0 0-.1.06l-.197.148a.402.402 0 0 0-.136.173l-.042.095a.332.332 0 0 0 .06.368c.096.11.214.148.356.112Z"/><path d="M5.167 20.556c0 .19.095.285.285.285.19 0 .285-.095.285-.285 0-.19-.095-.285-.285-.285-.19 0-.285.095-.285.285Zm.6.042.012-.06a.362.362 0 0 0 0-.047l.005-.107a.408.408 0 0 0-.011-.113l-.048-.172a.434.434 0 0 0-.018-.066l-.089-.207-.125-.291-.124-.41-.149-.529-.178-.694-.202-.85-.22-1.009-.22-1.14-.183-1.295-.196-1.383-.16-1.42-.066-1.454.065-1.473.238-1.449.457-1.407.642-1.336.605-1.164.808-.713c.119-.103.127-.213.024-.332-.103-.119-.214-.127-.333-.024l-.837.736-1.093.796a.553.553 0 0 0-.148.154l-.814 1.307a.64.64 0 0 0-.06.13l-.504 1.49a.652.652 0 0 0-.024.096L2.548 7.7a.664.664 0 0 0-.012.083l-.071 1.538v.06l.065 1.508a.661.661 0 0 0 .006.047l.167 1.45a.678.678 0 0 0 .005.023l.22 1.395v.03l.267 1.295.238 1.158a.6.6 0 0 0 .006.023l.237 1.01a.589.589 0 0 0 .012.047l.273.843a.555.555 0 0 0 .018.042l.28.671v.012l.23.51a.236.236 0 0 0 .007.006l.19.41.13.303a.388.388 0 0 0 .006.012l.095.208.012.03.083.154a.41.41 0 0 0 .072.089l.071.077c.022.02.045.039.071.054l.048.035c.099.06.2.067.306.019a.309.309 0 0 0 .187-.244Z"/><path d="M4.033 3.757c0 .202.1.303.302.303.202 0 .303-.101.303-.303 0-.202-.1-.303-.303-.303-.201 0-.302.101-.302.303Zm-.054-.012c0 .095.034.176.101.244.067.067.149.1.244.1a.332.332 0 0 0 .243-.1.332.332 0 0 0 .101-.244.332.332 0 0 0-.1-.243.332.332 0 0 0-.244-.101.332.332 0 0 0-.244.1.332.332 0 0 0-.1.244Zm.647.202.084-.101a.47.47 0 0 0 .006-.012l.19-.261.332-.457.523-.582.694-.594.737-.558.67-.422.63-.136c.139-.032.192-.117.16-.256-.031-.138-.116-.192-.255-.16l-.653.148-.825.107a.396.396 0 0 0-.113.03l-.873.386a.502.502 0 0 0-.113.065l-.754.594a.528.528 0 0 0-.06.053l-.575.618a.54.54 0 0 0-.048.053l-.344.487a.53.53 0 0 0-.084.167l-.083.308a.464.464 0 0 0 .006.285l.042.12c.053.15.16.24.318.267a.384.384 0 0 0 .388-.149ZM3.56 28.678c0 .198.1.297.297.297.198 0 .297-.1.297-.297 0-.198-.099-.297-.297-.297-.198 0-.296.099-.296.297Zm-.005 0c0 .202.1.302.302.302.202 0 .303-.1.303-.302 0-.202-.1-.303-.303-.303-.201 0-.302.1-.302.303Zm.6.07.005-.035a.405.405 0 0 0 .012-.178l-.024-.136a.49.49 0 0 0-.059-.179l-.13-.207a.538.538 0 0 0-.036-.054l-.202-.267a.6.6 0 0 0-.03-.036l-.297-.32-.344-.374-.35-.398-.303-.398-.214-.445-.09-.505.084-.636.261-.748.374-.831.368-.766.553-.487c.115-.1.122-.206.023-.32-.098-.116-.205-.123-.32-.025l-.576.505-.754.463a.488.488 0 0 0-.12.107l-.599.725a.62.62 0 0 0-.107.19l-.303.837a.62.62 0 0 0-.03.137l-.088.795a.614.614 0 0 0 .006.196l.142.677c.011.052.03.102.054.149l.279.564a.6.6 0 0 0 .065.107l.362.457a.593.593 0 0 0 .036.041l.38.404a.624.624 0 0 0 .024.024l.368.35.303.303a.606.606 0 0 0 .012.012l.243.232a.6.6 0 0 0 .018.012l.19.16a.499.499 0 0 0 .166.095l.137.047a.398.398 0 0 0 .273-.012l.035-.011a.316.316 0 0 0 .202-.22Z"/><path d="M4.546 21.623c0 .202.101.303.303.303.202 0 .303-.101.303-.303 0-.202-.101-.303-.303-.303-.202 0-.303.101-.303.303Zm-.041-.012c0 .092.032.17.097.235a.32.32 0 0 0 .235.098.32.32 0 0 0 .235-.098.32.32 0 0 0 .098-.235.32.32 0 0 0-.098-.235.32.32 0 0 0-.235-.097.32.32 0 0 0-.235.097.32.32 0 0 0-.097.235Zm.712-.03v-.053a.446.446 0 0 0-.077-.267l-.077-.113a.51.51 0 0 0-.09-.095l-.171-.143a.562.562 0 0 0-.155-.095l-.29-.112a.584.584 0 0 0-.173-.042l-.404-.03a.595.595 0 0 0-.13.006l-.481.072a.599.599 0 0 0-.16.047l-.505.232a.601.601 0 0 0-.179.13l-.457.463a.573.573 0 0 0-.166.416l-.006.642-.226.647c-.027.136.025.228.155.276.13.048.229.011.297-.11l.22-.618.498-.35a.594.594 0 0 0 .065-.053l.404-.386.333-.167.332-.053.297.012.25.053.202.042.124.036c.055.014.11.018.166.011l.054-.006c.232-.027.348-.158.35-.392Z"/><path d="m3.044 21.694-.012-.023a.341.341 0 0 0-.083-.107l-.06-.054a.401.401 0 0 0-.077-.047l-.107-.054a.448.448 0 0 0-.243-.047l-.166.012a.493.493 0 0 0-.196.053l-.208.107a.537.537 0 0 0-.119.09l-.231.225a.595.595 0 0 0-.107.13l-.22.375a.644.644 0 0 0-.06.142l-.16.529a.662.662 0 0 0-.023.118l-.072.63a.66.66 0 0 0 .012.213l.143.648c.009.05.025.097.047.142l.309.576a.6.6 0 0 0 0 .006l.285.523.172.427c.063.115.155.148.276.098.121-.05.164-.138.128-.264l-.166-.41-.06-.534.078-.606.089-.653a.58.58 0 0 0 .006-.018l.065-.594.113-.475.112-.344.09-.184.053-.06.071-.041.09-.048a.416.416 0 0 0 .035-.023l.065-.042a.343.343 0 0 0 .066-.053l.017-.018a.285.285 0 0 0 .048-.345Z"/><path d="M1.743 22.3c0 .206.103.309.31.309.205 0 .308-.103.308-.309 0-.206-.103-.309-.309-.309-.206 0-.309.103-.309.31Zm-.041 0a.33.33 0 0 0 .099.24.327.327 0 0 0 .24.099.326.326 0 0 0 .239-.1.326.326 0 0 0 .099-.239.326.326 0 0 0-.1-.24.326.326 0 0 0-.239-.098.326.326 0 0 0-.24.099.326.326 0 0 0-.098.24Zm.392-.386-.083-.024a.473.473 0 0 0-.327.036l-.154.071a.526.526 0 0 0-.149.101l-.184.184a.579.579 0 0 0-.1.137l-.185.332a.626.626 0 0 0-.06.149l-.13.493a.657.657 0 0 0-.018.119l-.041.629a.67.67 0 0 0 0 .089l.041.7a.67.67 0 0 0 .012.084l.137.7a.78.78 0 0 0 .017.084l.22.67c.01.03.022.057.036.084l.285.588c.022.046.05.09.083.13l.398.493a.624.624 0 0 0 .166.143l.51.303a.453.453 0 0 0 .15.059l.492.095.392.243c.105.048.188.022.248-.077.06-.098.045-.184-.046-.255l-.374-.232-.214-.427a.55.55 0 0 0-.006-.012l-.279-.529a.612.612 0 0 0-.018-.041l-.315-.505-.255-.517-.19-.587-.113-.618-.041-.63.023-.558.066-.445.065-.285.06-.143.07-.095a.484.484 0 0 0 .066-.118l.03-.078a.393.393 0 0 0-.022-.334.393.393 0 0 0-.263-.206Zm2.191-.624c0 .167.083.25.25.25.166 0 .249-.083.249-.25 0-.166-.083-.249-.25-.249-.166 0-.249.083-.249.25Zm.261-.296-.06-.006a.364.364 0 0 0-.017-.006l-.071-.006-.054-.006-.083-.024-.095-.036-.083-.047-.095-.065a.34.34 0 0 0-.024-.018l-.077-.042c.02.116.08.2.184.256l-.006-.03a.387.387 0 0 0-.179-.276.387.387 0 0 0-.325-.051.387.387 0 0 0-.255.207.387.387 0 0 0-.016.329c.043.112.12.189.233.231a.387.387 0 0 0 .328-.018l.03-.018a.341.341 0 0 0-.29.024l.076.03a.35.35 0 0 0 .054.011l.107.024.118.03.131.035.107.036c.017.005.035.01.053.012l.095.006a.275.275 0 0 0 .012.006l.083.005h.06c.17-.012.262-.102.28-.271.016-.17-.057-.277-.22-.322Zm-1.17.38.12.107a.55.55 0 0 0 .13.089l.38.184a.595.595 0 0 0 .047.023l.636.244a.563.563 0 0 0 .018.006l.86.297a.64.64 0 0 0 .024.006l1.051.315a.546.546 0 0 0 .012.005l1.224.345h.005l1.354.368h.012l1.408.362 1.365.345.012.006 1.277.302h.006l1.182.268h.011l1.087.22h.012l.974.166.89.154h.007l.801.13.736.161.683.178.624.178.528.155a.315.315 0 0 0 .024.006l.434.089a.282.282 0 0 0 .047.006l.28.012.154.047c.13.04.215-.006.255-.137.04-.13-.006-.215-.137-.255l-.16-.041-.232-.143a.275.275 0 0 0-.059-.03l-.416-.142a.286.286 0 0 0-.017-.006l-.535-.154-.623-.179-.695-.19-.736-.202-.784-.231-.861-.261a.439.439 0 0 0-.012-.006l-.95-.268a.514.514 0 0 0-.024-.006l-1.075-.255-.006-.006-1.175-.267-1.265-.309-1.354-.362-1.384-.41-.006-.006-1.348-.392-1.217-.35-1.033-.32-.844-.298-.629-.237a.56.56 0 0 0-.036-.012l-.403-.125a.547.547 0 0 0-.238-.017l-.16.023a.442.442 0 0 0-.387.33.442.442 0 0 0 .131.49Z"/><path d="M13.988 24.093c0 .17.085.256.255.256.17 0 .255-.085.255-.256 0-.17-.085-.255-.255-.255-.17 0-.255.085-.255.255Zm.06.208.017.024a.312.312 0 0 0 .053.036l.12.07a.363.363 0 0 0 .053.03l.314.125a.426.426 0 0 0 .042.012l.558.166a.62.62 0 0 0 .018.006l.772.184.926.226 1.022.255h.006l1.045.244a.37.37 0 0 0 .018.006l.991.184.873.208h.012l.76.154.006.006.606.113.469.1a.282.282 0 0 0 .053.007l.309.006.178.047c.13.036.214-.012.25-.142.035-.13-.013-.214-.143-.25l-.184-.047-.28-.143a.274.274 0 0 0-.047-.018l-.457-.13-.588-.196h-.018l-.742-.214h-.006l-.867-.243-.956-.303a.37.37 0 0 0-.018-.006l-1.033-.285h-.012l-1.021-.256-.006-.005-.932-.22-.012-.006-.778-.154-.006-.006-.57-.107a.422.422 0 0 0-.048-.006l-.344-.024a.368.368 0 0 0-.101.006l-.13.03a.31.31 0 0 0-.155.077l-.018.024a.274.274 0 0 0-.09.207c0 .083.03.152.09.208Zm-10.7 4.226c0 .182.091.273.273.273.182 0 .273-.09.273-.273 0-.182-.09-.273-.273-.273-.182 0-.273.091-.273.273Zm.095.255.071.06c.015.013.03.025.048.036l.214.124a.347.347 0 0 0 .023.012l.452.22h.006l.772.35h.005l1.087.487a.275.275 0 0 0 .012.006l1.384.57 1.591.66a.375.375 0 0 0 .018.005l1.8.63a.62.62 0 0 0 .017.006l1.882.57h.018l1.83.487 1.697.427 1.467.362 1.223.31h.006l.974.23a.331.331 0 0 0 .006.007l.725.154.463.13.267.102c.174.067.295.013.362-.16.067-.175.014-.295-.16-.363l-.28-.107h-.005l-.47-.178-.7-.261a.316.316 0 0 0-.024-.006l-.956-.291a.265.265 0 0 0-.012-.006l-1.223-.32a.06.06 0 0 0-.006 0l-1.46-.375-1.687-.44-1.805-.522-1.87-.582-1.8-.6-1.615-.564-1.372-.564-1.098-.451-.767-.345h-.005l-.458-.207-.225-.101a.345.345 0 0 0-.024-.012l-.09-.03c-.167-.065-.296-.02-.386.138-.09.156-.064.29.078.402Z"/><path d="M13.668 32.328c0 .174.088.26.262.26.174 0 .261-.086.261-.26 0-.175-.087-.262-.261-.262-.175 0-.261.087-.261.262Zm.084.237.095.077c.016.016.034.03.053.042l.303.178c.024.014.05.026.077.036l.564.202a.531.531 0 0 0 .018.006l.855.267h.006l1.08.326h.007l1.217.345a.649.649 0 0 0 .012.006l1.247.332h.006l1.17.303h.018l1.003.22a.456.456 0 0 0 .024.006l.766.13h.006l.522.078h.012l.303.041a.363.363 0 0 0 .282-.062.363.363 0 0 0 .154-.244.363.363 0 0 0-.062-.281.363.363 0 0 0-.243-.155l-.291-.065-.493-.131-.736-.232a.439.439 0 0 0-.012-.006l-.992-.279h-.006l-1.17-.308-1.235-.339-1.211-.356-1.081-.327h-.006l-.861-.243a.486.486 0 0 0-.024-.006l-.588-.13a.472.472 0 0 0-.113-.013l-.35.006a.37.37 0 0 0-.095.018l-.119.036a.283.283 0 0 0-.213.227.283.283 0 0 0 .1.295Zm9.62 2.44.035-.011c.133-.052.177-.146.132-.282-.046-.135-.137-.184-.274-.146l-.036.012c-.133.052-.177.146-.132.282.045.135.137.184.274.146Z"/><path d="m19.197 34.198.077.042a.297.297 0 0 0 .036.012l.29.1a.37.37 0 0 0 .018.007l.529.148h.006l.683.178.712.19h.006l.636.166.504.137.35.107.179.06.03.017c.193.029.319-.05.379-.235.06-.186.002-.323-.172-.412l-.089-.006-.605-.13-.529-.12h-.006l-.677-.142h-.006l-.79-.148-.884-.167v-.006l-.968-.172-1.033-.214-1.07-.25-1.08-.284-1.045-.28-1.829-.522-.808-.231v-.006l-.772-.214-.73-.267-.713-.285-.659-.28-.6-.255-.522-.243-.487-.232-.451-.231-.416-.22a.667.667 0 0 0-.006-.006l-.374-.19a.206.206 0 0 0-.006-.006l-.635-.303-.262-.13-.243-.131h-.006l-.22-.113a.367.367 0 0 0-.017-.006l-.185-.077-.142-.065a.32.32 0 0 0-.036-.012l-.1-.024-.06-.024a.32.32 0 0 0-.036-.012L4.31 28.7a.32.32 0 0 0 .142.072l-.023-.018a.311.311 0 0 0-.277-.068.311.311 0 0 0-.225.175.311.311 0 0 0-.001.286.31.31 0 0 0 .224.177l.023.006.036.006.06.018a.275.275 0 0 0 .011.006l.09.023.124.054.172.071.214.101.243.125h.006l.268.13.63.31.373.19.416.219a.667.667 0 0 0 .006.006l.463.231h.006l.493.232.528.243.6.274a.29.29 0 0 0 0 .005l.66.291h.005l.719.297h.006l.748.285.76.291a.394.394 0 0 0 .024.006l.807.244h.006l1.84.51 1.046.291 1.093.28a.331.331 0 0 0 .006.006l1.08.243a.332.332 0 0 0 .012.006l1.051.202.968.178.885.166.79.149.67.13.535.107.618.13a.326.326 0 0 0 .035.007l.107.012c.19.024.315-.056.372-.24.057-.183 0-.319-.17-.408l-.053-.03a.336.336 0 0 0-.066-.023l-.213-.071h-.006l-.363-.107-.51-.143-.641-.184-.713-.202h-.006l-.683-.178a.331.331 0 0 0-.006-.006l-.534-.124a.33.33 0 0 0-.048-.006l-.303-.03a.307.307 0 0 0-.095.006l-.083.018a.256.256 0 0 0-.218.238.256.256 0 0 0 .153.284Zm-15.16-4.905.047.03a.284.284 0 0 0 .018.006l.119.071a.287.287 0 0 0 .018.006l.225.119a.332.332 0 0 0 .018.012l.327.148a.469.469 0 0 0 .012.006l.397.16a.836.836 0 0 0 .006.006l.446.178.522.214.671.303.891.416.012.006 1.098.469h.012l1.206.475.006.006 1.211.451h.006l1.164.41 1.08.386a.37.37 0 0 0 .019.006l.985.297.012.006.85.225h.017l.689.149a.394.394 0 0 0 .036.006l.552.065.445.06.398.059.368.071.374.083.398.09h.006l.44.088h.011l.475.083h.012l.5.072.486.065.463.071h.006l.434.06.392.065.332.065.273.054.214.047h.006l.226.048h.012l.231.041h.012l.226.03a.356.356 0 0 0 .053.006l.208-.006h.03l.172-.018a.278.278 0 0 0 .16-.071l.018-.018.018-.006c.134-.008.198-.079.19-.214-.008-.134-.08-.197-.214-.19h-.018l-.018-.012a.282.282 0 0 0-.095-.047l-.166-.042-.19-.059a.266.266 0 0 0-.018-.006l-.225-.053a.531.531 0 0 0-.018-.006l-.226-.042-.22-.047-.22-.048h-.005l-.273-.053-.339-.066h-.012l-.404-.065h-.011l-.44-.06-.469-.059-.487-.065-.487-.071-.469-.083-.428-.09-.397-.088-.38-.084h-.012l-.38-.07-.006-.007-.404-.065h-.012l-.44-.06-.522-.118-.67-.172-.838-.232-.98-.297h-.006l-1.092-.32-1.152-.399-1.2-.445-1.194-.487-1.086-.475a.29.29 0 0 0 0-.006l-.915-.386-.683-.29-.528-.226-.446-.185-.391-.166-.321-.148-.238-.107a.353.353 0 0 0-.03-.012l-.136-.047a.367.367 0 0 0-.018-.006l-.06-.018c-.19-.05-.324.014-.403.194-.079.18-.035.324.13.43Zm19.173-2.496c0 .19.095.285.285.285.19 0 .285-.095.285-.285 0-.19-.095-.285-.285-.285-.19 0-.285.095-.285.285Zm.011.124.018.036v.006l.036.077a.316.316 0 0 0 .024.042l.07.113.096.154a.337.337 0 0 0 .03.041l.136.16a.176.176 0 0 0 .024.03l.107.096.047.112c.06.116.15.148.268.095.12-.052.157-.139.112-.261l-.047-.113-.006-.148a.28.28 0 0 0-.006-.072l-.06-.201a.333.333 0 0 0-.03-.078l-.094-.16a.343.343 0 0 0-.018-.03l-.083-.113a.339.339 0 0 0-.024-.03l-.06-.064a.316.316 0 0 0-.106-.072l-.036-.018a.28.28 0 0 0-.334.064.28.28 0 0 0-.064.334Z"/><path d="M23.418 26.933c0 .182.09.273.273.273.182 0 .273-.09.273-.273 0-.182-.091-.273-.273-.273-.182 0-.273.091-.273.273Zm-.072.024c0 .095.034.176.101.243a.33.33 0 0 0 .244.101.332.332 0 0 0 .243-.1.332.332 0 0 0 .101-.244.332.332 0 0 0-.1-.244.332.332 0 0 0-.244-.1.332.332 0 0 0-.244.1.332.332 0 0 0-.1.244Zm-.047-.065-.024.089a.48.48 0 0 0-.012.237l.036.184a.482.482 0 0 0 .006.042l.065.231a.5.5 0 0 0 .095.179l.154.195a.409.409 0 0 0 .072.072l.089.065.03.137c.039.115.119.16.238.136.12-.025.174-.098.165-.22l-.024-.13.06-.095a.383.383 0 0 0 .053-.137l.048-.243a.498.498 0 0 0-.006-.232l-.066-.231a.492.492 0 0 0-.017-.048l-.072-.178a.478.478 0 0 0-.148-.202l-.077-.065a.399.399 0 0 0-.39-.07.399.399 0 0 0-.275.284Z"/><path d="M23.221 26.5c0 .182.091.273.274.273.182 0 .273-.091.273-.273 0-.182-.091-.273-.273-.273-.183 0-.274.09-.274.273Zm-.023 0c0 .206.103.308.308.308.206 0 .31-.102.31-.308 0-.206-.104-.31-.31-.31-.205 0-.308.104-.308.31Zm-.03-.12-.018.054a.468.468 0 0 0-.018.297l.048.184a.494.494 0 0 0 .012.036l.095.267a.532.532 0 0 0 .024.054l.148.314.137.31.089.296.006.012.089.255a.315.315 0 0 0 .005.024l.06.125-.006.089c-.012.138.052.213.19.225.139.012.214-.051.226-.19l.006-.107.07-.142a.295.295 0 0 0 .025-.1l.023-.268a.367.367 0 0 0 0-.054l-.023-.32-.012-.363a.48.48 0 0 0-.006-.035l-.042-.356a.517.517 0 0 0-.035-.137l-.107-.261a.512.512 0 0 0-.06-.119l-.113-.148a.455.455 0 0 0-.403-.196l-.06.005a.363.363 0 0 0-.35.25Z"/><path d="M20.116 28.88c0 .155.077.233.231.233.155 0 .232-.078.232-.232 0-.154-.077-.232-.232-.232-.154 0-.231.078-.231.232Zm.047.22.024.018a.28.28 0 0 0 .125.06l.065.018a.29.29 0 0 0 .06.006h.176l.28-.012h.023l.386-.048h.006l.47-.065.51-.065.487-.066.428-.041a.29.29 0 0 0 .041-.006l.285-.078.19.012c.139.008.212-.057.22-.196.008-.138-.058-.211-.196-.22l-.208-.011-.29-.077c-.028-.006-.056-.008-.084-.006l-.433.017h-.03l-.493.066-.51.077h-.007l-.463.077-.368.048-.261.012h-.172l-.017-.006c-.145-.036-.25.013-.317.146-.066.133-.042.246.073.34Z"/><path d="m20.579 29.196.142.03a.323.323 0 0 0 .042.005l.178.006h.018l.267-.006h.006l.368-.018h.006l.446-.03h.017l.475-.053.458-.035a.29.29 0 0 0 .065-.012l.344-.107.268-.024c.134-.012.196-.085.184-.22-.012-.134-.085-.195-.22-.184l-.267.024-.362-.047a.283.283 0 0 0-.048-.006l-.463.023-.475.006-.445.012h-.012l-.369.018h-.006l-.267.018h-.012l-.178.024h-.018l-.142.03c-.148.03-.222.121-.222.273 0 .15.074.242.222.273Z"/><path d="m24.442 27.273.012-.024a.319.319 0 0 0 .024-.053l.017-.06a.415.415 0 0 0-.011-.285l-.06-.148a.558.558 0 0 0-.279-.297l-.279-.137a.644.644 0 0 0-.119-.041l-.392-.107a.729.729 0 0 0-.184-.024l-.522-.006a.793.793 0 0 0-.19.018l-.594.142a.835.835 0 0 0-.154.054l-.63.285a.855.855 0 0 0-.125.065l-.623.422a.897.897 0 0 0-.125.1l-.605.577a.934.934 0 0 0-.143.178l-.475.766a.956.956 0 0 0-.107.232l-.273.914a.956.956 0 0 0-.036.315l.036.997a.948.948 0 0 0 .071.321l.398.968a.95.95 0 0 0 .178.285l.772.843a.941.941 0 0 0 .267.208l1.11.564c.09.045.186.073.286.083l1.265.149a.474.474 0 0 0 .047.006l1.182.023.944.149c.12 0 .191-.059.212-.178.02-.119-.027-.198-.14-.238l-.933-.148-.992-.517-.985-.736-.909-.707-.594-.665-.273-.653-.024-.677.19-.66.345-.599.44-.505.462-.386.481-.261.47-.172.427-.107.326-.048h.262c.063 0 .124-.01.184-.03l.113-.04h.03a.326.326 0 0 0-.072 0h.024a.27.27 0 0 0 .273-.155Z"/><path d="M22.12 34.238c0 .19.095.285.285.285.19 0 .285-.095.285-.285 0-.19-.095-.285-.285-.285-.19 0-.285.095-.285.285Zm.006-.1v.005a.331.331 0 0 0 .036.327l.06.077a.406.406 0 0 0 .106.107l.149.1a.42.42 0 0 0 .1.054l.256.083a.493.493 0 0 0 .065.018l.327.072a.52.52 0 0 0 .03.005l.391.054a.55.55 0 0 0 .072.006l.445.006a.58.58 0 0 0 .095-.006l.499-.077a.601.601 0 0 0 .1-.024l.535-.184a.634.634 0 0 0 .077-.036l.564-.279c.02-.01.04-.023.06-.035l.564-.369a.62.62 0 0 0 .065-.053l.54-.463a.621.621 0 0 0 .066-.072l.493-.57a.639.639 0 0 0 .053-.077l.428-.695a.644.644 0 0 0 .047-.083l.35-.813a.66.66 0 0 0 .024-.072l.286-.938a.673.673 0 0 0 .023-.095l.155-1.027a.71.71 0 0 0 .006-.077l.035-1.057a.708.708 0 0 0 0-.077l-.083-1.07a.73.73 0 0 0-.006-.04l-.166-1.111a.714.714 0 0 0-.006-.036l-.232-1.152v-.012l-.255-1.193v-.012l-.28-1.2v-.012l-.296-1.2a.164.164 0 0 1-.006-.005l-.315-1.217v-.006L27.27 18.4l-.321-1.259-.303-1.324-.255-1.401-.184-1.467-.101-1.502-.006-1.515.107-1.46.231-1.366.32-1.23.44-1.044.517-.796.517-.475.492-.178.523.03.594.243.528.54.333.641c.063.12.154.147.273.084.119-.064.146-.155.083-.274l-.35-.665H30.7l-.404-.748a.33.33 0 0 0-.024-.03l-.475-.647a.53.53 0 0 0-.255-.184l-.7-.255a.632.632 0 0 0-.399-.012l-.754.214a.669.669 0 0 0-.261.142l-.695.612a.68.68 0 0 0-.119.136l-.611.909a.693.693 0 0 0-.06.107l-.498 1.146a.716.716 0 0 0-.03.095l-.356 1.306a.698.698 0 0 0-.018.072l-.226 1.437a.695.695 0 0 0-.006.059l-.1 1.52v.048l-.007 1.561a.714.714 0 0 0 .006.036l.083 1.556a.832.832 0 0 0 .006.041l.173 1.503a.733.733 0 0 0 .011.041l.256 1.443.012.03.308 1.348v.012l.321 1.27v.012l.327 1.212.314 1.205.291 1.194.28 1.188.255 1.181.226 1.134.166 1.07.089 1.003-.024.986-.113.962-.19.872-.297.725-.374.611-.421.505-.476.416-.498.332-.487.256-.457.172-.428.1-.392.054-.344.018-.297-.012-.25-.024a.486.486 0 0 0-.023-.005l-.178-.012a.4.4 0 0 0-.054.006l-.1.006a.337.337 0 0 0-.244.13l-.006.006a.3.3 0 0 0-.048.083Z"/><path d="M28.225 2.843c0 .155.077.232.231.232.155 0 .232-.077.232-.232 0-.154-.077-.231-.232-.231-.154 0-.231.077-.231.231Zm-.048 0c0 .186.093.28.28.28.185 0 .278-.094.278-.28 0-.186-.093-.279-.279-.279-.186 0-.279.093-.279.28Zm.083.226.012.012a.38.38 0 0 0 .048.035l.06.036a.47.47 0 0 0 .16.065l.136.03.184.065.22.143.25.279.284.451a.627.627 0 0 0 .012.018l.35.51h.006l.315.452.184.422.066.35c.038.107.113.15.226.13.112-.02.167-.087.165-.201l-.07-.368-.042-.481v-.57a.463.463 0 0 0-.012-.107l-.137-.6a.578.578 0 0 0-.065-.16l-.291-.505a.59.59 0 0 0-.09-.119l-.35-.362a.586.586 0 0 0-.13-.101l-.35-.196a.57.57 0 0 0-.232-.077l-.297-.024a.525.525 0 0 0-.28.053l-.165.078a.459.459 0 0 0-.238.26l-.024.066a.371.371 0 0 0 .012.303l.006.012a.33.33 0 0 0 .077.1ZM25.891 6.56c0 .167.083.25.25.25.166 0 .249-.083.249-.25 0-.166-.083-.249-.25-.249-.166 0-.249.083-.249.25Zm-.053 0c0 .202.1.303.302.303.202 0 .303-.1.303-.303 0-.201-.1-.302-.303-.302-.201 0-.303.1-.303.302Zm-.036.006c0 .097.034.18.102.248a.338.338 0 0 0 .248.103c.097 0 .18-.034.248-.103a.338.338 0 0 0 .103-.248.338.338 0 0 0-.103-.247.338.338 0 0 0-.248-.103.338.338 0 0 0-.248.103.338.338 0 0 0-.102.247Zm.184.35.077.048a.448.448 0 0 0 .113.048l.208.06c.027.005.055.01.083.011l.35.036h.03l.51.017a.52.52 0 0 0 .024 0l.654-.005a.561.561 0 0 0 .059-.006l.748-.095h.018l.73-.131.618-.048.47.018c.134.004.203-.061.207-.196.004-.134-.061-.204-.196-.208l-.47-.017-.617-.083-.724-.16a.433.433 0 0 0-.03-.007l-.748-.107a.528.528 0 0 0-.053-.006l-.654-.017h-.012l-.51-.006h-.036l-.35.023a.505.505 0 0 0-.077.006l-.208.048a.449.449 0 0 0-.09.03l-.088.041a.371.371 0 0 0-.234.343.371.371 0 0 0 .198.364Z"/><path d="M30.119 3.71c0 .167.083.25.25.25.166 0 .249-.083.249-.25 0-.166-.083-.25-.25-.25-.166 0-.25.084-.25.25Zm.006-.071-.006.024a.452.452 0 0 0-.006.012l-.018.083a.408.408 0 0 0-.006.124l.018.214a.467.467 0 0 0 .012.066l.071.314v.006l.083.362.084.375.065.35.047.285a.492.492 0 0 0 .083.196l.107.154c.084.12.199.177.345.172h.017c-.036-.132-.123-.197-.26-.195l.017.065c.06.145.167.196.318.154.151-.043.216-.141.193-.297l-.018-.065c-.162.054-.219.163-.172.327l.017-.006a.383.383 0 0 0 .262-.262l.06-.178a.494.494 0 0 0 .017-.202l-.03-.297a.53.53 0 0 0 0-.035l-.065-.356a.633.633 0 0 0-.006-.024l-.083-.386a.52.52 0 0 0-.012-.024l-.1-.368a.486.486 0 0 0-.013-.048l-.119-.297a.473.473 0 0 0-.083-.142l-.142-.16a.396.396 0 0 0-.261-.137l-.084-.012a.31.31 0 0 0-.166.03l-.018.006a.255.255 0 0 0-.148.172Z"/><path d="M30.374 4.5c0 .17.085.255.256.255.17 0 .255-.085.255-.255 0-.17-.085-.255-.255-.255-.17 0-.256.085-.256.255Zm-.035.024c0 .194.097.29.29.29.195 0 .292-.096.292-.29 0-.194-.097-.291-.291-.291-.194 0-.291.097-.291.29Zm-.048-.054-.047.131a.46.46 0 0 0-.024.172l.012.226.006.03.03.285.023.279.024.243.012.178.006.125a.836.836 0 0 0 .006.006v.047a.512.512 0 0 0 .023-.118l-.011.035a.506.506 0 0 0 .106-.172l-.023.024a.513.513 0 0 0 .065-.054l-.024.018a.503.503 0 0 0 .238-.1l-.03.005h-.012l-.047.006a.52.52 0 0 0-.024 0l-.083.006a.562.562 0 0 0-.018.006l-.1.018c-.279.043-.418.206-.418.487 0 .28.14.443.417.487l.101.017a.51.51 0 0 0 .095.006h.083a.523.523 0 0 0 .048-.006l.059-.005a.507.507 0 0 0 .036-.006l.035-.012a.495.495 0 0 0 .03-.006l.024-.006a.506.506 0 0 0 .178-.083l.024-.018a.494.494 0 0 0 .047-.036l.024-.023a.502.502 0 0 0 .137-.226l.011-.036a.52.52 0 0 0 .018-.095l.006-.053a.512.512 0 0 0 .006-.095l-.006-.071-.006-.125-.012-.19a.47.47 0 0 0 0-.024l-.023-.25v-.011l-.036-.285a.597.597 0 0 0-.006-.03l-.047-.285a.499.499 0 0 0-.03-.09l-.077-.213a.461.461 0 0 0-.084-.136l-.089-.101a.38.38 0 0 0-.362-.125.38.38 0 0 0-.29.25Zm.09 1.669h-.084c-.146 0-.22.073-.22.22 0 .146.074.22.22.22h.083c.147 0 .22-.074.22-.22 0-.147-.073-.22-.22-.22Z"/></g><defs><clipPath id="a"><path fill="#fff" d="M0 0h32v36H0z"/></clipPath></defs></svg>