<svg width="31" height="38" fill="none" xmlns="http://www.w3.org/2000/svg"><g clip-path="url(#a)" fill="#000"><path d="M4.571 30.413c0 .2.1.3.3.3.2 0 .3-.1.3-.3 0-.2-.1-.3-.3-.3-.2 0-.3.1-.3.3Zm-.025-.018c0 .216.109.325.326.325.216 0 .325-.108.325-.325 0-.217-.109-.325-.325-.325-.217 0-.326.108-.326.325Zm-.043-.032c0 .102.036.19.108.261a.355.355 0 0 0 .26.108.355.355 0 0 0 .261-.108.355.355 0 0 0 .108-.26.355.355 0 0 0-.108-.261.355.355 0 0 0-.26-.108.355.355 0 0 0-.261.108.355.355 0 0 0-.108.26Zm.706.194.025-.031a.472.472 0 0 0 .063-.125l.018-.063a.53.53 0 0 0 .013-.268l-.025-.12a.594.594 0 0 0-.038-.13l-.08-.163a.644.644 0 0 0-.15-.206l-.182-.169a.697.697 0 0 0-.075-.063l-.263-.18a.746.746 0 0 0-.175-.095l-.356-.125a.793.793 0 0 0-.081-.025l-.4-.093a.796.796 0 0 0-.132-.02l-.4-.03a.812.812 0 0 0-.194.012l-.375.069a.82.82 0 0 0-.225.075l-.337.175a.827.827 0 0 0-.175.119l-.275.244a.832.832 0 0 0-.12.125l-.212.287a.833.833 0 0 0-.075.131l-.156.32a.831.831 0 0 0-.044.1l-.106.324a.83.83 0 0 0-.025.094l-.069.325a.83.83 0 0 0-.019.169v.319a.83.83 0 0 0 .02.175l.062.294c.016.076.044.15.081.218l.131.257c.043.08.097.15.163.212l.212.2c.039.038.08.07.125.1l.257.163a.84.84 0 0 0 .137.069l.294.118c.023.01.045.018.069.025l.287.088c.025.007.05.014.075.019l.275.056c.03.006.058.01.088.012l.262.025.063.007.288.006a.856.856 0 0 0 .075-.006l.287-.02.288-.012a.63.63 0 0 0 .012-.006l.244-.019h.337l.126.013.093.012.057.02.006.005-.025-.025-.006-.006.037.063.038.087.037.131.063.22a.85.85 0 0 0 .012.043l.081.238c.01.025.02.05.032.075l.106.23a.806.806 0 0 0 .062.107l.138.2c.012.02.024.038.037.056l.144.182a.834.834 0 0 0 .075.08l.156.151c.039.037.08.07.125.1l.182.112c.02.014.04.026.062.038l.182.1a.824.824 0 0 0 .143.056l.194.063c.05.015.1.025.15.031l.213.031a.831.831 0 0 0 .137 0l.225-.006a.884.884 0 0 0 .057-.006l.23-.025a.817.817 0 0 0 .113-.025l.22-.056a.82.82 0 0 0 .205-.082l.22-.131a.82.82 0 0 0 .187-.144l.212-.225a.82.82 0 0 0 .07-.081l.212-.294a.827.827 0 0 0 .068-.112l.175-.35a.83.83 0 0 0 .032-.075l.137-.35a.823.823 0 0 0 .031-.107l.082-.35a.824.824 0 0 0 .018-.131l.025-.35a.823.823 0 0 0 0-.1l-.018-.332a.826.826 0 0 0-.007-.068l-.037-.275a.822.822 0 0 0-.056-.22l-.088-.187a.775.775 0 0 0-.031-.075l-.081-.131a.724.724 0 0 0-.363-.325l-.069-.025c-.321-.13-.582-.052-.781.231l-.038.056a.73.73 0 0 0-.137.394l-.006.157v.037l.006.206c0 .034.002.067.006.1l.031.25.013.244-.013.232-.056.237-.094.256-.125.244-.143.2-.1.106-.02.007-.037.012-.137.013H7.36l-.082-.007-.044-.012-.087-.05-.081-.056-.063-.056-.087-.107-.075-.125-.063-.131-.062-.175-.057-.2v-.013l-.056-.187a.832.832 0 0 0-.031-.075l-.063-.163a.825.825 0 0 0-.043-.081l-.082-.15a.842.842 0 0 0-.068-.106l-.1-.132a.837.837 0 0 0-.138-.143l-.125-.1a.835.835 0 0 0-.169-.107l-.156-.075a.826.826 0 0 0-.113-.043l-.168-.05a.858.858 0 0 0-.1-.026l-.175-.03a.84.84 0 0 0-.094-.007l-.188-.012h-.025l-.194-.007h-.05l-.23.007h-.032l-.263.012a1.233 1.233 0 0 0-.006.006l-.281.019-.25.012-.225-.006-.188-.012-.194-.044-.218-.063-.188-.075-.125-.08-.056-.057-.019-.025-.019-.094v-.144l.044-.2.075-.225.094-.2.119-.156.13-.119.15-.081.188-.044.263-.006.306.031.313.075.25.063.131.056.113.069a.602.602 0 0 0 .056.031l.106.056.031.013.057.025h.006l.037.019c.214.086.385.034.513-.157Zm3.25 1.263c0 .11.04.205.118.283a.386.386 0 0 0 .283.117c.11 0 .205-.039.283-.117a.385.385 0 0 0 .117-.283.39.39 0 0 0-.117-.283.386.386 0 0 0-.283-.117.387.387 0 0 0-.283.117.385.385 0 0 0-.117.283Zm.607-.1-.006-.037c-.025-.146-.11-.207-.256-.182-.146.025-.207.11-.182.256l.006.038c.025.146.11.206.257.181.146-.025.206-.11.181-.256Z"/><path d="M8.535 31.551c0 .184.091.275.275.275.183 0 .275-.091.275-.275 0-.183-.092-.275-.275-.275-.184 0-.275.092-.275.275Zm-.032 0c0 .209.105.313.313.313.208 0 .313-.104.313-.313 0-.208-.105-.312-.313-.312-.208 0-.313.104-.313.312Zm.25.313.032.006c.035.01.07.014.106.012l.081-.006a.39.39 0 0 0 .082-.018l.375-.107a.488.488 0 0 0 .05-.025l.3-.131.406-.169h.006l.538-.237.012-.007.675-.312a.557.557 0 0 0 .02-.013l.824-.418.944-.476 1.02-.512 2.212-1.032h.006l1.113-.537 1.094-.52 1-.468.913-.419.831-.381.757-.344.687-.306.007-.006.631-.294a.685.685 0 0 0 .019-.006l.575-.288v-.006l.5-.257.438-.225h.012l.375-.206h.006l.313-.175.012-.006.257-.15.006-.006.2-.12a.181.181 0 0 0 .006-.006l.144-.087a.616.616 0 0 0 .125-.1l.075-.081c.192-.209.22-.437.081-.685-.138-.248-.346-.345-.625-.29l-.112.024a.617.617 0 0 0-.188.075l-.143.088-.194.113-.257.15-.3.168-.362.194-.432.225-.5.25-.562.282-.62.287-.687.306-.762.344h-.007l-.831.381-.913.42h-.006l-1.006.48-1.094.52h-.007l-1.106.537-2.213 1.05-.013.007-1.025.506a.484.484 0 0 0-.012.006l-.938.494a.365.365 0 0 0-.006.006l-.82.438-.655.363h-.007l-.512.287a.53.53 0 0 0-.025.019l-.37.237a.474.474 0 0 0-.024.013l-.269.187a.447.447 0 0 0-.025.025l-.3.25a.39.39 0 0 0-.075.082l-.044.062a.355.355 0 0 0-.031.056l-.013.032a.31.31 0 0 0 .006.278.31.31 0 0 0 .22.172Zm16.985-8.877a.44.44 0 0 0 .134.323.44.44 0 0 0 .322.133.44.44 0 0 0 .323-.133.44.44 0 0 0 .134-.323.44.44 0 0 0-.134-.323.44.44 0 0 0-.323-.133.44.44 0 0 0-.322.133.44.44 0 0 0-.134.323Zm.563.294.043-.006c.174-.051.248-.166.222-.345-.025-.178-.128-.268-.31-.268l-.043.006c-.173.05-.247.166-.222.345.026.178.129.268.31.268Zm-22.18 5.957c.025.164.12.246.285.246.165 0 .26-.082.284-.246-.024-.163-.119-.245-.284-.245-.166 0-.26.082-.285.245Zm.088-.244-.013.007a.327.327 0 0 0 .038-.025l-.031.018a.298.298 0 0 0-.013.007l-.025.018a.387.387 0 0 0-.019.02l-.018.005a.376.376 0 0 0-.15.363l.006.044a.43.43 0 0 0 .2.325l.081.056a.477.477 0 0 0 .175.069l.156.025a.5.5 0 0 0 .1.006l.22-.006a.508.508 0 0 0 .093-.006l.294-.07a.528.528 0 0 0 .037-.005l.375-.12a.537.537 0 0 0 .025-.005l.463-.163a.486.486 0 0 0 .025-.012l.5-.207a.54.54 0 0 0 .025-.006l.506-.231.526-.219a.605.605 0 0 0 .012-.006l.531-.238.007-.006 1-.463.469-.218.469-.22.487-.224.531-.225.588-.238.588-.231.593-.231.013-.007.613-.25.643-.268.682-.282.688-.287h.006l.687-.288a.647.647 0 0 0 .025-.012l.676-.32.012-.005.669-.332.663-.312.63-.288.62-.269.581-.25.575-.231.019-.006.525-.232.5-.212a.365.365 0 0 0 .006-.006l.488-.213.475-.2.882-.375a.181.181 0 0 0 .006-.006l.387-.17.02-.005.343-.163h.006l.288-.137a.725.725 0 0 0 .043-.025l.2-.113a.72.72 0 0 0 .307-.331l.056-.113a.634.634 0 0 0-.016-.59.634.634 0 0 0-.49-.329l-.125-.012a.721.721 0 0 0-.438.075l-.2.106-.269.131-.325.157-.375.162-.875.375-.006.006-.481.207a.484.484 0 0 0-.013.006l-.481.219-.494.219-.525.23-.57.239-.593.25-.012.006-.626.275-.006.006-.644.294-.012.006-.67.319-.012.006-.669.332-.656.318-.663.288-.68.294h-.007l-.675.293h-.007l-.637.282-.6.256-.582.238h-.006l-.588.243-.593.25h-.007l-.543.238a.586.586 0 0 0-.02.006l-.5.232-.468.225a.325.325 0 0 0-.013.006l-.462.225-.007.006-.981.488-.519.25-.519.256h-.006l-.506.256a.58.58 0 0 0-.013.007l-.481.256a.728.728 0 0 0-.025.012l-.4.232-.3.143-.194.063-.15.013h-.175l-.094.012a.46.46 0 0 0-.044.006l-.037.006a.397.397 0 0 0 .112-.006h-.018c.05.142.15.22.3.238l-.007-.031a.334.334 0 0 0 .02.13v-.03a.33.33 0 0 0 0-.007v-.012a.29.29 0 0 0-.172-.29.29.29 0 0 0-.335.034Zm20.31-8.42c0 .092.032.17.097.234a.32.32 0 0 0 .234.098.32.32 0 0 0 .235-.098.32.32 0 0 0 .097-.234.32.32 0 0 0-.097-.234.32.32 0 0 0-.235-.097.32.32 0 0 0-.234.097.32.32 0 0 0-.097.234Zm.206-.187-.05.025c-.112.073-.139.17-.079.29.06.12.153.156.28.11l.05-.025c.112-.073.138-.17.078-.29-.06-.12-.153-.157-.279-.11Z"/><path d="M24.25 20.818c0 .18.09.269.27.269.178 0 .268-.09.268-.269 0-.18-.09-.269-.269-.269-.18 0-.269.09-.269.269Zm-.05 0c0 .204.102.306.307.306.204 0 .306-.102.306-.306 0-.204-.102-.306-.306-.306-.205 0-.307.102-.307.306Zm.594-.131-.019-.063a.404.404 0 0 0-.018-.044l-.025-.056-.013-.044-.012-.1a.569.569 0 0 0-.007-.075l-.037-.168-.038-.17-.025-.168-.006-.125.013-.1.043-.113.063-.118.069-.094.125-.106.175-.107.212-.087.206-.05.17-.006.156.025.15.056.13.062.007.007-.062-.088-.013-.044.006.088-.006.175-.012.225v.006l-.007.219v.05l.007.194a.8.8 0 0 0 .006.087l.019.175a.31.31 0 0 0 .006.044l.031.156a.84.84 0 0 0 .025.1l.044.138a.86.86 0 0 0 .031.094l.056.125a.832.832 0 0 0 .057.1l.068.112c.01.017.02.034.032.05l.08.107c.03.042.064.082.101.118l.113.107c.033.03.068.057.106.08l.125.095a.771.771 0 0 0 .15.08l.15.063a.87.87 0 0 0 .106.038l.169.044a.96.96 0 0 0 .106.025l.175.025.063.006.187.012a.88.88 0 0 0 .056 0h.175a.895.895 0 0 0 .075-.006l.163-.012a.86.86 0 0 0 .106-.013l.15-.037a.83.83 0 0 0 .082-.02l.143-.05a.852.852 0 0 0 .082-.03l.075-.032-.044.013h.012a.813.813 0 0 0-.375-.119l.132.081a.816.816 0 0 0-.238-.218l.056.075.038.087.056.2.056.256.038.27.006.237-.006.181-.019.088-.031.068-.031.057v-.007l.05-.03.025-.007H28.7l-.169-.025-.206-.044-.219-.062-.237-.075-.263-.088a.97.97 0 0 0-.05-.019l-.262-.069a1.034 1.034 0 0 0-.02-.006l-.237-.056a.915.915 0 0 0-.062-.019l-.194-.031a.868.868 0 0 0-.68.116.867.867 0 0 0-.398.562.867.867 0 0 0 .116.68c.132.21.32.343.562.399l.194.05a.95.95 0 0 0 .043.012l.226.05.243.063.257.068.256.075a.969.969 0 0 0 .037.013l.263.062c.035.009.07.015.106.02l.263.03c.035.005.07.007.106.007h.313l.225-.02a.838.838 0 0 0 .125-.018l.181-.044a.832.832 0 0 0 .131-.037l.157-.063a.83.83 0 0 0 .162-.087l.131-.094a.824.824 0 0 0 .144-.125l.113-.131a.827.827 0 0 0 .087-.113l.106-.168a.82.82 0 0 0 .063-.12l.087-.206a.819.819 0 0 0 .044-.143l.05-.238a.827.827 0 0 0 .019-.137l.012-.276a.853.853 0 0 0 0-.075l-.012-.312a.833.833 0 0 0-.006-.069l-.044-.337a.833.833 0 0 0-.013-.063l-.068-.325a.822.822 0 0 0-.013-.062l-.081-.276a.833.833 0 0 0-.038-.093l-.093-.22a.818.818 0 0 0-.1-.174l-.113-.15a.821.821 0 0 0-.212-.194l-.132-.087a.816.816 0 0 0-.35-.12L29.107 20a.827.827 0 0 0-.225.006l-.156.025a.836.836 0 0 0-.131.032l-.125.043-.094.025-.063.013-.075.006h-.125l-.125-.006-.1-.019-.068-.012-.02-.013h-.005l-.013-.012-.012-.013-.013-.019-.031-.075-.019-.05-.012-.062-.02-.1-.005-.125.006-.188v-.238l.006-.22a.818.818 0 0 0-.006-.1l-.019-.218a.816.816 0 0 0-.062-.25l-.075-.163a.793.793 0 0 0-.232-.306l-.13-.1a.784.784 0 0 0-.1-.069l-.176-.1a.755.755 0 0 0-.081-.037l-.225-.094a.746.746 0 0 0-.075-.031l-.27-.075a.761.761 0 0 0-.112-.025l-.306-.038a.75.75 0 0 0-.156-.006l-.325.025a.74.74 0 0 0-.144.025l-.325.088a.738.738 0 0 0-.1.037l-.313.138a.74.74 0 0 0-.106.062l-.275.175a.727.727 0 0 0-.094.075l-.219.207a.723.723 0 0 0-.1.112l-.143.213a.718.718 0 0 0-.082.15l-.087.225a.717.717 0 0 0-.031.087l-.057.238a.689.689 0 0 0-.018.15l-.007.237a.68.68 0 0 0 .013.132l.037.218a.669.669 0 0 0 .038.125l.075.207c.009.023.02.046.031.068l.094.175a.61.61 0 0 0 .094.132l.112.125a.568.568 0 0 0 .075.062l.113.088a.484.484 0 0 0 .043.031l.12.069a.468.468 0 0 0 .037.018l.093.05c.08.04.163.052.25.038l.07-.012a.34.34 0 0 0 .241-.173.34.34 0 0 0 .027-.296Zm.95 2.544c0 .205.073.38.218.526.145.145.32.218.526.218.206 0 .38-.073.526-.218a.717.717 0 0 0 .218-.526.717.717 0 0 0-.218-.526.717.717 0 0 0-.526-.218.717.717 0 0 0-.526.218.717.717 0 0 0-.218.526Zm.875-.206-.03-.038c-.114-.115-.233-.12-.357-.016-.123.104-.138.222-.044.354l.031.037c.114.115.233.12.356.016.124-.104.139-.222.044-.353ZM8.36 19.805c0 .184.091.276.275.276.183 0 .275-.092.275-.276 0-.183-.092-.274-.275-.274-.184 0-.275.091-.275.274Zm.312.294h.025a.314.314 0 0 0 .206-.106l.032-.037a.348.348 0 0 0 .037-.05l.032-.05.062-.07.106-.124a.48.48 0 0 0 .05-.069l.113-.194a.535.535 0 0 0 .056-.125l.069-.25a.566.566 0 0 0 .025-.1l.025-.262a.585.585 0 0 0-.006-.163l-.05-.25a.6.6 0 0 0-.032-.112l-.093-.244a.616.616 0 0 0-.082-.144l-.162-.219a.64.64 0 0 0-.107-.112l-.237-.2a.682.682 0 0 0-.138-.094l-.318-.156a.713.713 0 0 0-.107-.038l-.356-.106a.731.731 0 0 0-.1-.025l-.35-.05a.744.744 0 0 0-.106-.013H6.94a.75.75 0 0 0-.132.013l-.3.056a.775.775 0 0 0-.15.044l-.25.1a.789.789 0 0 0-.169.093l-.193.138a.792.792 0 0 0-.15.138l-.138.168a.791.791 0 0 0-.119.194l-.081.194a.79.79 0 0 0-.056.194l-.031.218a.792.792 0 0 0-.007.144l.007.244v.038l.025.28.018.295.025.294.019.262.006.213v.075l.007-.02-.02.038a.817.817 0 0 0 .232-.268l-.031.018.05-.018.025-.007h-.056l-.1-.018-.144-.032a.831.831 0 0 0-.063-.012l-.181-.032a.845.845 0 0 0-.094-.012l-.169-.006a.834.834 0 0 0-.206.012l-.144.031a.84.84 0 0 0-.18.057l-.138.062a.833.833 0 0 0-.194.12l-.119.1a.839.839 0 0 0-.1.1l-.119.137a.837.837 0 0 0-.031.037l-.113.15a.84.84 0 0 0-.056.088l-.087.15a.809.809 0 0 0-.02.031l-.074.144a.834.834 0 0 0-.063.162l-.043.157a.846.846 0 0 0-.025.106l-.025.162a.843.843 0 0 0-.013.088l-.006.175a.842.842 0 0 0 .006.125l.019.194a.842.842 0 0 0 .025.144l.056.2a.843.843 0 0 0 .056.137l.088.188a.84.84 0 0 0 .1.156l.137.175a.838.838 0 0 0 .088.094l.162.15a.84.84 0 0 0 .063.056l.169.125a.85.85 0 0 0 .069.044l.168.106a.863.863 0 0 0 .025.019l.157.087a.846.846 0 0 0 .13.057l.163.062a.85.85 0 0 0 .125.038l.194.037a.845.845 0 0 0 .138.013l.2.006h.05l.194-.006a.846.846 0 0 0 .125-.013l.175-.031a.833.833 0 0 0 .056-.013l.15-.037a.85.85 0 0 0 .125-.044l.131-.056a.864.864 0 0 0 .044-.019l.113-.056a.837.837 0 0 0 .093-.056l.082-.057a.862.862 0 0 0 .05-.037l.1-.075a.838.838 0 0 0-.163.1l.038-.019a.841.841 0 0 0-.213.069l.031-.006a.746.746 0 0 0 .044-.013l.031-.006a.837.837 0 0 0-.3.018h.038a.835.835 0 0 0 .112.013h.044a.84.84 0 0 0-.225-.031l.044.012c.045.012.09.02.137.025l.05.006a.836.836 0 0 0-.2-.05l.038.013a.852.852 0 0 0-.057-.019l.025.013c.15.067.307.087.47.062l.018-.006c.392-.062.62-.289.681-.681l.007-.02c.06-.386-.082-.674-.425-.862l-.025-.012a.84.84 0 0 0-.163-.069l-.037-.012a.832.832 0 0 0-.125-.025l-.05-.007a.83.83 0 0 0 .118.025l-.043-.012a.84.84 0 0 0-.238-.038h-.044a.846.846 0 0 0 .163.019l-.038-.006a.837.837 0 0 0-.306-.006l-.031.006a.941.941 0 0 0-.044.012l-.031.007a.836.836 0 0 0-.213.075l-.037.018a.847.847 0 0 0-.088.063l-.106.069-.025.018-.031.019-.044.019-.056.012-.088.019h-.106l-.106-.006-.05-.007-.038-.012-.088-.05-.125-.081-.112-.081-.069-.07-.05-.055-.019-.044-.012-.044-.006-.063v-.075l.012-.062.013-.038.018-.05.05-.08.063-.088.062-.063-.018.013-.075.03-.044.013h.025l.1.013.156.037a.842.842 0 0 0 .088.02l.181.024a.65.65 0 0 0 .088.006h.175a.833.833 0 0 0 .162-.006l.163-.031a.828.828 0 0 0 .193-.056l.144-.063a.825.825 0 0 0 .219-.144l.1-.093a.817.817 0 0 0 .2-.263l.056-.125a.815.815 0 0 0 .07-.25l.024-.163a.81.81 0 0 0 0-.125l-.006-.2v-.012l-.013-.25v-.025l-.018-.275v-.006l-.025-.3a.64.64 0 0 0 0-.007l-.032-.294v-.006l-.025-.25v-.15l.007-.056.062-.044.125-.063.138-.05.18-.012.251.019.281.05.244.075.15.081.069.056.037.075.032.12.012.168-.012.225v.294l.006.15.006.075-.012.069a.345.345 0 0 0 0 .05v.05a.22.22 0 0 0 .006.05v.024c.037.182.147.263.331.244Zm-2.644 2.857c0 .17.06.314.18.433.119.12.263.18.433.18a.59.59 0 0 0 .433-.18.59.59 0 0 0 .18-.433.59.59 0 0 0-.18-.433.59.59 0 0 0-.433-.18.59.59 0 0 0-.434.18.59.59 0 0 0-.18.433Zm.331.031v.032c0 .187.094.281.282.281.187 0 .28-.094.28-.281v-.032c0-.187-.093-.28-.28-.28-.188 0-.282.093-.282.28Zm16.685 10.771c0 .2.1.3.3.3.2 0 .3-.1.3-.3 0-.2-.1-.3-.3-.3-.2 0-.3.1-.3.3Zm.606.025v-.006a.319.319 0 0 0-.127-.296.319.319 0 0 0-.318-.054.318.318 0 0 0-.218.237.319.319 0 0 0 .08.313.321.321 0 0 0 .306.102.319.319 0 0 0 .252-.202v-.006a.31.31 0 0 0 .025-.088Zm-.762-.05c0 .107.038.199.113.274a.374.374 0 0 0 .274.114.374.374 0 0 0 .274-.114.373.373 0 0 0 .114-.274.373.373 0 0 0-.114-.274.373.373 0 0 0-.274-.113.373.373 0 0 0-.274.113.373.373 0 0 0-.113.274Zm-.125-.012c0 .128.045.237.135.327.09.09.2.135.327.135a.446.446 0 0 0 .327-.135c.09-.09.136-.2.136-.327a.445.445 0 0 0-.136-.327.446.446 0 0 0-.327-.136.446.446 0 0 0-.327.136c-.09.09-.135.2-.135.327Zm.768-.406-.012-.013c-.244-.22-.502-.24-.775-.056l-.106.069a.684.684 0 0 0-.263.33l-.094.232a.743.743 0 0 0-.043.231l-.02.357a.75.75 0 0 0 .013.175l.075.412a.743.743 0 0 0 .038.138l.162.419c.018.05.041.098.07.143l.25.388a.78.78 0 0 0 .118.144l.325.306c.038.038.08.071.125.1l.388.238a.78.78 0 0 0 .143.075l.42.156c.052.018.106.03.162.038l.412.062a.8.8 0 0 0 .244-.006l.35-.056a.809.809 0 0 0 .213-.063l.275-.131a.807.807 0 0 0 .206-.138l.188-.175a.81.81 0 0 0 .193-.269l.088-.194a.81.81 0 0 0 .069-.293l.006-.219a.804.804 0 0 0-.006-.125l-.025-.238a.776.776 0 0 0-.013-.062l-.05-.256a.775.775 0 0 0-.012-.057l-.07-.25a.79.79 0 0 0-.018-.056l-.075-.212a.84.84 0 0 0-.012-.044l-.075-.182-.057-.13-.012-.032v-.025a.799.799 0 0 0-.019.294l.025-.107a.8.8 0 0 0-.1.244l.013-.018-.063.062-.05.025-.031.013-.031.006-.026-.006.013.006.094.031a.666.666 0 0 0 .037.006l.138.038.144.044.043.012.17.038a.59.59 0 0 0 .018 0l.181.037a.8.8 0 0 0 .125.019l.213.006a.793.793 0 0 0 .181-.013l.231-.043a.802.802 0 0 0 .157-.05l.237-.1a.786.786 0 0 0 .081-.038l.213-.118a.807.807 0 0 0 .05-.032l.181-.119a.789.789 0 0 0 .094-.068l.131-.12a.8.8 0 0 0 .125-.137l.094-.13a.804.804 0 0 0 .075-.126l.069-.156a.806.806 0 0 0 .062-.219l.032-.206a.806.806 0 0 0 .012-.125l-.006-.232a.807.807 0 0 0-.025-.193l-.056-.244a.802.802 0 0 0-.057-.15l-.118-.25a.82.82 0 0 0-.075-.125l-.182-.25a.823.823 0 0 0-.043-.057l-.213-.243a.812.812 0 0 0-.056-.063l-.225-.206a.833.833 0 0 0-.063-.056l-.231-.175a.814.814 0 0 0-.075-.05l-.219-.132a.833.833 0 0 0-.069-.037l-.212-.1a.85.85 0 0 0-.063-.032l-.2-.075a.812.812 0 0 0-.112-.03l-.2-.045a.809.809 0 0 0-.188-.018h-.2a.804.804 0 0 0-.287.062l-.188.075a.763.763 0 0 0-.444.438l-.056.137a.684.684 0 0 0 .313.873c.101.055.21.083.325.084h.15a.792.792 0 0 0 .2-.019l.093-.025h.013l.062.012.12.044.143.069.15.088.156.118.163.157.169.187.112.163.056.112.02.081.005.07-.006.03.006-.018.007-.007-.02.02-.1.062-.155.087-.113.05-.069.013h-.05l-.106-.025-.138-.032-.118-.037a.797.797 0 0 0-.038-.006l-.112-.032-.094-.03a.8.8 0 0 0-.1-.026l-.119-.025a.796.796 0 0 0-.119-.019l-.125-.006a.797.797 0 0 0-.162.006l-.119.02a.79.79 0 0 0-.15.037l-.106.037a.802.802 0 0 0-.113.05l-.106.056a.804.804 0 0 0-.15.107l-.081.075a.804.804 0 0 0-.144.175l-.063.1a.802.802 0 0 0-.106.244l-.019.106a.803.803 0 0 0-.018.244l.006.118a.8.8 0 0 0 .037.188l.044.125a.823.823 0 0 0 .019.069l.062.143.07.157.055.169.057.193.03.182.013.13.038-.074.019-.019-.05.025-.132.025-.2-.019-.256-.093-.256-.15-.213-.188-.162-.237-.12-.276-.055-.28-.013-.263.006-.225v-.125a.627.627 0 0 0-.025-.2l-.006-.026a.546.546 0 0 0-.162-.25Zm1.976-1.995c0 .113.04.208.119.288.08.079.175.119.287.119.112 0 .208-.04.288-.12a.392.392 0 0 0 .119-.287.392.392 0 0 0-.12-.287.392.392 0 0 0-.287-.119.392.392 0 0 0-.287.119.392.392 0 0 0-.12.287Zm.137.02-.025.068c-.015.119.034.199.147.24.113.04.201.01.266-.09l.025-.069c.015-.119-.034-.199-.146-.24-.113-.04-.202-.01-.267.09Z"/><path d="m7.29 22.574-.056-.03-.037-.032a.428.428 0 0 0-.007-.013l-.05-.043a.483.483 0 0 0-.168-.1l-.057-.026a.491.491 0 0 0-.156-.024h-.025a.476.476 0 0 0-.398.19.476.476 0 0 0-.091.432c.04.16.135.271.286.337.15.065.297.058.44-.022l.02-.012a.482.482 0 0 0-.288.062l.056.006a.482.482 0 0 0 .175-.018l.069-.013a.453.453 0 0 0 .062-.025l.057-.025a.428.428 0 0 0 .043-.025l.038-.019.087-.05a.292.292 0 0 0 .164-.275.292.292 0 0 0-.164-.275Zm-.987.538.037.062a.58.58 0 0 0 .206.188l.163.094a.621.621 0 0 0 .088.044l.312.118.456.175a.707.707 0 0 0 .025.006l.588.2a.617.617 0 0 0 .038.013l.65.175.637.175.538.156.406.188.307.169.387.225.088.05c.185.099.33.057.434-.124.105-.182.069-.328-.11-.439l-.08-.05-.382-.231a.292.292 0 0 0-.012-.006l-.313-.182a.292.292 0 0 0-.012-.006l-.413-.225-.469-.319a.43.43 0 0 0-.031-.019l-.582-.325-.587-.33a.62.62 0 0 0-.05-.026l-.569-.25a.653.653 0 0 0-.037-.019l-.463-.169a.661.661 0 0 0-.044-.012l-.319-.094a.612.612 0 0 0-.08-.019l-.188-.03a.578.578 0 0 0-.27.024l-.068.025a.506.506 0 0 0-.332.326.506.506 0 0 0 .05.462Z"/><path d="M6.865 23.037c0 .212.107.319.32.319.212 0 .318-.107.318-.32 0-.212-.106-.318-.319-.318-.212 0-.319.106-.319.319Zm-.075-.025c0 .107.038.198.114.274a.373.373 0 0 0 .274.113.373.373 0 0 0 .274-.113.373.373 0 0 0 .113-.274.374.374 0 0 0-.113-.274.374.374 0 0 0-.274-.114.374.374 0 0 0-.274.114.374.374 0 0 0-.114.274Zm-.08-.025c0 .133.046.246.14.34a.464.464 0 0 0 .34.141.464.464 0 0 0 .34-.14.464.464 0 0 0 .142-.341.464.464 0 0 0-.141-.34.464.464 0 0 0-.34-.141.464.464 0 0 0-.34.14.464.464 0 0 0-.142.34Zm.237.488.2.13a.663.663 0 0 0 .08.044l.382.182.544.262.644.307.656.319.02.006.637.293a.592.592 0 0 0 .019.007l.543.231a.742.742 0 0 0 .057.019l.475.156a.684.684 0 0 0 .068.019l.413.094c.027.005.054.01.081.012l.332.031h.306a.483.483 0 0 0 .486-.358.483.483 0 0 0-.174-.58l-.193-.15a.608.608 0 0 0-.094-.062l-.3-.15a.685.685 0 0 0-.05-.025l-.4-.156-.45-.175-.525-.225-.626-.294-.656-.313h-.006l-.644-.306a.71.71 0 0 0-.019-.012l-.556-.238a.726.726 0 0 0-.069-.025l-.412-.125a.667.667 0 0 0-.244-.031l-.232.012c-.288.018-.469.166-.543.444-.075.28.009.498.25.656Zm5.882 1.831.006-.012c-.116-.067-.214-.047-.294.062l.044.025c.124.058.22.027.29-.091.068-.118.047-.217-.065-.296l-.043-.026a.207.207 0 0 0 .106.238l.006-.019a.302.302 0 0 0-.087-.287.301.301 0 0 0-.287-.087.301.301 0 0 0-.233.189.301.301 0 0 0 .028.299c.062.094.15.142.263.143a.302.302 0 0 0 .266-.138Z"/><path d="M8.422 23.58c0 .213.106.32.319.32.212 0 .318-.107.318-.32 0-.212-.106-.318-.318-.318-.213 0-.32.106-.32.319Zm-.044.007c0 .105.037.195.112.27a.368.368 0 0 0 .27.111.368.368 0 0 0 .27-.111.368.368 0 0 0 .11-.27.367.367 0 0 0-.11-.27.367.367 0 0 0-.27-.111.367.367 0 0 0-.27.111.367.367 0 0 0-.112.27Zm.044.363.125.15a.64.64 0 0 0 .125.125l.362.256a.705.705 0 0 0 .088.05l.6.319a.767.767 0 0 0 .05.025l.756.319a.641.641 0 0 0 .094.03l.788.207a.46.46 0 0 0 .062.013l.663.08.494.226c.137.062.238.025.3-.113.063-.137.025-.237-.113-.3l-.487-.218-.475-.47a.491.491 0 0 0-.025-.024l-.62-.525a.639.639 0 0 0-.08-.057l-.694-.437a.722.722 0 0 0-.05-.032l-.6-.312a.72.72 0 0 0-.125-.05l-.425-.125a.639.639 0 0 0-.25-.025l-.194.012a.502.502 0 0 0-.448.327.502.502 0 0 0 .079.549Zm7.876 4.594c0 .17.086.256.257.256.17 0 .256-.085.256-.256 0-.17-.086-.256-.256-.256s-.256.086-.257.256Zm.013.175.056.088.069.144a.41.41 0 0 0 .062.087l.07.075.1.119c.015.016.032.03.05.044l.174.156a.537.537 0 0 0 .044.037l.281.194a.766.766 0 0 0 .019.013l.419.262.556.363.707.45a.484.484 0 0 0 .012.006l.756.469.707.5.644.469v.006l.537.388.42.3.287.219.169.143.087.07a.483.483 0 0 0 .356.118l.013-.006c.272-.024.42-.172.444-.444l.006-.013a.475.475 0 0 0-.169-.412l-.087-.075a.451.451 0 0 0-.025-.019l-.188-.144-.006-.006-.3-.225h-.006l-.426-.306-.537-.388-.644-.463-.706-.518-.7-.563a.468.468 0 0 0-.02-.012l-.674-.5a.547.547 0 0 0-.038-.02l-.563-.356a.614.614 0 0 0-.03-.018l-.432-.232a.575.575 0 0 0-.044-.025l-.313-.137a.495.495 0 0 0-.043-.019l-.225-.069a.586.586 0 0 0-.019-.006l-.106-.031-.056-.032a.423.423 0 0 0-.063-.025l-.15-.05-.094-.043c-.138-.069-.258-.045-.36.071-.1.117-.108.239-.021.366Zm6.345 3.882-.05.025c.076.067.16.077.25.032l-.113-.094c-.108-.065-.204-.048-.285.048-.082.096-.083.192-.002.29l.112.093a.21.21 0 0 0-.069-.231l-.018.05a.333.333 0 0 0 .052.304c.068.092.159.14.273.144a.333.333 0 0 0 .28-.127.333.333 0 0 0 .072-.3.333.333 0 0 0-.194-.24.333.333 0 0 0-.308.006Z"/><path d="m18.88 29.72-.012-.044a.287.287 0 0 0-.15-.2l-.144-.075a.181.181 0 0 0-.007-.007l-.225-.106-.268-.137-.263-.15-.244-.163-.231-.156-.188-.132-.143-.118-.107-.107a.388.388 0 0 0-.025-.012l-.093-.081-.125-.113a.413.413 0 0 0-.346-.096.413.413 0 0 0-.3.198.413.413 0 0 0-.045.356c.04.126.12.215.24.267l.138.056.1.057a.39.39 0 0 0 .044.018l.112.044.144.094a.365.365 0 0 0 .006.006l.213.132a.362.362 0 0 0 .012.006l.244.144a.366.366 0 0 0 .013.006l.281.144.281.137v.006l.275.132.225.112.144.075c.077.04.156.047.238.019l.037-.012c.147-.05.204-.15.17-.3Zm-2.85-.907.03.019.12.106a.652.652 0 0 0 .024.019l.294.237a.662.662 0 0 0 .038.025l.5.344a.582.582 0 0 0 .025.019l.663.412a.52.52 0 0 0 .1.05l.775.307c.01.004.02.009.031.012l.688.207.481.306c.137.087.25.062.338-.075.087-.138.062-.25-.076-.338l-.487-.306-.481-.531a.383.383 0 0 0-.02-.013l-.593-.587a.63.63 0 0 0-.075-.063l-.638-.45a.868.868 0 0 0-.018-.013l-.513-.33a.635.635 0 0 0-.081-.045l-.344-.156a.582.582 0 0 0-.213-.056l-.175-.006a.518.518 0 0 0-.25.05l-.037.018a.493.493 0 0 0-.284.39.493.493 0 0 0 .177.448ZM9.147 20.38c0 .188.094.282.281.282.188 0 .282-.094.282-.282 0-.187-.094-.281-.282-.281-.187 0-.281.094-.281.281Zm.55-.144-.062-.125-.007-.006-.05-.094a.32.32 0 0 0-.018-.03l-.05-.063-.007-.02-.006-.024a.32.32 0 0 0 0-.006l-.012-.063a.378.378 0 0 0-.237-.296.378.378 0 0 0-.378.034.378.378 0 0 0-.18.335.38.38 0 0 0 .182.333l.05.038a.374.374 0 0 0 .038.019l.006.006.019.025.056.069.056.068.069.107c.102.177.242.214.419.112s.214-.242.112-.419Zm-1.169-.387a.51.51 0 0 0 .156.375.512.512 0 0 0 .376.156.512.512 0 0 0 .375-.155.512.512 0 0 0 .156-.376.512.512 0 0 0-.156-.376.512.512 0 0 0-.375-.156.512.512 0 0 0-.376.156.512.512 0 0 0-.156.376Zm-.056.106.012.075a.65.65 0 0 0 .094.238l.138.206a.72.72 0 0 0 .125.15l.356.319a.788.788 0 0 0 .019.018l.55.457a.686.686 0 0 0 .025.019l.7.525v.006l.744.55a.774.774 0 0 0 .025.019l.719.481.006.006 1.138.744.406.27a.645.645 0 0 0 .069.037l.319.162a.58.58 0 0 0 .087.031l.257.082c.018.005.037.01.056.012l.169.031.112.02h.019l.05.005a.294.294 0 0 0 .28-.13.29.29 0 0 0 .032-.307l-.018-.031-.032-.094-.062-.157a.49.49 0 0 0-.056-.112l-.157-.212a.591.591 0 0 0-.05-.063l-.243-.263a.646.646 0 0 0-.07-.062l-.374-.306a.76.76 0 0 0-.019-.013l-1.082-.813-.68-.525v-.006l-.738-.563-.688-.518-.544-.438a.774.774 0 0 0-.025-.019l-.388-.287a.725.725 0 0 0-.125-.075l-.225-.107a.653.653 0 0 0-.218-.056l-.075-.006a.571.571 0 0 0-.49.194.571.571 0 0 0-.148.506Zm6.389 4-.013-.012c-.103-.07-.198-.06-.285.027-.088.088-.097.183-.027.286l.012.012c.103.07.198.06.286-.027.087-.087.096-.183.027-.285Z"/><path d="M10.597 21.455c0 .209.104.313.313.313.208 0 .312-.104.312-.313 0-.208-.104-.312-.312-.312-.209 0-.313.104-.313.312Zm-.018.025.006.082a.42.42 0 0 0 .137.318l.594.55a.557.557 0 0 0 .05.038l.594.438a.737.737 0 0 0 .012.012l.732.5.012.006.77.513h.006l.68.444a.556.556 0 0 0 .213.081l.526.094h.006l.262.044.094.037c.13.042.222 0 .276-.126.053-.126.02-.222-.1-.286l-.07-.025-.143-.175-.294-.432a.56.56 0 0 0-.15-.144l-.675-.456-.77-.519-.73-.494-.007-.006-.612-.406a.55.55 0 0 0-.057-.031l-.719-.375a.428.428 0 0 0-.256-.044l-.081.012c-.206.026-.308.143-.306.35Zm7.926 4.939c0 .2.1.3.3.3.2 0 .3-.1.3-.3 0-.2-.1-.3-.3-.3-.2 0-.3.1-.3.3Zm-.031 0c0 .216.108.325.325.325.217 0 .325-.108.325-.325 0-.217-.108-.325-.325-.325-.217 0-.325.108-.325.325Zm-.013.006c0 .095.034.176.101.243s.148.1.243.1a.331.331 0 0 0 .243-.1.331.331 0 0 0 .1-.243.331.331 0 0 0-.1-.243.33.33 0 0 0-.243-.1.331.331 0 0 0-.243.1.331.331 0 0 0-.1.243Zm.025.206.063.138c.03.063.072.117.125.162l.244.213a.587.587 0 0 0 .05.037l.387.263a.471.471 0 0 0 .019.012l.5.313.013.006 1.156.688.606.369.582.375.531.337.444.294.375.256.006.007.332.212a.581.581 0 0 0 .037.025l.294.163.25.137a.365.365 0 0 0 .006.006l.213.113a.547.547 0 0 0 .143.056l.176.038a.466.466 0 0 0 .343-.05l.057-.031a.348.348 0 0 0 .175-.27l.012-.055a.465.465 0 0 0-.094-.35l-.106-.144a.545.545 0 0 0-.137-.132l-.2-.137-.232-.15-.269-.194-.312-.231a.292.292 0 0 0-.013-.006l-.375-.263h-.006l-.45-.3-.012-.006-.538-.35-.588-.375-.006-.007-.613-.375a1.451 1.451 0 0 0-.012-.006l-1.163-.681-.006-.007-.513-.287a.647.647 0 0 0-.025-.013l-.412-.212a.554.554 0 0 0-.056-.025l-.3-.113a.503.503 0 0 0-.188-.037l-.15.006a.401.401 0 0 0-.34.191.4.4 0 0 0-.023.39Zm6.595 3.863v.007c0 .146.073.219.22.219.145 0 .218-.073.218-.22v-.006c0-.145-.073-.218-.219-.218-.146 0-.219.073-.219.218Z"/><path d="m20.243 26.925-.006-.019a.305.305 0 0 0-.185-.198.305.305 0 0 0-.27.015.305.305 0 0 0-.161.217.304.304 0 0 0 .063.263.304.304 0 0 0 .243.12c.1.002.182-.035.247-.11l.013-.013a.277.277 0 0 0 .056-.275Zm-.725.069c0 .104.036.192.11.265a.36.36 0 0 0 .265.11.361.361 0 0 0 .265-.11.361.361 0 0 0 .11-.265.361.361 0 0 0-.11-.265.362.362 0 0 0-.265-.11.362.362 0 0 0-.265.11.361.361 0 0 0-.11.265Zm-.032-.175-.006.012a.466.466 0 0 0 .063.52l.169.212a.598.598 0 0 0 .087.087l.406.338a.611.611 0 0 0 .044.031l1.344.957a.365.365 0 0 0 .006.006l.77.525.03.025.75.45a.59.59 0 0 0 .02.006l.656.369a.524.524 0 0 0 .056.031l.55.225a.292.292 0 0 0 .013.007l.393.15a.29.29 0 0 0 .057.012l.175.038.056.037c.11.051.2.028.27-.071.071-.099.064-.192-.02-.279l-.056-.044-.106-.162a.31.31 0 0 0-.044-.05l-.3-.294-.425-.419a.553.553 0 0 0-.038-.037l-.594-.476-.681-.543-.012-.013-.744-.556a.738.738 0 0 0-.025-.019L21 26.95a.68.68 0 0 0-.063-.037l-.47-.25a.597.597 0 0 0-.162-.063l-.262-.056a.467.467 0 0 0-.488.169l-.006.006a.423.423 0 0 0-.063.1ZM15.33 27.9c0 .209.104.313.312.313.208 0 .313-.104.313-.313 0-.208-.105-.312-.313-.312-.208 0-.313.104-.313.312Zm-.026.007c0 .091.033.17.098.234a.319.319 0 0 0 .234.097.32.32 0 0 0 .234-.097.32.32 0 0 0 .097-.234.32.32 0 0 0-.097-.235.32.32 0 0 0-.234-.097.319.319 0 0 0-.234.097.32.32 0 0 0-.098.235Zm.063.28.069.076a.41.41 0 0 0 .1.075l.237.131c.03.016.061.029.094.038l.425.125.431.118.35.175c.127.047.22.01.28-.11.06-.12.033-.217-.08-.29l-.343-.175-.344-.28-.338-.282a.408.408 0 0 0-.075-.056l-.25-.125a.41.41 0 0 0-.075-.032l-.1-.025c-.186-.047-.33.011-.428.177-.1.165-.083.319.047.46ZM16.53 1.283l-.031-.019-.087-.069a.342.342 0 0 0-.038-.018l-.181-.107a.446.446 0 0 0-.063-.025l-.244-.093a.532.532 0 0 0-.075-.025l-.3-.063A.6.6 0 0 0 15.4.845l-.35-.012a.644.644 0 0 0-.075.006l-.388.031a.679.679 0 0 0-.087.013l-.42.094a.704.704 0 0 0-.087.025l-.431.15a.724.724 0 0 0-.094.043l-.437.225a.74.74 0 0 0-.057.032l-.462.294a.754.754 0 0 0-.1.08l-.444.4a.791.791 0 0 0-.063.063l-.425.494a.791.791 0 0 0-.05.063l-.406.569a.811.811 0 0 0-.031.05l-.388.637a.806.806 0 0 0-.031.056l-.344.682a.823.823 0 0 0-.025.056l-.287.706a.82.82 0 0 0-.025.057l-.226.7a.823.823 0 0 0-.025.087l-.137.676a.804.804 0 0 0-.019.143l-.012.607a.72.72 0 0 0 .037.262l.163.45a.521.521 0 0 0 .244.288l.13.075.057.187c.056.113.144.151.265.116.12-.036.174-.116.16-.24l-.044-.15.082-.082a.533.533 0 0 0 .106-.156l.194-.438a.72.72 0 0 0 .031-.094l.169-.58.006-.02.169-.644.206-.656.263-.65.306-.644.338-.6.356-.525.362-.45.357-.357.35-.275.362-.2.357-.168.35-.125.331-.094.325-.069.006-.006.3-.063.007-.006.256-.056a.451.451 0 0 0 .075-.025l.188-.081.112-.044a.275.275 0 0 0 .037-.013l.044-.031a.228.228 0 0 0 .125-.213.228.228 0 0 0-.125-.212Z"/><path d="m13.33 2.702.018-.013a.284.284 0 0 0-.118.038h.03a.348.348 0 0 0 .095-.025l.08-.031a.424.424 0 0 0 .05-.025l.126-.07.212-.1.307-.143.319-.15.337-.112.375-.094.425-.069.45-.044.438-.012.4.012.363.032.28.043.239.07.23.08.245.107.03.012.276.106a.801.801 0 0 0 .05.02l.275.087a.857.857 0 0 0 .037.006l.294.081.238.069.162.062.138.088.162.112.182.15a.776.776 0 0 0 .012.013l.238.188.262.218.307.27.318.287.282.262.244.269.224.275.194.275.182.288.162.319.163.33.137.326.119.35.113.356a.812.812 0 0 0 .018.05l.131.325a.82.82 0 0 0 .013.038l.125.281c.035.076.08.145.138.206l.168.182a.633.633 0 0 0 .113.093l.1.07.044.043.056.156.006.007.094.218v.007l.069.143-.007.12c-.004.15.07.226.22.23.15.005.226-.068.23-.218l.007-.138.05-.169a.317.317 0 0 0 .012-.03l.05-.232a.377.377 0 0 0 .006-.1l-.012-.213.006-.119.038-.125a.629.629 0 0 0 .018-.08l.038-.245a.762.762 0 0 0 .006-.2l-.03-.306a.794.794 0 0 0-.014-.075l-.068-.344a.85.85 0 0 0-.019-.062l-.106-.37a.938.938 0 0 0-.013-.043l-.131-.381a.88.88 0 0 0-.025-.056l-.156-.37a.768.768 0 0 0-.02-.037l-.174-.362A.722.722 0 0 0 24 4.877l-.193-.356a.822.822 0 0 0-.032-.05l-.212-.338a.814.814 0 0 0-.025-.037l-.232-.325a.862.862 0 0 0-.037-.05l-.256-.306a.81.81 0 0 0-.05-.05l-.288-.294a.83.83 0 0 0-.019-.019l-.312-.294a.508.508 0 0 0-.013-.012l-.331-.3a.857.857 0 0 0-.019-.013l-.319-.275a.811.811 0 0 0-.018-.019l-.282-.225-.006-.006-.244-.194-.2-.162a.81.81 0 0 0-.043-.032l-.213-.15a.825.825 0 0 0-.069-.043l-.231-.132a.817.817 0 0 0-.081-.037l-.257-.113a.82.82 0 0 0-.1-.03l-.287-.082a.299.299 0 0 0-.006-.006l-.288-.075-.238-.075-.243-.094-.263-.106a.812.812 0 0 0-.062-.02L18.249.47a.801.801 0 0 0-.093-.025l-.313-.062a.794.794 0 0 0-.087-.006l-.37-.032a.787.787 0 0 0-.05-.006L16.93.333h-.037l-.444.019a.75.75 0 0 0-.05 0l-.481.05a.675.675 0 0 0-.02.006l-.5.062a.72.72 0 0 0-.05.007l-.474.1a.707.707 0 0 0-.07.018l-.424.132a.699.699 0 0 0-.106.037l-.375.188a.671.671 0 0 0-.1.062l-.313.231a.635.635 0 0 0-.081.07l-.238.243a.571.571 0 0 0-.087.125l-.125.219a.484.484 0 0 0-.044.112l-.038.157a.42.42 0 0 0-.012.175l.018.087a.343.343 0 0 0 .094.188l.02.025a.28.28 0 0 0-.076-.175v.025a.253.253 0 0 0 .148.22c.09.045.179.04.265-.014Z"/><path d="M13.317 2.408c0 .171.086.256.256.256.171 0 .257-.085.257-.256 0-.17-.086-.256-.257-.256-.17 0-.256.085-.256.256Zm.413-.212-.044-.038a.312.312 0 0 0-.019-.012l-.081-.063a.377.377 0 0 0-.156-.062l-.182-.032a.46.46 0 0 0-.15-.006l-.25.038a.528.528 0 0 0-.175.062l-.287.163a.571.571 0 0 0-.075.043l-.325.257a.604.604 0 0 0-.05.037l-.37.35a.656.656 0 0 0-.055.063l-.394.475a.707.707 0 0 0-.032.044l-.393.568a.712.712 0 0 0-.038.057l-.356.631a.714.714 0 0 0-.025.038l-.313.643a.738.738 0 0 0-.012.025l-.281.638a.756.756 0 0 0-.02.044l-.237.65a.773.773 0 0 0-.012.044l-.188.631a.78.78 0 0 0-.012.05l-.144.613a.785.785 0 0 0-.006.05l-.1.581a.788.788 0 0 0-.007.031l-.068.544a.798.798 0 0 0-.007.056l-.03.507v.05l.005.462v.05l.032.42v.024l.037.388v.006l.038.35a.714.714 0 0 0 .006.019l.037.319a.812.812 0 0 0 .013.05l.056.293c.012.063.03.124.056.182l.113.237c.158.35.427.497.806.444l.038-.006a.553.553 0 0 0 .162-.044l.025-.019c.326-.153.472-.41.438-.768l-.025-.263a.848.848 0 0 0-.012-.069l-.05-.275-.044-.287-.032-.338a1.437 1.437 0 0 0-.006-.012l-.044-.37-.03-.374-.007-.413.019-.463.05-.5.08-.537.126-.588.15-.6.2-.606.244-.607.281-.612.325-.613.325-.575.313-.488.269-.38.237-.263.206-.194.175-.144.12-.088.074-.037.044-.025a.26.26 0 0 0 .144-.216.26.26 0 0 0-.1-.24ZM9.842 12.929l.056.112c.085.11.189.134.313.07.123-.063.165-.162.124-.295l-.056-.112c-.085-.11-.189-.134-.313-.07-.123.063-.165.162-.124.295Zm13.94-7.395-.038.081a.353.353 0 0 0-.012.038l-.044.143a.472.472 0 0 0-.025.1l-.025.282a.569.569 0 0 0 .006.125l.056.418v.02l.082.487.08.537.063.544.013.538-.013.513-.05.456-.068.419-.088.375-.1.356a.26.26 0 0 0 0 .013l-.087.325-.076.268a.76.76 0 0 0-.006.025l-.056.238v.019l-.044.206a.559.559 0 0 0-.006.031l-.031.207a.62.62 0 0 0 .012.23l.038.182c.055.24.204.38.448.42.244.04.43-.046.558-.257l.094-.157a.622.622 0 0 0 .081-.193l.044-.207v-.03l.031-.182.05-.206.075-.27.088-.33v-.007l.1-.369a.592.592 0 0 0 .006-.019l.094-.412a.611.611 0 0 0 .006-.037l.075-.457v-.044l.05-.5V9.41l.013-.55v-.038l-.025-.581v-.05l-.075-.582a.713.713 0 0 0-.007-.025l-.087-.55a.58.58 0 0 0-.006-.012l-.094-.494a.601.601 0 0 0-.013-.057l-.119-.4a.562.562 0 0 0-.075-.162l-.156-.231a.463.463 0 0 0-.125-.125l-.125-.088a.355.355 0 0 0-.081-.037l-.081-.032c-.152-.057-.26-.011-.325.138Zm-.082 7.464.038.031a.202.202 0 0 0-.088-.225l-.012.062c-.01.128.048.205.174.231.125.026.21-.022.25-.143l.013-.063a.207.207 0 0 0-.137.157l.05-.019a.298.298 0 0 0 .184-.195.298.298 0 0 0-.036-.266.298.298 0 0 0-.228-.14.298.298 0 0 0-.253.087.298.298 0 0 0-.092.252c.01.099.055.176.137.23Z"/><path d="M9.885 11.079h-.012a.301.301 0 0 0-.106.106l-.038.056a.32.32 0 0 0-.025.05l-.025.063-.05.075a.412.412 0 0 0-.05.093l-.056.163a.484.484 0 0 0-.031.181l.006.232c0 .033.005.067.012.1l.063.275a.523.523 0 0 0 .006.037l.094.306a.523.523 0 0 0 .019.05l.125.3a.534.534 0 0 0 .025.063l.143.25a.55.55 0 0 0 .038.056l.156.207c.01.015.02.03.031.043l.157.17.006.005.138.144a.58.58 0 0 0 .043.038l.138.125.031.025.144.1a.536.536 0 0 0 .037.031l.15.088a.737.737 0 0 0 .013.012l.156.088.013.006.15.081.168.094.013.006.187.1.032.013.187.087a.716.716 0 0 0 .038.013l.187.068a.52.52 0 0 0 .031.013l.176.056c.024.008.05.014.075.019l.187.037h.038l.187.025.388.063.187.025a.56.56 0 0 0 .05.006l.175.013h.063l.131-.007.075.007.038.006.062.019.106.037a.716.716 0 0 0 .038.013l.106.03.088.026a.58.58 0 0 0 .05.012l.043.007.032.012c.018.005.037.01.056.013l.031.006a.59.59 0 0 0 .094.006h.019a.56.56 0 0 0 .5-.262l.012-.02c.178-.266.155-.514-.068-.743v-.006a.573.573 0 0 0-.325.422.573.573 0 0 0 .156.51l.006-.007c.16-.248.142-.481-.054-.702-.195-.22-.425-.265-.69-.136l-.012.019a.583.583 0 0 0-.07.169l-.05.2a.602.602 0 0 0-.012.056l-.03.2v.025l-.032.256v.05l-.006.3a.608.608 0 0 0 0 .088l.043.306c.02.158.093.285.22.382l.155.112a.181.181 0 0 0 .007.006l.062.044.019.088c.033.137.119.189.256.156.138-.034.19-.119.157-.256l-.02-.07.026-.037.119-.13a.553.553 0 0 0 .13-.363v-.3l.007-.27.031-.212.032-.187.03-.194a.6.6 0 0 0 .013-.056v-.02a.565.565 0 0 0-.1-.386.564.564 0 0 0-.326-.23.564.564 0 0 0-.398.034.564.564 0 0 0-.282.283l-.006.006c.278.037.478-.072.6-.325h-.006a.553.553 0 0 0-.57.256l-.012.019a.562.562 0 0 0 .488-.263h-.019a.591.591 0 0 0 .137.02l-.03-.013-.05-.013a.558.558 0 0 0-.032-.006h-.037l-.05-.019-.094-.025-.094-.037a.26.26 0 0 0-.012 0l-.113-.038a.577.577 0 0 0-.106-.025l-.125-.012a.59.59 0 0 0-.044-.007l-.138-.006h-.056l-.119.006-.112-.012-.144-.025-.369-.081-.175-.05-.169-.044-.15-.05-.168-.063-.157-.062-.175-.088a.64.64 0 0 0-.05-.018l-.181-.07a.606.606 0 0 0-.081-.024l-.157-.031-.118-.038-.082-.037-.087-.057-.113-.081-.112-.113-.131-.137-.12-.156-.112-.194-.1-.244-.087-.275-.075-.263a.26.26 0 0 0 0-.012l-.07-.225a.483.483 0 0 0-.037-.081l-.068-.132-.013-.043-.006-.044.006-.056a.301.301 0 0 0-.006-.05v-.013a.278.278 0 0 0-.162-.222.278.278 0 0 0-.276.01Z"/><path d="M14.242 14.804c0 .196.098.294.294.294.196 0 .294-.098.294-.294 0-.196-.098-.293-.294-.293-.196 0-.294.097-.294.293Zm-.012-.012c0 .204.102.306.306.306.204 0 .306-.102.306-.306 0-.204-.102-.307-.306-.307-.204 0-.306.103-.306.307Zm.544.206.025-.031.025-.025a.366.366 0 0 0 .012-.007l.031-.037c.186-.192.198-.394.038-.607-.16-.213-.358-.258-.594-.133-.235.124-.31.313-.225.565l.013.05a.432.432 0 0 0 .112.169l.031.031c.016.016.032.03.05.044l.032.025c.162.112.312.098.45-.044Zm-.732-.45c0 .14.05.26.149.358a.488.488 0 0 0 .358.148.49.49 0 0 0 .358-.148.488.488 0 0 0 .148-.358.49.49 0 0 0-.148-.358.488.488 0 0 0-.358-.148c-.14 0-.26.049-.358.148a.488.488 0 0 0-.149.358Zm-.018-.119-.063.2a.651.651 0 0 0-.025.088l-.069.394v.03l-.068.526v.006l-.075.582v.012l-.057.55a.59.59 0 0 0 0 .019l-.037.475v.038l-.013.38a.69.69 0 0 0 0 .082l.025.269a.669.669 0 0 0 .215.486.668.668 0 0 0 .495.192.669.669 0 0 0 .486-.214.669.669 0 0 0 .192-.495l.013-.275.012-.363.038-.456.056-.538.062-.575a.691.691 0 0 0 .007-.019l.043-.537a.672.672 0 0 0 0-.088l-.018-.4a.65.65 0 0 0-.057-.244l-.087-.181a.53.53 0 0 0-.557-.344.53.53 0 0 0-.518.4Zm-.057 3.732a.38.38 0 0 0 .116.279.38.38 0 0 0 .278.115.38.38 0 0 0 .279-.115.38.38 0 0 0 .115-.279.38.38 0 0 0-.115-.278.38.38 0 0 0-.279-.116.38.38 0 0 0-.278.116.38.38 0 0 0-.116.278Zm.632.056.025-.087c.041-.142-.009-.233-.15-.275-.142-.042-.234.008-.275.15l-.025.087c-.042.142.008.234.15.275.141.042.233-.008.275-.15Z"/><path d="M14.224 15.273c0 .2.1.3.3.3.2 0 .3-.1.3-.3 0-.2-.1-.3-.3-.3-.2 0-.3.1-.3.3Zm-.032 0c0 .092.033.17.097.234a.32.32 0 0 0 .235.097.32.32 0 0 0 .234-.097.32.32 0 0 0 .097-.234.32.32 0 0 0-.097-.234.32.32 0 0 0-.234-.097.32.32 0 0 0-.235.097.32.32 0 0 0-.097.234Zm-.137.019c0 .124.044.23.132.318a.434.434 0 0 0 .318.132c.124 0 .23-.044.318-.132a.434.434 0 0 0 .132-.318.434.434 0 0 0-.132-.318.434.434 0 0 0-.318-.132.434.434 0 0 0-.318.132.434.434 0 0 0-.132.318Zm-.019-.281-.125.137a.662.662 0 0 0-.131.225l-.1.288a.725.725 0 0 0-.019.081l-.081.35a.762.762 0 0 0-.013.088l-.043.412a.753.753 0 0 0-.007.075l-.006.431a.697.697 0 0 0 .006.038l.013.413a.815.815 0 0 0 .006.037l.025.344v.006l.025.263.006.018.019.182a.774.774 0 0 0 .025.112l.038.138a.774.774 0 0 0 .05.137l.05.1a.77.77 0 0 0 .23.282l.095.068a.777.777 0 0 0 .206.107l.15.056a.784.784 0 0 0 .119.031l.225.044.012.006.3.05.357.075a.666.666 0 0 0 .037.006l.444.07a.821.821 0 0 0 .056.005l.507.044c.024.003.05.006.075.006l.556-.006a.777.777 0 0 0 .1-.006l.556-.075a.72.72 0 0 0 .144-.038l.488-.168a.59.59 0 0 0 .243-.17l.226-.25.237-.155.213-.088c.137-.054.179-.15.125-.288-.055-.137-.15-.179-.288-.125l-.2.082-.237-.007-.288-.118a.598.598 0 0 0-.156-.044l-.513-.069a.718.718 0 0 0-.044-.006l-.556-.038h-.038l-.531-.018-.456-.038-.42-.062-.368-.057a1.451 1.451 0 0 1-.012-.006l-.294-.044-.138-.025h.007l-.02-.006a.77.77 0 0 0 .245.281l-.013-.03-.006-.02-.019-.112-.019-.244-.031-.325-.019-.381-.006-.394.019-.388v-.025l.006-.362v-.325a.663.663 0 0 0-.012-.113l-.032-.181a.535.535 0 0 0-.41-.457.535.535 0 0 0-.59.176Z"/><path d="M19.525 14.486c0 .195.098.293.293.293.196 0 .294-.098.294-.293 0-.196-.098-.294-.294-.294-.195 0-.293.098-.293.293Zm-.088 0c0 .103.037.191.11.265.073.073.162.11.265.11a.361.361 0 0 0 .265-.11.361.361 0 0 0 .11-.265.361.361 0 0 0-.11-.266.361.361 0 0 0-.265-.11.361.361 0 0 0-.265.11.361.361 0 0 0-.11.265Zm-.1.006c0 .127.045.236.136.327.09.09.199.135.327.135a.445.445 0 0 0 .327-.135c.09-.09.135-.2.135-.327a.446.446 0 0 0-.135-.327.446.446 0 0 0-.327-.136.446.446 0 0 0-.327.136.446.446 0 0 0-.136.327Zm.588-.525-.006-.007a.663.663 0 0 0-.446.042.663.663 0 0 0-.323.308l-.082.157a.729.729 0 0 0-.044.106l-.087.281a.76.76 0 0 0-.019.063l-.106.45a.26.26 0 0 0 0 .012l-.119.582a.484.484 0 0 0-.006.012l-.119.632a.688.688 0 0 0-.006.018l-.094.582-.081.462a.761.761 0 0 0-.006.05l-.038.344v.019l-.019.206a.728.728 0 0 0 0 .113l.007.081a.69.69 0 0 0 .62-.148.69.69 0 0 0 .242-.59h-.012c.073.235.23.38.469.438l-.025-.081.012-.244.056-.482v-.006l.057-.569a.48.48 0 0 0 .006-.068l-.025-.57a.434.434 0 0 0-.006-.024l-.05-.513v-.456l.012-.363.031-.156.007-.006c.148-.186.148-.371 0-.556-.15-.186-.331-.225-.544-.12l-.044.02a.489.489 0 0 0-.269.35l-.062.293a.515.515 0 0 0-.013.075l-.031.482a.521.521 0 0 0 .006.143l.113.52v.005l.106.45-.012.382c-.005.146.066.22.212.225.146.004.22-.067.225-.213l.013-.368.156-.425.187-.494a.515.515 0 0 0 .032-.12l.062-.474a.53.53 0 0 0 .007-.056l.012-.3a.492.492 0 0 0-.156-.382l-.032-.037a.428.428 0 0 0-.308-.144.429.429 0 0 0-.32.116.428.428 0 0 0-.144.308.429.429 0 0 0 .116.32l.063.075a.357.357 0 0 0-.082-.175l.038.25.006.356-.031.45-.1.5-.113.557a.41.41 0 0 0-.006.018l-.088.563-.087.456-.069.213-.044.062a.633.633 0 0 0 .357-.225h-.013a.653.653 0 0 0 .118.72.654.654 0 0 0 .695.224l.031-.075a.724.724 0 0 0 .025-.069l.056-.2a.744.744 0 0 0 .02-.068l.062-.332a.59.59 0 0 0 0-.018l.081-.463.1-.575.119-.625.112-.575a.484.484 0 0 0 .007-.013l.08-.45.007-.025.044-.287a.728.728 0 0 0 .006-.1l.006-.175c.006-.322-.142-.539-.444-.65a.588.588 0 0 0-.068-.02Z"/><path d="M19.718 13.992c0 .183.092.275.275.275.184 0 .276-.092.276-.275 0-.184-.092-.276-.276-.276-.183 0-.275.092-.275.276Zm-.087 0c0 .096.034.179.102.247.069.068.151.103.248.103s.18-.035.247-.103a.337.337 0 0 0 .103-.247.338.338 0 0 0-.102-.248.338.338 0 0 0-.248-.102.338.338 0 0 0-.248.102.337.337 0 0 0-.102.248Zm-.088.006c0 .116.041.214.123.296.082.082.18.123.296.123a.4.4 0 0 0 .296-.123.404.404 0 0 0 .123-.296.403.403 0 0 0-.123-.296.403.403 0 0 0-.296-.123.404.404 0 0 0-.296.123.403.403 0 0 0-.123.296Zm-.1.019c0 .136.048.252.145.349a.476.476 0 0 0 .35.144.476.476 0 0 0 .348-.144.476.476 0 0 0 .145-.35.476.476 0 0 0-.145-.349.476.476 0 0 0-.349-.144.476.476 0 0 0-.349.144.476.476 0 0 0-.145.35Zm-.093-.038-.013.088a.631.631 0 0 0 .169.55l.112.125a.692.692 0 0 0 .257.175l.225.087a.72.72 0 0 0 .231.05l.313.019a.74.74 0 0 0 .168-.013l.394-.068a.765.765 0 0 0 .1-.025l.438-.138a.75.75 0 0 0 .093-.037l.463-.213a.76.76 0 0 0 .113-.069l.456-.312a.74.74 0 0 0 .119-.106l.419-.457a.685.685 0 0 0 .025-.031l.406-.494a.663.663 0 0 0 .044-.056l.319-.488a.638.638 0 0 0 .037-.062l.219-.425a.649.649 0 0 0 .075-.294v-.35a.51.51 0 0 0-.125-.338l-.056-.069-.02-.087.02-.113c.02-.137-.038-.216-.175-.237-.138-.02-.217.037-.238.175l-.019.1-.037.056-.063.025a.517.517 0 0 0-.206.138l-.225.262a.656.656 0 0 0-.094.132l-.2.387-.281.419-.35.388-.413.293-.419.238-.4.181-.369.125-.306.069-.175.019-.069-.013-.075-.031a.7.7 0 0 0-.031-.013l-.081-.024a.561.561 0 0 0-.496.05.561.561 0 0 0-.28.412ZM14.48 4.94c0 .184.091.275.275.275.183 0 .275-.091.275-.275 0-.183-.092-.275-.275-.275-.184 0-.276.092-.276.275Zm.462-.206-.006-.006a.289.289 0 0 0-.025-.031l-.031-.025a.33.33 0 0 0-.013-.007l-.006-.006-.006-.012a.444.444 0 0 0-.263-.163l-.113-.031a.522.522 0 0 0-.274.012l-.188.057a.578.578 0 0 0-.163.08l-.2.138a.601.601 0 0 0-.08.07l-.2.2a.657.657 0 0 0-.088.112l-.175.275a.706.706 0 0 0-.082.168l-.112.357a.73.73 0 0 0-.031.156l-.032.388a.729.729 0 0 0 0 .112l.025.375a.743.743 0 0 0 .013.082l.056.337a.75.75 0 0 0 .025.1l.094.288a.782.782 0 0 0 .043.106l.12.237c.027.054.06.104.1.15l.137.17c.094.113.21.194.35.243l.2.069c.13.045.264.055.4.031l.231-.044a.8.8 0 0 0 .3-.112l.25-.163a.804.804 0 0 0 .1-.075l.257-.231a.807.807 0 0 0 .094-.1l.23-.288a.804.804 0 0 0 .07-.106l.18-.319a.798.798 0 0 0 .045-.087l.15-.356a.814.814 0 0 0 .03-.094l.107-.37a.806.806 0 0 0 .019-.074l.062-.369a.802.802 0 0 0 .013-.069l.031-.344a.826.826 0 0 0-.006-.175l-.031-.28a.85.85 0 0 0-.088-.288l-.106-.207a.86.86 0 0 0-.225-.281l-.169-.138a.873.873 0 0 0-.406-.187l-.22-.038a.896.896 0 0 0-.393.013l-.269.075a.91.91 0 0 0-.206.081l-.294.157a.92.92 0 0 0-.175.125l-.269.237a.92.92 0 0 0-.08.088l-.238.275a.933.933 0 0 0-.1.143l-.182.313a.939.939 0 0 0-.069.156l-.125.35a.948.948 0 0 0-.05.263l-.018.362a.96.96 0 0 0 .025.276l.087.375a.96.96 0 0 0 .069.206l.162.325c.033.067.072.13.12.187l.206.25c.081.101.18.183.293.244l.225.12a.954.954 0 0 0 .563.112l.244-.025a.958.958 0 0 0 .475-.182l.25-.181a.97.97 0 0 0 .188-.181l.23-.294a.964.964 0 0 0 .1-.15l.2-.375a.982.982 0 0 0 .05-.113l.15-.406a.966.966 0 0 0 .05-.188l.063-.387a.956.956 0 0 0 0-.288l-.05-.337a.963.963 0 0 0-.087-.288l-.138-.275a.964.964 0 0 0-.187-.262l-.194-.194a.96.96 0 0 0-.269-.188l-.231-.106a.957.957 0 0 0-.406-.094h-.257a.958.958 0 0 0-.406.081l-.269.126a.969.969 0 0 0-.275.187l-.262.25a.97.97 0 0 0-.17.219l-.206.362a.978.978 0 0 0-.08.188l-.138.45a.975.975 0 0 0-.044.238l-.031.481a.978.978 0 0 0 .018.244l.088.437a.973.973 0 0 0 .131.332l.2.325a.968.968 0 0 0 .332.325l.293.175a.956.956 0 0 0 .526.131l.343-.006a.966.966 0 0 0 .382-.088l.325-.15a.967.967 0 0 0 .3-.212l.25-.269a.965.965 0 0 0 .212-.338l.125-.356a.969.969 0 0 0 .063-.337v-.382a.968.968 0 0 0-.056-.312l-.12-.338a.954.954 0 0 0-.262-.406l-.206-.182c-.292-.265-.62-.325-.988-.18l-.2.08c-.346.14-.525.397-.535.77-.01.374.153.64.492.8l.006.006-.081-.1v.075l.012-.013.037-.019h.138l.156.094.02.025-.032-.137.019-.244.075-.25.075-.144.037-.037-.075.037h-.175l-.125-.056-.037-.038.006.032-.025.143-.094.25-.125.225-.1.132-.15.106a.958.958 0 0 0 .475-.181l-.244.025a.957.957 0 0 0 .525.093l-.05-.025-.006-.006-.062-.125-.032-.144v-.137l.038-.144.069-.144.118-.143.157-.144.125-.075-.163-.013-.169-.093-.056-.088.006.037.007.163-.044.244-.081.275-.113.269-.131.231-.144.188-.156.137-.063.044.107-.019.168.044.063.05-.05-.069-.063-.169-.062-.237-.032-.257.02-.287.043-.281.069-.232.062-.137.088-.1.131-.132a.561.561 0 0 0 .025-.025l.075-.093a.472.472 0 0 0 .044-.063l.031-.044a.37.37 0 0 0-.087.1l.037-.037a.33.33 0 0 0-.062.044l.018-.013h.013a.293.293 0 0 0-.075.019l.019-.006a.268.268 0 0 0 .231-.194.268.268 0 0 0-.069-.294Zm-.412 1.344-.144.238c-.086.17-.047.303.117.4.163.098.3.068.408-.088l.144-.237c.085-.17.046-.304-.117-.401-.164-.098-.3-.068-.409.088ZM20 5.916c0 .183.09.275.274.275.184 0 .275-.092.275-.275 0-.184-.091-.276-.275-.276-.183 0-.275.092-.275.276Zm-.063-.025c0 .216.108.325.325.325.216 0 .325-.109.325-.325 0-.217-.109-.326-.325-.326-.217 0-.325.109-.325.326Zm-.107-.044c0 .11.04.205.118.283a.385.385 0 0 0 .282.117.39.39 0 0 0 .283-.117.385.385 0 0 0 .117-.283.385.385 0 0 0-.117-.283.386.386 0 0 0-.283-.117.384.384 0 0 0-.282.117.386.386 0 0 0-.118.283Zm-.137-.038c0 .131.046.243.139.336.093.093.205.14.336.14a.458.458 0 0 0 .336-.14.458.458 0 0 0 .139-.336.458.458 0 0 0-.14-.336.458.458 0 0 0-.335-.139.458.458 0 0 0-.336.14.458.458 0 0 0-.14.335Zm.312-.575-.143.019a.651.651 0 0 0-.394.187l-.188.188a.72.72 0 0 0-.143.206l-.163.344a.756.756 0 0 0-.05.138l-.113.45a.783.783 0 0 0-.025.125l-.043.494a.794.794 0 0 0 .006.168l.056.457a.796.796 0 0 0 .044.181l.144.375a.79.79 0 0 0 .1.188l.194.275a.8.8 0 0 0 .225.212l.23.138a.789.789 0 0 0 .545.118l.244-.03a.8.8 0 0 0 .45-.22l.237-.218a.814.814 0 0 0 .156-.207l.22-.4a.824.824 0 0 0 .055-.131l.175-.525a.82.82 0 0 0 .025-.094l.113-.544a.839.839 0 0 0 .019-.144l.019-.53a.85.85 0 0 0-.007-.157l-.075-.475a.856.856 0 0 0-.037-.157l-.144-.4a.851.851 0 0 0-.05-.125l-.169-.306a.855.855 0 0 0-.206-.25l-.194-.163a.843.843 0 0 0-.637-.193l-.22.018a.857.857 0 0 0-.537.25l-.237.238a.889.889 0 0 0-.157.194l-.231.419a.904.904 0 0 0-.075.156l-.181.544a.909.909 0 0 0-.038.137l-.106.607a.911.911 0 0 0-.019.175l.013.581c0 .072.008.143.025.213l.125.481c.024.098.064.19.119.275l.218.331a.895.895 0 0 0 .382.332l.275.125a.884.884 0 0 0 .718.018l.3-.118a.907.907 0 0 0 .35-.238l.282-.312a.914.914 0 0 0 .131-.194l.225-.438a.924.924 0 0 0 .075-.187l.132-.507a.925.925 0 0 0 .03-.237v-.507a.92.92 0 0 0-.043-.275l-.131-.425a.912.912 0 0 0-.225-.375l-.263-.262a.878.878 0 0 0-.656-.27h-.313a.774.774 0 0 0-.737.482l-.1.213a.572.572 0 0 0-.022.451.572.572 0 0 0 .303.336l.194.094.106.05v.006l.037.113v.25l-.075.3-.125.238-.056.062-.1.038a.89.89 0 0 0 .694.006l-.019-.006.019.025-.063-.225v-.388l.076-.469.13-.412.138-.257.157-.169a.859.859 0 0 0-.494.282l.219-.044a.843.843 0 0 0-.657-.131l.056.037.038.063.088.244.056.318-.007.388-.075.438-.125.406-.112.212-.138.132a.802.802 0 0 0 .425-.213l-.243.044a.79.79 0 0 0 .537.094l-.087-.057-.038-.043-.069-.182-.043-.293.012-.376.056-.375.082-.3.075-.206.05-.119a.571.571 0 0 0 .04-.297.571.571 0 0 0-.114-.277.572.572 0 0 0-.533-.226Zm-.306.769-.181.244c-.067.124-.044.228.07.311.112.084.218.076.317-.024l.182-.243c.067-.124.044-.228-.07-.312-.113-.084-.219-.076-.318.024Zm-2.844 3.62c0 .195.098.293.294.293.196 0 .293-.098.293-.293 0-.196-.097-.294-.293-.294-.196 0-.294.098-.294.294Zm-.056-.007c0 .097.034.18.102.248a.34.34 0 0 0 .248.102.337.337 0 0 0 .247-.102.337.337 0 0 0 .103-.248.337.337 0 0 0-.103-.247.337.337 0 0 0-.247-.103.337.337 0 0 0-.248.103.337.337 0 0 0-.102.247Zm-.063-.018c0 .112.04.208.12.287.078.08.174.119.286.119.113 0 .208-.04.288-.12a.392.392 0 0 0 .119-.286.392.392 0 0 0-.12-.288.392.392 0 0 0-.287-.119.392.392 0 0 0-.287.12.392.392 0 0 0-.119.287Zm-.087-.013c0 .133.047.246.14.34a.464.464 0 0 0 .34.141.464.464 0 0 0 .341-.14.464.464 0 0 0 .141-.341.464.464 0 0 0-.14-.34.464.464 0 0 0-.341-.141.464.464 0 0 0-.34.14.464.464 0 0 0-.141.341Zm.956-.25-.006-.006a.542.542 0 0 0-.385-.31.542.542 0 0 0-.483.108.542.542 0 0 0-.215.446c0 .183.072.331.215.445.143.114.304.15.483.109a.542.542 0 0 0 .385-.31l.006-.007a.518.518 0 0 0 0-.475Zm-1.063-.044-.05.081a.65.65 0 0 0-.087.226l-.088.468a.727.727 0 0 0-.006.063l-.038.344-.037.35-.038.3-.024.206a.704.704 0 0 0-.007.119v.094a.69.69 0 0 0 .186.447c.117.127.26.201.431.223a.686.686 0 0 0 .473-.108.686.686 0 0 0 .292-.387l.012-.038a.725.725 0 0 0 .013-.056l.025-.125a.703.703 0 0 0 .006-.05l.025-.2a.685.685 0 0 0 .006-.038l.013-.244a.716.716 0 0 0 0-.068l-.007-.256-.012-.27-.006-.256v-.025l-.013-.212a.7.7 0 0 0-.006-.05l-.025-.156a.65.65 0 0 0-.075-.232l-.044-.075a.62.62 0 0 0-.32-.285.62.62 0 0 0-.427-.018.62.62 0 0 0-.343.256.62.62 0 0 0-.104.416l.006.081v.013l.013.144.012.187.007.225-.013.225-.025.219a.825.825 0 0 0-.006.031l-.019.225-.025.157-.018.106a.698.698 0 0 0 .062-.181l-.012.025a.687.687 0 0 0 .14.444.687.687 0 0 0 .386.26.69.69 0 0 0 .465-.036.687.687 0 0 0 .34-.318v-.075l.019-.188v-.006l.031-.306.031-.35a.59.59 0 0 0 0-.02l.031-.35v-.037l.013-.481a.658.658 0 0 0-.019-.144l-.018-.1a.565.565 0 0 0-.497-.482.565.565 0 0 0-.629.288Zm-.181.675.019.038.056.137a.45.45 0 0 0 .106.15l.075.075v.22c-.004.145.067.22.213.224.146.004.22-.067.225-.212l.006-.213.075-.056a.452.452 0 0 0 .119-.138l.088-.15a.541.541 0 0 0-.088.12l.05-.05a.574.574 0 0 0 .174-.391.575.575 0 0 0-.132-.406.575.575 0 0 0-.371-.212.575.575 0 0 0-.418.092.575.575 0 0 0-.247.348.575.575 0 0 0 .05.424Zm2.238-.112c0 .162.081.244.244.244.162 0 .244-.082.244-.244 0-.163-.082-.244-.244-.244-.163 0-.244.081-.244.244Zm-.156-.044c0 .11.039.205.117.283a.386.386 0 0 0 .283.117c.11 0 .204-.039.283-.117a.385.385 0 0 0 .117-.283.385.385 0 0 0-.117-.283.385.385 0 0 0-.283-.117.387.387 0 0 0-.283.117.385.385 0 0 0-.117.283Zm-.075-.025c0 .13.045.24.137.332a.452.452 0 0 0 .332.137c.129 0 .24-.046.331-.137a.452.452 0 0 0 .137-.332c0-.13-.045-.24-.137-.331a.452.452 0 0 0-.331-.138c-.13 0-.24.046-.332.138a.451.451 0 0 0-.137.331Zm-.088-.019c0 .149.053.275.158.38a.518.518 0 0 0 .38.158.518.518 0 0 0 .38-.158.518.518 0 0 0 .157-.38.518.518 0 0 0-.157-.38.518.518 0 0 0-.38-.157.518.518 0 0 0-.38.157.518.518 0 0 0-.158.38Zm-.025-.168-.031.093a.591.591 0 0 0-.025.082l-.038.187a.6.6 0 0 0-.006.05l-.031.294a.586.586 0 0 0-.006.037l-.02.35v.02l-.012.368-.012.331-.006.263v.181a.631.631 0 0 0 .012.144l.013.056c.082.327.291.486.628.477.336-.008.538-.178.603-.508l.013-.081.037-.22.056-.312v-.006l.063-.369a.59.59 0 0 0 0-.018l.05-.363v-.006l.037-.32a.586.586 0 0 0 .007-.037l.012-.23a.608.608 0 0 0-.019-.2l-.037-.12c-.076-.263-.252-.401-.526-.414-.274-.013-.462.109-.562.364l-.044.113a.61.61 0 0 0-.037.156l-.019.225-.037.313-.05.344-.057.356-.062.312-.031.182-.013.05a.613.613 0 0 0 .161.4c.102.115.23.183.381.205a.613.613 0 0 0 .423-.09.613.613 0 0 0 .267-.34v-.038l.006-.156v-.019l.006-.256.013-.325v-.006l.012-.37v-.005l.006-.357v-.031l-.006-.281v-.269a.558.558 0 0 0-.126-.38.558.558 0 0 0-.344-.206.558.558 0 0 0-.395.07.558.558 0 0 0-.254.31Zm.256.268c0 .13.046.24.138.332a.451.451 0 0 0 .331.137c.13 0 .24-.046.332-.137a.452.452 0 0 0 .137-.332.45.45 0 0 0-.137-.331.452.452 0 0 0-.332-.138c-.13 0-.24.046-.331.138a.452.452 0 0 0-.138.331Zm.22.282.055.062a.204.204 0 0 0-.05-.169l-.018.138c-.021.142.04.223.181.244.142.02.223-.04.244-.182l.019-.137a.203.203 0 0 0-.1.144l.075-.044a.3.3 0 0 0 .136-.205.3.3 0 0 0-.054-.24.3.3 0 0 0-.21-.126.3.3 0 0 0-.238.064.3.3 0 0 0-.117.217.3.3 0 0 0 .076.234Zm-3.689 4.463c0 .18.09.269.269.269.179 0 .269-.09.269-.269 0-.18-.09-.269-.27-.269-.178 0-.268.09-.268.269Zm.206.35.107.037c.04.015.082.023.125.026l.243.012a.48.48 0 0 0 .07-.006l.38-.031.013-.007.488-.056.568-.044a.517.517 0 0 0 .07-.012l.568-.119.506-.069.42.056c.145.021.228-.041.25-.187.02-.146-.042-.23-.188-.25l-.432-.063-.5-.175h-.012l-.563-.18a.507.507 0 0 0-.15-.026l-.587-.006a.535.535 0 0 0-.088.006l-.494.075a.534.534 0 0 0-.075.019l-.362.112a.495.495 0 0 0-.07.025l-.218.107a.437.437 0 0 0-.075.043l-.088.063a.344.344 0 0 0-.152.354.344.344 0 0 0 .246.296Z"/><path d="M16.498 14.36c0 .197.098.295.294.295.196 0 .294-.098.294-.294 0-.196-.098-.294-.294-.294-.196 0-.294.098-.294.294Zm.244.332.132.031a.38.38 0 0 0 .075.013l.275.025h.018l.37.019.418.037.456.082a.52.52 0 0 0 .025 0l.488.068a.494.494 0 0 0 .069 0h.419l.35.031a.298.298 0 0 0 .05 0l.225-.018.137.043c.142.042.234-.008.275-.15.042-.141-.008-.233-.15-.275l-.143-.037-.182-.131a.296.296 0 0 0-.044-.025l-.325-.157-.38-.206a.501.501 0 0 0-.076-.037l-.469-.157a.543.543 0 0 0-.087-.025l-.482-.081a.544.544 0 0 0-.062-.006l-.45-.019a.538.538 0 0 0-.107 0l-.375.056a.495.495 0 0 0-.118.038l-.25.106a.428.428 0 0 0-.132.081l-.1.094a.334.334 0 0 0-.099.344.335.335 0 0 0 .25.256Z"/><path d="m16.324 14.18-.013.018a.306.306 0 0 0-.075.15l-.018.106v.007l-.044.268-.075.482-.106.644-.113.706-.112.669v.006l-.075.582a.324.324 0 0 0 0 .075l.037.4-.031.256c.006.124.07.195.193.212.123.018.204-.032.244-.15l.038-.262.137-.375a.32.32 0 0 0 .02-.069l.087-.575.1-.669.112-.706.107-.644.075-.482a.26.26 0 0 0 0-.012l.03-.269a.319.319 0 0 0 .007-.019l.006-.106a.291.291 0 0 0 0-.044l-.006-.018a.285.285 0 0 0-.205-.259.284.284 0 0 0-.32.077Zm1.031.574c0 .171.086.257.257.257.17 0 .256-.086.256-.257 0-.17-.085-.256-.256-.256-.171 0-.257.086-.257.256Zm-.062-.012c0 .212.106.319.319.319.212 0 .319-.107.319-.32 0-.212-.107-.318-.32-.318-.212 0-.318.106-.318.319Zm.394-.375h-.013a.388.388 0 0 0-.337.075l-.05.037a.437.437 0 0 0-.138.182l-.069.168a.463.463 0 0 0-.018.057l-.088.319a.431.431 0 0 0-.006.043l-.081.5a.52.52 0 0 0 0 .025l-.063.607-.075.644-.069.587-.069.488-.05.356a.316.316 0 0 0 .013.138l.044.15-.006.069c-.017.15.05.233.2.25.15.016.233-.05.25-.2l.006-.063.081-.125a.313.313 0 0 0 .05-.131l.05-.35.075-.482.119-.575.15-.613.156-.587a.484.484 0 0 0 .007-.013l.118-.487.082-.319a.473.473 0 0 0 .006-.038l.031-.175a.44.44 0 0 0 0-.1v-.068a.4.4 0 0 0-.05-.17l-.006-.012a.359.359 0 0 0-.25-.187Zm.837.988.025-.007a.312.312 0 0 0 .17-.087l.018-.019a.32.32 0 0 0 .069-.1l.018-.044a.338.338 0 0 0 .02-.043l.012-.05a.324.324 0 0 0-.107.162l.032-.025c.16-.135.182-.29.07-.465-.113-.175-.264-.219-.453-.13-.188.09-.25.234-.186.432l.006.038a.324.324 0 0 0-.006-.175l-.006.037-.013.038a.351.351 0 0 0-.012.044v.025l-.007.018a.29.29 0 0 0 .086.264.29.29 0 0 0 .264.087Zm-.3-.694-.05.08a.423.423 0 0 0-.05.107l-.075.244a.435.435 0 0 0-.006.025l-.106.425v.013l-.119.55-.006.018-.106.6-.1.563-.082.475a.26.26 0 0 0 0 .013l-.05.369a.386.386 0 0 0 0 .106l.032.206-.007.119c-.008.217.096.33.313.337.216.009.33-.095.337-.312l.007-.1.062-.175a.38.38 0 0 0 .019-.063l.062-.362.082-.469.119-.538.162-.575a.181.181 0 0 0 .006-.006l.138-.55.006-.013.1-.425a.431.431 0 0 0 .006-.037l.038-.25a.42.42 0 0 0-.006-.15l-.02-.088a.358.358 0 0 0-.306-.308.358.358 0 0 0-.4.17Z"/></g><defs><clipPath id="a"><path fill="#fff" d="M0 0h31v38H0z"/></clipPath></defs></svg>