<svg width="25" height="37" fill="none" xmlns="http://www.w3.org/2000/svg"><g clip-path="url(#a)" fill="#000"><path d="M18.2 2.377h.008a.277.277 0 0 0-.014-.014l.027.027a.315.315 0 0 0 .12.073l.112.04a.37.37 0 0 0 .086.02l.225.02h.034l.318.006h2.267l.61.007h.02l.239-.007h.013l.192-.013a.44.44 0 0 0 .02 0l.153-.02h.006l.106-.014a.433.433 0 0 0 .06-.013l.06-.02a.43.43 0 0 0 .112-.046l.04-.027a.433.433 0 0 0 .073-.06l.053-.052a.419.419 0 0 0 .126-.265v-.034c.019-.22-.076-.366-.285-.437l-.04-.013a.418.418 0 0 0-.199-.02l-.106.02h-.033l-.146.033a.416.416 0 0 0-.093.033l-.132.066-.113.053-.06.027h.007-.013c-.05.15-.004.258.139.325l.02-.054a.261.261 0 0 0-.073.113l.06-.053.073-.04.073-.026a.31.31 0 0 0 .165-.146l.013-.02a.311.311 0 0 0-.006-.327.312.312 0 0 0-.285-.162.312.312 0 0 0-.285.162.311.311 0 0 0-.007.327l.013.02a.299.299 0 0 0 .007-.318l-.033.053-.067.073-.079.073a.262.262 0 0 0-.06.092l-.02.047c-.058.146-.018.256.12.331l.06.034c.028.016.06.027.092.033l.086.013.093.033h.02l.126.04c.02.004.04.006.06.007l.146.02a.47.47 0 0 0 .106 0l.139-.02.1-.014a.42.42 0 0 0-.18-.02l.04.014a.407.407 0 0 0-.004-.342.407.407 0 0 0-.254-.229l-.014.02a.427.427 0 0 0 .093-.132l-.026.026-.007.007a.427.427 0 0 0 .093-.053l-.033.013-.06.013-.113.02-.165.014-.226.006-.597-.006h-2.28a.424.424 0 0 0-.033.006l-.319.027h-.02l-.225.04a.368.368 0 0 0-.132.046l-.107.06a.314.314 0 0 0-.112.106l-.014.033a.272.272 0 0 0 .053-.067h-.006a.26.26 0 0 0-.094.206.26.26 0 0 0 .094.206Zm3.886-.882-.126.033c-.136.038-.187.126-.153.264.035.137.12.19.26.16l.125-.033c.136-.038.187-.126.153-.264-.034-.137-.12-.19-.259-.16Zm-10.722 31.63c0 .181.091.272.272.272.181 0 .272-.09.272-.272 0-.181-.09-.272-.272-.272-.181 0-.272.091-.272.272Zm.305-.318-.02-.007a.327.327 0 0 0-.139.02l-.04.013a.336.336 0 0 0-.08.04l-.026.014-.026.013-.06.02h-.007l-.066.026a.465.465 0 0 0-.02.007l-.053.02a.456.456 0 0 0-.199.152l-.026.033a.45.45 0 0 0-.007.57l.033.047c.046.07.106.125.18.166l.079.04c.02.012.039.023.06.032l.112.04a.41.41 0 0 0 .014.007l.159.053a.532.532 0 0 0 .066.02l.219.046a.535.535 0 0 0 .08.014l.311.02a.52.52 0 0 0 .053 0l.384-.014a.66.66 0 0 0 .02 0l.412-.033.43-.033h.014l.444-.047.418-.04.404-.026.385-.026h.006l.378-.027a.486.486 0 0 0 .04-.006l.364-.06.67-.086.298-.047h.007l.278-.04.233-.033.37-.053a.66.66 0 0 0 .02 0l.166-.033a.29.29 0 0 0 .014 0l.152-.033.146-.033a.435.435 0 0 0 .093-.027l.113-.06a.4.4 0 0 0 .086-.046l.046-.04.053-.033a.305.305 0 0 0 .149-.351.305.305 0 0 0-.281-.259l-.053-.006-.047-.013a.4.4 0 0 0-.113-.02l-.125-.007a.44.44 0 0 0-.04 0l-.146.007-.153.013h-.04l-.159.026-.364.04-.226.02h-.026l-.278.04-.299.033-.663.08-.351.033-.365.013h-.007l-.384.013a.29.29 0 0 0-.013 0l-.411.027-.431.026h-.007l-.444.033-.431.033-.405.034-.344.013-.252-.013-.166-.034-.126-.04-.1-.032-.059-.027-.033-.013c.049.066.11.117.186.152l-.027-.033a.45.45 0 0 0 .093.318v-.026l-.007.02.013-.014.027-.02a.332.332 0 0 0 .04-.033l.013-.013a.303.303 0 0 0 .077-.332.303.303 0 0 0-.263-.218Zm7.015.45.066-.012c.129-.045.18-.133.152-.267-.028-.133-.11-.195-.245-.184l-.066.013c-.129.044-.18.133-.152.266.027.133.109.195.245.185Z"/><path d="M12.286 33.457c0 .212.106.318.318.318.212 0 .318-.106.318-.318 0-.213-.106-.319-.318-.319-.212 0-.318.106-.318.319Zm-.027 0c0 .093.033.173.1.239a.326.326 0 0 0 .239.099.326.326 0 0 0 .239-.1.326.326 0 0 0 .099-.238.326.326 0 0 0-.1-.24.326.326 0 0 0-.239-.099.326.326 0 0 0-.239.1.326.326 0 0 0-.099.239Zm-.04-.007c0 .102.037.19.11.262.072.073.16.11.262.11.102 0 .19-.037.262-.11a.358.358 0 0 0 .11-.262.358.358 0 0 0-.11-.263.358.358 0 0 0-.262-.108.358.358 0 0 0-.263.108.358.358 0 0 0-.108.263Zm-.026 0c0 .112.04.207.119.286a.39.39 0 0 0 .286.118.39.39 0 0 0 .285-.118.39.39 0 0 0 .119-.286.39.39 0 0 0-.119-.286.39.39 0 0 0-.285-.118.39.39 0 0 0-.287.118.39.39 0 0 0-.118.286Zm.192.404.106.067c.067.044.14.072.22.086l.231.033a.6.6 0 0 0 .113.007l.351-.014a.63.63 0 0 0 .06-.006l.484-.06a.625.625 0 0 0 .033-.006l.597-.107.67-.126.689-.126.63-.112.563-.1a.29.29 0 0 0 .013 0l.498-.1h.013l.444-.099a.609.609 0 0 0 .033-.006l.372-.106a.564.564 0 0 0 .106-.04l.265-.14a.482.482 0 0 0 .106-.066l.106-.1.08-.039a.298.298 0 0 0 .178-.333.298.298 0 0 0-.258-.277l-.12-.026-.165-.053a.479.479 0 0 0-.106-.02l-.298-.027a.571.571 0 0 0-.1.007l-.391.033a.59.59 0 0 0-.04.007l-.444.073-.007.006-.497.086-.563.1-.637.113h-.007l-.689.125-.67.127-.583.099-.464.073-.345.04a.33.33 0 0 0-.02 0l-.232.033a.565.565 0 0 0-.219.086l-.106.066a.483.483 0 0 0-.223.411.483.483 0 0 0 .223.411Zm6.71-1.233h.033c.155 0 .232-.077.232-.232 0-.155-.077-.232-.232-.232h-.033c-.155 0-.232.078-.232.232 0 .155.077.232.232.232ZM3.732 33.793c0 .097.034.18.103.248a.339.339 0 0 0 .248.103c.097 0 .18-.034.249-.103a.338.338 0 0 0 .103-.248.339.339 0 0 0-.103-.249.339.339 0 0 0-.249-.103.339.339 0 0 0-.248.103.339.339 0 0 0-.103.249Zm.265-.345h-.013a.36.36 0 0 0-.279.278l-.006.04a.39.39 0 0 0 .013.226l.02.06c.012.037.03.072.053.105l.04.053.06.086c.006.01.012.018.02.027l.092.113c.032.041.07.077.113.106l.152.1a.5.5 0 0 0 .1.046l.199.072a.495.495 0 0 0 .066.02l.219.047a.498.498 0 0 0 .053.007l.225.026h.04l.206.007a.66.66 0 0 0 .02 0h.178a.462.462 0 0 0 .093-.014l.126-.026.113-.013.113-.007h.106a.33.33 0 0 0 .02 0h.133c.188 0 .3-.092.337-.277.037-.185-.031-.314-.205-.386l-.06-.027h-.013l-.08-.033a.37.37 0 0 0-.086-.02l-.113-.013-.099-.013-.093-.027-.126-.046a.477.477 0 0 0-.066-.027l-.172-.04a.53.53 0 0 0-.034-.006l-.205-.033h-.013l-.206-.027-.179-.04-.172-.053-.16-.052-.092-.034-.027-.013.013.013-.006-.013-.02-.026a.38.38 0 0 0-.02-.034l-.007-.013a.34.34 0 0 0-.37-.12ZM6.371 34.7l.033-.007c.135-.046.19-.139.162-.28-.027-.14-.112-.206-.255-.197l-.033.007c-.136.045-.19.138-.163.279.028.14.113.206.256.198Z"/><path d="M4.733 34.104c0 .2.1.299.298.299.2 0 .299-.1.299-.299 0-.199-.1-.298-.299-.298-.198 0-.298.1-.298.298Zm.637-.12-.007-.019a.381.381 0 0 0-.02-.046l-.007-.02a.403.403 0 0 0 .034.112v-.02a.409.409 0 0 0-.169-.273.41.41 0 0 0-.312-.077.41.41 0 0 0-.276.163.409.409 0 0 0-.083.311.41.41 0 0 0 .16.28.41.41 0 0 0 .308.087h.02a.465.465 0 0 0 .033-.007l.02-.006a.375.375 0 0 0 .047-.013l.02-.007a.351.351 0 0 0 .213-.184.351.351 0 0 0 .019-.28Zm-.763.419.027.026a.498.498 0 0 0 .212.113l.1.026a.517.517 0 0 0 .125.02h.419a.513.513 0 0 0 .1-.013l.231-.053h.014l.212-.053.179-.047a.355.355 0 0 0 .046-.013l.226-.1a.221.221 0 0 0 .15-.214.221.221 0 0 0-.137-.223l-.219-.1a.352.352 0 0 0-.066-.026l-.173-.04-.192-.066a.446.446 0 0 0-.04-.007l-.232-.053a.505.505 0 0 0-.1-.013h-.211l-.166-.013h-.146a.5.5 0 0 0-.192.046l-.033.014a.47.47 0 0 0-.28.358.47.47 0 0 0 .147.43Zm-1.127-2.46c0 .099.035.183.105.253.07.07.154.105.253.105a.345.345 0 0 0 .253-.105.345.345 0 0 0 .105-.253.345.345 0 0 0-.105-.253.345.345 0 0 0-.253-.105.345.345 0 0 0-.253.105.345.345 0 0 0-.105.253Zm.033.186.014.02c.015.03.035.06.06.085l.032.034c.034.03.071.055.113.073l.06.033.093.046c.008.005.017.01.026.013l.126.06a.43.43 0 0 0 .04.013l.172.053a.44.44 0 0 0 .047.014l.212.046a.428.428 0 0 0 .1.013l.258-.006a.394.394 0 0 0 .053-.007l.265-.04.245-.04a.34.34 0 0 0 .146-.06l.093-.065.086-.014c.128-.043.183-.132.164-.266-.018-.134-.095-.204-.23-.211l-.073.007-.1-.04a.343.343 0 0 0-.119-.033l-.239-.014-.245-.026-.219-.033-.172-.053-.152-.053h-.007l-.133-.053a.432.432 0 0 0-.086-.02l-.113-.014a.66.66 0 0 0-.02 0l-.072-.006a.66.66 0 0 0-.02 0l-.033-.007h-.007a.346.346 0 0 0-.35.164.346.346 0 0 0-.015.387Z"/><path d="M5.577 29.825c0 .093.033.173.1.239.065.066.145.1.239.1a.326.326 0 0 0 .239-.1.326.326 0 0 0 .099-.24.326.326 0 0 0-.1-.238.326.326 0 0 0-.238-.1.326.326 0 0 0-.24.1.326.326 0 0 0-.099.239Zm.305-.365h-.006a.379.379 0 0 0-.252.12l-.02.026a.397.397 0 0 0-.1.18l-.02.072a.408.408 0 0 0-.006.04l-.027.172v.033l-.02.319v.013l-.013.464-.02.563-.026.61v.014l-.013.61v.57l-.014.49-.013.431-.013.365-.02.298-.027.431v.007l-.006.14-.007.112a.45.45 0 0 0 0 .026v.087c.001.02.003.04.007.06l.006.066a.45.45 0 0 0 .02.072l.007.04.007.027a.432.432 0 0 0 .165.238l.034.027a.417.417 0 0 0-.073-.08l.006.014a.42.42 0 0 0 .06.066h.006a.406.406 0 0 0 .266.1h.013a.406.406 0 0 0-.265-.1l.006.007.014.013a.41.41 0 0 0-.027-.027l.007.007a.41.41 0 0 0 .046.04l.013.013a.4.4 0 0 0 .04.027l.013.006a.398.398 0 0 0 .206.053h.013a.41.41 0 0 0 .173-.033l.026-.013a.4.4 0 0 0 .08-.053l.046-.033a.333.333 0 0 0 .013-.014l.087-.073a.825.825 0 0 0 .006-.006l.133-.12.172-.159.206-.172.232-.18.245-.185.252-.185a.3.3 0 0 0 .007-.007l.238-.186.226-.172.006-.007.186-.152h.007l.165-.14a.455.455 0 0 0 .02-.02l.126-.118a.594.594 0 0 0 .013-.014l.1-.1a.262.262 0 0 0 .007-.006l.066-.073a.433.433 0 0 0 .04-.046l.033-.047.053-.066.06-.066a.433.433 0 0 0-.146.106l.026-.007a.42.42 0 0 0-.418-.02l.02.014a.421.421 0 0 0-.225-.405v.04a.464.464 0 0 0 0 .066l.026.226a.631.631 0 0 0 .02.086l.06.205c.005.02.012.04.02.06l.113.272a.539.539 0 0 0 .02.04l.159.311a.533.533 0 0 0 .026.04l.192.305a.52.52 0 0 0 .02.033l.193.265c.014.02.03.037.046.053l.186.193c.024.024.05.047.08.066l.165.113a.503.503 0 0 0 .239.093l.119.013a.435.435 0 0 0 .245-.047l.04-.02a.368.368 0 0 0-.14.04l.047-.006a.317.317 0 0 0 .285-.185.317.317 0 0 0-.02-.34l-.026-.046a.364.364 0 0 0 .06.213v-.04a.437.437 0 0 0-.04-.206l-.053-.106a.507.507 0 0 0-.126-.166l-.133-.119-.146-.152-.159-.22-.166-.278-.139-.271-.106-.259-.086-.199a.518.518 0 0 0-.046-.086l-.126-.192a.471.471 0 0 0-.02-.034l-.027-.033a.435.435 0 0 0-.298-.159l-.02-.006c-.214-.027-.366.057-.458.252l-.006.026a.435.435 0 0 0 .046-.08l-.053.067-.046.053-.033.033-.073.066a.69.69 0 0 0-.007.007l-.1.1-.112.105-.153.126-.179.146-.218.166v.007l-.239.179-.245.185a1.034 1.034 0 0 0-.007.007l-.252.192a.434.434 0 0 0-.013.013l-.232.193a.333.333 0 0 0-.013.013l-.213.192a.499.499 0 0 0-.02.014l-.165.172a.413.413 0 0 0-.014.013l-.119.133a.262.262 0 0 0-.006.006l-.06.067-.027.026a.407.407 0 0 0 .087-.06l-.027.014a.399.399 0 0 0 .192-.047h-.013c.05.022.104.033.16.034l-.014-.007c.044.057.1.099.166.126l-.014-.013a.41.41 0 0 0 .08.185v-.013a.403.403 0 0 0-.093-.206l-.013-.013L6.1 35.6a.399.399 0 0 0-.318-.152H5.77a.4.4 0 0 0 .318.152v-.006a.413.413 0 0 0 .08.159l-.007-.013a.414.414 0 0 0 .013.152l.007-.04a.443.443 0 0 0 0-.106l-.007-.033a.447.447 0 0 0-.013-.06v-.073l.006-.099v-.006l.007-.14.027-.43.02-.299v-.02l.013-.371v-2.738l.006-.557.014-.451.02-.305.013-.166.013-.066v-.08a.37.37 0 0 0-.179-.324l-.007-.007a.355.355 0 0 0-.232-.06Zm4.237 6.438.013-.007c.146-.07.184-.179.113-.325-.07-.146-.18-.183-.325-.112l-.013.006c-.146.071-.183.18-.113.325.07.146.18.183.325.113Z"/><path d="M10.298 29.918c0 .091.032.17.097.234a.32.32 0 0 0 .234.097.32.32 0 0 0 .235-.097.32.32 0 0 0 .097-.234.32.32 0 0 0-.097-.234.32.32 0 0 0-.235-.097.32.32 0 0 0-.234.097.32.32 0 0 0-.097.234Zm-.02-.007c0 .095.034.177.101.244a.332.332 0 0 0 .244.1.332.332 0 0 0 .244-.1.332.332 0 0 0 .1-.244.332.332 0 0 0-.1-.244.332.332 0 0 0-.244-.1.332.332 0 0 0-.244.1.332.332 0 0 0-.101.244Zm.013-.212-.02.026a.407.407 0 0 0-.066.173l-.053.318a.462.462 0 0 0-.006.066v.743l-.007.457v.007l-.007.47v.452l-.013.417v.007l-.007.384v.007l-.006.332-.02.278-.027.245-.033.206-.046.185v.02l-.033.173-.027.126a.527.527 0 0 0-.007.02l-.013.099a.518.518 0 0 0 .053.325l.02.046a.49.49 0 0 0 .39.272.49.49 0 0 0 .439-.179l.033-.04a.525.525 0 0 0 .106-.212l.02-.1a.517.517 0 0 0 .007-.02l.026-.132v-.006l.033-.16.047-.192a.542.542 0 0 0 .006-.033l.04-.239v-.04l.027-.271v-.013l.02-.305v-.04l-.007-.345v-.007l-.007-.377v-.438l-.013-.444-.007-.471v-.007l-.006-.464-.014-.41v-.014l-.02-.332a.481.481 0 0 0-.006-.079l-.073-.318a.04.04 0 0 0-.007-.013l-.006-.04a.37.37 0 0 0-.32-.28.37.37 0 0 0-.39.167Zm-.238 5.363c0 .1.035.184.104.254.07.07.155.104.254.104a.345.345 0 0 0 .253-.104.345.345 0 0 0 .105-.254.345.345 0 0 0-.105-.253.345.345 0 0 0-.253-.104.345.345 0 0 0-.253.104.345.345 0 0 0-.105.254Zm.603-.033v-.046c0-.16-.08-.239-.239-.239-.159 0-.238.08-.238.239v.046c0 .16.08.24.238.24.16 0 .239-.08.239-.24Z"/><path d="M6.214 29.44c0 .096.034.177.1.244a.332.332 0 0 0 .245.101.332.332 0 0 0 .243-.1.332.332 0 0 0 .101-.244.332.332 0 0 0-.1-.244.332.332 0 0 0-.244-.101.332.332 0 0 0-.244.1.332.332 0 0 0-.101.244Zm-.007.034v.006a.38.38 0 0 0 .053.166l.02.033c.018.032.04.06.066.086l.06.06c.023.02.047.038.073.053l.14.086c.04.029.084.05.132.067l.239.066c.02.005.04.01.06.013l.317.06.06.006.391.034h.027l.43.013h.04l.451-.02a.66.66 0 0 0 .02 0l.451-.04a.619.619 0 0 0 .033-.006l.425-.06H9.7l.365-.053a.542.542 0 0 0 .033-.007l.305-.06a.488.488 0 0 0 .146-.06l.199-.112a.383.383 0 0 0 .106-.093l.013-.013h.02c.155 0 .232-.077.232-.232 0-.155-.077-.232-.232-.232h-.027l-.02-.02a.38.38 0 0 0-.145-.1l-.213-.079a.488.488 0 0 0-.159-.033l-.311-.013a.54.54 0 0 0-.073.006l-.371.04-.431.04-.438.04-.411.02-.404-.014-.365-.02-.298-.046h-.007l-.245-.033a.518.518 0 0 0-.087-.007l-.165.007a.46.46 0 0 0-.086.006l-.08.02a.415.415 0 0 0-.106.04l-.033.013a.378.378 0 0 0-.146.133l-.007.007a.355.355 0 0 0-.053.232ZM3.608 31.37c0 .095.034.176.101.243a.331.331 0 0 0 .244.101.332.332 0 0 0 .244-.1.332.332 0 0 0 .101-.244.332.332 0 0 0-.101-.244.332.332 0 0 0-.244-.1.332.332 0 0 0-.244.1.332.332 0 0 0-.1.244Zm-.013 0c0 .099.035.183.105.253.07.07.154.105.253.105a.345.345 0 0 0 .253-.105.345.345 0 0 0 .105-.253.345.345 0 0 0-.105-.253.345.345 0 0 0-.253-.105.345.345 0 0 0-.253.105.345.345 0 0 0-.105.253Zm-.006 0c0 .1.035.186.106.258a.351.351 0 0 0 .258.106c.1 0 .187-.035.258-.106a.351.351 0 0 0 .107-.258.352.352 0 0 0-.107-.258.351.351 0 0 0-.258-.107c-.1 0-.186.036-.258.107a.351.351 0 0 0-.106.258Zm0 .08.006.02a.374.374 0 0 0 .133.218l.04.033a.404.404 0 0 0 .185.093l.146.026c.015.003.03.006.046.007l.246.02a.386.386 0 0 0 .066 0l.332-.027a.37.37 0 0 0 .145-.04l.299-.152.311-.053c.131-.045.186-.136.163-.272-.023-.137-.104-.205-.242-.205l-.305.053-.325-.066a.374.374 0 0 0-.06-.007l-.298-.013-.206-.047a.404.404 0 0 0-.026-.006l-.146-.027A.402.402 0 0 0 4.013 31l-.06.006a.394.394 0 0 0-.053.007h-.02c-.1.02-.18.072-.236.158a.358.358 0 0 0-.055.28Zm7.107-.319c0 .217.108.325.325.325.216 0 .324-.108.324-.325 0-.217-.108-.325-.324-.325-.217 0-.325.108-.325.325Zm.53-.265v-.007a.334.334 0 0 0-.298-.067.335.335 0 0 0-.238.19.335.335 0 0 0 .002.306c.05.102.129.165.24.19.11.024.209 0 .296-.07a.335.335 0 0 0 .13-.277v-.007a.323.323 0 0 0-.132-.258Zm-.43-.053-.04.026a.329.329 0 0 0-.014.007l-.026.02a.411.411 0 0 0-.199.359.41.41 0 0 0 .205.355.411.411 0 0 0 .41.01.41.41 0 0 0 .22-.346v-.034a.392.392 0 0 0-.053.173l.027-.04c.109-.173.091-.332-.054-.477-.145-.145-.304-.163-.477-.053Zm-.286.663.027.046a.486.486 0 0 0 .205.212l.093.053a.512.512 0 0 0 .152.053l.166.027a.378.378 0 0 0 .047.006l.225.02h.013l.292.02h.013l.365.014a.66.66 0 0 0 .04 0l.424-.014h.033l.458-.046.464-.047h.006l.438-.046h.013l.418-.053h.007l.39-.06a.66.66 0 0 0 .02 0l.332-.053.312-.033.305-.026.298-.02h.013l.312-.027a.66.66 0 0 0 .02 0l.291-.033h.007l.252-.033.212-.02.173-.013.152.006a.53.53 0 0 0 .04-.006l.146-.007h.159l.053-.006h-.027l.047.013c.13.047.257.043.384-.013a.492.492 0 0 0 .266-.277.493.493 0 0 0-.003-.385.493.493 0 0 0-.27-.273l-.092-.047-.067-.033-.08-.046a.56.56 0 0 0-.198-.053l-.126-.02a.586.586 0 0 0-.08 0h-.159l-.172.006a.59.59 0 0 0-.027 0l-.199.014h-.02l-.225.02h-.02l-.258.033-.285.033-.299.026-.298.02h-.007l-.318.027h-.013l-.332.033h-.013l-.358.046-.391.053-.411.053-.431.047-.464.046-.45.047-.419.04-.344.026h-.259l-.205-.007-.14-.006-.08-.014h-.006l-.046-.006a.439.439 0 0 0-.456.19.439.439 0 0 0-.035.493Zm7.167-.557c0 .122.043.227.13.314.087.087.192.13.314.13a.428.428 0 0 0 .314-.13.428.428 0 0 0 .13-.314.428.428 0 0 0-.13-.314.428.428 0 0 0-.314-.13.428.428 0 0 0-.314.13.428.428 0 0 0-.13.314Zm.16-.013a.33.33 0 0 0 .1.243.332.332 0 0 0 .244.101.332.332 0 0 0 .244-.1.332.332 0 0 0 .1-.244.332.332 0 0 0-.1-.244.332.332 0 0 0-.244-.101.332.332 0 0 0-.244.1.332.332 0 0 0-.1.245Zm.496.199.047-.02c.128-.07.163-.17.106-.304-.056-.133-.154-.178-.292-.134l-.046.02c-.128.069-.164.17-.107.303.057.134.154.179.292.135ZM7.078 18.472c0 .208.104.312.312.312.208 0 .311-.104.311-.312 0-.207-.103-.311-.311-.311-.208 0-.312.104-.312.311Zm-.033 0c0 .095.034.177.101.244a.332.332 0 0 0 .244.101.332.332 0 0 0 .244-.1.332.332 0 0 0 .1-.245.332.332 0 0 0-.1-.243.332.332 0 0 0-.244-.101.332.332 0 0 0-.244.1.332.332 0 0 0-.1.244Zm-.013.007c0 .1.035.187.107.258a.351.351 0 0 0 .257.107.352.352 0 0 0 .258-.107.351.351 0 0 0 .107-.258c0-.1-.036-.187-.107-.258a.351.351 0 0 0-.258-.107c-.1 0-.186.036-.257.107a.351.351 0 0 0-.107.258Zm.292.418.139.04a.524.524 0 0 0 .219.02l.331-.047a.66.66 0 0 0 .02 0l.544-.086.782-.1 1.054-.093 1.273-.086 1.379-.08h.013l1.34-.112h.006l1.154-.113.862-.08.576.027c.155.01.237-.064.246-.219.009-.154-.064-.236-.22-.245l-.59-.026-.861-.113h-.013l-1.154-.133a.66.66 0 0 0-.02 0l-1.339-.073h-.04l-1.379.014a.66.66 0 0 0-.02 0l-1.286.06h-.026l-1.074.092a.62.62 0 0 0-.034.007l-.802.12a.559.559 0 0 0-.046.006l-.537.126a.574.574 0 0 0-.047.013l-.318.106a.524.524 0 0 0-.205.12l-.106.099a.416.416 0 0 0-.133.43c.04.17.144.278.312.326Zm3.421 1.107.026-.007.093-.02.225-.013.405-.033.603-.027a.405.405 0 0 0 .086-.013l.69-.192.683-.04c.159-.009.234-.093.225-.252-.009-.159-.093-.234-.252-.225l-.683.04-.703-.12a.402.402 0 0 0-.086-.006l-.61.026a.39.39 0 0 0-.026 0l-.411.053a.393.393 0 0 0-.073.013l-.232.073a.373.373 0 0 0-.08.04l-.106.066a.34.34 0 0 0-.126.133l-.02.033a.308.308 0 0 0 .037.353c.087.11.198.15.335.118ZM7.816 8.17c0 .203.102.305.305.305.204 0 .305-.102.305-.305s-.101-.305-.305-.305c-.203 0-.305.102-.305.305Zm.412-.325a.34.34 0 0 0-.246.007l-.02.006c-.22.088-.29.244-.212.468.078.224.231.301.458.232.227-.069.31-.218.252-.448l-.007-.02a.328.328 0 0 0-.225-.245Zm-.544.378c0 .112.04.207.118.286a.39.39 0 0 0 .286.118.39.39 0 0 0 .286-.118.39.39 0 0 0 .119-.286.39.39 0 0 0-.119-.286.39.39 0 0 0-.286-.118.39.39 0 0 0-.286.118.39.39 0 0 0-.118.286Zm-.06.027a.46.46 0 0 0 .14.337.46.46 0 0 0 .338.14.46.46 0 0 0 .337-.14.46.46 0 0 0 .14-.337.46.46 0 0 0-.14-.338.46.46 0 0 0-.337-.14.46.46 0 0 0-.338.14.46.46 0 0 0-.14.338Zm.113.41.073.08a.594.594 0 0 0 .12.093l.165.106a.7.7 0 0 0 .106.053l.278.106a.727.727 0 0 0 .146.04l.438.073a.774.774 0 0 0 .113.013l.59.013h.046l.71-.02h.013l.782-.04.816-.04.762-.026.69-.026h.583l.457-.007h.332l.232.007.166.006h.159a.86.86 0 0 0 .12-.006l.098-.013a.86.86 0 0 0 .113-.027l.1-.026a.88.88 0 0 0 .046-.014l.08-.026a.874.874 0 0 0 .053-.02l.073-.033h.006a.858.858 0 0 0 .16-.047l.052-.026.007-.007c.378-.156.558-.439.54-.847-.018-.41-.222-.675-.613-.797l-.053-.02a.872.872 0 0 0-.225-.033h-.193l-.245.007H15.6l-.338.02a.84.84 0 0 0-.027.006l-.397.04-.478.033-.53.02-.564.02-.55.006-.57-.006h-.027l-.55.013h-.027l-.503.027-.438.02-.351.013-.279-.007-.219-.013-.185-.027-.186-.026-.146-.033-.152-.033a.82.82 0 0 0-.013-.007l-.16-.033-.126-.027-.132-.04a.914.914 0 0 0-.1-.02l-.172-.026a.921.921 0 0 0-.04-.007l-.172-.02a.858.858 0 0 0-.02-.006l-.16-.013a.919.919 0 0 0-.118-.007l-.153.007a.921.921 0 0 0-.04.006l-.146.007a.929.929 0 0 0-.046.007l-.166.02a.891.891 0 0 0-.02.006l-.152.02a.91.91 0 0 0-.053.013l-.133.027a.92.92 0 0 0-.073.02l-.086.026a.883.883 0 0 0-.537.424l-.02.034a.878.878 0 0 0-.115.57.878.878 0 0 0 .256.521c.145.145.32.23.522.257a.878.878 0 0 0 .57-.115l.034-.02a.907.907 0 0 0-.332.113l.093-.014a.925.925 0 0 0 .053-.006l.132-.027h.007l.113-.026.126-.014.112-.013h.073l.093.007.133.013.126.02.126.026.146.034a.934.934 0 0 0 .026.006L8.685 9l.16.04.046.006.179.033h.006l.206.033h.02l.232.034a.9.9 0 0 0 .086.006l.278.013h.053l.319-.006h.02l.377-.013h.007l.444-.02h.013l.498-.027.523-.013.57-.007h.007l.57-.006h.02l.577-.02h.013l.55-.033h.034l.497-.047h.007l.404-.04.312-.026.212-.007h.146a.872.872 0 0 0-.2-.02l.054.014a.865.865 0 0 0-.044-.732.865.865 0 0 0-.586-.442l-.013.02a.826.826 0 0 0 .504-.49l-.053.02-.06.02-.073.026a.885.885 0 0 0-.06.02l-.046.02-.04.013-.013.006.02-.006h-.06l-.152-.007h-.007l-.245-.007a.87.87 0 0 0-.034 0h-.358l-.464.007-.583.013a.9.9 0 0 0-.027 0l-.702.034-.776.033h-.013l-.816.053h-.02l-.782.073h-.007l-.696.066-.57.04-.444.02a.733.733 0 0 0-.04.006l-.272.027-.152.006h-.093a.509.509 0 0 0-.514.328.509.509 0 0 0 .103.6Zm-1.399-.523c0 .212.075.393.225.544.15.15.332.225.544.225a.741.741 0 0 0 .544-.225.741.741 0 0 0 .225-.544.741.741 0 0 0-.225-.544.741.741 0 0 0-.544-.225.741.741 0 0 0-.544.225.741.741 0 0 0-.225.544Zm.796.331.165.086c.153.054.266.008.34-.135.073-.144.044-.262-.088-.355l-.165-.086c-.153-.053-.266-.008-.34.135-.073.144-.044.262.088.355Zm1.299 3.315.073.047a.373.373 0 0 0 .152.06l.226.032.007.007.404.053h.013l.597.06h.007l.735.06h.014l.835.046.869.04a.66.66 0 0 0 .02 0l.835.006h.006l.743-.013h.033l.584-.06a.364.364 0 0 0 .092-.02l.358-.132.246-.02c.159-.013.232-.1.219-.259-.014-.159-.1-.232-.26-.218l-.244.026-.358-.086a.363.363 0 0 0-.073-.013l-.59-.014h-.756l-.822-.006-.862-.04-.829-.046-.723-.06-.596-.06-.405-.04a.391.391 0 0 0-.053 0l-.225.007a.371.371 0 0 0-.199.066l-.073.047a.3.3 0 0 0-.142.265.3.3 0 0 0 .142.265ZM3.31 2.527a.33.33 0 0 0 .099.24.326.326 0 0 0 .239.098.326.326 0 0 0 .239-.099.326.326 0 0 0 .099-.239.326.326 0 0 0-.1-.24.326.326 0 0 0-.238-.098.326.326 0 0 0-.24.099.326.326 0 0 0-.098.239Zm.305-.358h-.02a.402.402 0 0 0-.285.152l-.08.1a.443.443 0 0 0-.02.026l-.112.166a.425.425 0 0 0-.02.49l.053.087a.227.227 0 0 0 .013-.272l-.126.173c-.097.132-.08.247.053.344.133.097.247.08.345-.053l.126-.172a.229.229 0 0 0-.239.1l.093.013a.421.421 0 0 0 .47-.22l.107-.165a.447.447 0 0 0 .053-.166l.02-.126a.388.388 0 0 0-.18-.41l-.02-.007a.355.355 0 0 0-.231-.06Zm19.321 25.983c0 .093.033.173.099.239a.326.326 0 0 0 .239.099.326.326 0 0 0 .239-.1.326.326 0 0 0 .099-.238.326.326 0 0 0-.1-.24.326.326 0 0 0-.238-.098.326.326 0 0 0-.24.099.326.326 0 0 0-.098.239Zm-.007.053v.006a.345.345 0 0 0 0-.1l-.007.027a.36.36 0 0 0 .034-.099l-.047.093a.415.415 0 0 0-.033.112l-.053.299a.495.495 0 0 0 0 .06l-.027.543v.013l-.006.743-.007.776v.006l-.007.676v.007l.014.464c0 .045.007.09.02.133l.053.166c.061.203.198.3.41.292.213-.01.341-.118.385-.326l.04-.165a.453.453 0 0 0 .007-.113v-.458l.006-.662.02-.776.02-.743v-.006l.007-.544a.462.462 0 0 0-.007-.086l-.053-.299a.415.415 0 0 0-.033-.112l-.046-.093a.36.36 0 0 0-.02-.033l-.014-.027a.335.335 0 0 0-.252-.172h-.006a.334.334 0 0 0-.299.1.334.334 0 0 0-.099.298Zm.583 3.706.02-.239c.014-.163-.062-.252-.225-.265-.164-.013-.252.062-.265.225l-.02.239c-.013.164.062.252.225.265.164.014.252-.062.265-.225Z"/><path d="M23.4 28.251c0 .195.097.292.291.292.195 0 .292-.097.292-.292 0-.194-.097-.292-.292-.292-.194 0-.291.098-.291.292Zm.258-.364h-.033a.43.43 0 0 0-.292.145l-.119.133a.537.537 0 0 0-.113.179l-.126.351a.59.59 0 0 0-.026.093l-.1.517a.662.662 0 0 0-.006.02l-.086.604a.625.625 0 0 0-.007.033l-.06.57a.59.59 0 0 0 0 .1l.027.457a.521.521 0 0 0 .04.166l.106.251a.436.436 0 0 0 .013.027l.046.1a.32.32 0 0 0 .32.197.32.32 0 0 0 .31-.21l.04-.094a.344.344 0 0 0 .027-.073l.066-.338.12-.537a.29.29 0 0 0 0-.013l.112-.643.106-.584a.523.523 0 0 0 .006-.073l.02-.39a.537.537 0 0 0-.19-.453.537.537 0 0 0-.492-.125h-.007a.547.547 0 0 0-.324.21.546.546 0 0 0-.114.367l.02.392v.013l.04.583.02.63-.013.524-.04.258-.02.04c-.065.207.004.349.206.426.202.077.348.017.437-.18l.013-.054.106-.192a.523.523 0 0 0 .053-.126l.12-.444a.624.624 0 0 0 .013-.073l.08-.563.092-.597v-.007l.073-.524v-.033l.027-.378a.54.54 0 0 0-.013-.192l-.053-.166a.436.436 0 0 0-.12-.198l-.02-.02a.356.356 0 0 0-.285-.106Zm-.444 1.08-.013.292c.022.132.1.202.235.209.133.007.219-.054.255-.183l.014-.291c-.023-.132-.101-.202-.235-.21-.134-.007-.22.054-.256.183Z"/><path d="M22.894 28.012c0 .204.102.305.305.305s.305-.101.305-.305c0-.203-.102-.305-.305-.305s-.305.102-.305.305Zm.65.04.006-.033.02-.046a.381.381 0 0 0-.166.179l.027-.014a.462.462 0 0 0 .245-.47l-.006-.106a.535.535 0 0 0-.319-.471l-.159-.073a.59.59 0 0 0-.351-.053l-.272.04a.607.607 0 0 0-.14.033l-.35.14a.606.606 0 0 0-.087.039l-.39.232a.657.657 0 0 0-.107.073l-.378.325a.68.68 0 0 0-.106.126l-.305.424a.687.687 0 0 0-.086.166l-.166.47a.686.686 0 0 0-.033.2l-.02.47a.676.676 0 0 0 .047.279l.172.43c.04.103.101.189.185.259l.352.292a.469.469 0 0 0 .225.1l.352.059.298.192c.112.048.201.021.268-.08.068-.1.058-.193-.03-.278l-.27-.172-.073-.305-.093-.418-.066-.371.02-.292.1-.292.218-.318.272-.298.252-.2.212-.092.12-.026.052.006.06.014a.498.498 0 0 0 .1.013h.026a.364.364 0 0 0-.345-.232l.007.013v.007c.004.206.109.318.314.336.206.018.329-.075.369-.277Z"/><path d="M21.336 30.684c0 .208.104.312.312.312.207 0 .311-.104.311-.312 0-.207-.104-.311-.311-.311-.208 0-.312.104-.312.311Zm.133-.298-.027.013c-.187.1-.24.248-.16.444l.008.02c.086.198.23.262.434.192s.28-.208.229-.417l-.007-.02a.33.33 0 0 0-.086.338l.02-.02c.157-.14.172-.294.046-.463-.126-.169-.278-.198-.457-.087Zm.185.597.073.006c.13-.017.2-.092.212-.222.01-.131-.047-.216-.172-.255l-.073-.007c-.13.018-.2.092-.212.223-.01.13.047.216.172.255Z"/><path d="M19.055 31.327c0 .208.104.312.312.312.207 0 .311-.104.311-.312 0-.207-.104-.311-.311-.311-.208 0-.312.104-.312.311Zm.173.299.033.013c.066.03.134.04.205.027l.126-.02h.014l.212-.047h.026l.305-.086.378-.086a.55.55 0 0 0 .013-.007l.392-.106a.335.335 0 0 0 .053-.02l.305-.132.271-.047c.128-.044.18-.133.157-.265-.023-.133-.102-.2-.236-.199l-.265.04-.339-.033a.342.342 0 0 0-.073 0l-.41.046a.373.373 0 0 0-.034.007l-.384.08a.331.331 0 0 0-.02.006l-.312.086a.42.42 0 0 0-.006.007l-.206.06a.352.352 0 0 0-.033.013l-.113.046a.304.304 0 0 0-.026.007l-.033.013a.308.308 0 0 0-.187.298c0 .139.062.238.187.299ZM2.673 29.471c0 .186.093.279.278.279.186 0 .279-.093.279-.279 0-.186-.093-.278-.279-.278-.185 0-.278.092-.278.278Zm-.027-.126-.066.12a.343.343 0 0 0-.02.06l-.066.211a.363.363 0 0 0-.02.1l-.007.291a.368.368 0 0 0 .027.146l.132.319a.339.339 0 0 0 .106.139l.246.185.179.22c.101.119.212.127.331.026.12-.102.128-.212.027-.332l-.166-.192-.073-.265-.066-.285-.007-.226.02-.159.027-.086c.073-.194.015-.334-.174-.42-.19-.085-.333-.036-.43.148Z"/><path d="M1.612 28.602c0 .213.106.319.318.319.212 0 .319-.106.319-.319 0-.212-.107-.318-.319-.318-.212 0-.318.106-.318.319Zm-.06-.013c0 .1.036.187.107.258a.351.351 0 0 0 .258.107c.1 0 .187-.036.258-.107a.351.351 0 0 0 .107-.258c0-.1-.036-.186-.107-.258a.351.351 0 0 0-.258-.106c-.1 0-.187.035-.258.106a.351.351 0 0 0-.107.258Zm-.099-.013c0 .123.043.227.13.314.087.087.192.13.314.13a.428.428 0 0 0 .314-.13.428.428 0 0 0 .13-.314.428.428 0 0 0-.13-.314.428.428 0 0 0-.314-.13.428.428 0 0 0-.314.13.428.428 0 0 0-.13.314Zm.564-.564-.087-.026a.593.593 0 0 0-.603.126l-.152.14a.66.66 0 0 0-.146.178l-.173.312a.677.677 0 0 0-.06.132l-.139.478a.685.685 0 0 0-.013.066l-.106.583a.714.714 0 0 0-.013.153l.02.623a.74.74 0 0 0 .026.153l.153.616c.012.053.03.104.053.153l.278.576a.77.77 0 0 0 .08.133l.41.55a.781.781 0 0 0 .094.106l.55.504a.778.778 0 0 0 .159.106l.703.385a.74.74 0 0 0 .318.093l.888.046a.526.526 0 0 0 .146-.013l.557-.126c.182-.039.278-.15.289-.336.01-.186-.073-.308-.249-.367l-.49-.172-.703-.418-.61-.391-.451-.418-.345-.437-.239-.445-.145-.477-.06-.484.033-.457.093-.365.106-.225.066-.107.04-.053a.562.562 0 0 0 .095-.52.562.562 0 0 0-.373-.375Z"/><path d="M2.05 33.217c0 .092.032.17.097.234a.32.32 0 0 0 .234.097.32.32 0 0 0 .235-.097.32.32 0 0 0 .097-.234.32.32 0 0 0-.097-.234.32.32 0 0 0-.235-.098.32.32 0 0 0-.234.098.32.32 0 0 0-.097.234Zm-.014 0c0 .099.035.183.105.253.07.07.155.105.253.105a.345.345 0 0 0 .254-.105.345.345 0 0 0 .104-.253.345.345 0 0 0-.104-.253.345.345 0 0 0-.254-.105.345.345 0 0 0-.253.105.345.345 0 0 0-.105.253Zm.153.325.073.053c.038.031.08.055.126.073l.159.053.239.093.35.152c.027.01.053.02.08.027l.491.132a.68.68 0 0 0 .08.02l.596.086a.675.675 0 0 0 .053.007l.392.026a.672.672 0 0 0 .505-.17.672.672 0 0 0 .236-.48.672.672 0 0 0-.17-.505.672.672 0 0 0-.479-.237l-.39-.026-.59-.047a.66.66 0 0 0-.02 0l-.511-.02h-.71l-.179.007a.448.448 0 0 0-.159.033l-.08.033a.398.398 0 0 0-.242.319.397.397 0 0 0 .15.37Zm.331-4.164-.02.027a.337.337 0 0 0-.02.04l-.053.086a.358.358 0 0 0-.006.013l-.093.179a.401.401 0 0 0-.02.046l-.1.286a.474.474 0 0 0-.026.152l-.006.391a.482.482 0 0 0 .013.126l.106.424a.5.5 0 0 0 .073.166l.258.378a.5.5 0 0 0 .153.146l.444.278c.08.049.166.073.259.073l.65.007a.36.36 0 0 0 .046 0l.643-.066h.053c.163 0 .245-.082.245-.246 0-.163-.082-.245-.245-.245h-.04l-.577-.14-.523-.244-.332-.213-.152-.225-.073-.305-.04-.352v-.006l-.033-.272-.007-.152.007-.053c.06-.18.005-.314-.164-.4-.169-.086-.309-.053-.42.101Zm16.27 2.254.742-.08a.334.334 0 0 0 .04-.006l.67-.146.444-.046c.155-.013.226-.097.212-.252-.013-.155-.097-.225-.252-.212l-.45.046-.677-.04h-.026l-.75.014a.35.35 0 0 0-.278.107.35.35 0 0 0-.105.28.35.35 0 0 0 .14.264.35.35 0 0 0 .29.071Zm.046 2.142.544-.06 1.087-.12 1.008-.105a.29.29 0 0 0 .013 0l.902-.106a.704.704 0 0 0 .16-.04l.695-.259a.464.464 0 0 0 .033-.006l.478-.213.378-.02c.163-.008.24-.095.231-.258-.008-.163-.095-.24-.258-.232l-.378.02-.49-.172a.478.478 0 0 0-.034-.014l-.722-.179a.7.7 0 0 0-.18-.026l-.914.013a.746.746 0 0 0-.06.007l-1.014.092h-.007l-1.094.12a.66.66 0 0 0-.02 0l-.543.073a.723.723 0 0 0-.474.292.724.724 0 0 0-.141.539c.024.198.114.36.27.487a.724.724 0 0 0 .53.167ZM2.052 2.474c0 .194.097.292.292.292.194 0 .292-.098.292-.292 0-.195-.098-.292-.292-.292-.195 0-.292.097-.292.292Zm.126.305h.013c.095.05.192.057.293.02.1-.037.17-.105.21-.205a.343.343 0 0 0-.015-.293.343.343 0 0 0-.228-.184.343.343 0 0 0-.29.049.343.343 0 0 0-.155.248v.007c-.027.16.03.28.172.358Zm.113.053.132.026a.399.399 0 0 0 .04.007l.219.013c.015.003.03.006.046.007l.385-.02a.39.39 0 0 0 .093-.013l.404-.113.405.013c.167.005.254-.077.258-.245.005-.168-.077-.254-.245-.258l-.405-.014-.397-.132a.39.39 0 0 0-.113-.02l-.385-.02h-.02l-.212.007h-.132c-.234-.002-.363.114-.385.347-.022.234.082.372.312.415Z"/><path d="M2.079 2.46c0 .186.092.28.278.28.186 0 .278-.094.278-.28 0-.185-.092-.278-.278-.278-.186 0-.278.093-.278.279Zm.41.326.014-.007a.368.368 0 0 0 .02-.007l.033-.013a.389.389 0 0 0 .033-.02l.046-.026c.1-.06.166-.147.196-.26a.422.422 0 0 0-.037-.323.422.422 0 0 0-.249-.208.422.422 0 0 0-.324.021.423.423 0 0 0-.22.24.423.423 0 0 0 .005.324l.006.013c.01.04.025.078.047.113l.006.013c.104.163.245.21.425.14Zm.378-.246.014-.026a.472.472 0 0 0-.023-.568.472.472 0 0 0-.534-.195l-.047.007a.51.51 0 0 0-.212.113l-.1.08a.515.515 0 0 0-.039.039l-.146.152a.516.516 0 0 0-.053.06l-.179.252a.513.513 0 0 0-.073.172l-.1.365a.428.428 0 0 0-.006.146l.027.298-.093.259c-.058.155-.009.26.146.318.154.057.26.009.318-.146l.093-.252.219-.199a.43.43 0 0 0 .04-.04l.245-.291a.509.509 0 0 0 .026-.033l.16-.219.105-.113.087-.073a.512.512 0 0 0-.18.106l.047-.02a.487.487 0 0 0-.243-.361.487.487 0 0 0-.433-.043l.006.027a.463.463 0 0 0 .4.417.463.463 0 0 0 .528-.232Z"/><path d="m2.49 3.064.02-.013a.364.364 0 0 0-.2.08l.02-.007h.014l.06-.007a.409.409 0 0 0-.127 0l.1.013.152.04a.527.527 0 0 0 .02.007l.265.053c.04.008.08.013.12.013h.43a.61.61 0 0 0 .034 0l.623-.04.796-.026.954-.02h.007l1.074-.027 1.173-.013h.014l1.286-.033 1.405-.033h.02l1.519-.08h.013l1.591-.106h.007l1.604-.126h.007l1.511-.132.007-.007 1.326-.133h.006l1.101-.132h.027l.868-.14.603-.092.398.053c.132-.007.206-.075.225-.205.019-.13-.034-.217-.159-.26l-.41-.06-.61-.178a.383.383 0 0 0-.027-.007l-.862-.179a.543.543 0 0 0-.073-.013l-1.107-.073h-.053l-1.333.007h-.02l-1.518.06h-.013l-1.604.105-1.585.093-1.505.067-1.399.046H9.28l-1.287.046h-.02L6.8 1.672l-1.08.066a.69.69 0 0 0-.027 0l-.955.086H4.73l-.802.08a.681.681 0 0 0-.02.006l-.63.08a.634.634 0 0 0-.026.007l-.424.08a.589.589 0 0 0-.093.019l-.252.093a.516.516 0 0 0-.06.026l-.152.073a.46.46 0 0 0-.02.014l-.1.053a.409.409 0 0 0-.092.08l-.04.039a.38.38 0 0 0-.1.239l-.006.02a.35.35 0 0 0 .146.318l.02.013c.137.102.274.102.41 0Z"/><path d="M19.11 1.048c0 .217.109.325.325.325.217 0 .325-.108.325-.325 0-.216-.108-.324-.325-.324-.216 0-.324.108-.324.325Zm-.026 0c0 .096.034.177.101.244a.332.332 0 0 0 .244.101.332.332 0 0 0 .244-.1.332.332 0 0 0 .1-.244.332.332 0 0 0-.1-.244.332.332 0 0 0-.244-.101.332.332 0 0 0-.244.1.332.332 0 0 0-.101.244Zm.279-.344h-.04a.376.376 0 0 0-.093.033l-.047.02-.053.02a.431.431 0 0 0-.282.315.43.43 0 0 0 .117.407.43.43 0 0 0 .407.118.43.43 0 0 0 .315-.283l.02-.053.02-.047a.587.587 0 0 0 .007-.013l.013-.033a.353.353 0 0 0-.053-.353.352.352 0 0 0-.331-.131Zm-.557.238-.02.027a.518.518 0 0 0-.04.53l.02.047a.552.552 0 0 0 .345.311l.132.04a.66.66 0 0 0 .106.027l.2.02a.61.61 0 0 0 .046.006l.285.013a.6.6 0 0 0 .02 0h.424l.464-.026a.6.6 0 0 0 .12-.02l.483-.126a.528.528 0 0 0 .106-.04l.458-.232a.394.394 0 0 0 .026-.013l.391-.252.378-.113c.155-.048.208-.15.16-.305-.05-.154-.15-.207-.305-.159l-.365.12-.451-.014-.497-.033h-.007l-.504-.02h-1.353a.64.64 0 0 0-.012 0h-.12a.525.525 0 0 0 .405.239l-.02-.027a.515.515 0 0 0-.438-.235.516.516 0 0 0-.437.235Z"/><path d="m23.075 1.168.014-.02a.352.352 0 0 0 .046-.086l.006-.027a.386.386 0 0 0 .014-.053l.006-.026a.376.376 0 0 0-.04-.232l-.013-.02a.384.384 0 0 0-.298-.219l-.026-.007a.42.42 0 0 0-.279.053l-.04.02a.47.47 0 0 0-.166.153l-.079.12a.539.539 0 0 0-.073.191l-.06.285a.58.58 0 0 0-.013.06l-.053.504v.04l-.033.762v.007l-.027 1.06-.053 1.4-.086 1.73-.1 1.936v.006l-.085 1.996v.013l-.053 1.963v.013l.006 1.89v.013l.033 1.757a.29.29 0 0 0 0 .013l.067 1.578v.013l.145 2.553.053.968.04.782v.006l.04.604a.674.674 0 0 0 .007.04l.06.523.046.517a.601.601 0 0 0 .033.16l.172.457a.448.448 0 0 0 .013.033l.153.325v.292c0 .163.082.245.245.245.164 0 .246-.082.246-.245v-.292l.145-.338a.45.45 0 0 0 .014-.033l.152-.464a.602.602 0 0 0 .033-.166l.027-.53v-.014l.006-.537v-.026l-.013-.617v-.013l-.04-.782v-.007l-.053-.968-.145-2.553-.08-1.57-.073-1.738-.006-1.87.04-1.948.085-1.983.1-1.936v-.013l.06-1.737.04-1.406v-.006l.026-1.061v-.007l.006-.762a.66.66 0 0 0 0-.02l-.013-.51v-.053l-.033-.292a.545.545 0 0 0-.026-.113l-.047-.133a.478.478 0 0 0-.026-.066l-.02-.04a.414.414 0 0 0 .02.339l.006-.034a.38.38 0 0 0-.305.266l.02-.007a.375.375 0 0 0-.245-.033l.02.006a.368.368 0 0 0-.08-.06l.013.02a.346.346 0 0 0-.046-.059l.013.02a.32.32 0 0 0 .279.146.32.32 0 0 0 .278-.146Z"/><path d="m22.518 19.83-.073.08a.43.43 0 0 0-.073.12l-.132.325a.571.571 0 0 0-.04.139l-.093.663a.674.674 0 0 0-.006.04l-.06.881a.66.66 0 0 0 0 .02l-.04.928v.014l-.026.895v.006l-.02.81v.026l.013.716.007.603a.66.66 0 0 0 0 .02l.026.457a.733.733 0 0 0 0 .067l.04.298a.716.716 0 0 0 .02.093l.046.172a.695.695 0 0 0 .352.445l.06.033a.679.679 0 0 0 .34.082.672.672 0 0 0 .335-.097.672.672 0 0 0 .244-.25.672.672 0 0 0 .088-.339v-.066a.71.71 0 0 0-.013-.133l-.027-.132-.026-.252-.014-.438-.02-.596-.013-.71-.006-.795v-.014l-.014-.888v-.935l-.006-.881a.66.66 0 0 0 0-.04l-.053-.67a.567.567 0 0 0-.033-.16l-.126-.324a.427.427 0 0 0-.08-.133l-.073-.08a.324.324 0 0 0-.252-.112c-.1 0-.184.038-.252.113Zm-.185 7.24c0 .15.053.279.159.385.106.106.234.16.384.16s.279-.054.385-.16a.523.523 0 0 0 .159-.384.524.524 0 0 0-.16-.385.524.524 0 0 0-.384-.159.524.524 0 0 0-.384.16.524.524 0 0 0-.16.384Zm.225-.066c0 .098.035.18.103.249a.338.338 0 0 0 .248.103c.098 0 .18-.035.249-.103a.339.339 0 0 0 .103-.249.338.338 0 0 0-.103-.248.339.339 0 0 0-.248-.103.339.339 0 0 0-.249.103.339.339 0 0 0-.103.248Zm.604-.073.013-.099c-.006-.128-.072-.2-.198-.22-.127-.018-.21.033-.253.154l-.013.1c.005.127.071.2.198.218.126.019.21-.032.253-.152Z"/><path d="M22.664 26.162c0 .1.035.184.105.254.07.07.154.104.253.104a.345.345 0 0 0 .254-.104.345.345 0 0 0 .104-.254.345.345 0 0 0-.104-.253.345.345 0 0 0-.254-.105.345.345 0 0 0-.253.105.345.345 0 0 0-.105.253Zm-.073.04c0 .12.042.22.127.305a.415.415 0 0 0 .304.126c.12 0 .22-.042.305-.126a.415.415 0 0 0 .126-.305.415.415 0 0 0-.126-.305.415.415 0 0 0-.305-.126.415.415 0 0 0-.304.127.415.415 0 0 0-.127.304Zm-.106.007-.026.166a.557.557 0 0 0-.007.046l-.046.517a.564.564 0 0 0 0 .086l.026.292a.52.52 0 0 0 .047.186l.1.205a.382.382 0 0 0 .37.235.382.382 0 0 0 .372-.235l.1-.205a.524.524 0 0 0 .039-.12l.06-.278a.562.562 0 0 0 .013-.08l.033-.517v-.212a.525.525 0 0 0-.144-.37.525.525 0 0 0-.357-.173.526.526 0 0 0-.38.114.525.525 0 0 0-.2.343Zm.279 1.558.033.12c.04.145.133.198.278.158.146-.04.2-.132.16-.278l-.034-.12c-.04-.145-.132-.198-.278-.159-.146.04-.199.133-.16.279Z"/><path d="m2.2 29.56.007-.014a.328.328 0 0 0-.292.086l.02.007c.04.006.08.006.12 0l.118-.013a.401.401 0 0 0 .027-.007l.252-.053.484-.093a.501.501 0 0 0 .033-.013l.683-.179.802-.179.942-.172.98-.146 1.042-.093 1.06-.066 1.041-.027 1.035-.006h1.02l.988.02h1.028l.981-.034.935-.033.869-.027.848.007.802.013.783.02h.013l.776.007.762.013h.73l.669.02a.73.73 0 0 0 .046-.006l.584-.027a.7.7 0 0 0 .325-.093l.351-.205a.493.493 0 0 0 .199-.212l.053-.1.106-.04c.155-.057.203-.163.146-.318-.058-.155-.164-.203-.318-.146l-.067.027-.06-.04a.504.504 0 0 0-.119-.073l-.384-.16a.705.705 0 0 0-.252-.052l-.583-.013-.67-.007-.007-.007-.736-.006h-.762l-.77-.007-.775-.02h-.013l-.816-.013a.29.29 0 0 0-.013 0l-.862.007h-.006l-.889.013h-.013l-.935.033-.968.033h-.968l-.994-.007H10.54l-1.047.02a.66.66 0 0 0-.02 0l-1.06.053h-.027l-1.081.093a.67.67 0 0 0-.04.007l-1.06.152h-.027l-1.001.186a.596.596 0 0 0-.04.007l-.948.238a.49.49 0 0 0-.027.007l-.815.238a.614.614 0 0 0-.04.014l-.67.252a.548.548 0 0 0-.079.04l-.431.251a.587.587 0 0 0-.013.007l-.226.14a.41.41 0 0 0-.08.072l-.079.086a.362.362 0 0 0-.1.213v.039a.31.31 0 0 0 .185.344.31.31 0 0 0 .386-.059Z"/><path d="m2.633 4.613.08-.225.04-.06.059-.066a.562.562 0 0 0 .17-.413.562.562 0 0 0-.173-.412.562.562 0 0 0-.414-.17.562.562 0 0 0-.412.173l-.026.02a.613.613 0 0 0-.226.43l-.033.312-.073.61-.112.875v.014l-.12 1.067v.02l-.112 1.22v.013l-.093 1.373v.013l-.086 1.538-.093 1.73v.007l-.086 1.85-.093 1.896-.093 1.87v.006l-.08 1.81v.007l-.06 1.717a.88.88 0 0 0 0 .013l-.04 1.611v.007L.532 24.94v.006l-.006 1.306-.007 1.107v.902l-.007.71v.006l.007.537a.86.86 0 0 0 0 .1l.047.39a.828.828 0 0 0 .026.127l.086.285a.775.775 0 0 0 .12.252l.126.172c.172.233.4.321.684.264a.634.634 0 0 0 .529-.51l.053-.205a.78.78 0 0 0 .02-.139l.013-.298v-.007l.02-.391v-.02l.013-.537.007-.007.006-.716v-.901l.007-1.107.02-1.3.026-1.465.04-1.604.06-1.711.066-1.81.08-1.87.08-1.896.085-1.85.093-1.723v-.007l.073-1.538.067-1.372.06-1.22a.858.858 0 0 0 .006-.02l.026-1.074V5.78l-.006-.888a.66.66 0 0 0 0-.02l-.027-.623v-.04l-.033-.318a.6.6 0 0 0-.345-.51l-.026-.014a.536.536 0 0 0-.666.087.536.536 0 0 0-.143.656l.04.092.026.093.033.239c.02.2.13.312.33.334.2.022.33-.063.393-.255ZM1.082 30.596c0 .122.043.227.13.314.087.087.191.13.314.13a.428.428 0 0 0 .314-.13.428.428 0 0 0 .13-.314.428.428 0 0 0-.13-.314.428.428 0 0 0-.314-.13.428.428 0 0 0-.314.13.428.428 0 0 0-.13.314Zm.305.305.053.053c.13.094.253.084.367-.03.114-.114.124-.237.03-.368l-.053-.053c-.13-.094-.253-.084-.367.03-.114.114-.124.237-.03.368Z"/><path d="M2.096 29.237c0 .168.084.252.252.252.168 0 .252-.084.252-.252 0-.168-.084-.252-.252-.252-.168 0-.252.084-.252.252Zm.398-.312-.014-.006a.36.36 0 0 0-.165-.04h-.033a.365.365 0 0 0-.18.053l-.046.026a.38.38 0 0 0-.02.014l-.053.033a.373.373 0 0 0-.073.06l-.046.052-.06.06-.073.066-.066.06-.106.066a.587.587 0 0 0-.013.007l-.133.093a.436.436 0 0 0-.026.013l-.153.12a.403.403 0 0 0-.02.013l-.159.139a.441.441 0 0 0-.04.04l-.165.185a.454.454 0 0 0-.06.08l-.153.258a.462.462 0 0 0-.033.08l-.12.338a.464.464 0 0 0-.012.053l-.087.398a.464.464 0 0 0-.006.073l-.027.424a.451.451 0 0 0 .007.053l.026.405a.421.421 0 0 0 .014.066l.086.345a.384.384 0 0 0 .1.185l.139.14.06.145c.066.16.178.206.337.14.16-.067.206-.18.14-.338l-.053-.12.04-.159a.389.389 0 0 0 .006-.113l-.02-.325.02-.37.04-.385.073-.338.1-.279.105-.205.12-.146.119-.133.132-.126a.413.413 0 0 0 .014-.013l.106-.113.1-.1a.69.69 0 0 0 .006-.006l.093-.1.08-.079.066-.066a.37.37 0 0 0 .013-.02l.033-.033.033-.027.046-.04a.37.37 0 0 0-.112.067l.033-.014a.353.353 0 0 0 .192-.172l.007-.013a.339.339 0 0 0 .016-.267.345.345 0 0 0-.175-.204Z"/><path d="M1.884 29.09a.356.356 0 0 0-.262-.144.356.356 0 0 0-.284.096.356.356 0 0 0-.12.274c0 .11.04.2.12.274.08.074.175.106.284.096a.356.356 0 0 0 .262-.144c.118-.15.118-.3 0-.451Zm-.73.233c0 .113.04.21.121.29.08.08.177.12.29.12.114 0 .211-.04.291-.12.08-.08.12-.177.12-.29 0-.114-.04-.21-.12-.29a.396.396 0 0 0-.29-.121c-.114 0-.21.04-.291.12a.396.396 0 0 0-.12.29Zm.233-.444-.133.033a.55.55 0 0 0-.292.172l-.185.206a.6.6 0 0 0-.087.139l-.185.371a.614.614 0 0 0-.033.08l-.16.477a.62.62 0 0 0-.02.066l-.105.498a.61.61 0 0 0-.007.066l-.046.444a.61.61 0 0 0-.007.08l.013.371a.61.61 0 0 0 .007.066l.04.279a.61.61 0 0 0 .02.093l.053.172a.603.603 0 0 0 .126.219l.053.06a.602.602 0 0 0 .51.209.602.602 0 0 0 .47-.29l.04-.065a.604.604 0 0 0 .08-.226l.027-.179a.6.6 0 0 0 .006-.053l.02-.292v-.033l.007-.398V31l.053-.464.132-.43.226-.425a.566.566 0 0 0 .053-.16l.046-.251.252-.133c.117-.09.142-.2.075-.331-.068-.132-.172-.176-.313-.133l-.312.166-.325.013a.543.543 0 0 0-.438.232l-.318.431a.598.598 0 0 0-.086.18l-.172.543a.61.61 0 0 0-.02.1l-.073.543a.609.609 0 0 0 0 .073l-.013.477v.013l.006.372-.02.252-.02.152a.603.603 0 0 0 .08-.225l-.04.066a.602.602 0 0 0 .513.196.602.602 0 0 0 .462-.295l-.053-.06a.602.602 0 0 0 .132.232l-.04-.126-.026-.199-.013-.298.04-.365.092-.438.14-.41.152-.345.12-.232a.636.636 0 0 0 .04-.093l.032-.126a.482.482 0 0 0-.108-.478.483.483 0 0 0-.468-.145Z"/><path d="M.511 30.801c0 .103.037.19.11.263.072.072.16.109.262.109.102 0 .19-.037.262-.11a.358.358 0 0 0 .109-.262.358.358 0 0 0-.109-.262.358.358 0 0 0-.262-.109.358.358 0 0 0-.263.109.358.358 0 0 0-.109.262Zm.756.014v-.04a.417.417 0 0 0-.006-.093l-.007-.073a.446.446 0 0 0-.007.18l.007-.047.02-.04.086-.12.192-.205.292-.239.411-.245.55-.219.663-.218.696-.2.697-.132a.401.401 0 0 0 .026-.007l.55-.132.411-.007c.173-.004.257-.093.252-.265-.004-.172-.092-.256-.265-.252l-.41.007-.571-.087a.363.363 0 0 0-.046-.006l-.73-.027a.66.66 0 0 0-.02 0l-.755-.006a.565.565 0 0 0-.1.013l-.716.126a.618.618 0 0 0-.126.04l-.61.245a.618.618 0 0 0-.093.046l-.484.299a.604.604 0 0 0-.086.066l-.351.312a.6.6 0 0 0-.086.092l-.212.279a.58.58 0 0 0-.087.179l-.073.225a.533.533 0 0 0 0 .305l.034.14c.015.055.04.105.072.152l.06.08a.45.45 0 0 0 .093.1l.06.039c.034.028.071.05.112.066l.04.013a.372.372 0 0 0 .344-.044.372.372 0 0 0 .173-.3ZM3.292 2.183v-.012a.276.276 0 0 0 .006-.031v-.02a.274.274 0 0 0-.006-.062V2.04a.267.267 0 0 0-.031.18l.012-.018a.287.287 0 0 0 .02-.056l.005-.019a.293.293 0 0 0-.018.05l.012-.025a.278.278 0 0 0-.225.163l.025-.007h.1l.219.013h.006l.381.019h.02l.556-.007.7-.025h.006l.794-.03.006-.001.844-.05.913-.044.975-.043 1.013-.057.981-.056a.33.33 0 0 0 .006 0l.913-.056.85-.05.794-.044a.252.252 0 0 0 .025-.006l.713-.1.556-.044c.104-.035.15-.106.14-.215-.01-.109-.07-.17-.178-.185l-.55.037h-.719a.26.26 0 0 0-.012 0l-.794.044-.85.05-.919.056-.981.057-1.013.056-.969.031-.913.019-.85.012H5.85l-.788.032-.7.012-.544.006-.375-.018-.231-.013h-.038l-.125.013H3.03l-.044.012a.279.279 0 0 0-.219.156l-.012.025a.284.284 0 0 0-.02.213l.007.019c.004.02.01.038.019.056l.012.013.007.012a.272.272 0 0 0-.032-.106v.019a.258.258 0 0 0 .15.23l.007.007c.08.045.162.047.244.005a.248.248 0 0 0 .143-.199Z"/><path d="M13.194 1.896h.1l.213-.02.356-.024a.33.33 0 0 0 .006 0l.494-.05a.32.32 0 0 0 .006 0l.625-.075 1.438-.181.719-.088.65-.081.563-.056.462-.038.363-.025h.275l.213-.006a.33.33 0 0 0 .006 0h.169a.255.255 0 0 0 .05-.006l.093-.025.057.006c.141.008.216-.059.225-.2.008-.142-.059-.217-.2-.225l-.05-.007-.082-.03a.255.255 0 0 0-.056-.02l-.169-.03h-.025l-.218-.013a.283.283 0 0 0-.013-.007h-.301l-.368.013a.29.29 0 0 0-.012 0l-.47.037h-.005l-.57.057h-.006l-.656.081-.713.088a.3.3 0 0 0-.006 0l-1.438.18-.619.088a.33.33 0 0 0-.006 0l-.487.082-.35.043-.207.025a.26.26 0 0 0-.012 0l-.082.013c-.141.03-.207.119-.196.263.011.145.09.222.234.23Z"/></g><defs><clipPath id="a"><path fill="#fff" d="M0 0h25v37H0z"/></clipPath></defs></svg>