<svg width="38" height="42" fill="none" xmlns="http://www.w3.org/2000/svg"><g clip-path="url(#a)" fill="#000"><path d="m6.122 36.592-.048-.032a.34.34 0 0 0-.032-.016l-.23-.107h-.005l-.417-.186-.529-.24-.523-.257-.454-.246a.408.408 0 0 0-.01-.005l-.348-.166a.314.314 0 0 0-.027-.016l-.219-.08a.328.328 0 0 0-.032-.01l-.106-.027a.305.305 0 0 0-.275.055.305.305 0 0 0-.126.249l-.005.027a.32.32 0 0 0 .117.256l.128.112.022.016.235.171.267.198a.676.676 0 0 0 .005.005l.24.16a.346.346 0 0 0 .06.032l.191.086a.337.337 0 0 0 .235.016l.113-.032a.324.324 0 0 0 .245-.267l.027-.144a.34.34 0 0 0-.016-.187l-.08-.203a.34.34 0 0 0-.054-.102l-.23-.272a.34.34 0 0 0-.037-.043l-.406-.358a.431.431 0 0 0-.01-.01l-.556-.455-.635-.576-.7-.716a.372.372 0 0 0-.016-.016l-.721-.652-.497-.625c-.091-.088-.187-.093-.287-.015-.1.078-.118.172-.055.282l.502.636.54.823a.35.35 0 0 0 .037.042l.695.732a.355.355 0 0 0 .021.021l.652.588.016.01.566.455.384.325.166.209.021.07-.01.053a.324.324 0 0 0 .245-.267l-.112.032a.337.337 0 0 0 .235.016l-.16-.075-.214-.144-.261-.193-.235-.165a.414.414 0 0 0-.011-.01l-.139-.092c.015.016.03.03.048.043l-.016-.021c-.168-.076-.302-.036-.402.12-.1.154-.08.293.06.414l.091.032.198.085.33.177a.408.408 0 0 0 .011.005l.47.219a.676.676 0 0 0 .006.005l.54.246H4.6l.528.24h.006l.416.187.006.006.23.096a.228.228 0 0 0 .01.005l.054.021c.17.058.296.006.376-.156.08-.161.045-.293-.104-.394Zm26.227-1.921c0 .168.084.251.25.251.168 0 .252-.083.252-.25 0-.168-.084-.252-.251-.252-.168 0-.251.084-.251.251Zm.47.236.107-.086a.36.36 0 0 0 .032-.032l.208-.214.315-.33.01-.012.439-.491a.357.357 0 0 0 .021-.021l.55-.727.652-.854a.28.28 0 0 0 .01-.016l.545-.823.486-.598c.093-.11.084-.212-.026-.305-.11-.092-.212-.083-.305.027l-.491.604-.7.694-.01.005-.721.785-.636.647a.478.478 0 0 0-.022.021l-.427.502a.372.372 0 0 0-.016.022l-.272.363a.422.422 0 0 0-.016.021l-.16.251a.36.36 0 0 0-.038.075l-.048.123c-.062.157-.024.285.113.383.137.099.27.094.4-.014Z"/><path d="m36.237 29.458-.048.016-.01.006-.188.075-.304.122-.352.118-.305.09-.128.017h-.016a.392.392 0 0 0 .029.304c.05.097.128.163.233.198l.01-.027.24-.23.577-.507a.411.411 0 0 0 .038-.037l.636-.722.726-.56c.117-.093.13-.198.037-.315-.092-.118-.197-.13-.315-.038l-.726.561-.85.46a.405.405 0 0 0-.069.053l-.587.512a.388.388 0 0 0-.033.027l-.299.326a.372.372 0 0 0-.026.032l-.08.107a.387.387 0 0 0-.067.341.387.387 0 0 0 .221.268l.107.048a.409.409 0 0 0 .235.037l.257-.037a.42.42 0 0 0 .064-.01l.336-.108a.423.423 0 0 0 .064-.021l.348-.176a.363.363 0 0 0 .042-.027l.289-.192a.318.318 0 0 0 .016-.011l.16-.123a.317.317 0 0 0 .037-.032l.038-.043c.113-.12.124-.248.032-.385s-.215-.176-.369-.117ZM27.283 20.2c0 .092.033.172.098.237a.324.324 0 0 0 .238.099.324.324 0 0 0 .238-.099.324.324 0 0 0 .099-.238.324.324 0 0 0-.099-.238.324.324 0 0 0-.238-.098.324.324 0 0 0-.238.098.324.324 0 0 0-.098.238Zm.683-.011.006-.022a.367.367 0 0 0-.138-.296.367.367 0 0 0-.316-.083l-.086.016a.392.392 0 0 0-.203.102l-.192.187a.42.42 0 0 0-.048.053l-.305.416a.427.427 0 0 0-.037.07l-.294.63a.384.384 0 0 0-.026.086l-.129.651-.213.53c-.057.142-.014.241.128.298.142.057.242.014.3-.128l.207-.523.396-.518a.378.378 0 0 0 .021-.033l.353-.582.272-.406.117-.144.017-.01a.382.382 0 0 0-.118.053l.021-.006c.178-.044.267-.158.267-.341Zm-1.629 2.991c0 .094.034.175.1.242a.33.33 0 0 0 .242.1.33.33 0 0 0 .242-.1.33.33 0 0 0 .1-.242.33.33 0 0 0-.1-.242.33.33 0 0 0-.242-.1.33.33 0 0 0-.241.1.33.33 0 0 0-.1.242Zm-.042-.22-.134.156a.44.44 0 0 0-.08.464l.027.075-.086.144c-.081.143-.051.255.091.337.143.082.255.051.337-.09l.08-.145.075-.016a.445.445 0 0 0 .347-.262l.09-.187a.428.428 0 0 0 .05-.328.428.428 0 0 0-.194-.27.428.428 0 0 0-.326-.06.428.428 0 0 0-.277.183Zm-13.3-2.276-.01.022a.332.332 0 0 0-.043.16l-.005.102c0 .02.002.039.005.058l.037.251a.3.3 0 0 0 .006.016l.09.444.123.609a.19.19 0 0 0 0 .01l.15.652.005.016.16.555c.005.013.01.026.017.038l.155.363c.016.04.039.076.069.107l.166.16a.323.323 0 0 0 .24.102l.15-.006c.08 0 .15-.024.213-.075l.118-.106a.333.333 0 0 0 .074-.08l.091-.15a.327.327 0 0 0 .022-.043l.053-.133a.325.325 0 0 0-.096.133l.037-.032a.318.318 0 0 0-.217-.228.318.318 0 0 0-.312.052l.033.123.058.304a.328.328 0 0 0 .043.107l.17.288.06.326c.035.103.107.145.214.127.107-.019.16-.082.16-.19l-.054-.332.059-.326a.33.33 0 0 0 0-.123l-.053-.315a.326.326 0 0 0-.011-.032l-.038-.133a.317.317 0 0 0-.232-.23.317.317 0 0 0-.318.075l-.032.032a.33.33 0 0 0-.08.107l-.048.112-.053.075h.005l.101-.006-.016-.016-.122-.277-.155-.524-.145-.64-.117-.6-.07-.437-.031-.23-.006-.08v-.037l-.005-.022a.304.304 0 0 0-.263-.28.304.304 0 0 0-.351.157Zm14.503 8.578c0 .1.035.186.106.257a.35.35 0 0 0 .257.107.35.35 0 0 0 .257-.107.35.35 0 0 0 .106-.257.35.35 0 0 0-.106-.256.35.35 0 0 0-.257-.107.35.35 0 0 0-.257.107.35.35 0 0 0-.106.256Zm-.043-.01c0 .109.039.202.116.28a.38.38 0 0 0 .28.115.38.38 0 0 0 .279-.116.38.38 0 0 0 .115-.28.38.38 0 0 0-.115-.279.38.38 0 0 0-.28-.116.38.38 0 0 0-.28.116.38.38 0 0 0-.115.28Zm.128-.422-.123.064a.552.552 0 0 0-.24.256l-.203.449a.613.613 0 0 0-.021.053l-.284.79a.594.594 0 0 0-.016.065l-.235 1.047-.245 1.122-.3 1.046-.256.892-.235.673-.16.481a.463.463 0 0 0-.01.032l-.075.305a.442.442 0 0 0-.011.08l-.01.139a.415.415 0 0 0 .24.422l.037.021a.414.414 0 0 0 .502-.048l.07-.059a.443.443 0 0 0 .069-.075l.08-.107a.343.343 0 0 0 .01-.016l.091-.128.123-.181.225-.273.368-.422.518-.576.006-.006.635-.716.69-.774a.355.355 0 0 0 .005-.01l.689-.813.651-.753a.355.355 0 0 0 .006-.01l.55-.663.48-.571a.355.355 0 0 0 .006-.011l.368-.46v-.005l.251-.325.15-.204.005-.005.064-.09.011-.017c.097-.174.068-.323-.089-.447-.156-.124-.308-.12-.456.015l-.032.032-.043.053-.042.043-.038.037a.345.345 0 0 0-.016.016l-.037.043a.363.363 0 0 0 .059-.053l-.032.021a.352.352 0 0 0 .213-.064h-.021a.36.36 0 0 0 .134.027l-.017-.006a.359.359 0 0 0 .097.059l-.011-.01c.01.01.02.021.032.031l-.01-.01-.006-.011a.35.35 0 0 0-.251-.112h-.064a.36.36 0 0 0-.08.01l-.022.006a.363.363 0 0 0 .086-.01h-.016a.36.36 0 0 0 .117.015l-.016-.005c.019.01.039.02.059.027l-.021-.011c.02.016.04.03.064.043l-.01-.011a.35.35 0 0 0 .127.251v-.01a.362.362 0 0 0-.01.111l.005-.015a.354.354 0 0 0 .005-.075v-.016a.361.361 0 0 0-.01-.102l-.006-.037a.355.355 0 0 0-.005-.01l-.022-.07-.032-.113a.371.371 0 0 0-.01-.037l-.064-.155a.268.268 0 0 0-.006-.01l-.101-.235a.364.364 0 0 0-.016-.027l-.171-.31-.005-.01-.235-.396-.262-.454a.355.355 0 0 0-.005-.01l-.289-.47-.005-.006-.283-.438a.3.3 0 0 0-.006-.016l-.261-.369a.371.371 0 0 0-.016-.02l-.24-.29a.421.421 0 0 0-.033-.031l-.208-.209a.435.435 0 0 0-.032-.021l-.176-.15a.432.432 0 0 0-.102-.058l-.155-.064a.43.43 0 0 0-.155-.038l-.128-.005a.43.43 0 0 0-.128.016l-.086.021a.432.432 0 0 0-.122.054l-.043.032a.404.404 0 0 0-.192.352l-.006.027c-.002.214.1.353.305.416l.037.011c.03.009.06.014.09.016l.065.005a.435.435 0 0 0 .053.006l.086-.006a.43.43 0 0 0 .075-.01l.112-.022a.437.437 0 0 0 .112-.042l.165-.086a.437.437 0 0 0 .07-.042l.31-.246a.405.405 0 0 0 .016-.016l.523-.465.01-.01.727-.684a.267.267 0 0 0 .006-.006l.86-.827a.132.132 0 0 0 .005-.006l.919-.93.005-.005.945-.977.011-.005.892-.973.01-.01.807-.946.727-.843.593-.663a.372.372 0 0 0 .016-.021l.384-.486a.418.418 0 0 0 .096-.3l-.021-.245.032-.112c.022-.137-.034-.225-.167-.263-.134-.038-.228.007-.282.135l-.016.048-.165.08a.425.425 0 0 0-.166.139l-.358.502-.523.705-.727.812-.854.897-.908.945-.951.967-.924.919-.855.817-.731.678-.508.465-.262.22-.08.047-.021.006c.003.217.11.354.32.41l-.005-.026a.4.4 0 0 0-.208.374l.043-.027a.428.428 0 0 0-.123.054l.026-.01.043.02.128.086.177.165.219.252.261.336.289.422.31.449.288.432.235.385.17.288.102.214.054.128.021.07v.048h.006v.016a.36.36 0 0 0 .026-.155l-.005.016a.359.359 0 0 0-.032.117v.011a.35.35 0 0 0 .085.262l.011.01a.358.358 0 0 0 .123.097l.021.005a.353.353 0 0 0 .038.016l.016.005c.036.013.073.02.112.022h.016a.36.36 0 0 0 .09-.011l.022-.005a.362.362 0 0 0-.096.01h.064a.35.35 0 0 0-.267-.096l.01.006.011.01a.36.36 0 0 0-.032-.032l.01.01c.05.06.113.099.188.118l.016.006a.358.358 0 0 0 .096.01h.021a.356.356 0 0 0 .193-.058l.032-.022a.36.36 0 0 0 .08-.075l.027-.032.037-.037a.36.36 0 0 0 .032-.032l.043-.064.005-.005.043-.054a.344.344 0 0 0 .021-.032l.022-.043c.08-.19.03-.337-.148-.44-.178-.104-.33-.075-.456.088l-.006.005-.053.08-.144.198-.24.32-.364.449-.48.55-.599.614v.006l-.678.726-.748.759a.343.343 0 0 0-.01.016l-.7.769v.005l-.641.71v.006l-.513.582-.005.005-.374.433a.54.54 0 0 0-.01.01l-.23.294a.48.48 0 0 0-.022.022l-.139.197v.006l-.08.117-.043.054-.042.032a.416.416 0 0 0 .486-.064l-.048-.022a.416.416 0 0 0 .261.412v-.096l.054-.262a.428.428 0 0 0 .005-.016l.08-.492.145-.689.24-.886.315-1.036.417-1.053.448-.956a.554.554 0 0 0 .011-.027l.315-.78a.355.355 0 0 0 .005-.01l.177-.46a.563.563 0 0 0 .037-.213v-.134a.479.479 0 0 0-.243-.412.478.478 0 0 0-.478-.004Z"/><path d="M26.082 25.192c0 .098.035.18.103.25a.34.34 0 0 0 .25.103.34.34 0 0 0 .249-.103.34.34 0 0 0 .103-.25.34.34 0 0 0-.103-.249.34.34 0 0 0-.25-.103.34.34 0 0 0-.249.103.34.34 0 0 0-.103.25Zm-.016 0c0 .102.036.189.108.26a.355.355 0 0 0 .26.109.355.355 0 0 0 .261-.108.355.355 0 0 0 .108-.26.355.355 0 0 0-.108-.261.355.355 0 0 0-.26-.108.355.355 0 0 0-.26.108.355.355 0 0 0-.109.26Zm-.01.006a.37.37 0 0 0 .11.268.365.365 0 0 0 .269.11.365.365 0 0 0 .268-.11.365.365 0 0 0 .11-.268.365.365 0 0 0-.11-.268.365.365 0 0 0-.268-.112.366.366 0 0 0-.268.111.366.366 0 0 0-.112.269Zm.31.4.031.006a.45.45 0 0 0 .262-.022l.139-.059a.521.521 0 0 0 .117-.064l.278-.208a.132.132 0 0 1 .005-.005l.524-.4.828-.61 1.095-.764 1.212-.844.006-.005 1.212-.865a.636.636 0 0 0 .016-.01l1.154-.871.016-.011 1.041-.833.006-.006.892-.737a.603.603 0 0 0 .016-.016l.689-.625a.48.48 0 0 0 .053-.053l.428-.518a.403.403 0 0 0 .058-.107l.134-.326.128-.15c.071-.11.057-.21-.042-.296-.1-.087-.2-.088-.3-.003l-.117.134-.316.112a.405.405 0 0 0-.08.038l-.566.368a.577.577 0 0 0-.037.027l-.732.571-.005.006-.892.726-1.042.817-1.148.86-1.213.855-1.212.844v.005l-1.1.775-.006.005-.838.614a.523.523 0 0 0-.027.016l-.513.422a.52.52 0 0 0-.027.027l-.256.235a.517.517 0 0 0-.133.208l-.049.14a.45.45 0 0 0-.016.245l.006.032a.38.38 0 0 0 .32.32Z"/><path d="M25.911 25.55c0 .102.036.189.108.26a.355.355 0 0 0 .26.109.355.355 0 0 0 .261-.108.355.355 0 0 0 .108-.26.355.355 0 0 0-.108-.261.355.355 0 0 0-.26-.108.355.355 0 0 0-.26.108.355.355 0 0 0-.109.26Zm.278-.358h-.01a.36.36 0 0 0 .026-.005l-.021.005a.385.385 0 0 0-.296.24.384.384 0 0 0 .05.379.384.384 0 0 0 .349.154.383.383 0 0 0 .313-.217l.011-.021a.38.38 0 0 0 .027-.075v-.011a.352.352 0 0 0-.1-.349.352.352 0 0 0-.349-.1Zm-.363.4c0 .116.04.214.122.296.081.08.18.122.294.122a.399.399 0 0 0 .295-.123.401.401 0 0 0 .122-.294.401.401 0 0 0-.122-.295.401.401 0 0 0-.294-.122.401.401 0 0 0-.295.122.401.401 0 0 0-.122.295Zm-.032.017c0 .128.045.238.136.329.09.09.2.136.329.136a.448.448 0 0 0 .328-.136.45.45 0 0 0 .136-.329.448.448 0 0 0-.136-.329.448.448 0 0 0-.328-.136.447.447 0 0 0-.33.136.45.45 0 0 0-.135.329Zm-.016.294.101.272a.628.628 0 0 0 .022.048l.256.524c.038.076.09.142.155.197l.55.465.326.732c.071.156.185.2.342.128.156-.071.2-.185.128-.342l-.331-.726v-.721a.605.605 0 0 0-.054-.268l-.25-.523a.622.622 0 0 0-.06-.101l-.165-.235a.563.563 0 0 0-.344-.242.563.563 0 0 0-.416.053.564.564 0 0 0-.273.32.563.563 0 0 0 .013.419ZM20.184 2.716c0 .195.098.293.294.293.196 0 .294-.098.294-.293 0-.196-.098-.294-.294-.294-.196 0-.294.098-.294.294Zm.582-.214-.037-.07a.414.414 0 0 0-.021-.032l-.08-.106a.494.494 0 0 0-.075-.08l-.15-.123a.568.568 0 0 0-.251-.129l-.246-.053a.618.618 0 0 0-.347.027l-.326.117a.651.651 0 0 0-.213.128l-.358.316a.679.679 0 0 0-.128.155l-.305.502a.703.703 0 0 0-.064.133l-.203.582a.759.759 0 0 0-.043.251l-.005.63a.778.778 0 0 0 .027.214l.17.625c.017.06.04.117.07.171l.32.588a.8.8 0 0 0 .118.165l.486.508c.05.054.107.1.171.139l.63.373c.069.04.142.069.22.086l.688.166a.752.752 0 0 0 .262.01l.684-.075a.736.736 0 0 0 .245-.069l.625-.304a.738.738 0 0 0 .198-.14l.518-.517a.74.74 0 0 0 .128-.166l.374-.673c.03-.049.052-.1.07-.155l.23-.801a.736.736 0 0 0 .026-.144l.07-.85a.74.74 0 0 0-.006-.144l-.096-.822a.74.74 0 0 0-.037-.171l-.257-.71a.743.743 0 0 0-.128-.22l-.433-.528a.745.745 0 0 0-.24-.193l-.582-.299a.751.751 0 0 0-.294-.08l-.673-.048a.76.76 0 0 0-.23.016l-.71.17a.76.76 0 0 0-.187.076l-.652.352a.75.75 0 0 0-.245.214l-.454.598a.629.629 0 0 0-.129.411l.022.615-.209.582c-.039.148.013.248.157.3.144.053.249.01.313-.13l.193-.544.491-.283a.64.64 0 0 0 .059-.038l.571-.41.519-.284.502-.117.406.026.32.155.251.3.192.501.075.663-.053.7-.187.64-.289.508-.358.358-.379.187-.411.02-.454-.127-.438-.278-.342-.363-.23-.428-.133-.454-.027-.464.059-.417.182-.336.181-.209.123-.07.134-.026.154-.027.107-.005.075-.005a.363.363 0 0 0 .31-.195.362.362 0 0 0-.011-.366Z"/><path d="m21.493 1.327-.027-.01a.356.356 0 0 0 .123.09l-.048-.059a.414.414 0 0 0-.054-.048l-.117-.096a.505.505 0 0 0-.096-.064l-.22-.107a.62.62 0 0 0-.32-.064l-.363.027a.709.709 0 0 0-.262.07l-.438.208a.75.75 0 0 0-.165.112l-.438.384a.77.77 0 0 0-.107.107l-.4.518a.79.79 0 0 0-.08.134l-.316.635a.813.813 0 0 0-.064.177l-.16.7a.82.82 0 0 0-.022.202l.01.716a.92.92 0 0 0 .033.208l.192.684c.02.073.048.143.086.208l.347.577a.842.842 0 0 0 .176.208l.492.428a.841.841 0 0 0 .277.16l.63.214a.845.845 0 0 0 .236.048l.7.037a.842.842 0 0 0 .17-.01l.679-.102a.844.844 0 0 0 .165-.043l.63-.235a.841.841 0 0 0 .15-.075l.55-.341a.843.843 0 0 0 .139-.107l.465-.449a.844.844 0 0 0 .123-.144l.357-.55a.84.84 0 0 0 .086-.171l.23-.636a.84.84 0 0 0 .048-.235l.042-.683a.841.841 0 0 0-.021-.252l-.16-.662a.842.842 0 0 0-.107-.25l-.369-.594a.833.833 0 0 0-.165-.187l-.55-.475a.832.832 0 0 0-.209-.128l-.662-.289a.815.815 0 0 0-.294-.07l-.673-.031a.702.702 0 0 0-.694.379l-.16.283-.38.187c-.181.093-.226.23-.133.411.093.182.23.226.411.134l.3-.15.197.134c.072.05.15.085.235.107l.571.15.481.234.363.31.225.369.101.41-.032.444-.144.422-.256.38-.332.325-.4.251-.47.171-.497.075-.497-.032-.374-.134-.272-.23-.219-.363-.15-.48-.026-.518.101-.518.214-.497.288-.417.315-.32.31-.22.283-.16.187-.096.112-.048A.395.395 0 0 0 21.396 2l.07-.032a.355.355 0 0 0-.112.027h.026c.185-.011.292-.107.323-.29.03-.182-.04-.308-.21-.378Z"/><path d="m20.157 7.592.08-.224a.415.415 0 0 0-.052-.402.415.415 0 0 0-.359-.187.415.415 0 0 0-.359.187.415.415 0 0 0-.052.402l.08.224a.324.324 0 0 0 .331.232.324.324 0 0 0 .331-.232Zm-.838-.438c0 .14.05.26.148.359.1.1.219.149.36.149.14 0 .259-.05.358-.149a.49.49 0 0 0 .149-.359c0-.14-.05-.26-.15-.359a.489.489 0 0 0-.358-.148c-.14 0-.26.05-.359.148a.493.493 0 0 0-.148.36Zm-.038-.016-.016.209v.037l-.005.502-.016.774v.006l-.021.961v.006l-.011.977v.021l.021.86a.57.57 0 0 0 .016.123l.16.646a.425.425 0 0 0 .038.091l.176.353.016.25c.007.154.087.227.24.22.154-.007.227-.087.22-.24l-.011-.257.139-.368a.423.423 0 0 0 .021-.075l.118-.657a.576.576 0 0 0 .01-.102v-.854l.01-.972.022-.956.027-.78V7.89l-.005-.507a.577.577 0 0 0-.011-.09l-.032-.215a.537.537 0 0 0-.196-.352.537.537 0 0 0-.384-.127.537.537 0 0 0-.368.166.537.537 0 0 0-.158.372Zm3.019.048c0 .096.033.178.1.246.069.068.15.101.246.101a.335.335 0 0 0 .246-.101.334.334 0 0 0 .102-.246.334.334 0 0 0-.102-.245.335.335 0 0 0-.246-.102.335.335 0 0 0-.245.102.334.334 0 0 0-.102.245Zm-.15-.037c0 .133.047.246.14.34.094.094.207.14.34.14a.463.463 0 0 0 .34-.14.463.463 0 0 0 .141-.34.463.463 0 0 0-.14-.34.463.463 0 0 0-.34-.14.463.463 0 0 0-.34.14.463.463 0 0 0-.142.34Zm.224-.556-.043.016a.673.673 0 0 0-.384.47l-.08.31a.773.773 0 0 0-.017.102l-.064.582a.784.784 0 0 0-.005.021l-.075.818v.01l-.07.914a.19.19 0 0 0 0 .01l-.053.903-.064.844a.731.731 0 0 0-.005.053l.005.71a.67.67 0 0 0 .054.273l.192.433c.01.02.02.04.032.059l.107.165v.107c0 .16.08.24.24.24.16 0 .24-.08.24-.24v-.09l.118-.15a.452.452 0 0 0 .027-.038l.245-.4a.673.673 0 0 0 .097-.246l.117-.7a.774.774 0 0 0 .006-.048l.085-.844.09-.903.102-.902a.884.884 0 0 0 .005-.016l.075-.817V8.2l.032-.587a.772.772 0 0 0-.01-.15l-.048-.32a.666.666 0 0 0-.396-.535l-.042-.016a.582.582 0 0 0-.513 0Z"/><path d="M19.49 10.551c0 .214.106.32.32.32.214 0 .32-.106.32-.32 0-.213-.106-.32-.32-.32-.214 0-.32.107-.32.32Zm-.129.016c0 .121.043.224.129.31a.422.422 0 0 0 .31.128c.12 0 .223-.043.309-.128a.422.422 0 0 0 .128-.31.422.422 0 0 0-.128-.31.422.422 0 0 0-.31-.127.422.422 0 0 0-.31.128.422.422 0 0 0-.128.31Zm-.106-.208-.155.246a.709.709 0 0 0-.091.23l-.107.517a.731.731 0 0 0-.016.134l-.01.662a.64.64 0 0 0 .1.364l.215.336-.043.417c.01.146.088.226.234.242.145.015.238-.048.278-.189l.043-.416.283-.278a.64.64 0 0 0 .171-.3l.171-.635a.753.753 0 0 0 .016-.085l.07-.53a.711.711 0 0 0 0-.218l-.054-.283a.556.556 0 0 0-.48-.486.556.556 0 0 0-.625.272Z"/><path d="M14.565 13.42c.026.21.144.314.355.314s.33-.105.355-.314c-.025-.21-.144-.315-.355-.315-.21 0-.33.105-.355.315Zm-.021-.011c0 .108.038.2.114.276a.376.376 0 0 0 .276.114c.107 0 .2-.038.275-.114a.375.375 0 0 0 .114-.276c0-.108-.038-.2-.114-.276a.375.375 0 0 0-.275-.114c-.108 0-.2.038-.276.114a.376.376 0 0 0-.114.276Zm.128.32.059.054c.074.07.162.118.261.144l.209.048a.706.706 0 0 0 .064.016l.347.048a.781.781 0 0 0 .144.005l.55-.02a.806.806 0 0 0 .064-.006l.85-.107a.783.783 0 0 0 .037-.005l1.17-.209h.005l1.389-.25 1.442-.241 1.41-.182 1.335-.128h.006l1.218-.128a.702.702 0 0 0 .069-.005l1.03-.209a.588.588 0 0 0 .065-.021l1.33-.427c.115-.039.168-.119.16-.24-.009-.12-.073-.192-.192-.214l-1.367-.262a.59.59 0 0 0-.075-.01l-1.047-.07a.715.715 0 0 0-.08 0l-1.229.053a.552.552 0 0 0-.021.005l-1.346.102a.741.741 0 0 0-.027.005l-1.437.16a.688.688 0 0 0-.032.006l-1.474.224h-.016l-1.394.251h-.005l-1.154.209-.817.112-.534.064a.764.764 0 0 0-.14.027l-.336.101a.692.692 0 0 0-.224.112l-.166.128a.584.584 0 0 0-.208.305l-.021.07a.443.443 0 0 0 .128.485Z"/><path d="M14.554 13.136c0 .093.033.173.099.238a.324.324 0 0 0 .238.099.324.324 0 0 0 .238-.099.324.324 0 0 0 .098-.238.324.324 0 0 0-.098-.237.324.324 0 0 0-.238-.099.324.324 0 0 0-.238.099.324.324 0 0 0-.099.238Zm.614.246.011-.01a.43.43 0 0 0 .123-.358l-.016-.118a.505.505 0 0 0-.096-.246l-.112-.155a.545.545 0 0 0-.14-.128l-.229-.16a.563.563 0 0 0-.128-.064l-.385-.134a.595.595 0 0 0-.144-.032l-.507-.048a.621.621 0 0 0-.134.006l-.55.064a.647.647 0 0 0-.134.026l-.528.182a.672.672 0 0 0-.144.07l-.454.288a.694.694 0 0 0-.14.123l-.368.411a.718.718 0 0 0-.107.144l-.283.55a.716.716 0 0 0-.059.166l-.155.646a.718.718 0 0 0-.02.171l.005.668a.715.715 0 0 0 .037.219l.198.604a.71.71 0 0 0 .122.224l.39.486c.056.07.121.126.198.17l.55.316a.709.709 0 0 0 .208.08l.641.134a.707.707 0 0 0 .209.01l.683-.059a.7.7 0 0 0 .182-.042l.668-.246a.707.707 0 0 0 .154-.08l.599-.406a.706.706 0 0 0 .139-.123l.48-.56a.707.707 0 0 0 .112-.182l.3-.684a.71.71 0 0 0 .058-.256l.027-.71a.706.706 0 0 0-.059-.31l-.267-.62a.714.714 0 0 0-.165-.24l-.508-.481a.736.736 0 0 0-.25-.155l-.647-.246a.729.729 0 0 0-.486-.01l-.556.176a.553.553 0 0 0-.288.208l-.203.283-.273.187c-.135.107-.155.231-.058.374.096.143.219.171.368.085l.203-.133.251.075.011.005.534.16.502.182.315.262.14.31-.017.416-.197.46-.348.41-.443.31-.497.182-.486.038-.422-.086-.325-.198-.225-.283-.123-.379v-.465l.118-.486.197-.41.246-.305.289-.225.373-.16.428-.09.39-.011.25.048.156.08.15.09c.013.01.027.019.042.027l.101.054c.104.05.21.059.32.026h.017a.383.383 0 0 0 .181-.112Zm12.403-1.506c0 .217.109.326.326.326.217 0 .326-.109.326-.326 0-.217-.109-.326-.326-.326-.217 0-.326.109-.326.326Zm-.08-.01c0 .104.037.193.111.267a.365.365 0 0 0 .268.112.366.366 0 0 0 .268-.112.365.365 0 0 0 .111-.268.365.365 0 0 0-.11-.268.365.365 0 0 0-.269-.111.365.365 0 0 0-.268.111.365.365 0 0 0-.111.268Zm.513-.423-.118-.064a.531.531 0 0 0-.406-.037l-.262.08a.594.594 0 0 0-.17.08l-.289.203a.634.634 0 0 0-.139.128l-.262.342a.658.658 0 0 0-.085.144l-.219.497a.682.682 0 0 0-.048.17l-.096.636a.68.68 0 0 0-.006.15l.038.694a.676.676 0 0 0 .032.166l.208.646c.02.061.05.118.086.171l.352.524a.674.674 0 0 0 .15.16l.46.352a.678.678 0 0 0 .191.102l.508.17a.65.65 0 0 0 .213.038h.513c.07 0 .137-.01.203-.032l.492-.15a.676.676 0 0 0 .187-.096l.486-.336a.68.68 0 0 0 .112-.102l.454-.502a.682.682 0 0 0 .075-.106l.373-.615a.696.696 0 0 0 .054-.101l.262-.662a.751.751 0 0 0 .053-.236l.048-.694a.767.767 0 0 0-.037-.288l-.22-.657a.777.777 0 0 0-.143-.262l-.47-.556a.793.793 0 0 0-.23-.186l-.705-.385a.806.806 0 0 0-.24-.085l-.834-.16a.775.775 0 0 0-.438.042l-.694.273a.532.532 0 0 0-.128.069l-.45.336-.421.166c-.131.077-.17.186-.114.328.056.142.158.196.306.163l.38-.144.49.096.69.209a.753.753 0 0 0 .048.016l.732.165.502.262.294.315.133.363-.005.465-.14.518-.266.491-.337.396-.32.235-.288.09h-.294l-.289-.096-.283-.219-.235-.347-.144-.47-.027-.545.075-.518.128-.384.15-.251.16-.166.17-.128a.541.541 0 0 0 .044-.037l.101-.091a.435.435 0 0 0 .141-.398.435.435 0 0 0-.242-.345Z"/><path d="M15.607 15.578c0 .101.035.188.107.26a.355.355 0 0 0 .261.108.355.355 0 0 0 .26-.108.355.355 0 0 0 .109-.26.355.355 0 0 0-.108-.261.355.355 0 0 0-.261-.108.355.355 0 0 0-.26.108.355.355 0 0 0-.108.26Zm-.049.005c0 .113.04.21.12.29a.4.4 0 0 0 .292.12c.113 0 .21-.04.29-.12a.4.4 0 0 0 .121-.29c0-.114-.04-.21-.12-.29a.396.396 0 0 0-.291-.121c-.114 0-.21.04-.291.12a.396.396 0 0 0-.12.29Zm.08.331.049.053a.543.543 0 0 0 .181.134l.128.064a.6.6 0 0 0 .032.01l.166.07c.024.009.05.016.075.021l.256.075a.71.71 0 0 0 .187.022h.475l.61-.054h.01l.785-.07.887-.074.93-.059.955-.037h.027l1.02-.08a.998.998 0 0 0 .016-.006l1.08-.106h.015l1.085-.134a.523.523 0 0 0 .01-.005l.972-.128.77-.086.544-.037.374-.027a.719.719 0 0 0 .086-.005l.25-.049a.648.648 0 0 0 .396-.235l.075-.09a.522.522 0 0 0 .12-.376.522.522 0 0 0-.168-.356l-.086-.08a.648.648 0 0 0-.422-.187l-.256-.016a.68.68 0 0 0-.053 0l-.38.01h-.026l-.561.033h-.016l-.785.064-.989.075h-.021l-1.084.112-1.069.107-1.004.074-.95.048h-.017l-.945.07h-.021l-.898.09h-.005l-.79.086-.599.064-.4.032a.697.697 0 0 0-.08.01l-.262.049a.507.507 0 0 0-.016.005l-.176.038h-.006l-.139.032a.544.544 0 0 0-.203.096l-.058.043a.466.466 0 0 0-.196.337.466.466 0 0 0 .116.373Zm12.088-.94.037.005c.136-.003.214-.073.232-.208.018-.134-.038-.222-.168-.262l-.037-.005c-.136.004-.213.073-.232.208-.018.135.038.222.168.262Z"/><path d="M18.224 16.293c0 .098.034.18.103.25a.34.34 0 0 0 .25.103.34.34 0 0 0 .248-.104.34.34 0 0 0 .104-.249.34.34 0 0 0-.103-.249.34.34 0 0 0-.25-.103.34.34 0 0 0-.249.103.34.34 0 0 0-.103.25Zm.545.347.01-.005a.395.395 0 0 0 .177-.203l.01-.021a.41.41 0 0 0 .027-.096l.005-.027a.398.398 0 0 0-.094-.337.398.398 0 0 0-.317-.146.398.398 0 0 0-.317.146.398.398 0 0 0-.094.337l.005.027a.412.412 0 0 0-.005-.097v.022a.405.405 0 0 0 0 .09l.005.011a.38.38 0 0 0 .215.304.379.379 0 0 0 .373-.005Zm-.599-.544-.016.048a.483.483 0 0 0-.01.037l-.032.166a.515.515 0 0 0-.006.021l-.053.326a.5.5 0 0 0-.006.032l-.042.475v.006l-.048.56v.006l-.038.577a.19.19 0 0 0 0 .01l-.032.556v.01l-.016.53v.01l-.01.534-.006.545v.01l.005.556v.01l.022.567v.005l.021.604.016.662.011.727.005.763v.006l.016.796.011.87v.027l.053.93v.01l.07.935.07.945.063.946.06.892a.4.4 0 0 0 .005.069l.144.742.117.615c.004.02.01.04.016.058l.16.438.033.337c.017.16.106.231.267.214.16-.018.231-.107.213-.268l-.032-.325.08-.454a.386.386 0 0 0 .006-.043l.042-.62.07-.747a.578.578 0 0 0 .005-.07l-.026-.892a.502.502 0 0 0-.006-.016l-.053-.945v-.006l-.059-.95v-.006l-.07-.934-.064-.925v-.015l-.074-.86-.038-.786-.037-.753-.01-.726-.017-.668-.01-.603v-.011l-.011-.56-.005-.546.005-.54v-.528l.016-.523.021-.545.038-.572.037-.555v-.006l.032-.475v-.358a.479.479 0 0 0-.005-.075l-.022-.165a.458.458 0 0 0-.053-.15l-.021-.043a.405.405 0 0 0-.428-.224.405.405 0 0 0-.374.305Zm5.731-.15c0 .207.104.31.31.31.207 0 .31-.104.31-.31 0-.207-.103-.31-.31-.31-.206 0-.31.104-.31.31Zm.641.17.022-.031a.393.393 0 0 0 .026-.07l.017-.058a.4.4 0 0 0 .015-.06l.006-.037-.006.011.011-.016a.49.49 0 0 0 .064-.155l.011-.048a.476.476 0 0 0-.117-.44.477.477 0 0 0-.424-.165.476.476 0 0 0-.384.247.476.476 0 0 0-.026.454l.022.043c.017.043.04.082.07.118l.042.048a.431.431 0 0 0-.091-.193l.01.065.011.064.006.053a.375.375 0 0 0 .01.048l.011.038c.04.167.147.261.318.282a.344.344 0 0 0 .376-.197Zm-.785-.886-.07.102a.57.57 0 0 0-.095.203l-.064.272a.604.604 0 0 0-.006.053l-.064.433a.743.743 0 0 0-.005.022l-.059.555v.01l-.059.668v.006l-.064.796v.005l-.07.924-.063.977-.123.983-.14 1.031a.766.766 0 0 0-.004.043l-.08 1.057v.011l-.075 1.063v.01l-.054 1.037v.016l-.026.983v.005l-.016.93v.005l-.011.94-.016.956-.016.961-.01.946v.016l.015.897c0 .022.003.043.005.064l.091.812v.022l.102.689v.02l.101.53c.007.04.02.08.038.117l.235.476.01.064c.037.123.12.18.248.168.128-.012.199-.083.212-.211l-.006-.064.14-.513a.454.454 0 0 0 .015-.096l.027-.54.048-.672.085-.802a.783.783 0 0 0 .006-.037l.043-.897.005-.011.032-.94.037-.956v-.011l.027-.956v-.005l.021-.94v-.006l.017-.924.026-.972.054-1.02.064-1.058.07-1.063V21.33l.015-.988.07-.978v-.005l.058-.919.064-.79v-.005l.048-.657.06-.54.053-.427v-.01l.032-.279a.565.565 0 0 0 0-.08v-.123a.495.495 0 0 0-.382-.5.494.494 0 0 0-.596.201Z"/><path d="M18.234 19.033c0 .108.038.2.115.276a.376.376 0 0 0 .275.114c.108 0 .2-.038.276-.114a.376.376 0 0 0 .114-.276c0-.107-.038-.2-.114-.275a.376.376 0 0 0-.276-.114c-.107 0-.2.038-.275.114a.376.376 0 0 0-.115.275Zm-.016 0c0 .112.04.208.12.287.078.08.174.12.286.12a.39.39 0 0 0 .287-.12.39.39 0 0 0 .12-.287.39.39 0 0 0-.12-.287.39.39 0 0 0-.287-.119.391.391 0 0 0-.287.12.391.391 0 0 0-.119.286Zm.048-.24-.048.064a.478.478 0 0 0-.07.166l-.052.224a.53.53 0 0 0-.011.048l-.059.438a.19.19 0 0 0 0 .01l-.085.732v.022l-.08 1.004v.016l-.065 1.207v.021l-.026 1.33v.011l-.011 1.367v.022l.032 1.357.032 1.303.032 2.318.016.967.016.838v.006l.022.726v.005l.026.63a.19.19 0 0 0 0 .011l.048.924c.008.16.07.296.187.406l.15.14a.39.39 0 0 0 .302.107.39.39 0 0 0 .285-.145l.134-.15a.579.579 0 0 0 .139-.406l-.022-.924v-.005l-.02-.625-.022-.726-.016-.828-.006-.967-.021-2.318V26.82l.021-1.351.022-1.368.026-1.33v-.005l.011-1.213V20.53l-.021-.737v-.006l-.016-.443a.467.467 0 0 0-.006-.027l-.016-.224a.476.476 0 0 0-.058-.187l-.038-.064a.426.426 0 0 0-.352-.227.426.426 0 0 0-.38.179Zm.145 16.2.01.08c.018.136.095.194.23.176.135-.017.194-.094.176-.23l-.01-.08c-.018-.135-.095-.193-.23-.176-.135.018-.194.095-.176.23Z"/><path d="M17.914 35.095c0 .099.035.183.105.253.07.07.154.105.253.105a.345.345 0 0 0 .253-.105.345.345 0 0 0 .105-.253.345.345 0 0 0-.105-.253.345.345 0 0 0-.253-.105.345.345 0 0 0-.253.105.345.345 0 0 0-.105.253Zm-.032-.006a.37.37 0 0 0 .113.272.37.37 0 0 0 .271.113.37.37 0 0 0 .273-.113.37.37 0 0 0 .112-.272.37.37 0 0 0-.113-.272.37.37 0 0 0-.271-.112.37.37 0 0 0-.272.112.37.37 0 0 0-.113.272Zm-.037-.01c0 .115.04.213.122.294.08.082.18.122.294.122a.4.4 0 0 0 .295-.122.402.402 0 0 0 .122-.294.402.402 0 0 0-.122-.295.402.402 0 0 0-.295-.122.401.401 0 0 0-.294.122.401.401 0 0 0-.122.295Zm.037-.235-.016.021a.527.527 0 0 0-.07.384l.049.246a.628.628 0 0 0 .02.086l.167.486a.668.668 0 0 0 .01.037l.3.743.005.01.39.93a.682.682 0 0 0 .02.042l.482.956a.65.65 0 0 0 .032.065l.534.822a.562.562 0 0 0 .043.064l.507.588a.4.4 0 0 0 .043.043l.384.325.187.262c.09.096.187.106.294.03.106-.075.13-.17.07-.286l-.177-.251-.123-.476a.552.552 0 0 0-.005-.021l-.23-.743a.522.522 0 0 0-.01-.032l-.348-.913v-.005l-.379-1.005a.998.998 0 0 0-.005-.016l-.38-.929a.724.724 0 0 0-.015-.027l-.332-.726a.703.703 0 0 0-.048-.09l-.277-.433a.632.632 0 0 0-.123-.14l-.192-.16a.51.51 0 0 0-.55-.09l-.033.01a.447.447 0 0 0-.224.193Z"/><path d="m18.614 35.8-.016.058a.36.36 0 0 0-.011.049l-.021.197a.447.447 0 0 0 0 .07l.016.406a.538.538 0 0 0 .016.101l.15.598a.598.598 0 0 0 .02.07l.278.72.011.033.337.753v.01l.336.722.283.603a.267.267 0 0 0 .005.006l.225.47a.53.53 0 0 0 .01.02l.171.321a.575.575 0 0 0 .06.091l.133.166a.557.557 0 0 0 .299.197l.107.027a.53.53 0 0 0 .475-.085l.096-.075a.547.547 0 0 0 .123-.123l.107-.15a.537.537 0 0 0 .042-.074l.129-.251a.512.512 0 0 0 .01-.027l.171-.395a.563.563 0 0 0 .016-.032l.22-.62a.759.759 0 0 0 .005-.016l.25-.796a.502.502 0 0 0 .006-.016l.246-.87a.567.567 0 0 0 .01-.043l.171-.855a.526.526 0 0 0 .006-.037l.09-.737.134-.614v-.006l.102-.497.074-.352v-.01l.043-.204v-.016l.01-.075c.033-.23-.062-.379-.285-.445-.223-.067-.384.005-.483.216l-.022.048a.512.512 0 0 0-.01.026l-.06.155a.437.437 0 0 0-.01.027l-.09.304a.41.41 0 0 0-.006.027l-.117.492-.006.005-.15.684a.407.407 0 0 0-.01.08l-.027.758-.176.668c-.013.13.043.211.169.245s.215-.009.269-.128l.181-.667.369-.663a.414.414 0 0 0 .032-.09l.192-.673v-.016l.118-.492a.414.414 0 0 0 .005-.021l.059-.31.027-.117.005-.011c.034-.235-.063-.384-.291-.449-.229-.065-.39.012-.483.23l-.011.07-.032.192-.075.352-.101.492-.14.598-.261.689a.19.19 0 0 0 0 .01l-.288.818a.6.6 0 0 0-.011.032l-.251.86-.246.785-.203.603-.15.364-.09.197-.016.022-.016.005a.52.52 0 0 0 .566-.016l-.102-.054a.562.562 0 0 0 .214.203l-.09-.154-.14-.3-.005-.01-.219-.47-.283-.599-.326-.71-.32-.748-.283-.715a.636.636 0 0 0-.016-.032l-.268-.556a.494.494 0 0 0-.02-.037l-.204-.353a.445.445 0 0 0-.01-.016l-.091-.144-.011-.027a.313.313 0 0 0-.342-.206.314.314 0 0 0-.304.26Zm-3.6-.337c0 .214.107.32.32.32.214 0 .32-.106.32-.32 0-.214-.106-.32-.32-.32-.213 0-.32.106-.32.32Zm-.011.005c0 .092.032.17.097.234a.32.32 0 0 0 .234.097.32.32 0 0 0 .234-.096.32.32 0 0 0 .097-.235.32.32 0 0 0-.097-.234.32.32 0 0 0-.234-.096.32.32 0 0 0-.234.096.32.32 0 0 0-.097.234Zm.144-.293-.027.016a.386.386 0 0 0 .236-.054h-.022a.376.376 0 0 0 .326.23l-.01-.021-.027-.091a.422.422 0 0 0-.011-.022l-.086-.208a.464.464 0 0 0-.01-.032l-.182-.368-.299-.636-.395-.956-.497-1.18-.497-1.224-.46-1.116-.384-.924a.19.19 0 0 0 0-.01l-.315-.716v-.006l-.23-.507-.138-.353a.436.436 0 0 0-.011-.026l-.101-.225a.483.483 0 0 0-.038-.07l-.08-.111a.468.468 0 0 0-.16-.15l-.059-.032a.461.461 0 0 0-.326-.048l-.021.005h-.027a.47.47 0 0 0 .16.016l-.048-.016-.048-.01a.47.47 0 0 0-.352.042l-.054.027a.485.485 0 0 0-.155.128l-.048.07-.074.085-.107.112a.541.541 0 0 0-.032.038l-.145.181a.579.579 0 0 0-.037.048l-.17.278-.006.005-.203.337H9.97l-.203.342-.176.272-.144.203-.107.128-.107.112-.096.091-.09.07a.441.441 0 0 0-.011.005l-.08.059-.048.037a.592.592 0 0 0 .208-.096l-.022.005c.039.164.13.29.273.378a.581.581 0 0 0 .46.071l-.011-.032-.011-.166a.64.64 0 0 0-.005-.042l-.065-.412-.106-.689v-.005l-.166-1.036-.208-1.464-.251-1.858-.278-2.11a.205.205 0 0 0-.005-.006l-.316-2.216v-.016l-.384-2.26-.326-1.965-.112-1.501c-.015-.167-.105-.244-.272-.23-.168.015-.244.105-.23.273l.112 1.5.032 1.993v.016l.118 2.291a.53.53 0 0 0 0 .038l.261 2.222.246 2.115.192 1.864v.016l.193 1.469.128 1.047a.41.41 0 0 0 .005.01l.096.69a.663.663 0 0 0 .006.026l.074.406a.633.633 0 0 0 .022.085l.064.203a.613.613 0 0 0 .048.107l.037.064c.092.162.23.26.412.294a.577.577 0 0 0 .49-.123l.022-.016a.593.593 0 0 0 .011-.01l.053-.043a.557.557 0 0 0 .022-.021l.075-.075a.57.57 0 0 0 .026-.027l.091-.096.112-.112a.544.544 0 0 0 .022-.016l.122-.134a.545.545 0 0 0 .027-.032l.139-.165a.569.569 0 0 0 .032-.038l.16-.23a.619.619 0 0 0 .011-.026l.187-.294a.523.523 0 0 0 .005-.01l.209-.348.202-.336.166-.278.118-.198a.525.525 0 0 0 .026-.043l.07-.15a.597.597 0 0 0 .027-.063l.026-.075.016-.021a.487.487 0 0 0-.139.139l.054-.038a.477.477 0 0 0-.251.086h.01c.04.005.079.005.118 0l.053-.006a.475.475 0 0 0 .064-.005l.049-.016a.46.46 0 0 0-.337-.043l.059.032a.468.468 0 0 0-.171-.155l.053.08.075.177.128.342.166.534.005.01.251.738a.619.619 0 0 0 .01.026l.38.93.46 1.116.005.005.512 1.218.006.01.518 1.17.021.032.492.925.33.63.193.363.016.027.118.192a.424.424 0 0 0 .01.021l.07.097a.415.415 0 0 0 .107.106l.042.027a.37.37 0 0 0 .444.005l.021-.01c.2-.134.244-.306.128-.518l-.01-.022a.355.355 0 0 0-.223-.182.354.354 0 0 0-.285.033Z"/><path d="M6.932 14.328a.36.36 0 0 0 .11.264.36.36 0 0 0 .264.11.36.36 0 0 0 .264-.11.36.36 0 0 0 .11-.264.36.36 0 0 0-.11-.265.36.36 0 0 0-.264-.11.36.36 0 0 0-.264.11.36.36 0 0 0-.11.265Zm-.01-.006a.37.37 0 0 0 .112.272.37.37 0 0 0 .272.113.37.37 0 0 0 .272-.113.37.37 0 0 0 .113-.272.37.37 0 0 0-.113-.272.37.37 0 0 0-.272-.112.37.37 0 0 0-.272.112.37.37 0 0 0-.113.272Zm-.017-.01c0 .112.04.207.12.287a.389.389 0 0 0 .286.118c.112 0 .208-.04.287-.118a.391.391 0 0 0 .12-.287.391.391 0 0 0-.12-.287.391.391 0 0 0-.287-.12.391.391 0 0 0-.287.12.391.391 0 0 0-.119.287Zm-.02-.006c0 .117.04.216.123.299a.407.407 0 0 0 .298.123.407.407 0 0 0 .298-.123.407.407 0 0 0 .124-.299.406.406 0 0 0-.124-.298.407.407 0 0 0-.298-.124.407.407 0 0 0-.298.124.406.406 0 0 0-.124.298Zm.09-.31-.075.07a.484.484 0 0 0-.123.197l-.117.353a.554.554 0 0 0-.027.123l-.08.838a.577.577 0 0 0-.005.033l-.07 1.361v.017l-.027 1.837v.01l.016 2.142-.01 2.25.01 2.168.006.01.048 1.95a.42.42 0 0 0 .005.027l.14 1.602a.373.373 0 0 0 .004.037l.214 1.149.08.753c.04.131.127.19.263.174.136-.015.209-.09.218-.227l-.075-.748.038-1.16v-.015l-.022-1.608v-.005l-.043-1.945-.01-2.163.032-2.232.123-2.132.123-1.826v-.006l.08-1.356.053-.844a.554.554 0 0 0 0-.06l-.01-.368-.006-.106a.411.411 0 0 0-.28-.395.411.411 0 0 0-.473.095Zm.091 17.488-.011.048a.378.378 0 0 0 0 .107l.005.085.011.091.005.08.011.107.01.16.017.193v.23a.394.394 0 0 0 .005.026l.022.283a.423.423 0 0 0 .005.021l.043.294v.027l.058.272a.45.45 0 0 0 .006.027l.064.224a.434.434 0 0 0 .005.022l.048.144a.45.45 0 0 0 .016.037l.032.07a.457.457 0 0 0 .251.245l.048.022c.104.04.21.044.316.01l.058-.016a.464.464 0 0 0 .14-.069l.063-.048a.46.46 0 0 0 .054-.048l.122-.118a.473.473 0 0 0 .033-.037l.165-.208a.467.467 0 0 0 .038-.054l.192-.32a.403.403 0 0 0 .032-.059l.15-.385.272-.304c.08-.115.067-.22-.036-.314-.104-.095-.21-.097-.317-.007l-.277.305-.364.198a.408.408 0 0 0-.08.058L8 33.134a.449.449 0 0 0-.037.038l-.165.187-.075.075-.027.02a.467.467 0 0 0 .15-.063l-.06.01c.075.02.15.022.225.006l-.048-.016a.465.465 0 0 0 .182.096l-.06-.048a.444.444 0 0 0 .113.133l-.053-.096-.048-.165-.06-.262-.063-.283-.059-.273-.043-.208-.016-.176-.01-.16v-.011l-.011-.112a.37.37 0 0 0-.005-.027l-.011-.075-.01-.064v-.07a.57.57 0 0 0-.006-.058l-.01-.048c-.036-.204-.157-.306-.364-.306s-.328.102-.363.306Zm3.594-1.239c0 .203.102.304.305.304s.304-.101.304-.304c0-.203-.101-.305-.304-.305-.203 0-.304.102-.304.305Zm-.02-.112-.011.032a.362.362 0 0 0-.017.197l.027.144.016.038.102.304a.394.394 0 0 0 .005.022l.203.491a.315.315 0 0 0 .005.021l.337.71a.414.414 0 0 0 .053.08l.652.813c.006.01.014.018.021.026l.716.716.54.636c.097.098.198.103.304.014.105-.09.118-.19.037-.303l-.534-.635-.534-.844-.529-.887v-.005l-.395-.646-.176-.454-.096-.294-.048-.134a.368.368 0 0 0-.054-.107l-.016-.026a.324.324 0 0 0-.332-.14.324.324 0 0 0-.277.23Z"/><path d="M8.412 33.818c0 .097.034.18.103.25a.34.34 0 0 0 .25.103.34.34 0 0 0 .249-.104.34.34 0 0 0 .103-.249.34.34 0 0 0-.103-.25.34.34 0 0 0-.25-.102.34.34 0 0 0-.249.103.34.34 0 0 0-.103.25Zm.448.369.075-.016a.433.433 0 0 0 .283-.193l.15-.24a.462.462 0 0 0 .016-.021l.56-1.005.38-.657a.464.464 0 0 0 .037-.08l.251-.72.273-.583.278-.411c.058-.107.035-.194-.067-.26-.103-.067-.19-.051-.265.046l-.272.411-.427.497-.534.55a.456.456 0 0 0-.06.086l-.394.651a.517.517 0 0 0-.011.016l-.55 1.015-.14.24a.439.439 0 0 0-.053.262l.006.075a.369.369 0 0 0 .157.272.369.369 0 0 0 .307.065Z"/></g><defs><clipPath id="a"><path fill="#fff" d="M0 0h38v42H0z"/></clipPath></defs></svg>