<svg width="42" height="28" fill="none" xmlns="http://www.w3.org/2000/svg"><g clip-path="url(#a)" fill="#000"><path d="m21.275 3.262-.087.45v.019l-.07.412a.26.26 0 0 0 0 .013l-.08.631v.038l-.063.887v.013l-.1 2.444v.006l-.056 1.45v.013l-.025 1.476v1.443l.006 1.345.006 1.262.006 1.182-.006 1.106-.031 1.038v.006l-.025.982-.019.925-.037 1.613v.012l-.006.675-.007.563v.506c0 .03.003.059.006.088l.05.4.032.337v.013l.037.294c.016.14.07.263.163.368l.162.182.006.018c.08.181.218.259.413.233.196-.026.308-.137.338-.333l.012-.093a.405.405 0 0 0-.081.2l.188-.257a.652.652 0 0 0 .13-.406l-.006-.281.007-.313.037-.387a.727.727 0 0 0 .006-.063v-.487l.007-.563.018-.663v-.006l.038-1.613v-.006l.019-.925v-.006l.012-.982.007-1.05v-.006l-.007-1.12v-.012l-.018-1.187v-.007l-.032-1.256-.019-1.338v-1.419l.02-1.47V5.738l-.02-.887a.675.675 0 0 0-.006-.038l-.056-.631v-.038l-.069-.412v-.019l-.087-.45c-.037-.197-.156-.296-.357-.296-.2 0-.319.099-.356.296Zm.425 22.217.019-.025c.091-.125.075-.234-.05-.325-.125-.092-.233-.075-.325.05l-.019.025c-.091.125-.075.233.05.324.125.092.233.075.325-.05ZM7.978 4.425l.007-.013a.372.372 0 0 0-.035-.371.372.372 0 0 0-.328-.177.372.372 0 0 0-.328.177.372.372 0 0 0-.034.371l.006.013a.359.359 0 0 0 .356.235c.17 0 .29-.079.356-.235Zm-.725-.357-.018.038-.063.1-.169.212a.604.604 0 0 0-.075.132l-.206.475a.678.678 0 0 0-.031.075l-.225.719a.692.692 0 0 0-.007.025l-.25.906v.019l-.256 1.037v.007L5.69 8.919l-.268 1.15a.56.56 0 0 0-.007.013l-.243 1.15a.8.8 0 0 0-.007.025l-.218 1.132v.025l-.182 1.119-.168 1.043-.15.944-.17.882-.174.825-.175.769-.175.7v.006l-.15.644a.823.823 0 0 0-.007.038l-.112.593a.825.825 0 0 0-.006.032l-.082.537v.013l-.062.462a.883.883 0 0 0-.006.032l-.038.381-.037.306-.032.25-.037.207-.032.181v.019l-.018.137a.78.78 0 0 0 .306.782l.031.018a.72.72 0 0 0 .832.075l.037-.012a.8.8 0 0 0 .407-.494l.043-.137a.84.84 0 0 0 .025-.1l.032-.182v-.006l.037-.225v-.012l.038-.27a.825.825 0 0 0 .006-.03l.037-.313.044-.388.063-.45.075-.512.106-.563.15-.625.162-.706.007-.007.175-.781a.91.91 0 0 0 .006-.019l.175-.844v-.019l.169-.9v-.025l.15-.956.156-1.038.181-1.113.194-1.131.213-1.15.231-1.144.225-1.12.206-1.043.2-.907a.633.633 0 0 0 .007-.012l.143-.744a.678.678 0 0 0 .013-.037l.069-.513c.008-.05.01-.1.006-.15l-.031-.294v-.006l-.02-.156-.012-.07c-.025-.2-.138-.317-.337-.353-.198-.035-.345.037-.438.216ZM3.396 22.722c0 .157.056.291.167.402a.548.548 0 0 0 .402.167.548.548 0 0 0 .402-.167.548.548 0 0 0 .167-.402.548.548 0 0 0-.167-.402.548.548 0 0 0-.402-.167.548.548 0 0 0-.402.167.548.548 0 0 0-.167.402Zm.22-.082c0 .114.04.212.12.292a.4.4 0 0 0 .292.121c.114 0 .21-.04.291-.12a.398.398 0 0 0 .121-.293.398.398 0 0 0-.12-.291.397.397 0 0 0-.292-.121.397.397 0 0 0-.292.12.398.398 0 0 0-.12.293Zm.712.032.068-.113c.096-.154.067-.279-.087-.375-.154-.096-.28-.067-.375.088l-.069.112c-.096.154-.067.28.088.375.154.096.279.067.375-.087Z"/><path d="m7.853 4.312.007-.031.006-.006.006-.025a.38.38 0 0 0-.269.25l.032-.013a.397.397 0 0 0-.375-.075l.03.025a.442.442 0 0 0-.068-.069l.05.057a.49.49 0 0 0 .119.106l.137.087a.53.53 0 0 0 .057.032l.23.106c.025.012.05.022.076.031l.319.1a.595.595 0 0 0 .037.006l.4.1A.61.61 0 0 0 8.685 5l.475.08a.618.618 0 0 0 .056.007l.538.044h.687l.613-.069a.612.612 0 0 0 .05-.006l.631-.119a.61.61 0 0 0 .063-.019l.631-.18a.634.634 0 0 0 .038-.013l.6-.22a.624.624 0 0 0 .05-.018l.537-.256a.62.62 0 0 0 .026-.013l.493-.256a.618.618 0 0 0 .038-.019l.444-.269a.594.594 0 0 0 .025-.012l.406-.269.006-.006.388-.263.406-.262.413-.269.412-.219.425-.156.444-.119.42-.056.412.006.406.088.419.168.437.25a.61.61 0 0 0 .125.057l.425.131.294.144.163.219c.1.133.216.15.35.05.133-.1.15-.217.05-.35l-.175-.238-.125-.356a.432.432 0 0 0-.019-.044l-.2-.431a.622.622 0 0 0-.206-.25l-.45-.313a.662.662 0 0 0-.138-.075l-.512-.206a.654.654 0 0 0-.12-.032l-.524-.1a.648.648 0 0 0-.125-.012h-.525a.642.642 0 0 0-.1.006l-.507.075a.642.642 0 0 0-.087.019l-.507.15a.638.638 0 0 0-.1.044l-.469.231a.594.594 0 0 0-.024.012l-.47.263a.662.662 0 0 0-.024.013l-.438.268a.52.52 0 0 0-.012.007l-.413.268a.924.924 0 0 0-.006.007l-.394.256-.394.262-.425.25-.463.244-.506.232-.563.2-.587.18-.575.113-.55.057h-.52l-.493-.044-.45-.063-.4-.062-.319-.063a.579.579 0 0 0-.05-.006l-.244-.025-.156-.025a.488.488 0 0 0-.219.025l-.075.025a.44.44 0 0 0-.131.069l-.031.025a.41.41 0 0 0-.138.212l-.012.032a.4.4 0 0 0-.013.087v.032a.393.393 0 0 0 .006-.05l-.006.024a.39.39 0 0 0 .013.176l.006.037c.05.19.173.285.369.285s.319-.095.368-.285Zm13.634-.762c0 .2.1.3.3.3.2 0 .3-.1.3-.3 0-.2-.1-.3-.3-.3-.2 0-.3.1-.3.3Zm-.05 0c0 .096.034.179.103.247.068.068.15.102.247.102s.18-.034.248-.102a.337.337 0 0 0 .102-.248.337.337 0 0 0-.102-.247.337.337 0 0 0-.248-.103.337.337 0 0 0-.247.103.337.337 0 0 0-.103.247Zm.463-.35h-.006a.364.364 0 0 0-.326.042.364.364 0 0 0-.172.28.363.363 0 0 0 .11.31.364.364 0 0 0 .309.109.364.364 0 0 0 .28-.172.363.363 0 0 0 .042-.326v-.006a.356.356 0 0 0-.237-.238Zm.062.706.019-.007a.413.413 0 0 0 .15-.143l.006-.019.025-.031.113-.088.175-.15a.506.506 0 0 0 .037-.031l.182-.181.206-.175.231-.17.288-.15.312-.118.344-.088.381-.037.4-.025.426.031.418.056.432.132.481.212.531.307.576.393.625.432a.853.853 0 0 0 .018.019l.65.418a.85.85 0 0 0 .05.032l.695.387c.02.011.04.022.062.031l.738.332a.83.83 0 0 0 .118.044l.8.218a.835.835 0 0 0 .194.025l.844.032c.079 0 .156-.01.232-.032l.856-.225a.66.66 0 0 0 .263-.137l.562-.475.657-.2c.143-.06.191-.164.146-.312-.046-.148-.145-.207-.297-.176l-.637.194-.694-.181a.667.667 0 0 0-.137-.02l-.863-.043-.744-.081-.669-.194-.656-.281-.632-.357-.631-.4-.632-.412a.64.64 0 0 0-.006 0l-.612-.4a.814.814 0 0 0-.07-.038l-.605-.319a.785.785 0 0 0-.063-.031l-.569-.238a.796.796 0 0 0-.106-.037l-.544-.138a.78.78 0 0 0-.15-.025l-.519-.025a.756.756 0 0 0-.144.007l-.487.068a.706.706 0 0 0-.088.02l-.45.124a.674.674 0 0 0-.044.013l-.412.15a.593.593 0 0 0-.025.006l-.4.163a.559.559 0 0 0-.031.012l-.37.175a.548.548 0 0 0-.043.025l-.331.194a.547.547 0 0 0-.07.044l-.268.212a.54.54 0 0 0-.056.056l-.219.225a.514.514 0 0 0-.031.038l-.175.225a.51.51 0 0 0-.044.063l-.113.206v.006l-.08.144-.05.087a.418.418 0 0 0-.032.057l-.019.056a.398.398 0 0 0 .038.375l.012.012c.135.205.31.249.525.132Z"/><path d="M32.733 4.793c0 .107.038.199.114.274a.373.373 0 0 0 .274.114.374.374 0 0 0 .274-.114.374.374 0 0 0 .113-.274.374.374 0 0 0-.113-.274.374.374 0 0 0-.274-.113.373.373 0 0 0-.274.113.373.373 0 0 0-.114.274Zm-.012 0c0 .11.039.205.117.283a.385.385 0 0 0 .283.117c.11 0 .204-.039.282-.117a.386.386 0 0 0 .118-.283c0-.11-.04-.204-.117-.282a.385.385 0 0 0-.283-.118c-.11 0-.205.04-.283.118a.386.386 0 0 0-.117.282Zm-.05 0c0 .123.043.228.13.314.086.087.19.13.313.13a.428.428 0 0 0 .314-.13.428.428 0 0 0 .13-.314.428.428 0 0 0-.13-.313.428.428 0 0 0-.314-.13.428.428 0 0 0-.313.13.428.428 0 0 0-.13.313Zm-.1.007c0 .15.053.278.159.384.106.106.234.16.384.16s.279-.054.385-.16a.524.524 0 0 0 .16-.384.524.524 0 0 0-.16-.385.524.524 0 0 0-.385-.16.524.524 0 0 0-.384.16.524.524 0 0 0-.16.385Zm.237.55.094.056a.669.669 0 0 0 .362.1h.232a.687.687 0 0 0 .106-.006l.381-.063a.694.694 0 0 0 .12-.025l.524-.181a.649.649 0 0 0 .138-.069l.506-.325.375-.156a.483.483 0 0 0 .27-.273.483.483 0 0 0-.001-.384.483.483 0 0 0-.273-.27.483.483 0 0 0-.384.002l-.343.143-.57.063a.654.654 0 0 0-.055.006l-.538.107-.331.056-.194.012a.678.678 0 0 0-.194.038l-.106.037a.587.587 0 0 0-.415.529.587.587 0 0 0 .296.603ZM3.996 20.678c0 .093.033.172.099.238a.325.325 0 0 0 .239.1.325.325 0 0 0 .238-.1.325.325 0 0 0 .1-.238.325.325 0 0 0-.1-.24.325.325 0 0 0-.238-.098.325.325 0 0 0-.239.099.325.325 0 0 0-.099.239Zm.031-.244-.018.025-.075.087a.479.479 0 0 0-.075.12l-.113.255a.537.537 0 0 0-.025.063l-.137.45v.025l-.157.581a.56.56 0 0 0-.006.044l-.112.619a.524.524 0 0 0-.007.088l-.012.543c0 .023.002.046.006.07l.056.355-.043.238c-.03.175.043.277.218.306.175.03.277-.044.307-.219l.037-.23.181-.3a.4.4 0 0 0 .025-.038l.225-.5a.522.522 0 0 0 .025-.063l.188-.6a.544.544 0 0 0 .013-.031l.143-.588a.563.563 0 0 0 .007-.025l.093-.463a.542.542 0 0 0 .013-.118l-.006-.282a.48.48 0 0 0-.02-.112l-.03-.119a.417.417 0 0 0-.013-.044l-.019-.037a.387.387 0 0 0-.306-.24.387.387 0 0 0-.363.14Z"/><path d="M3.321 23.19a.38.38 0 0 0 .115.28.38.38 0 0 0 .279.114.38.38 0 0 0 .278-.115.38.38 0 0 0 .116-.278.38.38 0 0 0-.116-.279.38.38 0 0 0-.278-.115.38.38 0 0 0-.279.115.38.38 0 0 0-.115.279Zm.038.207.006.006a.408.408 0 0 0 .345.213.408.408 0 0 0 .369-.168.408.408 0 0 0 .067-.4.408.408 0 0 0-.293-.278.408.408 0 0 0-.396.087.408.408 0 0 0-.148.377.408.408 0 0 0 .05.163Zm-.063-.219c0 .131.046.243.14.336.092.093.204.14.335.14a.458.458 0 0 0 .336-.14.458.458 0 0 0 .14-.336.458.458 0 0 0-.14-.336.458.458 0 0 0-.336-.139.458.458 0 0 0-.336.14.458.458 0 0 0-.139.335Zm.138.363.056.056.025.031.094.081a.624.624 0 0 0 .087.07l.163.105a.658.658 0 0 0 .087.05l.225.1a.697.697 0 0 0 .044.02l.269.1h.006l.3.112.344.131a.625.625 0 0 0 .019.006l.381.132a.7.7 0 0 0 .044.018l.431.12a.67.67 0 0 0 .031.005l.463.107a.707.707 0 0 0 .081.018l.507.057a.705.705 0 0 0 .112 0l.544-.025a.716.716 0 0 0 .106-.013l.588-.106a.719.719 0 0 0 .087-.025l.62-.2a.707.707 0 0 0 .037-.013l.65-.25a.26.26 0 0 0 .012 0l.626-.256h.006l.587-.238a.592.592 0 0 0 .02-.006l.537-.237a.537.537 0 0 0 .025-.007l.494-.237.487-.213.463-.2.444-.168.456-.132.525-.125.588-.093.625.012.637.119.6.25.6.356.6.413c.02.013.042.026.063.037l.588.313.419.294.23.312c.105.138.226.154.364.05.137-.104.154-.225.05-.362l-.244-.325-.244-.488-.306-.625a.626.626 0 0 0-.12-.169l-.53-.531a.694.694 0 0 0-.12-.094l-.65-.419a.704.704 0 0 0-.112-.056l-.719-.294a.707.707 0 0 0-.15-.044l-.762-.125a.706.706 0 0 0-.12-.012h-.75a.697.697 0 0 0-.1.006l-.675.1a.7.7 0 0 0-.062.013l-.569.137a.537.537 0 0 0-.025.006l-.5.138a.7.7 0 0 0-.056.018l-.482.182a.716.716 0 0 0-.037.012l-.475.207-.507.218-.506.22-.537.224-.576.238-.625.244-.625.23-.569.182-.5.094-.431.019-.413-.044-.406-.094-.394-.106-.356-.119-.344-.125a1.05 1.05 0 0 0-.025-.006l-.306-.1a.58.58 0 0 0-.013-.006l-.275-.088a.716.716 0 0 0-.075-.019l-.244-.043a.68.68 0 0 0-.037-.007l-.194-.025a.628.628 0 0 0-.075-.006h-.125a.572.572 0 0 0-.156.019l-.075.019a.523.523 0 0 0-.373.366.523.523 0 0 0 .123.509Z"/><path d="m18.693 22.897-.006.019a.397.397 0 0 0 .012-.044l-.025.069a.446.446 0 0 0-.025.118l-.012.2a.54.54 0 0 0 .068.3l.182.338a.568.568 0 0 0 .106.138l.363.343a.52.52 0 0 0 .118.088l.494.262a.41.41 0 0 0 .069.025l.475.144.35.2c.15.083.267.05.35-.1.083-.15.05-.267-.1-.35l-.337-.187-.307-.357-.331-.419-.288-.387-.206-.313a.548.548 0 0 0-.1-.106l-.156-.131a.448.448 0 0 0-.056-.044l-.063-.031a.373.373 0 0 0 .181.244l-.006-.02c-.05-.193-.175-.29-.375-.29s-.325.097-.375.29Z"/><path d="M21.462 25.085c0 .11.039.204.117.283a.386.386 0 0 0 .283.117.39.39 0 0 0 .283-.117.385.385 0 0 0 .117-.283.385.385 0 0 0-.117-.283.385.385 0 0 0-.283-.117.387.387 0 0 0-.283.117.385.385 0 0 0-.117.283Zm-.025-.007a.4.4 0 0 0 .123.297c.081.081.18.122.296.122.115 0 .214-.04.296-.122a.404.404 0 0 0 .123-.297.404.404 0 0 0-.123-.296.404.404 0 0 0-.296-.122.404.404 0 0 0-.296.122.404.404 0 0 0-.123.296Zm-.031-.012c0 .123.043.227.13.314.086.087.191.13.314.13a.428.428 0 0 0 .313-.13.428.428 0 0 0 .13-.314.428.428 0 0 0-.13-.314.428.428 0 0 0-.313-.13.428.428 0 0 0-.314.13.428.428 0 0 0-.13.314Zm-.05-.013c0 .133.047.247.14.34a.464.464 0 0 0 .341.142.464.464 0 0 0 .34-.141.464.464 0 0 0 .141-.34.464.464 0 0 0-.14-.34.464.464 0 0 0-.34-.142.464.464 0 0 0-.341.141.464.464 0 0 0-.141.34Zm.931.25.05-.062.106-.15.007-.006.156-.207.2-.218.281-.238.382-.256.5-.25.619-.232.737-.2.832-.168.85-.107.819-.03.737.05.675.137.657.225.663.325.712.381.031.019.75.362c.039.02.079.036.12.05l.793.263c.06.018.12.03.181.037l.876.12c.051.006.104.008.156.006l.925-.032a.99.99 0 0 0 .113-.012l.906-.132a.956.956 0 0 0 .231-.062l.788-.331a.78.78 0 0 0 .381-.326l.288-.474.531-.238c.132-.082.166-.194.104-.336-.061-.142-.167-.192-.316-.152l-.513.232-.494-.194a.794.794 0 0 0-.306-.05l-.856.019a.935.935 0 0 0-.07.006l-.88.087-.826.032-.706-.082-.644-.212-.681-.313-.713-.375a.937.937 0 0 0-.038-.019l-.744-.343a.935.935 0 0 0-.093-.038l-.77-.262a.935.935 0 0 0-.118-.032l-.8-.162a.95.95 0 0 0-.138-.019l-.85-.044a.942.942 0 0 0-.119 0l-.906.069a.907.907 0 0 0-.1.012l-.913.176a.97.97 0 0 0-.056.012l-.881.219a.861.861 0 0 0-.07.019l-.793.268a.833.833 0 0 0-.094.038l-.675.325a.814.814 0 0 0-.087.05l-.544.356a.768.768 0 0 0-.088.063l-.412.356a.75.75 0 0 0-.1.1l-.282.356a.714.714 0 0 0-.05.07l-.2.324a.69.69 0 0 0-.037.075l-.125.27a.633.633 0 0 0-.044.15l-.038.2a.58.58 0 0 0 .007.23l.025.094a.511.511 0 0 0 .432.404.51.51 0 0 0 .55-.223Z"/><path d="M34.915 4.643a.38.38 0 0 0 .115.279.38.38 0 0 0 .278.115.38.38 0 0 0 .279-.115.38.38 0 0 0 .115-.279.38.38 0 0 0-.115-.278.38.38 0 0 0-.279-.115.38.38 0 0 0-.278.115.38.38 0 0 0-.115.278Zm.787.02.007-.05v-.038l-.007-.057.007-.068a.398.398 0 0 0-.121-.292.398.398 0 0 0-.292-.121.397.397 0 0 0-.292.12.397.397 0 0 0-.12.293l.006.08v.038l.006.063.006.031c0 .11.04.205.117.283a.385.385 0 0 0 .283.117c.11 0 .205-.039.283-.117a.385.385 0 0 0 .117-.283Zm.05-.145.006-.018a.476.476 0 0 0 .01-.376.476.476 0 0 0-.259-.273.476.476 0 0 0-.375-.013.476.476 0 0 0-.276.255l-.03.057a.511.511 0 0 0-.076.243l-.006.182v.368l.019.526a.26.26 0 0 0 0 .012l.037.763v.018l.081 1.032v.012l.125 1.263.125 1.42.007.018.175 1.519a.59.59 0 0 0 0 .019l.218 1.525v.006l.213 1.476a.366.366 0 0 0 .006.012l.219 1.344.006.013.22 1.187v.006l.2 1.032v.012l.193.913.162.806v.007l.15.712.126.613.006.019.112.506v.006l.094.388a.592.592 0 0 0 .006.019l.07.275a.742.742 0 0 0 .018.056l.062.175a.728.728 0 0 0 .332.4l.087.05a.667.667 0 0 0 .614.034.667.667 0 0 0 .386-.478l.02-.1a.74.74 0 0 0-.013-.369l-.044-.156-.063-.256v-.006l-.094-.375-.106-.494-.125-.613v-.006l-.15-.707-.162-.812v-.006l-.194-.907-.2-1.025-.213-1.175-.212-1.332-.225-1.469-.219-1.519v-.006l-.225-1.507a.26.26 0 0 0 0-.012l-.238-1.4-.175-1.25-.13-1.026v-.006l-.113-.763v-.006l-.082-.519-.05-.312-.019-.17v-.018l-.006-.056a.456.456 0 0 0-.55-.025.456.456 0 0 0-.231.5l.012.006a.463.463 0 0 0 .434.065.463.463 0 0 0 .31-.309Zm1.92 18.066c0 .145.05.269.153.372a.506.506 0 0 0 .371.153.506.506 0 0 0 .372-.153.506.506 0 0 0 .154-.372.506.506 0 0 0-.154-.371.506.506 0 0 0-.371-.154.506.506 0 0 0-.372.154.506.506 0 0 0-.154.371Zm.15.044a.4.4 0 0 0 .12.292c.08.08.178.12.292.12a.4.4 0 0 0 .292-.12c.08-.08.12-.178.12-.292a.397.397 0 0 0-.12-.292.397.397 0 0 0-.292-.12.397.397 0 0 0-.292.12.398.398 0 0 0-.12.292Zm.53.263.02-.007c.17-.058.226-.173.168-.343-.058-.171-.173-.227-.343-.17l-.02.007c-.17.058-.226.173-.168.344.059.17.173.227.344.169ZM6.534 5.337c0 .217.109.325.325.325.217 0 .326-.108.326-.325 0-.216-.109-.325-.326-.325-.216 0-.325.109-.325.325Zm.657-.168-.006-.013a.37.37 0 0 0 .043.163v-.025a.353.353 0 0 0-.187.318L7.06 5.6a.37.37 0 0 0 .125-.119l.018-.025a.368.368 0 0 0 .057-.194v-.018.03-.012a.357.357 0 0 0-.11-.307.357.357 0 0 0-.31-.105h-.018a.373.373 0 0 0-.088.025L6.66 4.9l-.056.012-.125.019-.162.019-.194.019a.371.371 0 0 0-.019.006L5.922 5a.344.344 0 0 0-.294.244l-.025.075c.083-.02.14-.07.169-.15l-.107.025c-.154.037-.212.133-.175.287.038.154.134.213.288.175l.106-.025a.222.222 0 0 0-.231-.069l.05.057a.35.35 0 0 0 .319.118l.175-.018.194-.02.175-.018a.375.375 0 0 0 .037-.006l.144-.031h.012l.1-.025a.371.371 0 0 0 .02-.007l.093-.025a.371.371 0 0 0-.15.013h.019c-.02-.202-.13-.315-.332-.338v.013-.031.018a.372.372 0 0 0 .025-.137l-.012.025c.058-.044.1-.1.125-.169l-.019.013a.356.356 0 0 0-.15.3v.025c0 .062.015.12.044.175l.006.012c.124.18.284.221.48.122.195-.1.256-.253.183-.46Z"/><path d="M5.29 5.675c0 .097.034.18.103.247.068.069.15.103.247.103s.18-.034.248-.103a.337.337 0 0 0 .102-.247.337.337 0 0 0-.102-.248.337.337 0 0 0-.248-.102.337.337 0 0 0-.247.102.337.337 0 0 0-.103.248Zm.188-.331-.025.006a.373.373 0 0 0-.031.019l-.038.025a.38.38 0 0 0-.081.062l-.069.081a.393.393 0 0 0-.05.063l-.106.175a.43.43 0 0 0-.019.037l-.138.288a.46.46 0 0 0-.018.038l-.157.437a.486.486 0 0 0-.012.025l-.194.644a.496.496 0 0 0-.006.019l-.225.856v.006l-.256 1.057v.006l-.288 1.188-.306 1.263-.332 1.275-.33 1.256-.357 1.194-.375 1.175-.357 1.138a.56.56 0 0 0-.006.013l-.312 1.087a.455.455 0 0 0-.007.02l-.243 1.006a.56.56 0 0 0-.007.012l-.175.882a.25.25 0 0 0-.006.006l-.144.762a.386.386 0 0 0-.006.088l.031.55-.05.375c.003.149.078.233.225.255.147.021.243-.038.288-.18l.056-.369.194-.506a.389.389 0 0 0 .019-.063l.168-.737.238-.85.319-.976v-.006l.331-1.081.356-1.138.375-1.175a.64.64 0 0 0 0-.006l.37-1.207a.64.64 0 0 0 0-.006l.35-1.263a.26.26 0 0 0 .006-.006l.33-1.282a.33.33 0 0 0 0-.006l.32-1.263.287-1.194.27-1.05.212-.856.18-.638v-.012l.113-.45.075-.313a.43.43 0 0 0 .007-.019l.025-.137-.013.012c.145-.144.16-.302.047-.472-.113-.17-.264-.217-.453-.14Z"/><path d="m1.883 19.503-.037.075a.402.402 0 0 0-.019.056l-.075.275a.383.383 0 0 0-.006.012l-.106.476a.26.26 0 0 0-.007.006l-.13.625a.33.33 0 0 0 0 .006l-.145.688-.137.694h-.006l-.132.662-.118.6a.513.513 0 0 0-.007.013l-.087.506a.4.4 0 0 0 .019.2l.087.269-.031.2c-.001.124.059.196.18.218.122.021.204-.026.245-.143l.037-.2.175-.219a.4.4 0 0 0 .088-.181l.094-.5.125-.594.006-.006.131-.663.138-.688.15-.687.131-.625.1-.475a.316.316 0 0 0 .006-.013l.044-.281h.006l.013-.081c.03-.218-.06-.36-.27-.424-.21-.065-.364.001-.462.199Z"/><path d="M1.315 21.822c0 .2.1.3.3.3.2 0 .3-.1.3-.3 0-.2-.1-.3-.3-.3-.2 0-.3.1-.3.3Zm-.113.012-.069.313a.458.458 0 0 0-.012.062l-.056.588a.52.52 0 0 0 0 .012l-.057.757v.019l-.025.812a.392.392 0 0 0 .007.05l.062.67-.05.512c-.016.175.063.27.238.287.175.017.27-.062.287-.237l.044-.513.181-.65a.387.387 0 0 0 .013-.044l.125-.806a.436.436 0 0 0 .006-.019l.081-.756v-.007l.057-.587a.456.456 0 0 0 0-.063l-.013-.325c.002-.253-.123-.391-.375-.414-.252-.023-.4.09-.444.34Z"/><path d="M1.358 25.997c0 .094.033.173.1.24a.325.325 0 0 0 .238.098.325.325 0 0 0 .239-.099.325.325 0 0 0 .098-.239.325.325 0 0 0-.098-.238.325.325 0 0 0-.24-.1.325.325 0 0 0-.238.1.325.325 0 0 0-.099.238Zm.182.37.043.018a.4.4 0 0 0 .088.025l.137.025a.43.43 0 0 0 .044.006l.269.025.413.044.593.063a.52.52 0 0 0 .025 0l.788.037.981.069 1.15.075a.52.52 0 0 0 .026 0l1.269.031h.031l1.35-.05h.019l1.357-.094h.012l1.263-.118 1.131-.082.994-.068.863-.05a.44.44 0 0 0 .05-.007l.706-.118.55.043c.171.017.265-.06.282-.231.016-.17-.06-.265-.232-.281l-.562-.05-.694-.213a.432.432 0 0 0-.075-.012l-.863-.1a.5.5 0 0 0-.044-.007l-1-.018h-.05l-1.138.075a1.451 1.451 0 0 0-.012.006l-1.263.106-1.344.106-1.319.038-1.256-.031-1.15-.025h-.007l-.981-.007-.782-.037H3.19l-.594-.013h-.019l-.419.007a.26.26 0 0 0-.012 0l-.275.006a.458.458 0 0 0-.063.012l-.13.025-.045.007c-.197.032-.308.147-.333.346-.024.199.056.337.24.416Z"/><path d="M13.492 25.691c0 .11.039.205.117.283a.385.385 0 0 0 .283.117c.11 0 .205-.039.283-.117a.385.385 0 0 0 .117-.283.388.388 0 0 0-.117-.283.385.385 0 0 0-.283-.117.385.385 0 0 0-.283.117.386.386 0 0 0-.117.283Zm.3.394.056.031c.056.026.114.04.175.044l.244.019a.525.525 0 0 0 .081 0l.4-.025a.48.48 0 0 0 .032-.006l.556-.07.681-.087.757-.087.781-.081a.45.45 0 0 0 .088-.02l.669-.2.575-.018c.179-.004.266-.096.262-.275-.004-.18-.096-.267-.275-.263l-.581.02-.688-.15a.453.453 0 0 0-.1-.007l-.794.006h-.006l-.763.019a.52.52 0 0 0-.025 0l-.687.056h-.032l-.556.069a.26.26 0 0 0-.012 0l-.394.056a.542.542 0 0 0-.094.025l-.237.075a.487.487 0 0 0-.1.05l-.088.056-.031.02a.383.383 0 0 0-.187.405.383.383 0 0 0 .293.338Z"/><path d="M18.512 25.272c0 .102.036.19.108.261a.355.355 0 0 0 .26.108.355.355 0 0 0 .261-.108.355.355 0 0 0 .108-.26.355.355 0 0 0-.108-.261.355.355 0 0 0-.26-.108.355.355 0 0 0-.261.108.355.355 0 0 0-.108.26Zm.087-.293-.044.037a.422.422 0 0 0-.075.1l-.068.119a.459.459 0 0 0-.05.125l-.057.225a.481.481 0 0 0-.006.194l.05.281c.009.06.027.116.056.169l.17.294a.522.522 0 0 0 .124.143l.319.257c.03.026.064.05.1.069l.425.212c.02.01.041.018.063.025l.493.169a.536.536 0 0 0 .12.025l.568.062a.513.513 0 0 0 .144-.006l.587-.1a.416.416 0 0 0 .094-.025l.463-.194.394-.081c.165-.044.23-.149.194-.316-.036-.168-.138-.237-.307-.21l-.369.082-.469-.081h-.006l-.587-.088-.513-.093-.425-.144-.35-.181-.238-.17-.1-.13-.031-.107.006-.156v-.131l.006-.032a.374.374 0 0 0-.22-.41.374.374 0 0 0-.46.067Z"/><path d="m23.4 25.054-.056.056a.388.388 0 0 0-.113.262l-.012.138a.59.59 0 0 0 0 .019v.187a.59.59 0 0 0 0 .019l.006.2.006.188v.093l-.006.044v.019a.38.38 0 0 0 .06.296.38.38 0 0 0 .253.166.38.38 0 0 0 .295-.06.38.38 0 0 0 .167-.252l.006-.013a.4.4 0 0 0-.018.07l.006-.032a.404.404 0 0 0 .025-.088l.006-.025a.378.378 0 0 0-.129-.353.378.378 0 0 0-.365-.09l-.05.012a.403.403 0 0 0-.15.069l-.119.087-.162.12-.188.118-.162.1-.138.05-.087.019-.056-.007-.07-.018a.432.432 0 0 0 .182.093l-.062-.05c.024.09.072.166.143.225l-.012-.05a.43.43 0 0 0-.038.32l.032-.05a.43.43 0 0 0-.232.206l.075-.032.113-.037.175-.05a.47.47 0 0 0 .05-.019l.212-.088a.425.425 0 0 0 .25-.268l.007-.02.075-.03c.158-.067.204-.18.137-.338-.067-.158-.179-.204-.337-.138l-.05.026a.426.426 0 0 0-.35-.07l-.22.05c-.003.003-.008.005-.012.007l-.187.044a.497.497 0 0 0-.032.012l-.13.044a.457.457 0 0 0-.17.094l-.068.062a.438.438 0 0 0-.12.182l-.018.056a.435.435 0 0 0-.019.25l.013.05a.432.432 0 0 0 .163.25l.062.05c.05.04.107.067.169.081l.106.025a.436.436 0 0 0 .088.006l.143.007a.44.44 0 0 0 .113-.013l.181-.044a.438.438 0 0 0 .063-.018l.206-.081a.428.428 0 0 0 .069-.038l.2-.131a.388.388 0 0 0 .025-.013l.194-.15a.292.292 0 0 0 .012-.006l.169-.138.081-.068.013-.007a.379.379 0 0 0-.215-.304.379.379 0 0 0-.373.004l.006.025a.392.392 0 0 0 .025-.212l-.012.031a.392.392 0 0 0-.025.231l.006.013c.038.2.16.307.364.32.205.01.337-.081.399-.276l.012-.025.025-.082a.405.405 0 0 0 .013-.075l.012-.137a.41.41 0 0 0 .006-.056l-.006-.188-.006-.194v-.187a.59.59 0 0 0 0-.02l-.013-.137a.391.391 0 0 0-.08-.225l-.05-.062a.317.317 0 0 0-.244-.13.317.317 0 0 0-.257.099Z"/><path d="M23.313 25.679c0 .1.035.185.106.256a.35.35 0 0 0 .256.106.35.35 0 0 0 .256-.106.35.35 0 0 0 .107-.256.35.35 0 0 0-.107-.257.35.35 0 0 0-.256-.106.35.35 0 0 0-.256.106.35.35 0 0 0-.107.257Zm.156.35.075.05a.454.454 0 0 0 .069.037l.18.075a.523.523 0 0 0 .132.038l.369.05a.562.562 0 0 0 .069 0l.619.012a.59.59 0 0 0 .018 0l.844-.018 1.038.006 1.181.056 1.332.1 1.388.125 1.394.15h.006l1.369.138a.52.52 0 0 0 .025 0l1.313.075h.018l1.207.025a.26.26 0 0 0 .012 0h1.057a.496.496 0 0 0 .044-.006l.85-.07a.426.426 0 0 0 .1-.018l.55-.188.388-.03c.175-.013.256-.107.243-.282-.012-.175-.106-.256-.28-.244l-.382.031-.57-.125a.441.441 0 0 0-.068-.006l-.856-.038h-.007l-1.043-.024-1.176-.1-1.3-.15-1.369-.163-1.394-.163h-.006l-1.4-.143a.59.59 0 0 0-.02-.007l-1.343-.1h-.019l-1.2-.056a.52.52 0 0 0-.025 0l-1.063-.006h-.025l-.85.031a.559.559 0 0 0-.031.006l-.62.057h-.018l-.369.05a.51.51 0 0 0-.069.018l-.168.044-.07.013a.381.381 0 0 0-.327.324.38.38 0 0 0 .178.426ZM35.377 5.8c0 .212.106.319.319.319.212 0 .319-.107.319-.32 0-.212-.107-.318-.32-.318-.212 0-.318.106-.318.319Zm-.1-.006c0 .114.04.21.12.291.081.08.179.121.293.121.114 0 .21-.04.291-.12a.401.401 0 0 0 .121-.292.398.398 0 0 0-.12-.292.398.398 0 0 0-.292-.12.398.398 0 0 0-.292.12.398.398 0 0 0-.12.292Zm-.056-.013c0 .13.046.24.137.332a.452.452 0 0 0 .332.137.45.45 0 0 0 .331-.137.452.452 0 0 0 .137-.332c0-.13-.045-.24-.137-.331a.452.452 0 0 0-.331-.138c-.13 0-.24.046-.332.138a.452.452 0 0 0-.137.331Zm-.069.156.006.025a.59.59 0 0 0 .425.425l.132.038c.034.011.07.02.106.025l.256.025a.58.58 0 0 0 .138.006l.344-.037a.62.62 0 0 0 .087-.013l.375-.094a.536.536 0 0 0 .081-.03l.344-.145a.44.44 0 0 0 .138-.093l.168-.17.2-.062c.167-.054.223-.164.17-.33-.055-.168-.165-.224-.332-.17l-.181.057-.213-.063a.441.441 0 0 0-.075-.012l-.362-.038-.37-.056a.615.615 0 0 0-.03-.006l-.344-.038a.64.64 0 0 0-.007 0l-.256-.019a.645.645 0 0 0-.062 0h-.138a.6.6 0 0 0-.462.213l-.02.019a.541.541 0 0 0-.118.543Z"/><path d="m37.865 5.862.044-.068c.003-.209-.096-.341-.297-.398-.2-.056-.354.005-.46.185l-.006.3V5.9l.013.387a.26.26 0 0 0 0 .013l.037.575v.006l.069.775.056 1 .007.032.143 1.219a.26.26 0 0 0 0 .012l.194 1.388.206 1.457v.006l.22 1.425v.006l.218 1.357v.006l.225 1.282v.006l.225 1.175v.006l.219 1.026v.006l.194.894v.006l.187.775v.013l.175.675.15.569.1.481.075.431.075.407v.006l.069.381.056.32v.012l.05.256.032.206.03.169.007.181v.006l.013.182.006.312a.26.26 0 0 0 0 .013l.006.131v.381c0 .05.009.098.025.144l.012.032v.006l-.006.087v.063-.006l-.006.012-.006.012-.013.02a.379.379 0 0 0 .088-.088l-.019.018-.025.013h-.006l-.038.019c-.185.114-.235.272-.15.472.085.2.233.275.444.222l.05-.013a.385.385 0 0 0 .038-.019l.056-.025a.398.398 0 0 0 .05-.03l.044-.032a.386.386 0 0 0 .05-.044l.043-.037a.377.377 0 0 0 .025-.032l.038-.043a.405.405 0 0 0 .037-.05l.025-.05a.394.394 0 0 0 .038-.082l.019-.069h.006l.019-.08a.412.412 0 0 0 .012-.05l.019-.1a.416.416 0 0 0 .006-.07v-.024l.013-.032a.454.454 0 0 0 .025-.144v-.125a.26.26 0 0 0 0-.012v-.276l-.007-.13-.006-.32a.52.52 0 0 0 0-.024l-.012-.194-.02-.206a.162.162 0 0 0 0-.044l-.03-.194-.007-.006-.037-.213-.05-.262-.056-.319v-.006l-.07-.375-.062-.413a.292.292 0 0 0-.006-.012l-.081-.432v-.006l-.1-.5v-.006l-.119-.582-.138-.681a.41.41 0 0 0-.006-.019l-.175-.769-.187-.881-.175-1.02-.188-1.174v-.007l-.212-1.281-.22-1.35-.206-1.42-.193-1.456-.194-1.388v-.006l-.181-1.213a.552.552 0 0 0-.007-.03l-.2-.976-.118-.756-.057-.55-.025-.37-.006-.287c-.106-.18-.26-.241-.46-.185-.2.057-.3.189-.296.398l.043.068a.342.342 0 0 0 .307.169.342.342 0 0 0 .306-.169Zm2.338 20.473-.031.019c-.15.092-.179.212-.087.362.091.15.212.179.362.088l.031-.019c.15-.092.179-.212.087-.362-.091-.15-.212-.18-.362-.088Zm-.832.044h-.012a.316.316 0 0 0-.019-.007l-.037-.012a.395.395 0 0 0-.075-.019l-.056-.006a.381.381 0 0 0-.044-.006h-.107c-.22.057-.319.198-.293.425.026.227.153.344.381.35h.006a.39.39 0 0 0-.15.006l.075.013a.4.4 0 0 0 .044 0l.162.006a.363.363 0 0 0 .25-.088l.026-.025h.075c.166.004.251-.077.256-.243.004-.167-.077-.252-.244-.257l-.069-.006-.025-.025a.369.369 0 0 0-.181-.1l-.156-.031h-.006l-.075-.019a.41.41 0 0 0 .018.006h-.006c-.228.006-.355.123-.381.35-.026.227.072.369.293.425h.119a.396.396 0 0 0 .038.007h.037a.385.385 0 0 0 .144-.032h.012a.351.351 0 0 0 .246-.356.351.351 0 0 0-.245-.356Z"/><path d="M38.209 26.854c0 .1.035.185.106.256a.35.35 0 0 0 .257.106.35.35 0 0 0 .256-.106.35.35 0 0 0 .106-.256.35.35 0 0 0-.106-.256.35.35 0 0 0-.257-.107.35.35 0 0 0-.256.107.35.35 0 0 0-.106.256Zm.3-.375h-.013a.39.39 0 0 0 .2.019h-.012a.383.383 0 0 0-.069-.02l-.019-.006a.377.377 0 0 0-.322.086.376.376 0 0 0-.141.302c0 .123.047.224.141.302a.376.376 0 0 0 .322.086l.02-.007a.383.383 0 0 0 .068-.018h.013a.384.384 0 0 0 .13-.082l.007-.012c.133-.13.158-.278.075-.444-.083-.166-.216-.235-.4-.206Zm-.425.387a.41.41 0 0 0 .124.3.41.41 0 0 0 .301.125.41.41 0 0 0 .3-.124.41.41 0 0 0 .125-.3.41.41 0 0 0-.124-.301.41.41 0 0 0-.301-.125.41.41 0 0 0-.3.125.41.41 0 0 0-.125.3Zm-.056.02c0 .127.045.236.135.326.09.09.2.136.327.136a.446.446 0 0 0 .327-.136c.09-.09.136-.2.136-.327a.446.446 0 0 0-.136-.327.446.446 0 0 0-.327-.136.446.446 0 0 0-.327.136c-.09.09-.135.2-.135.327Zm.006-.22-.031.044a.538.538 0 0 0-.063.181l-.012.07a.568.568 0 0 0 .087.424l.075.113a.61.61 0 0 0 .138.143l.162.12a.62.62 0 0 0 .144.08l.244.094c.094.04.192.054.294.044l.287-.037a.522.522 0 0 0 .175-.05l.282-.138a.385.385 0 0 0 .062-.038l.188-.143.187-.056c.133-.061.18-.162.14-.303-.04-.141-.132-.203-.278-.185l-.175.05-.18-.05-.245-.088-.23-.118a.595.595 0 0 0-.038-.02l-.2-.087-.113-.075-.1-.062-.05-.038c.04.068.092.124.156.17l-.031-.045a.505.505 0 0 0-.438-.245.505.505 0 0 0-.437.245Z"/><path d="M37.69 26.991c0 .106.037.195.112.27a.367.367 0 0 0 .27.112.367.367 0 0 0 .269-.112.367.367 0 0 0 .112-.27.367.367 0 0 0-.112-.27.367.367 0 0 0-.27-.111.367.367 0 0 0-.27.112.367.367 0 0 0-.11.27Zm.156-.318-.018.012a.41.41 0 0 0 .05-.031l-.038.019a.428.428 0 0 0-.187.168l-.032.057a.44.44 0 0 0-.05.118l-.012.05a.454.454 0 0 0-.019.138l.006.05a.49.49 0 0 0 .113.294l.069.081a.553.553 0 0 0 .243.169l.188.069c.04.014.082.025.125.03l.281.032a.59.59 0 0 0 .075.006h.35a.537.537 0 0 0 .025-.006l.4-.019h.038l.419-.044a.587.587 0 0 0 .081-.012l.369-.087.306-.075a.26.26 0 0 0 .013 0l.237-.063a.528.528 0 0 0 .05-.019l.157-.056a.547.547 0 0 0 .093-.044l.075-.05a.539.539 0 0 0 .144-.125l.031-.037a.537.537 0 0 0 .107-.25l.006-.032a.513.513 0 0 0-.175-.493l-.013-.013a.525.525 0 0 0-.306-.138h-.025a.52.52 0 0 0-.375.1l-.019.02c-.23.178-.28.398-.149.658.132.26.337.351.618.273l.025-.006a.523.523 0 0 0-.356-.02l.025.013a.515.515 0 0 0-.307-.319l.007.02a.533.533 0 0 0-.02-.307l-.005.031a.536.536 0 0 0 .125-.238l-.032.038a.54.54 0 0 0 .144-.119l-.044.025-.087.032-.188.05-.243.043-.344.007h-.019l-.419.025-.381.012h-.319l-.269-.012h-.05l-.194.006c-.04 0-.08.004-.118.012l-.063.013-.006.006a.439.439 0 0 0 .155.32.44.44 0 0 0 .339.111l-.007-.056a.443.443 0 0 0-.006.113l.013-.063a.436.436 0 0 0 .006-.137v-.044a.37.37 0 0 0-.217-.332.369.369 0 0 0-.396.026Zm2.682.237a.38.38 0 0 0 .116.279.38.38 0 0 0 .278.115.38.38 0 0 0 .278-.115.38.38 0 0 0 .116-.279.38.38 0 0 0-.116-.278.38.38 0 0 0-.278-.116.38.38 0 0 0-.278.116.38.38 0 0 0-.116.278Zm.094-.044c0 .192.096.288.287.288.192 0 .288-.096.288-.288 0-.191-.096-.287-.288-.287-.191 0-.287.096-.287.287Zm.487-.08-.006-.05c-.016-.143-.096-.205-.237-.189-.142.017-.205.096-.188.238l.006.05c.017.142.096.204.238.187.141-.016.204-.095.188-.237Zm-21.91-2.351c0 .184.092.275.275.275.183 0 .275-.091.275-.275 0-.183-.092-.275-.275-.275-.183 0-.275.092-.275.275Zm-.106.007-.025.143-.038.225a.378.378 0 0 0 .044.25l.063.113-.026.169c-.02.146.042.229.188.25.146.02.23-.042.25-.188l.025-.156.094-.094a.377.377 0 0 0 .125-.219l.037-.23v-.02l.02-.143a.367.367 0 0 0-.076-.282.367.367 0 0 0-.253-.147.368.368 0 0 0-.282.076.368.368 0 0 0-.146.253Z"/><path d="m19.674 24.935.031-.037a.391.391 0 0 0 .088-.219l.006-.131.013-.131v-.026l.006-.087c-.083-.197-.23-.277-.44-.24-.21.038-.32.164-.329.378l.006.012a.4.4 0 0 0-.031-.113l.019.15.018.257.013.294a.381.381 0 0 0 .05.18l.088.145v.131c0 .175.087.262.262.262.175 0 .263-.087.263-.262v-.15l.075-.156a.382.382 0 0 0 .037-.17v-.324l-.012-.263-.013-.162a.395.395 0 0 0-.056-.175l-.013-.013a.368.368 0 0 0-.422-.172.368.368 0 0 0-.309.335l-.012.087a.26.26 0 0 0 0 .013l-.013.137v.025l-.006.131a.38.38 0 0 0 .044.188l.024.044c.06.12.156.188.29.201a.341.341 0 0 0 .323-.139ZM23.3 23.86c0 .1.035.186.106.257a.35.35 0 0 0 .256.106.35.35 0 0 0 .257-.106.35.35 0 0 0 .106-.257.35.35 0 0 0-.106-.256.35.35 0 0 0-.257-.106.35.35 0 0 0-.256.106.35.35 0 0 0-.106.256Zm-.013.069.007.038.012.087.025.206.025.325.037.357.032.312.012.206c.001.02.003.038.006.057l.02.069c.05.197.178.292.381.285.204-.007.325-.11.362-.31l.013-.088a.381.381 0 0 0 .006-.044l.006-.225a.26.26 0 0 0 0-.012v-.525a.379.379 0 0 0-.006-.07l-.019-.093c-.034-.205-.155-.313-.363-.323-.208-.01-.339.085-.393.285l-.031.107a.378.378 0 0 0 .018.25l.07.169-.026.262c-.012.171.067.263.238.275.17.013.262-.067.275-.237l.018-.25.1-.138a.384.384 0 0 0 .05-.112l.032-.1c-.04-.197-.16-.3-.36-.31-.201-.01-.331.08-.39.272l.012.063.012.206v.462l-.012.063c.038.208.163.313.375.313s.337-.105.375-.313l-.006-.05-.013-.188-.006-.312a.26.26 0 0 0 0-.013l-.012-.356a.59.59 0 0 0 0-.019l-.038-.325a.39.39 0 0 0 0-.037l-.044-.22a.389.389 0 0 0-.012-.043l-.031-.1a.397.397 0 0 0-.025-.062l-.013-.032c-.096-.203-.25-.27-.465-.2-.213.071-.298.217-.254.438Z"/><path d="M19.561 23.698c0 .103.037.192.11.265.074.073.162.11.265.11a.361.361 0 0 0 .266-.11.361.361 0 0 0 .11-.265.361.361 0 0 0-.11-.265.361.361 0 0 0-.266-.11.361.361 0 0 0-.265.11.361.361 0 0 0-.11.265Zm-.006-.088-.006.013a.395.395 0 0 0-.006.106v.056l-.006.119-.013.194-.025.219-.031.2-.025.162a.374.374 0 0 0 .067.285.374.374 0 0 0 .247.157.374.374 0 0 0 .286-.061.373.373 0 0 0 .162-.243l.032-.163.043-.206a.41.41 0 0 0 .007-.019l.037-.231v-.019l.025-.206v-.031l.006-.144a.408.408 0 0 0-.006-.056l-.006-.076a.375.375 0 0 0-.231-.325h-.013a.376.376 0 0 0-.335.007.376.376 0 0 0-.209.262Z"/><path d="M20.405 24.023c0 .107.038.198.114.274a.373.373 0 0 0 .274.113.373.373 0 0 0 .274-.113.373.373 0 0 0 .114-.274.373.373 0 0 0-.114-.274.373.373 0 0 0-.274-.114.373.373 0 0 0-.274.114.374.374 0 0 0-.114.274Zm.125-.294-.012.006a.368.368 0 0 0-.025.025l-.037.038a.425.425 0 0 0-.12.262l-.012.144a.44.44 0 0 0 0 .056l.006.206v.05l.038.238c.002.025.006.05.012.075l.057.181.025.144a.39.39 0 0 0 .018.063l.032.081c.091.205.245.277.461.214.216-.062.308-.204.276-.427l-.012-.05v-.343l-.006-.244a.26.26 0 0 0 0-.013l-.007-.206a.52.52 0 0 0 0-.025l-.012-.144a.436.436 0 0 0-.031-.112l-.02-.05a.448.448 0 0 0 .02.062v-.019a.37.37 0 0 0-.264-.294.37.37 0 0 0-.387.082Zm.594 1.594.007-.012c.05-.144.007-.25-.128-.32-.136-.07-.247-.043-.335.082l-.006.012c-.05.144-.008.25.128.32.135.07.247.042.334-.082Z"/><path d="M20.574 24.817v.006c0 .038.007.076.019.112l.012.044a.392.392 0 0 0 .125.188l.088.068a.397.397 0 0 0 .131.076l.175.056c.035.01.07.017.107.018l.25.013a.405.405 0 0 0 .056 0l.275-.025a.385.385 0 0 0 .212-.081l.12-.094.137-.025c.141-.045.201-.141.18-.288-.022-.147-.107-.222-.255-.225l-.132.02-.13-.063a.39.39 0 0 0-.182-.032l-.263.013-.175-.013-.069-.018-.03-.025c.028.05.065.091.112.125l-.025-.038a.37.37 0 0 0-.338-.206h-.006a.373.373 0 0 0-.28.113.373.373 0 0 0-.114.28Z"/><path d="M21.312 24.81a.38.38 0 0 0 .115.279.38.38 0 0 0 .279.115.38.38 0 0 0 .278-.115.38.38 0 0 0 .115-.279.38.38 0 0 0-.115-.278.38.38 0 0 0-.278-.116.38.38 0 0 0-.279.116.38.38 0 0 0-.115.278Zm-.013 0c0 .11.04.205.118.283a.385.385 0 0 0 .282.117c.11 0 .205-.039.283-.117a.385.385 0 0 0 .117-.283.385.385 0 0 0-.117-.282.385.385 0 0 0-.283-.118.385.385 0 0 0-.282.117.385.385 0 0 0-.118.283Zm.188.363.037.025c.07.04.145.058.226.056l.1-.006a.42.42 0 0 0 .143-.025l.15-.063a.378.378 0 0 0 .188-.15l.006-.018.05-.013c.17-.042.235-.148.194-.319-.042-.17-.148-.235-.319-.194l-.038.013-.012-.006a.381.381 0 0 0-.181-.063l-.163-.012h-.018l-.082-.006h-.018c-.22-.017-.366.079-.436.288-.07.21-.013.374.173.493ZM3.753 15.558h-.007a.39.39 0 0 0-.237-.006l-.019.006a.412.412 0 0 0-.187.113l-.05.05a.436.436 0 0 0-.07.087l-.087.156a.482.482 0 0 0-.037.088l-.3.925a.633.633 0 0 0-.013.025l-.225.825a.32.32 0 0 0 0 .006l-.281 1.1-.331 1.301-.007.006-.343 1.4a.613.613 0 0 0-.007.038l-.25 1.375a.519.519 0 0 0-.006.019l-.163 1.213-.13.937a.4.4 0 0 0-.007.07l.025.63-.056.382c-.025.175.05.275.225.3.175.025.275-.05.3-.225l.05-.375.225-.582a.402.402 0 0 0 .019-.05l.218-.912.325-1.17.4-1.33a.593.593 0 0 0 .007-.026l.356-1.4.325-1.3a.52.52 0 0 0 .006-.013l.25-1.106a.485.485 0 0 0 .007-.013l.175-.831a.574.574 0 0 0 .006-.044l.131-.956a.48.48 0 0 0 .006-.05l.007-.138v-.018l.006-.013a.391.391 0 0 0-.006-.238v-.006a.374.374 0 0 0-.25-.25Z"/><path d="M2.39 20.284c0 .093.033.173.099.239a.325.325 0 0 0 .239.099.325.325 0 0 0 .238-.1.325.325 0 0 0 .1-.238.325.325 0 0 0-.1-.239.325.325 0 0 0-.238-.099.325.325 0 0 0-.24.1.325.325 0 0 0-.098.238Zm-.05-.094-.05.138-.1.281a.47.47 0 0 0-.013.044l-.112.45a.52.52 0 0 0 0 .012l-.131.594-.15.688-.163.744-.156.731v.006l-.138.65a.64.64 0 0 0 0 .007l-.106.544a.64.64 0 0 0 0 .006l-.075.394v.012l-.044.27a.404.404 0 0 0-.006.012l-.013.13-.012.05a.471.471 0 0 0 .131-.25l-.006.007a.456.456 0 0 0 .355.263.456.456 0 0 0 .42-.138l-.006-.012a.33.33 0 0 0 0-.007l-.013-.012a.466.466 0 0 0-.26-.23.466.466 0 0 0-.35.005.466.466 0 0 0-.252.24.466.466 0 0 0-.025.347v.007a.48.48 0 0 0-.02-.113v.031c.001.026.003.05.007.075l.006.038a.477.477 0 0 0 .013.05l.012.037.013.044a.479.479 0 0 0-.019-.144v.038a.495.495 0 0 0 .038.213l.018.043a.51.51 0 0 0 .157.207l.062.05a.526.526 0 0 0 .275.112l.138.019a.442.442 0 0 0 .482-.273.442.442 0 0 0-.095-.546l-.093-.1a.53.53 0 0 0-.138-.1l-.075-.038a.572.572 0 0 0-.031-.012l-.044-.019c.03.02.06.037.094.05l-.031-.019a.469.469 0 0 0 .187.25l-.012-.037-.007-.013v-.012c0 .03.002.058.007.087v-.031a.48.48 0 0 0-.02.113v-.007a.443.443 0 0 0-.473-.279.443.443 0 0 0-.426.348l.006.013a.56.56 0 0 0 .006.012l.006.013a.456.456 0 0 0 .356.262.456.456 0 0 0 .42-.137l.006-.007a.47.47 0 0 0 .131-.25l.013-.062.03-.15v-.013l.045-.262.075-.388.106-.537.137-.65.157-.726.162-.744.15-.687a.64.64 0 0 0 0-.006l.12-.6a.56.56 0 0 0 .005-.013l.075-.463a.472.472 0 0 0 .007-.043l.018-.3v-.025l.007-.15c-.005-.225-.118-.356-.34-.392-.221-.037-.37.05-.448.26Zm-.438 6.533.17.062c.157.037.263-.021.32-.173.055-.152.01-.265-.133-.34l-.17-.062c-.157-.036-.263.022-.319.174-.056.152-.011.265.132.339Zm2.576-3.82h-.006a.372.372 0 0 0-.257.338l-.006.069a.4.4 0 0 0-.006.037v.138l-.006.237-.025.325-.025.338a.377.377 0 0 0 .018.15l.063.181-.025.144c-.025.17.048.269.219.294.17.025.268-.048.293-.22l.02-.15.112-.162a.376.376 0 0 0 .062-.156l.05-.325v-.031l.025-.332a.32.32 0 0 0 0-.006l.019-.256a.4.4 0 0 0 0-.025v-.181c.016-.2-.07-.335-.256-.407H4.74a.371.371 0 0 0-.262 0Z"/><path d="M4.51 24.791a.34.34 0 0 0 .104.252c.07.07.153.105.252.105a.343.343 0 0 0 .251-.105.343.343 0 0 0 .105-.252.343.343 0 0 0-.105-.252.343.343 0 0 0-.251-.104.343.343 0 0 0-.252.104.343.343 0 0 0-.105.252Zm-.045-.044-.006.038a.406.406 0 0 0-.006.062v.05c.003.14.061.25.175.332l.094.069a.417.417 0 0 0 .144.068l.225.056a.35.35 0 0 0 .056.013l.406.05h.031l.582.025a.412.412 0 0 0 .112-.006l.65-.157h.644c.154 0 .232-.077.232-.23 0-.155-.078-.232-.232-.232h-.637l-.638-.188a.412.412 0 0 0-.094-.012l-.562-.025-.357-.044-.137-.044-.05-.03a.412.412 0 0 0 .144.162l-.02-.05c.006.046.018.09.038.13l-.006-.037c-.04-.22-.17-.33-.394-.33-.223 0-.354.11-.394.33Z"/><path d="M7.522 25.097c0 .107.038.199.114.274a.373.373 0 0 0 .274.114.373.373 0 0 0 .274-.113.373.373 0 0 0 .113-.275.373.373 0 0 0-.113-.274.373.373 0 0 0-.274-.113.373.373 0 0 0-.274.113.373.373 0 0 0-.114.274Zm.131.3.044.038a.4.4 0 0 0 .113.069l.156.062a.42.42 0 0 0 .1.025l.313.044c.02.002.041.002.062 0h.463a.432.432 0 0 0 .037-.006l.638-.063h.019l.775-.125h.006l.85-.143a.586.586 0 0 0 .019-.007l.869-.187a.413.413 0 0 0 .031-.007l.825-.243a.396.396 0 0 0 .075-.032l.625-.337.538-.169c.123-.057.164-.15.123-.28-.04-.128-.127-.181-.26-.158l-.532.163-.706.044a.404.404 0 0 0-.063.012l-.837.194-.857.188-.831.15-.763.1-.613.062-.418.006-.263-.03-.1-.026-.019-.006c-.212-.107-.382-.06-.51.141-.127.201-.096.375.091.521Z"/><path d="m12.986 24.585.012.031c.054.147.156.24.307.281l.187.044a.493.493 0 0 0 .088.019l.368.025.538.05.638.063.744.118.806.15a.484.484 0 0 0 .012.006l.826.132a.534.534 0 0 0 .093.006l.77-.006a.443.443 0 0 0 .093-.013l.563-.131.431.019c.17.008.26-.073.269-.244.008-.17-.073-.26-.244-.269l-.431-.019-.525-.2a.44.44 0 0 0-.063-.018l-.75-.17a.538.538 0 0 0-.031-.005l-.82-.138-.818-.15h-.006l-.757-.131a.473.473 0 0 0-.037-.006l-.657-.07h-.03l-.545-.024a.543.543 0 0 0-.062 0l-.375.025a.502.502 0 0 0-.088.018l-.187.044a.434.434 0 0 0-.275.213l-.02.031a.364.364 0 0 0-.024.319Zm10.595-.031-.006.012a.371.371 0 0 0-.1.306l.006.038a.343.343 0 0 0 .007.056l.012.05c.012.045.03.087.056.125l.05.075a.47.47 0 0 0 .288.2l.231.063a.523.523 0 0 0 .157.012l.468-.025h.013l.712-.044.963-.056a.26.26 0 0 0 .013 0l1.15-.087a.462.462 0 0 0 .044-.006l1.125-.194.981.012c.175.004.265-.081.269-.256.004-.175-.081-.265-.256-.269l-.988-.012-1.131-.194a.468.468 0 0 0-.063-.006l-1.15-.05h-.05l-.963.043a.26.26 0 0 0-.012 0l-.72.057h-.005l-.47.037h-.006l-.237.025a.485.485 0 0 0-.106.019l-.081.025a.412.412 0 0 0 .287.019l-.044-.025a.374.374 0 0 0 .225.28l-.006-.037a.38.38 0 0 0-.094-.18l-.006-.013a.366.366 0 0 0-.281-.124.366.366 0 0 0-.282.124Z"/><path d="M29.889 24.922c0 .106.037.196.112.27a.368.368 0 0 0 .27.112.368.368 0 0 0 .269-.112.368.368 0 0 0 .112-.27.368.368 0 0 0-.112-.27.367.367 0 0 0-.27-.11.367.367 0 0 0-.27.11.367.367 0 0 0-.111.27Zm.088.27.037.037c.03.032.063.06.1.081l.113.063a.457.457 0 0 0 .118.05l.263.062a.473.473 0 0 0 .037.006l.425.063h.007l.556.081.682.106h.018l.775.094.013.006.813.075.03.007.732.006.582.112c.166.03.264-.04.293-.206.029-.166-.04-.264-.206-.294l-.575-.106-.688-.25a.369.369 0 0 0-.043-.012l-.788-.194h-.006l-.77-.182a.26.26 0 0 0-.012 0l-.681-.13a.536.536 0 0 0-.025-.007l-.556-.081h-.02l-.424-.05a.473.473 0 0 0-.038-.007l-.269-.012a.452.452 0 0 0-.08.006l-.12.019h-.043c-.16.017-.27.1-.327.251a.367.367 0 0 0 .077.405Z"/><path d="m34.465 25.66.006.013a.35.35 0 0 0 .306.28l.138.026a.39.39 0 0 0 .038 0l.256.019a.377.377 0 0 0 .056 0l.369-.032a.377.377 0 0 0 .019-.006l.437-.05a.484.484 0 0 0 .013-.006l.456-.069.463-.062.462-.044.425-.031.363-.007a.36.36 0 0 0 .031-.006l.281-.031a.352.352 0 0 0 .22-.107l.068-.068.056-.013c.163-.041.223-.143.181-.306-.041-.163-.143-.223-.306-.181l-.037.012-.075-.031a.36.36 0 0 0-.157-.031h-.28l-.363.006h-.02l-.437.019h-.019l-.475.043h-.012l-.475.063-.013.006-.456.075-.425.05-.331.032-.22-.007-.124-.018a.354.354 0 0 0-.37.187l-.012.012a.325.325 0 0 0-.037.263Z"/><path d="M38.822 22.94a.36.36 0 0 0 .11.266.36.36 0 0 0 .265.11.361.361 0 0 0 .265-.11.361.361 0 0 0 .11-.265.361.361 0 0 0-.11-.265.362.362 0 0 0-.265-.11.361.361 0 0 0-.265.11.361.361 0 0 0-.11.265Zm.162-.324-.018.012a.381.381 0 0 0-.138.144l-.031.069a.387.387 0 0 0-.038.087l-.037.15a.397.397 0 0 0-.013.044l-.037.275a.423.423 0 0 0-.006.031l-.02.388v.025l.007.438c0 .038.007.076.019.112l.106.325.013.288c.008.17.098.251.268.243.17-.008.252-.098.244-.268l-.012-.27.106-.318a.383.383 0 0 0 .019-.1l.019-.431.03-.37.032-.243.025-.106.013-.05a.392.392 0 0 0-.032.075l.013-.019c.123-.175.109-.338-.042-.49-.152-.15-.315-.165-.49-.041Z"/></g><defs><clipPath id="a"><path fill="#fff" d="M0 0h42v28H0z"/></clipPath></defs></svg>